  0
SECTION
  2
HEADER
  9
$ACADVER
  1
AC1009
  9
$DWGCODEPAGE
  3
ansi_1252
  9
$INSBASE
 10
0.0
 20
0.0
 30
0.0
  9
$EXTMIN
 10
93.37306423573655
 20
7.62
 30
0.0
  9
$EXTMAX
 10
180.0380642357366
 20
77.46
 30
0.0
  9
$LIMMIN
 10
0.0
 20
0.0
  9
$LIMMAX
 10
12.0
 20
9.0
  9
$ORTHOMODE
 70
     0
  9
$REGENMODE
 70
     1
  9
$FILLMODE
 70
     1
  9
$QTEXTMODE
 70
     0
  9
$MIRRTEXT
 70
     1
  9
$DRAGMODE
 70
     2
  9
$LTSCALE
 40
1.0
  9
$OSMODE
 70
    37
  9
$ATTMODE
 70
     1
  9
$TEXTSIZE
 40
0.2
  9
$TRACEWID
 40
0.05
  9
$TEXTSTYLE
  7
STANDARD
  9
$CLAYER
  8
DEFAULT
  9
$CELTYPE
  6
BYLAYER
  9
$CECOLOR
 62
   256
  9
$DIMSCALE
 40
1.0
  9
$DIMASZ
 40
0.18
  9
$DIMEXO
 40
0.0625
  9
$DIMDLI
 40
0.38
  9
$DIMRND
 40
0.0
  9
$DIMDLE
 40
0.0
  9
$DIMEXE
 40
0.18
  9
$DIMTP
 40
0.0
  9
$DIMTM
 40
0.0
  9
$DIMTXT
 40
0.18
  9
$DIMCEN
 40
0.09
  9
$DIMTSZ
 40
0.0
  9
$DIMTOL
 70
     0
  9
$DIMLIM
 70
     0
  9
$DIMTIH
 70
     1
  9
$DIMTOH
 70
     1
  9
$DIMSE1
 70
     0
  9
$DIMSE2
 70
     0
  9
$DIMTAD
 70
     0
  9
$DIMZIN
 70
     0
  9
$DIMBLK
  1

  9
$DIMASO
 70
     1
  9
$DIMSHO
 70
     1
  9
$DIMPOST
  1

  9
$DIMAPOST
  1

  9
$DIMALT
 70
     0
  9
$DIMALTD
 70
     2
  9
$DIMALTF
 40
25.4
  9
$DIMLFAC
 40
1.0
  9
$DIMTOFL
 70
     0
  9
$DIMTVP
 40
0.0
  9
$DIMTIX
 70
     0
  9
$DIMSOXD
 70
     0
  9
$DIMSAH
 70
     0
  9
$DIMBLK1
  1

  9
$DIMBLK2
  1

  9
$DIMSTYLE
  2
STANDARD
  9
$DIMCLRD
 70
     0
  9
$DIMCLRE
 70
     0
  9
$DIMCLRT
 70
     0
  9
$DIMTFAC
 40
1.0
  9
$DIMGAP
 40
0.09
  9
$LUNITS
 70
     2
  9
$LUPREC
 70
     3
  9
$SKETCHINC
 40
0.1
  9
$FILLETRAD
 40
0.5
  9
$AUNITS
 70
     0
  9
$AUPREC
 70
     0
  9
$MENU
  1
.
  9
$ELEVATION
 40
0.0
  9
$PELEVATION
 40
0.0
  9
$THICKNESS
 40
0.0
  9
$LIMCHECK
 70
     0
  9
$CHAMFERA
 40
0.0
  9
$CHAMFERB
 40
0.0
  9
$SKPOLY
 70
     0
  9
$TDCREATE
 40
2458082.771728935
  9
$TDUPDATE
 40
2458082.772050486
  9
$TDINDWG
 40
0.0000000116
  9
$TDUSRTIMER
 40
0.0000000116
  9
$USRTIMER
 70
     1
  9
$ANGBASE
 50
0.0
  9
$ANGDIR
 70
     0
  9
$PDMODE
 70
     0
  9
$PDSIZE
 40
0.0
  9
$PLINEWID
 40
0.0
  9
$COORDS
 70
     1
  9
$SPLFRAME
 70
     0
  9
$SPLINETYPE
 70
     6
  9
$SPLINESEGS
 70
     8
  9
$ATTDIA
 70
     0
  9
$ATTREQ
 70
     1
  9
$HANDLING
 70
     1
  9
$HANDSEED
  5
646
  9
$SURFTAB1
 70
     6
  9
$SURFTAB2
 70
     6
  9
$SURFTYPE
 70
     6
  9
$SURFU
 70
     6
  9
$SURFV
 70
     6
  9
$UCSNAME
  2

  9
$UCSORG
 10
0.0
 20
0.0
 30
0.0
  9
$UCSXDIR
 10
1.0
 20
0.0
 30
0.0
  9
$UCSYDIR
 10
0.0
 20
1.0
 30
0.0
  9
$PUCSNAME
  2

  9
$PUCSORG
 10
0.0
 20
0.0
 30
0.0
  9
$PUCSXDIR
 10
1.0
 20
0.0
 30
0.0
  9
$PUCSYDIR
 10
0.0
 20
1.0
 30
0.0
  9
$USERI1
 70
     0
  9
$USERI2
 70
     0
  9
$USERI3
 70
     0
  9
$USERI4
 70
     0
  9
$USERI5
 70
     0
  9
$USERR1
 40
0.0
  9
$USERR2
 40
0.0
  9
$USERR3
 40
0.0
  9
$USERR4
 40
0.0
  9
$USERR5
 40
0.0
  9
$WORLDVIEW
 70
     1
  9
$SHADEDGE
 70
     3
  9
$SHADEDIF
 70
    70
  9
$TILEMODE
 70
     1
  9
$MAXACTVP
 70
    64
  9
$PLIMCHECK
 70
     0
  9
$PEXTMIN
 10
1.000000000000000E+20
 20
1.000000000000000E+20
 30
1.000000000000000E+20
  9
$PEXTMAX
 10
-1.000000000000000E+20
 20
-1.000000000000000E+20
 30
-1.000000000000000E+20
  9
$PLIMMIN
 10
0.0
 20
0.0
  9
$PLIMMAX
 10
12.0
 20
9.0
  9
$UNITMODE
 70
     0
  9
$VISRETAIN
 70
     1
  9
$PLINEGEN
 70
     0
  9
$PSLTSCALE
 70
     1
  0
ENDSEC
  0
SECTION
  2
TABLES
  0
TABLE
  2
VPORT
 70
     1
  0
VPORT
  2
*ACTIVE
 70
     0
 10
0.0
 20
0.0
 11
1.0
 21
1.0
 12
136.7055642357365
 22
42.53999999999998
 13
0.0
 23
0.0
 14
0.5
 24
0.5
 15
0.5
 25
0.5
 16
0.0
 26
0.0
 36
1.0
 17
0.0
 27
0.0
 37
0.0
 40
71.23679999999997
 41
1.240907789232532
 42
50.0
 43
0.0
 44
0.0
 50
0.0
 51
0.0
 71
     0
 72
   100
 73
     1
 74
     3
 75
     0
 76
     0
 77
     0
 78
     0
  0
ENDTAB
  0
TABLE
  2
LTYPE
 70
     1
  0
LTYPE
  2
CONTINUOUS
 70
     0
  3
Solid line
 72
    65
 73
     0
 40
0.0
  0
ENDTAB
  0
TABLE
  2
LAYER
 70
     4
  0
LAYER
  2
0
 70
     0
 62
     7
  6
CONTINUOUS
  0
LAYER
  2
20
 70
     0
 62
    30
  6
CONTINUOUS
  0
LAYER
  2
44
 70
     0
 62
     9
  6
CONTINUOUS
  0
LAYER
  2
DEFAULT
 70
     0
 62
     7
  6
CONTINUOUS
  0
ENDTAB
  0
TABLE
  2
STYLE
 70
     1
  0
STYLE
  2
STANDARD
 70
     0
 40
0.0
 41
1.0
 50
0.0
 71
     0
 42
0.2
  3
txt
  4

  0
ENDTAB
  0
TABLE
  2
VIEW
 70
     0
  0
ENDTAB
  0
TABLE
  2
UCS
 70
     0
  0
ENDTAB
  0
TABLE
  2
APPID
 70
     1
  0
APPID
  2
ACAD
 70
     0
  0
ENDTAB
  0
TABLE
  2
DIMSTYLE
 70
     1
  0
DIMSTYLE
  2
STANDARD
 70
     0
  3

  4

  5

  6

  7

 40
1.0
 41
0.18
 42
0.0625
 43
0.38
 44
0.18
 45
0.0
 46
0.0
 47
0.0
 48
0.0
140
0.18
141
0.09
142
0.0
143
25.4
144
1.0
145
0.0
146
1.0
147
0.09
 71
     0
 72
     0
 73
     1
 74
     1
 75
     0
 76
     0
 77
     0
 78
     0
170
     0
171
     2
172
     0
173
     0
174
     0
175
     0
176
     0
177
     0
178
     0
  0
ENDTAB
  0
ENDSEC
  0
SECTION
  2
BLOCKS
  0
BLOCK
  8
0
  2
$MODEL_SPACE
 70
     0
 10
0.0
 20
0.0
 30
0.0
  3
$MODEL_SPACE
  1

  0
ENDBLK
  5
21
  8
0
  0
BLOCK
 67
     1
  8
0
  2
$PAPER_SPACE
 70
     0
 10
0.0
 20
0.0
 30
0.0
  3
$PAPER_SPACE
  1

  0
ENDBLK
  5
1D
 67
     1
  8
0
  0
ENDSEC
  0
SECTION
  2
ENTITIES
  0
POLYLINE
  5
6B
  8
20
 66
     1
 10
0.0
 20
0.0
 30
0.0
  0
VERTEX
  5
6C
  8
20
 10
180.0380642357366
 20
7.62
 30
0.0
  0
VERTEX
  5
6D
  8
20
 10
93.37306423573655
 20
7.62
 30
0.0
  0
VERTEX
  5
6E
  8
20
 10
93.37306423573655
 20
77.46
 30
0.0
  0
VERTEX
  5
6F
  8
20
 10
180.0380642357366
 20
77.46
 30
0.0
  0
VERTEX
  5
70
  8
20
 10
180.0380642357366
 20
7.62
 30
0.0
  0
SEQEND
  5
71
  8
20
  0
CIRCLE
  5
73
  8
44
 10
172.4180642357366
 20
35.56
 30
0.0
 40
0.4
  0
CIRCLE
  5
74
  8
44
 10
169.8780642357366
 20
35.56
 30
0.0
 40
0.4
  0
CIRCLE
  5
75
  8
44
 10
167.3380642357366
 20
35.56
 30
0.0
 40
0.4
  0
CIRCLE
  5
76
  8
44
 10
164.7980642357365
 20
35.56
 30
0.0
 40
0.4
  0
CIRCLE
  5
77
  8
44
 10
162.2580642357366
 20
35.56
 30
0.0
 40
0.4
  0
CIRCLE
  5
78
  8
44
 10
157.1780642357365
 20
35.56
 30
0.0
 40
0.4
  0
CIRCLE
  5
79
  8
44
 10
154.6380642357366
 20
35.56
 30
0.0
 40
0.4
  0
CIRCLE
  5
7A
  8
44
 10
152.0980642357366
 20
35.56
 30
0.0
 40
0.4
  0
CIRCLE
  5
7B
  8
44
 10
149.5580642357366
 20
35.56
 30
0.0
 40
0.4
  0
CIRCLE
  5
7C
  8
44
 10
147.0180642357365
 20
35.56
 30
0.0
 40
0.4
  0
CIRCLE
  5
7D
  8
44
 10
144.4780642357366
 20
35.56
 30
0.0
 40
0.4
  0
CIRCLE
  5
7E
  8
44
 10
141.9380642357366
 20
35.56
 30
0.0
 40
0.4
  0
CIRCLE
  5
7F
  8
44
 10
139.3980642357366
 20
35.56
 30
0.0
 40
0.4
  0
CIRCLE
  5
80
  8
44
 10
136.8580642357365
 20
35.56
 30
0.0
 40
0.4
  0
CIRCLE
  5
81
  8
44
 10
136.8580642357365
 20
50.8
 30
0.0
 40
0.4
  0
CIRCLE
  5
82
  8
44
 10
139.3980642357366
 20
50.8
 30
0.0
 40
0.4
  0
CIRCLE
  5
83
  8
44
 10
141.9380642357366
 20
50.8
 30
0.0
 40
0.4
  0
CIRCLE
  5
84
  8
44
 10
144.4780642357366
 20
50.8
 30
0.0
 40
0.4
  0
CIRCLE
  5
85
  8
44
 10
147.0180642357365
 20
50.8
 30
0.0
 40
0.4
  0
CIRCLE
  5
86
  8
44
 10
149.5580642357366
 20
50.8
 30
0.0
 40
0.4
  0
CIRCLE
  5
87
  8
44
 10
152.0980642357366
 20
50.8
 30
0.0
 40
0.4
  0
CIRCLE
  5
88
  8
44
 10
154.6380642357366
 20
50.8
 30
0.0
 40
0.4
  0
CIRCLE
  5
89
  8
44
 10
157.1780642357365
 20
50.8
 30
0.0
 40
0.4
  0
CIRCLE
  5
8A
  8
44
 10
159.7180642357366
 20
50.8
 30
0.0
 40
0.4
  0
CIRCLE
  5
8B
  8
44
 10
162.2580642357366
 20
50.8
 30
0.0
 40
0.4
  0
CIRCLE
  5
8C
  8
44
 10
164.7980642357365
 20
50.8
 30
0.0
 40
0.4
  0
CIRCLE
  5
8D
  8
44
 10
167.3380642357366
 20
50.8
 30
0.0
 40
0.4
  0
CIRCLE
  5
8E
  8
44
 10
169.8780642357366
 20
50.8
 30
0.0
 40
0.4
  0
CIRCLE
  5
8F
  8
44
 10
172.4180642357366
 20
50.8
 30
0.0
 40
0.4
  0
CIRCLE
  5
90
  8
44
 10
158.4480642357366
 20
29.21
 30
0.0
 40
0.4064
  0
CIRCLE
  5
91
  8
44
 10
153.3680642357365
 20
29.21
 30
0.0
 40
0.4064
  0
CIRCLE
  5
92
  8
44
 10
123.5230642357366
 20
61.595
 30
0.0
 40
0.4064
  0
CIRCLE
  5
93
  8
44
 10
123.5230642357366
 20
56.515
 30
0.0
 40
0.4064
  0
CIRCLE
  5
94
  8
44
 10
131.1430642357365
 20
61.595
 30
0.0
 40
0.4064
  0
CIRCLE
  5
95
  8
44
 10
131.1430642357365
 20
56.515
 30
0.0
 40
0.4064
  0
CIRCLE
  5
96
  8
44
 10
115.9030642357366
 20
61.595
 30
0.0
 40
0.4064
  0
CIRCLE
  5
97
  8
44
 10
115.9030642357366
 20
56.515
 30
0.0
 40
0.4064
  0
CIRCLE
  5
98
  8
44
 10
114.6330642357366
 20
19.05
 30
0.0
 40
0.5588
  0
CIRCLE
  5
99
  8
44
 10
124.7930642357366
 20
19.05
 30
0.0
 40
0.5588
  0
CIRCLE
  5
9A
  8
44
 10
105.1080642357365
 20
26.67
 30
0.0
 40
0.5588
  0
CIRCLE
  5
9B
  8
44
 10
115.2680642357366
 20
26.67
 30
0.0
 40
0.5588
  0
CIRCLE
  5
9C
  8
44
 10
132.4130642357366
 20
18.415
 30
0.0
 40
0.5588
  0
CIRCLE
  5
9D
  8
44
 10
132.4130642357366
 20
28.575
 30
0.0
 40
0.5588
  0
CIRCLE
  5
9E
  8
44
 10
148.9230642357365
 20
25.4
 30
0.0
 40
0.5588
  0
CIRCLE
  5
9F
  8
44
 10
138.7630642357366
 20
25.4
 30
0.0
 40
0.5588
  0
CIRCLE
  5
A0
  8
44
 10
124.7930642357366
 20
15.24
 30
0.0
 40
0.5588
  0
CIRCLE
  5
A1
  8
44
 10
114.6330642357366
 20
15.24
 30
0.0
 40
0.5588
  0
CIRCLE
  5
A2
  8
44
 10
115.2680642357366
 20
23.495
 30
0.0
 40
0.5588
  0
CIRCLE
  5
A3
  8
44
 10
105.1080642357365
 20
23.495
 30
0.0
 40
0.5588
  0
CIRCLE
  5
A4
  8
44
 10
136.2230642357366
 20
28.575
 30
0.0
 40
0.5588
  0
CIRCLE
  5
A5
  8
44
 10
136.2230642357366
 20
18.415
 30
0.0
 40
0.5588
  0
CIRCLE
  5
A6
  8
44
 10
138.7630642357366
 20
28.575
 30
0.0
 40
0.5588
  0
CIRCLE
  5
A7
  8
44
 10
148.9230642357365
 20
28.575
 30
0.0
 40
0.5588
  0
CIRCLE
  5
A8
  8
44
 10
117.1730642357365
 20
52.07
 30
0.0
 40
0.6
  0
CIRCLE
  5
A9
  8
44
 10
112.0930642357366
 20
50.8
 30
0.0
 40
0.6
  0
CIRCLE
  5
AA
  8
44
 10
117.1730642357365
 20
49.53
 30
0.0
 40
0.6
  0
CIRCLE
  5
AB
  8
44
 10
112.0930642357366
 20
48.26
 30
0.0
 40
0.6
  0
CIRCLE
  5
AC
  8
44
 10
117.1730642357365
 20
46.99
 30
0.0
 40
0.6
  0
CIRCLE
  5
AD
  8
44
 10
112.0930642357366
 20
45.72
 30
0.0
 40
0.6
  0
CIRCLE
  5
AE
  8
44
 10
117.1730642357365
 20
44.45
 30
0.0
 40
0.6
  0
CIRCLE
  5
AF
  8
44
 10
112.0930642357366
 20
43.18
 30
0.0
 40
0.6
  0
CIRCLE
  5
B0
  8
44
 10
117.1730642357365
 20
41.91
 30
0.0
 40
0.6
  0
CIRCLE
  5
B1
  8
44
 10
112.0930642357366
 20
40.64
 30
0.0
 40
0.6
  0
CIRCLE
  5
B2
  8
44
 10
117.1730642357365
 20
39.37
 30
0.0
 40
0.6
  0
CIRCLE
  5
B3
  8
44
 10
112.0930642357366
 20
38.1
 30
0.0
 40
0.6
  0
CIRCLE
  5
B4
  8
44
 10
117.1730642357365
 20
36.83
 30
0.0
 40
0.6
  0
CIRCLE
  5
B5
  8
44
 10
112.0930642357366
 20
35.56
 30
0.0
 40
0.6
  0
CIRCLE
  5
B6
  8
44
 10
117.1730642357365
 20
34.29
 30
0.0
 40
0.6
  0
CIRCLE
  5
B7
  8
44
 10
174.9580642357365
 20
22.0472
 30
0.0
 40
0.6
  0
CIRCLE
  5
B8
  8
44
 10
174.9580642357365
 20
25.9028
 30
0.0
 40
0.6
  0
CIRCLE
  5
B9
  8
44
 10
136.6802642357366
 20
59.055
 30
0.0
 40
0.6
  0
CIRCLE
  5
BA
  8
44
 10
140.5358642357365
 20
59.055
 30
0.0
 40
0.6
  0
CIRCLE
  5
BB
  8
44
 10
110.3658642357366
 20
17.145
 30
0.0
 40
0.6
  0
CIRCLE
  5
BC
  8
44
 10
106.5102642357366
 20
17.145
 30
0.0
 40
0.6
  0
CIRCLE
  5
BD
  8
44
 10
144.9352642357366
 20
19.685
 30
0.0
 40
0.6
  0
CIRCLE
  5
BE
  8
44
 10
148.7908642357366
 20
19.685
 30
0.0
 40
0.6
  0
CIRCLE
  5
BF
  8
44
 10
112.0930642357366
 20
31.75
 30
0.0
 40
0.4064
  0
CIRCLE
  5
C0
  8
44
 10
122.2530642357366
 20
31.75
 30
0.0
 40
0.4064
  0
CIRCLE
  5
C1
  8
44
 10
152.0980642357366
 20
24.13
 30
0.0
 40
0.4064
  0
CIRCLE
  5
C2
  8
44
 10
159.7180642357366
 20
24.13
 30
0.0
 40
0.4064
  0
CIRCLE
  5
C3
  8
44
 10
121.6180642357366
 20
36.83
 30
0.0
 40
0.4064
  0
CIRCLE
  5
C4
  8
44
 10
121.6180642357366
 20
41.91
 30
0.0
 40
0.4064
  0
CIRCLE
  5
C5
  8
44
 10
169.8780642357366
 20
26.67
 30
0.0
 40
0.4064
  0
CIRCLE
  5
C6
  8
44
 10
162.2580642357366
 20
26.67
 30
0.0
 40
0.4064
  0
CIRCLE
  5
C7
  8
44
 10
169.8780642357366
 20
24.13
 30
0.0
 40
0.4064
  0
CIRCLE
  5
C8
  8
44
 10
162.2580642357366
 20
24.13
 30
0.0
 40
0.4064
  0
CIRCLE
  5
C9
  8
44
 10
172.4180642357366
 20
31.75
 30
0.0
 40
0.4064
  0
CIRCLE
  5
CA
  8
44
 10
164.7980642357365
 20
31.75
 30
0.0
 40
0.4064
  0
CIRCLE
  5
CB
  8
44
 10
172.4180642357366
 20
29.21
 30
0.0
 40
0.4064
  0
CIRCLE
  5
CC
  8
44
 10
164.7980642357365
 20
29.21
 30
0.0
 40
0.4064
  0
CIRCLE
  5
CD
  8
44
 10
130.5080642357366
 20
50.165
 30
0.0
 40
0.4064
  0
CIRCLE
  5
CE
  8
44
 10
130.5080642357366
 20
42.545
 30
0.0
 40
0.4064
  0
CIRCLE
  5
CF
  8
44
 10
127.3330642357366
 20
50.165
 30
0.0
 40
0.4064
  0
CIRCLE
  5
D0
  8
44
 10
127.3330642357366
 20
42.545
 30
0.0
 40
0.4064
  0
CIRCLE
  5
D1
  8
44
 10
124.1580642357366
 20
50.165
 30
0.0
 40
0.4064
  0
CIRCLE
  5
D2
  8
44
 10
124.1580642357366
 20
42.545
 30
0.0
 40
0.4064
  0
CIRCLE
  5
D3
  8
44
 10
144.4780642357366
 20
71.755
 30
0.0
 40
0.4064
  0
CIRCLE
  5
D4
  8
44
 10
144.4780642357366
 20
64.135
 30
0.0
 40
0.4064
  0
CIRCLE
  5
D5
  8
44
 10
147.0180642357365
 20
71.755
 30
0.0
 40
0.4064
  0
CIRCLE
  5
D6
  8
44
 10
147.0180642357365
 20
64.135
 30
0.0
 40
0.4064
  0
CIRCLE
  5
D7
  8
44
 10
149.5580642357366
 20
71.755
 30
0.0
 40
0.4064
  0
CIRCLE
  5
D8
  8
44
 10
149.5580642357366
 20
64.135
 30
0.0
 40
0.4064
  0
CIRCLE
  5
D9
  8
44
 10
130.5080642357366
 20
41.275
 30
0.0
 40
0.4064
  0
CIRCLE
  5
DA
  8
44
 10
130.5080642357366
 20
33.655
 30
0.0
 40
0.4064
  0
CIRCLE
  5
DB
  8
44
 10
127.3330642357366
 20
41.275
 30
0.0
 40
0.4064
  0
CIRCLE
  5
DC
  8
44
 10
127.3330642357366
 20
33.655
 30
0.0
 40
0.4064
  0
CIRCLE
  5
DD
  8
44
 10
124.1580642357366
 20
41.275
 30
0.0
 40
0.4064
  0
CIRCLE
  5
DE
  8
44
 10
124.1580642357366
 20
33.655
 30
0.0
 40
0.4064
  0
CIRCLE
  5
DF
  8
44
 10
144.4780642357366
 20
61.595
 30
0.0
 40
0.4064
  0
CIRCLE
  5
E0
  8
44
 10
144.4780642357366
 20
53.975
 30
0.0
 40
0.4064
  0
CIRCLE
  5
E1
  8
44
 10
147.0180642357365
 20
61.595
 30
0.0
 40
0.4064
  0
CIRCLE
  5
E2
  8
44
 10
147.0180642357365
 20
53.975
 30
0.0
 40
0.4064
  0
CIRCLE
  5
E3
  8
44
 10
149.5580642357366
 20
61.595
 30
0.0
 40
0.4064
  0
CIRCLE
  5
E4
  8
44
 10
149.5580642357366
 20
53.975
 30
0.0
 40
0.4064
  0
CIRCLE
  5
E5
  8
44
 10
162.2580642357366
 20
53.975
 30
0.0
 40
0.175
  0
CIRCLE
  5
E6
  8
44
 10
152.0980642357366
 20
53.975
 30
0.0
 40
0.175
  0
CIRCLE
  5
E7
  8
44
 10
127.3330642357366
 20
58.42
 30
0.0
 40
0.175
  0
CIRCLE
  5
E8
  8
44
 10
127.3330642357366
 20
71.755
 30
0.0
 40
0.175
  0
CIRCLE
  5
E9
  8
44
 10
133.6830642357366
 20
54.61
 30
0.0
 40
0.175
  0
CIRCLE
  5
EA
  8
44
 10
112.0930642357366
 20
56.515
 30
0.0
 40
0.175
  0
CIRCLE
  5
EB
  8
44
 10
101.2980642357366
 20
56.515
 30
0.0
 40
0.175
  0
CIRCLE
  5
EC
  8
44
 10
133.6830642357366
 20
74.295
 30
0.0
 40
0.175
  0
CIRCLE
  5
ED
  8
44
 10
120.3480642357366
 20
71.755
 30
0.0
 40
0.175
  0
CIRCLE
  5
EE
  8
44
 10
105.1080642357365
 20
31.75
 30
0.0
 40
0.175
  0
CIRCLE
  5
EF
  8
44
 10
98.75806423573655
 20
31.75
 30
0.0
 40
0.175
  0
CIRCLE
  5
F0
  8
44
 10
120.3480642357366
 20
51.435
 30
0.0
 40
0.175
  0
CIRCLE
  5
F1
  8
44
 10
104.4730642357366
 20
67.31
 30
0.0
 40
0.175
  0
CIRCLE
  5
F2
  8
44
 10
112.0930642357366
 20
59.69
 30
0.0
 40
0.175
  0
CIRCLE
  5
F3
  8
44
 10
128.9114275680732
 20
31.115
 30
0.0
 40
0.175
  0
CIRCLE
  5
F4
  8
44
 10
120.4516824863048
 20
22.17559915104985
 30
0.0
 40
0.175
  0
CIRCLE
  5
F5
  8
44
 10
159.7180642357366
 20
35.56
 30
0.0
 40
0.4
  0
POLYLINE
  5
F7
  8
DEFAULT
 66
     1
 10
0.0
 20
0.0
 30
0.0
  0
VERTEX
  5
F8
  8
DEFAULT
 10
103.3230642357366
 20
67.31
 30
0.0
 42
-2.803865677367026
  0
VERTEX
  5
F9
  8
DEFAULT
 10
104.2440900474373
 20
66.18302581170076
 30
0.0
  0
VERTEX
  5
FA
  8
DEFAULT
 10
96.85306423573654
 20
58.79199999999999
 30
0.0
  0
VERTEX
  5
FB
  8
DEFAULT
 10
96.85306423573655
 20
26.93300000000002
 30
0.0
  0
VERTEX
  5
FC
  8
DEFAULT
 10
99.84206423573656
 20
23.944
 30
0.0
 42
-0.198902697879786
  0
VERTEX
  5
FD
  8
DEFAULT
 10
100.0280551804893
 20
23.49499916732312
 30
0.0
  0
VERTEX
  5
FE
  8
DEFAULT
 10
100.0280642357366
 20
16.77300000000001
 30
0.0
  0
VERTEX
  5
FF
  8
DEFAULT
 10
104.1010642357365
 20
12.7
 30
0.0
  0
VERTEX
  5
100
  8
DEFAULT
 10
125.1650642357365
 20
12.7
 30
0.0
  0
VERTEX
  5
101
  8
DEFAULT
 10
126.0630642357365
 20
13.598
 30
0.0
  0
VERTEX
  5
102
  8
DEFAULT
 10
126.0630642357366
 20
17.51700000000001
 30
0.0
  0
VERTEX
  5
103
  8
DEFAULT
 10
125.6790701514798
 20
17.90099408425677
 30
0.0
  0
VERTEX
  5
104
  8
DEFAULT
 10
125.6312640418606
 20
17.90000000000303
 30
0.0
  0
VERTEX
  5
105
  8
DEFAULT
 10
123.954864041861
 20
17.90000000000299
 30
0.0
 42
-0.3647047423963429
  0
VERTEX
  5
106
  8
DEFAULT
 10
122.8218211059147
 20
18.85324312982187
 30
0.0
  0
VERTEX
  5
107
  8
DEFAULT
 10
120.6391003780373
 20
21.03596385769928
 30
0.0
 42
-0.4606041271477466
  0
VERTEX
  5
108
  8
DEFAULT
 10
119.3107081367537
 20
22.17204317194183
 30
0.0
  0
VERTEX
  5
109
  8
DEFAULT
 10
119.3246288225112
 20
22.35043541322538
 30
0.0
  0
VERTEX
  5
10A
  8
DEFAULT
 10
119.2640642357366
 20
22.411
 30
0.0
  0
VERTEX
  5
10B
  8
DEFAULT
 10
116.1550642357246
 20
25.52000000001192
 30
0.0
  0
VERTEX
  5
10C
  8
DEFAULT
 10
114.1180640417927
 20
25.52000000001197
 30
0.0
 42
-0.9999998662985092
  0
VERTEX
  5
10D
  8
DEFAULT
 10
114.118064315974
 20
27.81999999999951
 30
0.0
  0
VERTEX
  5
10E
  8
DEFAULT
 10
116.4180640418291
 20
27.81999999998717
 30
0.0
 42
-0.585401445930171
  0
VERTEX
  5
10F
  8
DEFAULT
 10
117.3998665513144
 20
26.07119768442217
 30
0.0
  0
VERTEX
  5
110
  8
DEFAULT
 10
120.1830447820364
 20
23.28801945370016
 30
0.0
 42
-0.5654493809324364
  0
VERTEX
  5
111
  8
DEFAULT
 10
121.576684418512
 20
21.89437981722454
 30
0.0
  0
VERTEX
  5
112
  8
DEFAULT
 10
123.4089171318953
 20
20.0621471038413
 30
0.0
 42
-0.1243004024993363
  0
VERTEX
  5
113
  8
DEFAULT
 10
123.954864041861
 20
20.20000000000297
 30
0.0
  0
VERTEX
  5
114
  8
DEFAULT
 10
125.6312640418606
 20
20.20000000000302
 30
0.0
 42
-0.5189544900982405
  0
VERTEX
  5
115
  8
DEFAULT
 10
126.7138942949573
 20
18.66216994073513
 30
0.0
  0
VERTEX
  5
116
  8
DEFAULT
 10
127.1436730672444
 20
18.23239116849213
 30
0.0
 42
-0.2008759561908247
  0
VERTEX
  5
117
  8
DEFAULT
 10
127.3330642357366
 20
17.78
 30
0.0
  0
VERTEX
  5
118
  8
DEFAULT
 10
127.3330551804893
 20
13.33500052988529
 30
0.0
 42
-0.1989026927721782
  0
VERTEX
  5
119
  8
DEFAULT
 10
127.1470642357366
 20
12.886
 30
0.0
  0
VERTEX
  5
11A
  8
DEFAULT
 10
125.8804554042286
 20
11.61939116849207
 30
0.0
 42
-0.2008759561906365
  0
VERTEX
  5
11B
  8
DEFAULT
 10
125.4280642357366
 20
11.43000000000001
 30
0.0
  0
VERTEX
  5
11C
  8
DEFAULT
 10
103.8380668094651
 20
11.43000905524724
 30
0.0
 42
-0.1989027272466328
  0
VERTEX
  5
11D
  8
DEFAULT
 10
103.3890642357366
 20
11.616
 30
0.0
  0
VERTEX
  5
11E
  8
DEFAULT
 10
98.94745540422994
 20
16.05760883150664
 30
0.0
 42
-0.2008759561913884
  0
VERTEX
  5
11F
  8
DEFAULT
 10
98.75806423573655
 20
16.51
 30
0.0
  0
VERTEX
  5
120
  8
DEFAULT
 10
98.75806423573655
 20
23.232
 30
0.0
  0
VERTEX
  5
121
  8
DEFAULT
 10
95.77245540422729
 20
26.21760883150927
 30
0.0
 42
-0.2008759561899424
  0
VERTEX
  5
122
  8
DEFAULT
 10
95.58306423573656
 20
26.67
 30
0.0
  0
VERTEX
  5
123
  8
DEFAULT
 10
95.58307329098382
 20
59.05499613940715
 30
0.0
 42
-0.1989026595160678
  0
VERTEX
  5
124
  8
DEFAULT
 10
95.76906416004083
 20
59.50399992430423
 30
0.0
  0
VERTEX
  5
125
  8
DEFAULT
 10
103.3460900474373
 20
67.08102581170075
 30
0.0
  0
VERTEX
  5
126
  8
DEFAULT
 10
103.3230642357366
 20
67.31
 30
0.0
  0
SEQEND
  5
127
  8
DEFAULT
  0
POLYLINE
  5
128
  8
DEFAULT
 66
     1
 10
0.0
 20
0.0
 30
0.0
  0
VERTEX
  5
129
  8
DEFAULT
 10
151.0980642357092
 20
51.2000000732383
 30
0.0
 42
-0.9999999267699904
  0
VERTEX
  5
12A
  8
DEFAULT
 10
153.0980642356926
 20
51.2000000732383
 30
0.0
  0
VERTEX
  5
12B
  8
DEFAULT
 10
153.0980642357091
 20
50.40000016860583
 30
0.0
 42
-0.2243513832109464
  0
VERTEX
  5
12C
  8
DEFAULT
 10
152.7330642357238
 20
49.6274878641715
 30
0.0
  0
VERTEX
  5
12D
  8
DEFAULT
 10
152.7330551804893
 20
46.989999892947
 30
0.0
 42
-0.1989026328093447
  0
VERTEX
  5
12E
  8
DEFAULT
 10
152.5470642357366
 20
46.541
 30
0.0
  0
VERTEX
  5
12F
  8
DEFAULT
 10
147.4704554042272
 20
41.46439116849064
 30
0.0
 42
-0.2008759561898182
  0
VERTEX
  5
130
  8
DEFAULT
 10
147.0180642357365
 20
41.27499999999998
 30
0.0
  0
VERTEX
  5
131
  8
DEFAULT
 10
138.3910642357365
 20
41.275
 30
0.0
  0
VERTEX
  5
132
  8
DEFAULT
 10
132.8654554042282
 20
35.74939116849157
 30
0.0
 42
-0.2008759561903888
  0
VERTEX
  5
133
  8
DEFAULT
 10
132.4130642357366
 20
35.56
 30
0.0
  0
VERTEX
  5
134
  8
DEFAULT
 10
127.9680642357366
 20
35.56000000000001
 30
0.0
 42
-0.2323111071126222
  0
VERTEX
  5
135
  8
DEFAULT
 10
127.4645831394507
 20
35.80732397241491
 30
0.0
  0
VERTEX
  5
136
  8
DEFAULT
 10
124.1998719571585
 20
39.6154743250077
 30
0.0
  0
VERTEX
  5
137
  8
DEFAULT
 10
124.0379091072662
 20
39.6218448715296
 30
0.0
  0
VERTEX
  5
138
  8
DEFAULT
 10
123.3404554042294
 20
38.92439116849287
 30
0.0
 42
-0.2008759561911207
  0
VERTEX
  5
139
  8
DEFAULT
 10
122.8880642357366
 20
38.73499999999999
 30
0.0
  0
VERTEX
  5
13A
  8
DEFAULT
 10
118.7318525335208
 20
38.735
 30
0.0
 42
-0.2515709232400418
  0
VERTEX
  5
13B
  8
DEFAULT
 10
117.773064286584
 20
38.22000000000401
 30
0.0
  0
VERTEX
  5
13C
  8
DEFAULT
 10
116.5730640418376
 20
38.21999999998276
 30
0.0
 42
-0.9999998093049108
  0
VERTEX
  5
13D
  8
DEFAULT
 10
116.5730641848887
 20
40.52000000000393
 30
0.0
  0
VERTEX
  5
13E
  8
DEFAULT
 10
117.7730644296352
 20
40.52000000002518
 30
0.0
 42
-0.2515709245670886
  0
VERTEX
  5
13F
  8
DEFAULT
 10
118.7318525335542
 20
40.00500000000002
 30
0.0
  0
VERTEX
  5
140
  8
DEFAULT
 10
122.6250642357366
 20
40.005
 30
0.0
  0
VERTEX
  5
141
  8
DEFAULT
 10
123.1607962101709
 20
40.54073197443434
 30
0.0
  0
VERTEX
  5
142
  8
DEFAULT
 10
123.1580642357283
 20
40.61460014023476
 30
0.0
  0
VERTEX
  5
143
  8
DEFAULT
 10
123.158064474151
 20
43.20539999994885
 30
0.0
 42
-1.000000322761452
  0
VERTEX
  5
144
  8
DEFAULT
 10
125.158063997318
 20
43.20539983136145
 30
0.0
  0
VERTEX
  5
145
  8
DEFAULT
 10
125.1580642357324
 20
40.61460014023476
 30
0.0
  0
VERTEX
  5
146
  8
DEFAULT
 10
125.1464498693834
 20
40.46263342741204
 30
0.0
  0
VERTEX
  5
147
  8
DEFAULT
 10
128.2601318493666
 20
36.83000132419453
 30
0.0
  0
VERTEX
  5
148
  8
DEFAULT
 10
132.1500642357366
 20
36.83
 30
0.0
  0
VERTEX
  5
149
  8
DEFAULT
 10
137.6790642357365
 20
42.35899999999999
 30
0.0
 42
-0.198902683833375
  0
VERTEX
  5
14A
  8
DEFAULT
 10
138.1280642357366
 20
42.54499094475277
 30
0.0
  0
VERTEX
  5
14B
  8
DEFAULT
 10
146.7550642357366
 20
42.545
 30
0.0
  0
VERTEX
  5
14C
  8
DEFAULT
 10
151.4630642357366
 20
47.25300000000001
 30
0.0
  0
VERTEX
  5
14D
  8
DEFAULT
 10
151.4630642357366
 20
49.62748786414553
 30
0.0
 42
-0.2243514854401577
  0
VERTEX
  5
14E
  8
DEFAULT
 10
151.0980644741442
 20
50.40000000001842
 30
0.0
  0
VERTEX
  5
14F
  8
DEFAULT
 10
151.0980642357092
 20
51.2000000732383
 30
0.0
  0
SEQEND
  5
150
  8
DEFAULT
  0
POLYLINE
  5
151
  8
DEFAULT
 66
     1
 10
0.0
 20
0.0
 30
0.0
  0
VERTEX
  5
152
  8
DEFAULT
 10
143.3280642356876
 20
54.60999999999999
 30
0.0
 42
-0.9999999157063261
  0
VERTEX
  5
153
  8
DEFAULT
 10
145.6280642356875
 20
54.61000019387551
 30
0.0
  0
VERTEX
  5
154
  8
DEFAULT
 10
146.044543799382
 20
54.61000000000001
 30
0.0
 42
-0.7923819276856578
  0
VERTEX
  5
155
  8
DEFAULT
 10
147.9915846720911
 20
54.60999999999999
 30
0.0
  0
VERTEX
  5
156
  8
DEFAULT
 10
148.584543799382
 20
54.61
 30
0.0
 42
-0.7923819276856664
  0
VERTEX
  5
157
  8
DEFAULT
 10
150.5315846720911
 20
54.60999999999999
 30
0.0
  0
VERTEX
  5
158
  8
DEFAULT
 10
151.1392759379356
 20
54.61000000000001
 30
0.0
 42
-3.320926453229867
  0
VERTEX
  5
159
  8
DEFAULT
 10
151.1392759379356
 20
53.33999999999998
 30
0.0
  0
VERTEX
  5
15A
  8
DEFAULT
 10
150.5315846720952
 20
53.34
 30
0.0
 42
-0.7923819276856515
  0
VERTEX
  5
15B
  8
DEFAULT
 10
148.584543799386
 20
53.34000000000001
 30
0.0
  0
VERTEX
  5
15C
  8
DEFAULT
 10
147.9915846720912
 20
53.34
 30
0.0
 42
-0.7923819276855951
  0
VERTEX
  5
15D
  8
DEFAULT
 10
146.044543799382
 20
53.34000000000001
 30
0.0
  0
VERTEX
  5
15E
  8
DEFAULT
 10
145.6279934071005
 20
53.34006266766292
 30
0.0
  0
VERTEX
  5
15F
  8
DEFAULT
 10
145.6280642356895
 20
53.31460019391224
 30
0.0
 42
-1.000000084310583
  0
VERTEX
  5
160
  8
DEFAULT
 10
143.3280642356916
 20
53.3146
 30
0.0
  0
VERTEX
  5
161
  8
DEFAULT
 10
143.3280642356916
 20
54.60999999999735
 30
0.0
  0
SEQEND
  5
162
  8
DEFAULT
  0
POLYLINE
  5
163
  8
DEFAULT
 66
     1
 10
0.0
 20
0.0
 30
0.0
  0
VERTEX
  5
164
  8
DEFAULT
 10
148.5580642357206
 20
51.19999999999999
 30
0.0
 42
-1.000000203511351
  0
VERTEX
  5
165
  8
DEFAULT
 10
150.5580639973019
 20
51.19999983139594
 30
0.0
  0
VERTEX
  5
166
  8
DEFAULT
 10
150.5580642357285
 20
50.39999992676826
 30
0.0
 42
-0.2243512475530103
  0
VERTEX
  5
167
  8
DEFAULT
 10
150.1930642357238
 20
49.6274878641625
 30
0.0
  0
VERTEX
  5
168
  8
DEFAULT
 10
150.1930551804893
 20
46.989999892947
 30
0.0
 42
-0.198902632809142
  0
VERTEX
  5
169
  8
DEFAULT
 10
150.0070642357366
 20
46.541
 30
0.0
  0
VERTEX
  5
16A
  8
DEFAULT
 10
147.4704554042271
 20
44.00439116849054
 30
0.0
 42
-0.2008759561897618
  0
VERTEX
  5
16B
  8
DEFAULT
 10
147.0180642357365
 20
43.81499999999998
 30
0.0
  0
VERTEX
  5
16C
  8
DEFAULT
 10
137.7560642357366
 20
43.815
 30
0.0
  0
VERTEX
  5
16D
  8
DEFAULT
 10
132.2304554042296
 20
38.28939116849308
 30
0.0
 42
-0.2008759561912329
  0
VERTEX
  5
16E
  8
DEFAULT
 10
131.7780642357366
 20
38.1
 30
0.0
  0
VERTEX
  5
16F
  8
DEFAULT
 10
129.2380642357365
 20
38.09999999999999
 30
0.0
 42
-0.200875956227514
  0
VERTEX
  5
170
  8
DEFAULT
 10
128.7856730672707
 20
38.28939116851876
 30
0.0
  0
VERTEX
  5
171
  8
DEFAULT
 10
127.4532193642061
 20
39.62184487153048
 30
0.0
 42
-0.449948027872399
  0
VERTEX
  5
172
  8
DEFAULT
 10
126.3330644741551
 20
40.61460000001763
 30
0.0
  0
VERTEX
  5
173
  8
DEFAULT
 10
126.3330642357324
 20
43.20539985976875
 30
0.0
 42
-0.2243512452591324
  0
VERTEX
  5
174
  8
DEFAULT
 10
126.6980642357493
 20
43.97791213584437
 30
0.0
  0
VERTEX
  5
175
  8
DEFAULT
 10
126.6980642357366
 20
44.187
 30
0.0
  0
VERTEX
  5
176
  8
DEFAULT
 10
125.8000642357366
 20
45.085
 30
0.0
  0
VERTEX
  5
177
  8
DEFAULT
 10
121.8810642357366
 20
45.085
 30
0.0
  0
VERTEX
  5
178
  8
DEFAULT
 10
120.8004554042292
 20
44.0043911684927
 30
0.0
 42
-0.200875956190989
  0
VERTEX
  5
179
  8
DEFAULT
 10
120.3480642357366
 20
43.81500000000001
 30
0.0
  0
VERTEX
  5
17A
  8
DEFAULT
 10
118.7318525335414
 20
43.815
 30
0.0
 42
-0.2515710494710474
  0
VERTEX
  5
17B
  8
DEFAULT
 10
117.7730640418494
 20
43.30000000001203
 30
0.0
  0
VERTEX
  5
17C
  8
DEFAULT
 10
116.5730640418591
 20
43.30000000002995
 30
0.0
 42
-0.9999998093142747
  0
VERTEX
  5
17D
  8
DEFAULT
 10
116.5730641849103
 20
45.60000000001199
 30
0.0
  0
VERTEX
  5
17E
  8
DEFAULT
 10
117.7730640418494
 20
45.59999972581265
 30
0.0
 42
-0.2515713230015349
  0
VERTEX
  5
17F
  8
DEFAULT
 10
118.7318525335335
 20
45.085
 30
0.0
  0
VERTEX
  5
180
  8
DEFAULT
 10
120.0850642357366
 20
45.085
 30
0.0
  0
VERTEX
  5
181
  8
DEFAULT
 10
121.1690642357366
 20
46.169
 30
0.0
 42
-0.1989026838333761
  0
VERTEX
  5
182
  8
DEFAULT
 10
121.6180642357366
 20
46.35499094475275
 30
0.0
  0
VERTEX
  5
183
  8
DEFAULT
 10
126.0772877200308
 20
46.35484068276579
 30
0.0
  0
VERTEX
  5
184
  8
DEFAULT
 10
126.0916329167575
 20
46.35435702129377
 30
0.0
  0
VERTEX
  5
185
  8
DEFAULT
 10
126.1060902512977
 20
46.35354065535284
 30
0.0
  0
VERTEX
  5
186
  8
DEFAULT
 10
126.1206496027205
 20
46.35238352722799
 30
0.0
  0
VERTEX
  5
187
  8
DEFAULT
 10
126.135300310299
 20
46.3508779196737
 30
0.0
  0
VERTEX
  5
188
  8
DEFAULT
 10
126.1500311828527
 20
46.34901649430623
 30
0.0
  0
VERTEX
  5
189
  8
DEFAULT
 10
126.1648305110298
 20
46.34679233021229
 30
0.0
  0
VERTEX
  5
18A
  8
DEFAULT
 10
126.1796860826212
 20
46.34419896253454
 30
0.0
  0
VERTEX
  5
18B
  8
DEFAULT
 10
126.1945852009831
 20
46.34123042077849
 30
0.0
  0
VERTEX
  5
18C
  8
DEFAULT
 10
126.2095147066152
 20
46.33788126657102
 30
0.0
  0
VERTEX
  5
18D
  8
DEFAULT
 10
126.2244610019246
 20
46.33414663058918
 30
0.0
  0
VERTEX
  5
18E
  8
DEFAULT
 10
126.239410079171
 20
46.33002224836755
 30
0.0
  0
VERTEX
  5
18F
  8
DEFAULT
 10
126.2543475515665
 20
46.32550449468611
 30
0.0
  0
VERTEX
  5
190
  8
DEFAULT
 10
126.2692586874681
 20
46.32059041623649
 30
0.0
  0
VERTEX
  5
191
  8
DEFAULT
 10
126.2841284475721
 20
46.31527776226358
 30
0.0
  0
VERTEX
  5
192
  8
DEFAULT
 10
126.2989415249874
 20
46.30956501288295
 30
0.0
  0
VERTEX
  5
193
  8
DEFAULT
 10
126.3136823880311
 20
46.30345140478058
 30
0.0
  0
VERTEX
  5
194
  8
DEFAULT
 10
126.3283353255575
 20
46.29693695401249
 30
0.0
  0
VERTEX
  5
195
  8
DEFAULT
 10
126.3428844945997
 20
46.29002247563562
 30
0.0
  0
VERTEX
  5
196
  8
DEFAULT
 10
126.3573139700736
 20
46.28270959992039
 30
0.0
  0
VERTEX
  5
197
  8
DEFAULT
 10
126.3716077962619
 20
46.27500078491686
 30
0.0
  0
VERTEX
  5
198
  8
DEFAULT
 10
126.3857500397713
 20
46.26689932517279
 30
0.0
  0
VERTEX
  5
199
  8
DEFAULT
 10
126.3997248436303
 20
46.25840935643113
 30
0.0
  0
VERTEX
  5
19A
  8
DEFAULT
 10
126.4135164821748
 20
46.24953585616689
 30
0.0
  0
VERTEX
  5
19B
  8
DEFAULT
 10
126.4271094163485
 20
46.24028463985898
 30
0.0
  0
VERTEX
  5
19C
  8
DEFAULT
 10
126.4404883490357
 20
46.23066235293035
 30
0.0
  0
VERTEX
  5
19D
  8
DEFAULT
 10
126.4536382800293
 20
46.22067645832892
 30
0.0
  0
VERTEX
  5
19E
  8
DEFAULT
 10
126.4665445602371
 20
46.21033521976391
 30
0.0
  0
VERTEX
  5
19F
  8
DEFAULT
 10
126.4791929447255
 20
46.19964768065237
 30
0.0
  0
VERTEX
  5
1A0
  8
DEFAULT
 10
126.4915696442071
 20
46.18862363887392
 30
0.0
  0
VERTEX
  5
1A1
  8
DEFAULT
 10
126.5036613745878
 20
46.1772736174721
 30
0.0
  0
VERTEX
  5
1A2
  8
DEFAULT
 10
126.5154554042022
 20
46.16560883148144
 30
0.0
  0
VERTEX
  5
1A3
  8
DEFAULT
 10
127.7820642357366
 20
44.899
 30
0.0
 42
-0.1989026902182874
  0
VERTEX
  5
1A4
  8
DEFAULT
 10
127.9680551804893
 20
44.44999962151051
 30
0.0
  0
VERTEX
  5
1A5
  8
DEFAULT
 10
127.9680642357366
 20
43.97791213583858
 30
0.0
 42
-0.2243512452416843
  0
VERTEX
  5
1A6
  8
DEFAULT
 10
128.3330642357282
 20
43.20539985976875
 30
0.0
  0
VERTEX
  5
1A7
  8
DEFAULT
 10
128.3330642357324
 20
40.61460016860504
 30
0.0
  0
VERTEX
  5
1A8
  8
DEFAULT
 10
128.3303322612945
 20
40.54073197444209
 30
0.0
  0
VERTEX
  5
1A9
  8
DEFAULT
 10
129.5010642357366
 20
39.36999999999999
 30
0.0
  0
VERTEX
  5
1AA
  8
DEFAULT
 10
131.5150642357366
 20
39.37
 30
0.0
  0
VERTEX
  5
1AB
  8
DEFAULT
 10
137.0440642357366
 20
44.899
 30
0.0
 42
-0.1989027029873375
  0
VERTEX
  5
1AC
  8
DEFAULT
 10
137.493065371205
 20
45.08499094475277
 30
0.0
  0
VERTEX
  5
1AD
  8
DEFAULT
 10
146.7550642357365
 20
45.085
 30
0.0
  0
VERTEX
  5
1AE
  8
DEFAULT
 10
148.9230642357365
 20
47.253
 30
0.0
  0
VERTEX
  5
1AF
  8
DEFAULT
 10
148.9230642357365
 20
49.62748786415452
 30
0.0
 42
-0.2243512475388625
  0
VERTEX
  5
1B0
  8
DEFAULT
 10
148.5580642357366
 20
50.39999992676826
 30
0.0
  0
VERTEX
  5
1B1
  8
DEFAULT
 10
148.5580642357366
 20
51.19999999996669
 30
0.0
  0
SEQEND
  5
1B2
  8
DEFAULT
  0
POLYLINE
  5
1B3
  8
DEFAULT
 66
     1
 10
0.0
 20
0.0
 30
0.0
  0
VERTEX
  5
1B4
  8
DEFAULT
 10
146.0180644741305
 20
51.20000016860482
 30
0.0
 42
-0.9999999982877444
  0
VERTEX
  5
1B5
  8
DEFAULT
 10
148.0180642357128
 20
51.20000006981284
 30
0.0
  0
VERTEX
  5
1B6
  8
DEFAULT
 10
148.0180642357119
 20
50.40000016861578
 30
0.0
 42
-0.2243513831872922
  0
VERTEX
  5
1B7
  8
DEFAULT
 10
147.6530642357239
 20
49.62748786418362
 30
0.0
  0
VERTEX
  5
1B8
  8
DEFAULT
 10
147.6530551804893
 20
47.62500037848949
 30
0.0
 42
-0.1989026902182929
  0
VERTEX
  5
1B9
  8
DEFAULT
 10
147.4670642357366
 20
47.17599999999999
 30
0.0
  0
VERTEX
  5
1BA
  8
DEFAULT
 10
146.8354554042297
 20
46.54439116849314
 30
0.0
 42
-0.200875956191223
  0
VERTEX
  5
1BB
  8
DEFAULT
 10
146.3830642357366
 20
46.355
 30
0.0
  0
VERTEX
  5
1BC
  8
DEFAULT
 10
132.0410642357365
 20
46.355
 30
0.0
  0
VERTEX
  5
1BD
  8
DEFAULT
 10
131.1430642357365
 20
45.457
 30
0.0
  0
VERTEX
  5
1BE
  8
DEFAULT
 10
131.1430642357365
 20
43.97791213586056
 30
0.0
 42
-0.2243513389185763
  0
VERTEX
  5
1BF
  8
DEFAULT
 10
131.5080642357549
 20
43.2054
 30
0.0
  0
VERTEX
  5
1C0
  8
DEFAULT
 10
131.5080642357207
 20
40.61460014023504
 30
0.0
 42
-1.000000140217981
  0
VERTEX
  5
1C1
  8
DEFAULT
 10
129.5080642356867
 20
40.61460014023504
 30
0.0
  0
VERTEX
  5
1C2
  8
DEFAULT
 10
129.5080644741393
 20
43.2054
 30
0.0
 42
-0.2243514854184776
  0
VERTEX
  5
1C3
  8
DEFAULT
 10
129.8730642357493
 20
43.97791213582242
 30
0.0
  0
VERTEX
  5
1C4
  8
DEFAULT
 10
129.8730642357366
 20
45.457
 30
0.0
  0
VERTEX
  5
1C5
  8
DEFAULT
 10
128.3400642357365
 20
46.99000000000001
 30
0.0
  0
VERTEX
  5
1C6
  8
DEFAULT
 10
119.9760642357366
 20
46.99
 30
0.0
  0
VERTEX
  5
1C7
  8
DEFAULT
 10
119.5304554042292
 20
46.54439116849267
 30
0.0
 42
-0.2008759561909807
  0
VERTEX
  5
1C8
  8
DEFAULT
 10
119.0780642357365
 20
46.355
 30
0.0
  0
VERTEX
  5
1C9
  8
DEFAULT
 10
118.7318525335021
 20
46.355
 30
0.0
 42
-0.251570923233119
  0
VERTEX
  5
1CA
  8
DEFAULT
 10
117.7730642865804
 20
45.84000000003415
 30
0.0
  0
VERTEX
  5
1CB
  8
DEFAULT
 10
116.5730644296187
 20
45.84000000001483
 30
0.0
 42
-1.000000084296598
  0
VERTEX
  5
1CC
  8
DEFAULT
 10
116.5730644296187
 20
48.13999972585272
 30
0.0
  0
VERTEX
  5
1CD
  8
DEFAULT
 10
117.7730642865805
 20
48.1400000000534
 30
0.0
 42
-0.2515709232722514
  0
VERTEX
  5
1CE
  8
DEFAULT
 10
118.7318525335729
 20
47.62499999999999
 30
0.0
  0
VERTEX
  5
1CF
  8
DEFAULT
 10
118.8150642357366
 20
47.625
 30
0.0
 42
-0.1743457336739538
  0
VERTEX
  5
1D0
  8
DEFAULT
 10
119.7130642357366
 20
48.25999094475277
 30
0.0
  0
VERTEX
  5
1D1
  8
DEFAULT
 10
128.6172877200308
 20
48.25984068276579
 30
0.0
  0
VERTEX
  5
1D2
  8
DEFAULT
 10
128.6316329167575
 20
48.25935702129379
 30
0.0
  0
VERTEX
  5
1D3
  8
DEFAULT
 10
128.6460902512977
 20
48.25854065535287
 30
0.0
  0
VERTEX
  5
1D4
  8
DEFAULT
 10
128.6606496027205
 20
48.25738352722799
 30
0.0
  0
VERTEX
  5
1D5
  8
DEFAULT
 10
128.675300310299
 20
48.2558779196737
 30
0.0
  0
VERTEX
  5
1D6
  8
DEFAULT
 10
128.6900311828527
 20
48.25401649430622
 30
0.0
  0
VERTEX
  5
1D7
  8
DEFAULT
 10
128.7048305110297
 20
48.25179233021228
 30
0.0
  0
VERTEX
  5
1D8
  8
DEFAULT
 10
128.7196860826212
 20
48.24919896253454
 30
0.0
  0
VERTEX
  5
1D9
  8
DEFAULT
 10
128.734585200983
 20
48.24623042077847
 30
0.0
  0
VERTEX
  5
1DA
  8
DEFAULT
 10
128.7495147066152
 20
48.24288126657101
 30
0.0
  0
VERTEX
  5
1DB
  8
DEFAULT
 10
128.7644610019246
 20
48.23914663058918
 30
0.0
  0
VERTEX
  5
1DC
  8
DEFAULT
 10
128.779410079171
 20
48.23502224836754
 30
0.0
  0
VERTEX
  5
1DD
  8
DEFAULT
 10
128.7943475515665
 20
48.23050449468611
 30
0.0
  0
VERTEX
  5
1DE
  8
DEFAULT
 10
128.8092586874681
 20
48.22559041623648
 30
0.0
  0
VERTEX
  5
1DF
  8
DEFAULT
 10
128.8241284475721
 20
48.22027776226357
 30
0.0
  0
VERTEX
  5
1E0
  8
DEFAULT
 10
128.8389415249874
 20
48.21456501288292
 30
0.0
  0
VERTEX
  5
1E1
  8
DEFAULT
 10
128.8536823880312
 20
48.20845140478057
 30
0.0
  0
VERTEX
  5
1E2
  8
DEFAULT
 10
128.8683353255575
 20
48.20193695401247
 30
0.0
  0
VERTEX
  5
1E3
  8
DEFAULT
 10
128.8828844945997
 20
48.1950224756356
 30
0.0
  0
VERTEX
  5
1E4
  8
DEFAULT
 10
128.8973139700736
 20
48.18770959992037
 30
0.0
  0
VERTEX
  5
1E5
  8
DEFAULT
 10
128.9116077962619
 20
48.18000078491684
 30
0.0
  0
VERTEX
  5
1E6
  8
DEFAULT
 10
128.9257500397713
 20
48.17189932517276
 30
0.0
  0
VERTEX
  5
1E7
  8
DEFAULT
 10
128.9397248436304
 20
48.1634093564311
 30
0.0
  0
VERTEX
  5
1E8
  8
DEFAULT
 10
128.9535164821748
 20
48.15453585616685
 30
0.0
  0
VERTEX
  5
1E9
  8
DEFAULT
 10
128.9671094163485
 20
48.14528463985896
 30
0.0
  0
VERTEX
  5
1EA
  8
DEFAULT
 10
128.9804883490357
 20
48.1356623529303
 30
0.0
  0
VERTEX
  5
1EB
  8
DEFAULT
 10
128.9936382800294
 20
48.12567645832888
 30
0.0
  0
VERTEX
  5
1EC
  8
DEFAULT
 10
129.0065445602371
 20
48.11533521976387
 30
0.0
  0
VERTEX
  5
1ED
  8
DEFAULT
 10
129.0191929447255
 20
48.10464768065234
 30
0.0
  0
VERTEX
  5
1EE
  8
DEFAULT
 10
129.0315696442072
 20
48.09362363887389
 30
0.0
  0
VERTEX
  5
1EF
  8
DEFAULT
 10
129.0436613745879
 20
48.08227361747205
 30
0.0
  0
VERTEX
  5
1F0
  8
DEFAULT
 10
129.0554554042023
 20
48.0706088314814
 30
0.0
  0
VERTEX
  5
1F1
  8
DEFAULT
 10
130.5081187430515
 20
46.61794851030215
 30
0.0
  0
VERTEX
  5
1F2
  8
DEFAULT
 10
131.3391408278392
 20
47.44885536825456
 30
0.0
  0
VERTEX
  5
1F3
  8
DEFAULT
 10
131.3495271531845
 20
47.45857016297374
 30
0.0
  0
VERTEX
  5
1F4
  8
DEFAULT
 10
131.3602223839717
 20
47.46813204609406
 30
0.0
  0
VERTEX
  5
1F5
  8
DEFAULT
 10
131.371225114
 20
47.47752851276529
 30
0.0
  0
VERTEX
  5
1F6
  8
DEFAULT
 10
131.3825333373909
 20
47.48674692134664
 30
0.0
  0
VERTEX
  5
1F7
  8
DEFAULT
 10
131.3941444289034
 20
47.49577452559191
 30
0.0
  0
VERTEX
  5
1F8
  8
DEFAULT
 10
131.4060551260645
 20
47.50459850895063
 30
0.0
  0
VERTEX
  5
1F9
  8
DEFAULT
 10
131.4182615133363
 20
47.51320602088981
 30
0.0
  0
VERTEX
  5
1FA
  8
DEFAULT
 10
131.4307590085374
 20
47.52158421511653
 30
0.0
  0
VERTEX
  5
1FB
  8
DEFAULT
 10
131.4435423517336
 20
47.52972028955827
 30
0.0
  0
VERTEX
  5
1FC
  8
DEFAULT
 10
131.456605596801
 20
47.53760152793257
 30
0.0
  0
VERTEX
  5
1FD
  8
DEFAULT
 10
131.4699421058562
 20
47.54521534271422
 30
0.0
  0
VERTEX
  5
1FE
  8
DEFAULT
 10
131.4835445467329
 20
47.55254931928427
 30
0.0
  0
VERTEX
  5
1FF
  8
DEFAULT
 10
131.4974048936679
 20
47.55959126102296
 30
0.0
  0
VERTEX
  5
200
  8
DEFAULT
 10
131.5115144313386
 20
47.56632923508687
 30
0.0
  0
VERTEX
  5
201
  8
DEFAULT
 10
131.5258637623718
 20
47.57275161859164
 30
0.0
  0
VERTEX
  5
202
  8
DEFAULT
 10
131.5404428184182
 20
47.57884714490386
 30
0.0
  0
VERTEX
  5
203
  8
DEFAULT
 10
131.5552408748593
 20
47.58460494973128
 30
0.0
  0
VERTEX
  5
204
  8
DEFAULT
 10
131.5702465691818
 20
47.59001461668817
 30
0.0
  0
VERTEX
  5
205
  8
DEFAULT
 10
131.585447923024
 20
47.5950662220041
 30
0.0
  0
VERTEX
  5
206
  8
DEFAULT
 10
131.6008323678652
 20
47.59975037803924
 30
0.0
  0
VERTEX
  5
207
  8
DEFAULT
 10
131.6163867742918
 20
47.60405827526799
 30
0.0
  0
VERTEX
  5
208
  8
DEFAULT
 10
131.6320974847432
 20
47.60798172239477
 30
0.0
  0
VERTEX
  5
209
  8
DEFAULT
 10
131.6479503495995
 20
47.61151318427327
 30
0.0
  0
VERTEX
  5
20A
  8
DEFAULT
 10
131.663930766443
 20
47.61464581731043
 30
0.0
  0
VERTEX
  5
20B
  8
DEFAULT
 10
131.680023722288
 20
47.61737350205204
 30
0.0
  0
VERTEX
  5
20C
  8
DEFAULT
 10
131.6962138385418
 20
47.61969087266548
 30
0.0
  0
VERTEX
  5
20D
  8
DEFAULT
 10
131.7124854184298
 20
47.62159334305843
 30
0.0
  0
VERTEX
  5
20E
  8
DEFAULT
 10
131.7288224965897
 20
47.62307712939858
 30
0.0
  0
VERTEX
  5
20F
  8
DEFAULT
 10
131.7452088905114
 20
47.62413926882972
 30
0.0
  0
VERTEX
  5
210
  8
DEFAULT
 10
131.7616282534835
 20
47.62477763421241
 30
0.0
  0
VERTEX
  5
211
  8
DEFAULT
 10
131.7780641286836
 20
47.62499094475274
 30
0.0
  0
VERTEX
  5
212
  8
DEFAULT
 10
146.1200642357365
 20
47.625
 30
0.0
  0
VERTEX
  5
213
  8
DEFAULT
 10
146.3830642357366
 20
47.88800000000001
 30
0.0
  0
VERTEX
  5
214
  8
DEFAULT
 10
146.3830642357366
 20
49.62748786413347
 30
0.0
 42
-0.2243514854450241
  0
VERTEX
  5
215
  8
DEFAULT
 10
146.0180644741295
 20
50.40000000002836
 30
0.0
  0
VERTEX
  5
216
  8
DEFAULT
 10
146.0180644741305
 20
51.20000016860482
 30
0.0
  0
SEQEND
  5
217
  8
DEFAULT
  0
POLYLINE
  5
218
  8
DEFAULT
 66
     1
 10
0.0
 20
0.0
 30
0.0
  0
VERTEX
  5
219
  8
DEFAULT
 10
115.2426641993124
 20
62.74500000005696
 30
0.0
  0
VERTEX
  5
21A
  8
DEFAULT
 10
116.5634640418358
 20
62.74500000006537
 30
0.0
 42
-0.2515710607920861
  0
VERTEX
  5
21B
  8
DEFAULT
 10
117.5222525335808
 20
62.23000000000002
 30
0.0
  0
VERTEX
  5
21C
  8
DEFAULT
 10
121.9038759379421
 20
62.22999999999999
 30
0.0
 42
-0.2515709231214494
  0
VERTEX
  5
21D
  8
DEFAULT
 10
122.8626641992591
 20
62.74499999999508
 30
0.0
  0
VERTEX
  5
21E
  8
DEFAULT
 10
124.1834644296121
 20
62.74499999999996
 30
0.0
 42
-0.2515709245598854
  0
VERTEX
  5
21F
  8
DEFAULT
 10
125.1422525335375
 20
62.22999999999998
 30
0.0
  0
VERTEX
  5
220
  8
DEFAULT
 10
129.5238759379439
 20
62.23000000000001
 30
0.0
 42
-0.251570923122316
  0
VERTEX
  5
221
  8
DEFAULT
 10
130.4826641992636
 20
62.74499999998895
 30
0.0
  0
VERTEX
  5
222
  8
DEFAULT
 10
131.8034644296885
 20
62.74499999999038
 30
0.0
 42
-0.2515709245578856
  0
VERTEX
  5
223
  8
DEFAULT
 10
132.7622525335311
 20
62.23000000000001
 30
0.0
  0
VERTEX
  5
224
  8
DEFAULT
 10
134.9530642357365
 20
62.22999999999998
 30
0.0
 42
-0.2008759562270883
  0
VERTEX
  5
225
  8
DEFAULT
 10
135.4054554042019
 20
62.04060883148183
 30
0.0
  0
VERTEX
  5
226
  8
DEFAULT
 10
136.2924341764596
 20
61.15363005927696
 30
0.0
 42
-0.5189544365760418
  0
VERTEX
  5
227
  8
DEFAULT
 10
137.8302642356815
 20
60.071
 30
0.0
  0
VERTEX
  5
228
  8
DEFAULT
 10
137.8302642356225
 20
58.03900019388594
 30
0.0
 42
-1.000000084272624
  0
VERTEX
  5
229
  8
DEFAULT
 10
135.5302642355637
 20
58.039
 30
0.0
  0
VERTEX
  5
22A
  8
DEFAULT
 10
135.5302645098039
 20
60.071
 30
0.0
  0
VERTEX
  5
22B
  8
DEFAULT
 10
135.5312583199375
 20
60.11880591579902
 30
0.0
  0
VERTEX
  5
22C
  8
DEFAULT
 10
134.6900642357365
 20
60.95999999999999
 30
0.0
  0
VERTEX
  5
22D
  8
DEFAULT
 10
132.7622525335439
 20
60.96000000000001
 30
0.0
 42
-0.2515709231287288
  0
VERTEX
  5
22E
  8
DEFAULT
 10
131.8034642722369
 20
60.444999999989
 30
0.0
  0
VERTEX
  5
22F
  8
DEFAULT
 10
130.482664041812
 20
60.44500027416888
 30
0.0
 42
-0.2515710584746511
  0
VERTEX
  5
230
  8
DEFAULT
 10
129.5238759379273
 20
60.95999999999999
 30
0.0
  0
VERTEX
  5
231
  8
DEFAULT
 10
125.1422525335375
 20
60.96
 30
0.0
 42
-0.2515709245575122
  0
VERTEX
  5
232
  8
DEFAULT
 10
124.1834644296121
 20
60.44499999999513
 30
0.0
  0
VERTEX
  5
233
  8
DEFAULT
 10
122.8626640418075
 20
60.44499999999024
 30
0.0
 42
-0.2515709245630764
  0
VERTEX
  5
234
  8
DEFAULT
 10
121.9038759379291
 20
60.96
 30
0.0
  0
VERTEX
  5
235
  8
DEFAULT
 10
117.5222525334942
 20
60.96
 30
0.0
 42
-0.2515710494382686
  0
VERTEX
  5
236
  8
DEFAULT
 10
116.5634640418358
 20
60.44500000005702
 30
0.0
  0
VERTEX
  5
237
  8
DEFAULT
 10
115.2426640418608
 20
60.44500000004862
 30
0.0
 42
-0.2515709245464272
  0
VERTEX
  5
238
  8
DEFAULT
 10
114.2838759379678
 20
60.96
 30
0.0
  0
VERTEX
  5
239
  8
DEFAULT
 10
114.2610642357366
 20
60.96
 30
0.0
  0
VERTEX
  5
23A
  8
DEFAULT
 10
113.2200384240358
 20
59.91897418829923
 30
0.0
 42
-0.5371484706196579
  0
VERTEX
  5
23B
  8
DEFAULT
 10
111.8640900474374
 20
58.56302581170077
 30
0.0
  0
VERTEX
  5
23C
  8
DEFAULT
 10
110.1880642357365
 20
56.88700000000001
 30
0.0
  0
VERTEX
  5
23D
  8
DEFAULT
 10
110.1880642357366
 20
49.79299999999998
 30
0.0
  0
VERTEX
  5
23E
  8
DEFAULT
 10
110.8019220122754
 20
49.17914222346117
 30
0.0
 42
-0.1625962958443739
  0
VERTEX
  5
23F
  8
DEFAULT
 10
111.4930641848865
 20
49.40999999999999
 30
0.0
  0
VERTEX
  5
240
  8
DEFAULT
 10
112.6930640418308
 20
49.40999972581813
 30
0.0
 42
-1.0000002878229
  0
VERTEX
  5
241
  8
DEFAULT
 10
112.6930640418308
 20
47.1099999999991
 30
0.0
  0
VERTEX
  5
242
  8
DEFAULT
 10
111.4930640418353
 20
47.11000027418093
 30
0.0
 42
-0.280165549160686
  0
VERTEX
  5
243
  8
DEFAULT
 10
110.4720381163336
 20
47.73084438631262
 30
0.0
  0
VERTEX
  5
244
  8
DEFAULT
 10
110.3706730672686
 20
47.8143911685209
 30
0.0
  0
VERTEX
  5
245
  8
DEFAULT
 10
109.1040642357366
 20
49.081
 30
0.0
 42
-0.1989026838333979
  0
VERTEX
  5
246
  8
DEFAULT
 10
108.9180732909838
 20
49.53
 30
0.0
  0
VERTEX
  5
247
  8
DEFAULT
 10
108.9180732909838
 20
57.14999909162522
 30
0.0
 42
-0.1989026991566384
  0
VERTEX
  5
248
  8
DEFAULT
 10
109.1040642357366
 20
57.599
 30
0.0
  0
VERTEX
  5
249
  8
DEFAULT
 10
110.9660900474373
 20
59.46102581170077
 30
0.0
  0
VERTEX
  5
24A
  8
DEFAULT
 10
110.9430642357365
 20
59.69
 30
0.0
 42
-0.4742190787913356
  0
VERTEX
  5
24B
  8
DEFAULT
 10
112.3220384240358
 20
60.81697418829923
 30
0.0
  0
VERTEX
  5
24C
  8
DEFAULT
 10
113.5490642357366
 20
62.04399999999998
 30
0.0
 42
-0.1989026876642915
  0
VERTEX
  5
24D
  8
DEFAULT
 10
113.9980644628303
 20
62.22999094475276
 30
0.0
  0
VERTEX
  5
24E
  8
DEFAULT
 10
114.2838759379035
 20
62.22999999999998
 30
0.0
 42
-0.2515709231354564
  0
VERTEX
  5
24F
  8
DEFAULT
 10
115.2426641993124
 20
62.74500000005695
 30
0.0
  0
SEQEND
  5
250
  8
DEFAULT
  0
POLYLINE
  5
251
  8
DEFAULT
 66
     1
 10
0.0
 20
0.0
 30
0.0
  0
VERTEX
  5
252
  8
DEFAULT
 10
119.1980642357366
 20
51.435
 30
0.0
 42
-2.803865677366998
  0
VERTEX
  5
253
  8
DEFAULT
 10
120.1190900474373
 20
50.30802581170079
 30
0.0
  0
VERTEX
  5
254
  8
DEFAULT
 10
118.7941075193185
 20
49.00087750657148
 30
0.0
 42
-0.280174170276285
  0
VERTEX
  5
255
  8
DEFAULT
 10
117.7730642865795
 20
48.38000000000028
 30
0.0
  0
VERTEX
  5
256
  8
DEFAULT
 10
116.5730644296262
 20
48.38000000000027
 30
0.0
 42
-1.000000084299848
  0
VERTEX
  5
257
  8
DEFAULT
 10
116.5730644296262
 20
50.67999972581882
 30
0.0
  0
VERTEX
  5
258
  8
DEFAULT
 10
117.7730644296307
 20
50.67999972581882
 30
0.0
 42
-0.162596490194992
  0
VERTEX
  5
259
  8
DEFAULT
 10
118.4642064591979
 20
50.44914222346129
 30
0.0
  0
VERTEX
  5
25A
  8
DEFAULT
 10
119.2210900474373
 20
51.20602581170076
 30
0.0
  0
VERTEX
  5
25B
  8
DEFAULT
 10
119.1980642357366
 20
51.435
 30
0.0
  0
SEQEND
  5
25C
  8
DEFAULT
  0
POLYLINE
  5
25D
  8
DEFAULT
 66
     1
 10
0.0
 20
0.0
 30
0.0
  0
VERTEX
  5
25E
  8
DEFAULT
 10
143.4780642357275
 20
64.79540001416369
 30
0.0
 42
-0.9999999929226817
  0
VERTEX
  5
25F
  8
DEFAULT
 10
145.4780642357185
 20
64.79539998584538
 30
0.0
  0
VERTEX
  5
260
  8
DEFAULT
 10
145.4780642357184
 20
63.5
 30
0.0
 42
-0.1295261718685875
  0
VERTEX
  5
261
  8
DEFAULT
 10
145.3482406515808
 20
63.00725969790518
 30
0.0
 42
-0.1800549474776459
  0
VERTEX
  5
262
  8
DEFAULT
 10
145.6280639615581
 20
62.25539980611264
 30
0.0
  0
VERTEX
  5
263
  8
DEFAULT
 10
145.6280642357321
 20
60.93459996356652
 30
0.0
 42
-0.2515709231192092
  0
VERTEX
  5
264
  8
DEFAULT
 10
145.1130642357365
 20
59.97581170220695
 30
0.0
  0
VERTEX
  5
265
  8
DEFAULT
 10
145.1130642357365
 20
58.68299999999999
 30
0.0
  0
VERTEX
  5
266
  8
DEFAULT
 10
146.6460642357366
 20
57.14999999999998
 30
0.0
  0
VERTEX
  5
267
  8
DEFAULT
 10
154.0030642357366
 20
57.14999999999997
 30
0.0
 42
-0.2008759562271055
  0
VERTEX
  5
268
  8
DEFAULT
 10
154.4554554042018
 20
56.96060883148188
 30
0.0
  0
VERTEX
  5
269
  8
DEFAULT
 10
155.0870642357366
 20
56.329
 30
0.0
 42
-0.1989026940489092
  0
VERTEX
  5
26A
  8
DEFAULT
 10
155.2730551804893
 20
55.8799993944168
 30
0.0
  0
VERTEX
  5
26B
  8
DEFAULT
 10
155.2730642357365
 20
52.41278829780092
 30
0.0
 42
-0.2515710494608085
  0
VERTEX
  5
26C
  8
DEFAULT
 10
155.7880642357365
 20
51.45399980612447
 30
0.0
  0
VERTEX
  5
26D
  8
DEFAULT
 10
155.788064235722
 20
50.14599996204987
 30
0.0
 42
-0.9999999669935851
  0
VERTEX
  5
26E
  8
DEFAULT
 10
153.4880642357075
 20
50.14599996204987
 30
0.0
  0
VERTEX
  5
26F
  8
DEFAULT
 10
153.4880645099034
 20
51.45399999999999
 30
0.0
 42
-0.2515711498576556
  0
VERTEX
  5
270
  8
DEFAULT
 10
154.0030642357366
 20
52.41278829780094
 30
0.0
  0
VERTEX
  5
271
  8
DEFAULT
 10
154.0030642357366
 20
55.617
 30
0.0
  0
VERTEX
  5
272
  8
DEFAULT
 10
153.7400642357366
 20
55.88
 30
0.0
  0
VERTEX
  5
273
  8
DEFAULT
 10
146.3830642357366
 20
55.88000905524726
 30
0.0
 42
-0.1989026346152749
  0
VERTEX
  5
274
  8
DEFAULT
 10
145.9340642357366
 20
56.066
 30
0.0
  0
VERTEX
  5
275
  8
DEFAULT
 10
144.0324554042292
 20
57.96760883150734
 30
0.0
 42
-0.2008759561909817
  0
VERTEX
  5
276
  8
DEFAULT
 10
143.8430642357366
 20
58.42
 30
0.0
  0
VERTEX
  5
277
  8
DEFAULT
 10
143.8430642357366
 20
59.97581170219119
 30
0.0
 42
-0.2515709231294661
  0
VERTEX
  5
278
  8
DEFAULT
 10
143.3280642357247
 20
60.93459996356651
 30
0.0
  0
VERTEX
  5
279
  8
DEFAULT
 10
143.3280642357246
 20
62.22999999999999
 30
0.0
  0
VERTEX
  5
27A
  8
DEFAULT
 10
142.5730644628302
 20
62.23000905524722
 30
0.0
 42
-0.1989026876643877
  0
VERTEX
  5
27B
  8
DEFAULT
 10
142.1240642357366
 20
62.416
 30
0.0
  0
VERTEX
  5
27C
  8
DEFAULT
 10
140.4050642357365
 20
64.135
 30
0.0
  0
VERTEX
  5
27D
  8
DEFAULT
 10
114.2610642357366
 20
64.135
 30
0.0
  0
VERTEX
  5
27E
  8
DEFAULT
 10
108.2830642357366
 20
58.15700000000002
 30
0.0
  0
VERTEX
  5
27F
  8
DEFAULT
 10
108.2830642357366
 20
48.52299999999999
 30
0.0
  0
VERTEX
  5
280
  8
DEFAULT
 10
110.4510642357366
 20
46.355
 30
0.0
  0
VERTEX
  5
281
  8
DEFAULT
 10
110.5342759379356
 20
46.35499999999999
 30
0.0
 42
-0.2515713230004447
  0
VERTEX
  5
282
  8
DEFAULT
 10
111.4930644296121
 20
46.86999972581865
 30
0.0
  0
VERTEX
  5
283
  8
DEFAULT
 10
112.6930644296313
 20
46.87000000000001
 30
0.0
 42
-0.9999998935920047
  0
VERTEX
  5
284
  8
DEFAULT
 10
112.6930642865802
 20
44.57000000000009
 30
0.0
  0
VERTEX
  5
285
  8
DEFAULT
 10
111.4930644296121
 20
44.57000000000007
 30
0.0
 42
-0.2515710494607584
  0
VERTEX
  5
286
  8
DEFAULT
 10
110.5342759379357
 20
45.085
 30
0.0
 42
-0.2254963623183017
  0
VERTEX
  5
287
  8
DEFAULT
 10
109.7356730672717
 20
45.27439116851768
 30
0.0
  0
VERTEX
  5
288
  8
DEFAULT
 10
107.1990642357366
 20
47.811
 30
0.0
 42
-0.1989026328092655
  0
VERTEX
  5
289
  8
DEFAULT
 10
107.0130732909838
 20
48.25999989294699
 30
0.0
  0
VERTEX
  5
28A
  8
DEFAULT
 10
107.0132235529708
 20
58.43422348429429
 30
0.0
  0
VERTEX
  5
28B
  8
DEFAULT
 10
107.0137072144428
 20
58.44856868102116
 30
0.0
  0
VERTEX
  5
28C
  8
DEFAULT
 10
107.0145235803837
 20
58.46302601556145
 30
0.0
  0
VERTEX
  5
28D
  8
DEFAULT
 10
107.0156807085086
 20
58.47758536698431
 30
0.0
  0
VERTEX
  5
28E
  8
DEFAULT
 10
107.0171863160629
 20
58.49223607456285
 30
0.0
  0
VERTEX
  5
28F
  8
DEFAULT
 10
107.0190477414304
 20
58.50696694711667
 30
0.0
  0
VERTEX
  5
290
  8
DEFAULT
 10
107.0212719055244
 20
58.52176627529377
 30
0.0
  0
VERTEX
  5
291
  8
DEFAULT
 10
107.0238652732021
 20
58.53662184688537
 30
0.0
  0
VERTEX
  5
292
  8
DEFAULT
 10
107.0268338149582
 20
58.55152096524735
 30
0.0
  0
VERTEX
  5
293
  8
DEFAULT
 10
107.0301829691657
 20
58.56645047087956
 30
0.0
  0
VERTEX
  5
294
  8
DEFAULT
 10
107.0339176051476
 20
58.58139676618899
 30
0.0
  0
VERTEX
  5
295
  8
DEFAULT
 10
107.0380419873693
 20
58.59634584343546
 30
0.0
  0
VERTEX
  5
296
  8
DEFAULT
 10
107.0425597410508
 20
58.6112833158311
 30
0.0
  0
VERTEX
  5
297
  8
DEFAULT
 10
107.0474738195005
 20
58.62619445173276
 30
0.0
  0
VERTEX
  5
298
  8
DEFAULT
 10
107.0527864734734
 20
58.64106421183681
 30
0.0
  0
VERTEX
  5
299
  8
DEFAULT
 10
107.0584992228542
 20
58.65587728925223
 30
0.0
  0
VERTEX
  5
29A
  8
DEFAULT
 10
107.0646128309566
 20
58.67061815229606
 30
0.0
  0
VERTEX
  5
29B
  8
DEFAULT
 10
107.0711272817248
 20
58.68527108982246
 30
0.0
  0
VERTEX
  5
29C
  8
DEFAULT
 10
107.0780417601017
 20
58.69982025886473
 30
0.0
  0
VERTEX
  5
29D
  8
DEFAULT
 10
107.085354635817
 20
58.71424973433871
 30
0.0
  0
VERTEX
  5
29E
  8
DEFAULT
 10
107.0930634508207
 20
58.72854356052709
 30
0.0
  0
VERTEX
  5
29F
  8
DEFAULT
 10
107.1011649105648
 20
58.74268580403653
 30
0.0
  0
VERTEX
  5
2A0
  8
DEFAULT
 10
107.1096548793066
 20
58.75666060789564
 30
0.0
  0
VERTEX
  5
2A1
  8
DEFAULT
 10
107.1185283795709
 20
58.77045224644013
 30
0.0
  0
VERTEX
  5
2A2
  8
DEFAULT
 10
107.1277795958789
 20
58.78404518061392
 30
0.0
  0
VERTEX
  5
2A3
  8
DEFAULT
 10
107.1374018828077
 20
58.79742411330115
 30
0.0
  0
VERTEX
  5
2A4
  8
DEFAULT
 10
107.1473877774092
 20
58.81057404429482
 30
0.0
  0
VERTEX
  5
2A5
  8
DEFAULT
 10
107.1577290159744
 20
58.82348032450263
 30
0.0
  0
VERTEX
  5
2A6
  8
DEFAULT
 10
107.168416555086
 20
58.83612870899105
 30
0.0
  0
VERTEX
  5
2A7
  8
DEFAULT
 10
107.1794405968646
 20
58.84850540847275
 30
0.0
  0
VERTEX
  5
2A8
  8
DEFAULT
 10
107.1907906182665
 20
58.86059713885349
 30
0.0
  0
VERTEX
  5
2A9
  8
DEFAULT
 10
107.2024554042573
 20
58.87239116846784
 30
0.0
  0
VERTEX
  5
2AA
  8
DEFAULT
 10
113.5490642357365
 20
65.219
 30
0.0
 42
-0.1989027374602168
  0
VERTEX
  5
2AB
  8
DEFAULT
 10
113.9980674150483
 20
65.40499094475277
 30
0.0
  0
VERTEX
  5
2AC
  8
DEFAULT
 10
140.6822877200308
 20
65.4048406827658
 30
0.0
  0
VERTEX
  5
2AD
  8
DEFAULT
 10
140.6966329167577
 20
65.40435702129378
 30
0.0
  0
VERTEX
  5
2AE
  8
DEFAULT
 10
140.7110902512979
 20
65.40354065535286
 30
0.0
  0
VERTEX
  5
2AF
  8
DEFAULT
 10
140.7256496027207
 20
65.40238352722798
 30
0.0
  0
VERTEX
  5
2B0
  8
DEFAULT
 10
140.7403003102992
 20
65.40087791967368
 30
0.0
  0
VERTEX
  5
2B1
  8
DEFAULT
 10
140.755031182853
 20
65.3990164943062
 30
0.0
  0
VERTEX
  5
2B2
  8
DEFAULT
 10
140.7698305110301
 20
65.39679233021224
 30
0.0
  0
VERTEX
  5
2B3
  8
DEFAULT
 10
140.7846860826216
 20
65.39419896253449
 30
0.0
  0
VERTEX
  5
2B4
  8
DEFAULT
 10
140.7995852009835
 20
65.3912304207784
 30
0.0
  0
VERTEX
  5
2B5
  8
DEFAULT
 10
140.8145147066157
 20
65.38788126657091
 30
0.0
  0
VERTEX
  5
2B6
  8
DEFAULT
 10
140.829461001925
 20
65.38414663058904
 30
0.0
  0
VERTEX
  5
2B7
  8
DEFAULT
 10
140.8444100791715
 20
65.3800222483674
 30
0.0
  0
VERTEX
  5
2B8
  8
DEFAULT
 10
140.8593475515671
 20
65.37550449468594
 30
0.0
  0
VERTEX
  5
2B9
  8
DEFAULT
 10
140.8742586874687
 20
65.3705904162363
 30
0.0
  0
VERTEX
  5
2BA
  8
DEFAULT
 10
140.8891284475727
 20
65.36527776226336
 30
0.0
  0
VERTEX
  5
2BB
  8
DEFAULT
 10
140.9039415249881
 20
65.35956501288267
 30
0.0
  0
VERTEX
  5
2BC
  8
DEFAULT
 10
140.9186823880319
 20
65.35345140478026
 30
0.0
  0
VERTEX
  5
2BD
  8
DEFAULT
 10
140.9333353255583
 20
65.34693695401214
 30
0.0
  0
VERTEX
  5
2BE
  8
DEFAULT
 10
140.9478844946005
 20
65.34002247563522
 30
0.0
  0
VERTEX
  5
2BF
  8
DEFAULT
 10
140.9623139700745
 20
65.33270959991995
 30
0.0
  0
VERTEX
  5
2C0
  8
DEFAULT
 10
140.9766077962628
 20
65.32500078491638
 30
0.0
  0
VERTEX
  5
2C1
  8
DEFAULT
 10
140.9907500397722
 20
65.31689932517224
 30
0.0
  0
VERTEX
  5
2C2
  8
DEFAULT
 10
141.0047248436313
 20
65.30840935643053
 30
0.0
  0
VERTEX
  5
2C3
  8
DEFAULT
 10
141.0185164821757
 20
65.29953585616623
 30
0.0
  0
VERTEX
  5
2C4
  8
DEFAULT
 10
141.0321094163495
 20
65.2902846398583
 30
0.0
  0
VERTEX
  5
2C5
  8
DEFAULT
 10
141.0454883490367
 20
65.2806623529296
 30
0.0
  0
VERTEX
  5
2C6
  8
DEFAULT
 10
141.0586382800304
 20
65.27067645832811
 30
0.0
  0
VERTEX
  5
2C7
  8
DEFAULT
 10
141.0715445602382
 20
65.26033521976305
 30
0.0
  0
VERTEX
  5
2C8
  8
DEFAULT
 10
141.0841929447266
 20
65.24964768065146
 30
0.0
  0
VERTEX
  5
2C9
  8
DEFAULT
 10
141.0965696442083
 20
65.23862363887295
 30
0.0
  0
VERTEX
  5
2CA
  8
DEFAULT
 10
141.108661374589
 20
65.22727361747107
 30
0.0
  0
VERTEX
  5
2CB
  8
DEFAULT
 10
141.1204554042033
 20
65.21560883148034
 30
0.0
  0
VERTEX
  5
2CC
  8
DEFAULT
 10
142.8359769317826
 20
63.50002910131796
 30
0.0
  0
VERTEX
  5
2CD
  8
DEFAULT
 10
143.4780642357366
 20
63.5
 30
0.0
  0
VERTEX
  5
2CE
  8
DEFAULT
 10
143.4780642357275
 20
64.79540001416369
 30
0.0
  0
SEQEND
  5
2CF
  8
DEFAULT
  0
POLYLINE
  5
2D0
  8
DEFAULT
 66
     1
 10
0.0
 20
0.0
 30
0.0
  0
VERTEX
  5
2D1
  8
DEFAULT
 10
111.4580642357366
 20
69.21499094475277
 30
0.0
  0
VERTEX
  5
2D2
  8
DEFAULT
 10
147.6672877200308
 20
69.2148406827658
 30
0.0
  0
VERTEX
  5
2D3
  8
DEFAULT
 10
147.6816329167576
 20
69.21435702129378
 30
0.0
  0
VERTEX
  5
2D4
  8
DEFAULT
 10
147.6960902512979
 20
69.21354065535286
 30
0.0
  0
VERTEX
  5
2D5
  8
DEFAULT
 10
147.7106496027207
 20
69.212383527228
 30
0.0
  0
VERTEX
  5
2D6
  8
DEFAULT
 10
147.7253003102992
 20
69.21087791967369
 30
0.0
  0
VERTEX
  5
2D7
  8
DEFAULT
 10
147.740031182853
 20
69.20901649430621
 30
0.0
  0
VERTEX
  5
2D8
  8
DEFAULT
 10
147.7548305110301
 20
69.20679233021225
 30
0.0
  0
VERTEX
  5
2D9
  8
DEFAULT
 10
147.7696860826216
 20
69.20419896253449
 30
0.0
  0
VERTEX
  5
2DA
  8
DEFAULT
 10
147.7845852009835
 20
69.20123042077842
 30
0.0
  0
VERTEX
  5
2DB
  8
DEFAULT
 10
147.7995147066157
 20
69.19788126657092
 30
0.0
  0
VERTEX
  5
2DC
  8
DEFAULT
 10
147.8144610019251
 20
69.19414663058905
 30
0.0
  0
VERTEX
  5
2DD
  8
DEFAULT
 10
147.8294100791715
 20
69.1900222483674
 30
0.0
  0
VERTEX
  5
2DE
  8
DEFAULT
 10
147.8443475515671
 20
69.18550449468596
 30
0.0
  0
VERTEX
  5
2DF
  8
DEFAULT
 10
147.8592586874688
 20
69.1805904162363
 30
0.0
  0
VERTEX
  5
2E0
  8
DEFAULT
 10
147.8741284475727
 20
69.17527776226335
 30
0.0
  0
VERTEX
  5
2E1
  8
DEFAULT
 10
147.8889415249881
 20
69.16956501288267
 30
0.0
  0
VERTEX
  5
2E2
  8
DEFAULT
 10
147.9036823880319
 20
69.16345140478028
 30
0.0
  0
VERTEX
  5
2E3
  8
DEFAULT
 10
147.9183353255583
 20
69.15693695401214
 30
0.0
  0
VERTEX
  5
2E4
  8
DEFAULT
 10
147.9328844946005
 20
69.15002247563525
 30
0.0
  0
VERTEX
  5
2E5
  8
DEFAULT
 10
147.9473139700745
 20
69.14270959991997
 30
0.0
  0
VERTEX
  5
2E6
  8
DEFAULT
 10
147.9616077962628
 20
69.13500078491637
 30
0.0
  0
VERTEX
  5
2E7
  8
DEFAULT
 10
147.9757500397722
 20
69.12689932517226
 30
0.0
  0
VERTEX
  5
2E8
  8
DEFAULT
 10
147.9897248436313
 20
69.11840935643056
 30
0.0
  0
VERTEX
  5
2E9
  8
DEFAULT
 10
148.0035164821757
 20
69.10953585616626
 30
0.0
  0
VERTEX
  5
2EA
  8
DEFAULT
 10
148.0171094163495
 20
69.10028463985832
 30
0.0
  0
VERTEX
  5
2EB
  8
DEFAULT
 10
148.0304883490367
 20
69.09066235292961
 30
0.0
  0
VERTEX
  5
2EC
  8
DEFAULT
 10
148.0436382800303
 20
69.08067645832813
 30
0.0
  0
VERTEX
  5
2ED
  8
DEFAULT
 10
148.0565445602381
 20
69.07033521976307
 30
0.0
  0
VERTEX
  5
2EE
  8
DEFAULT
 10
148.0691929447265
 20
69.05964768065147
 30
0.0
  0
VERTEX
  5
2EF
  8
DEFAULT
 10
148.0815696442082
 20
69.04862363887297
 30
0.0
  0
VERTEX
  5
2F0
  8
DEFAULT
 10
148.0936613745889
 20
69.03727361747109
 30
0.0
  0
VERTEX
  5
2F1
  8
DEFAULT
 10
148.1054554042033
 20
69.02560883148037
 30
0.0
  0
VERTEX
  5
2F2
  8
DEFAULT
 10
150.0070642357366
 20
67.124
 30
0.0
 42
-0.1989026838330904
  0
VERTEX
  5
2F3
  8
DEFAULT
 10
150.1930551804893
 20
66.67499999999998
 30
0.0
  0
VERTEX
  5
2F4
  8
DEFAULT
 10
150.1930642357366
 20
65.74886689862629
 30
0.0
 42
-0.2493780830035331
  0
VERTEX
  5
2F5
  8
DEFAULT
 10
150.700171335305
 20
64.79535264093019
 30
0.0
  0
VERTEX
  5
2F6
  8
DEFAULT
 10
150.7001716085456
 20
63.60910185491394
 30
0.0
 42
-0.1706094073956066
  0
VERTEX
  5
2F7
  8
DEFAULT
 10
150.5331990161705
 20
62.86500000000979
 30
0.0
 42
-0.1405911605270287
  0
VERTEX
  5
2F8
  8
DEFAULT
 10
150.7080642357488
 20
62.25540003642797
 30
0.0
  0
VERTEX
  5
2F9
  8
DEFAULT
 10
150.7080642357488
 20
62.23
 30
0.0
  0
VERTEX
  5
2FA
  8
DEFAULT
 10
157.1780642357365
 20
62.22999094475274
 30
0.0
 42
-0.1989026346153002
  0
VERTEX
  5
2FB
  8
DEFAULT
 10
157.6270642357366
 20
62.044
 30
0.0
  0
VERTEX
  5
2FC
  8
DEFAULT
 10
160.1670642357365
 20
59.504
 30
0.0
 42
-0.1989027004336157
  0
VERTEX
  5
2FD
  8
DEFAULT
 10
160.3530551804893
 20
59.05499901592732
 30
0.0
  0
VERTEX
  5
2FE
  8
DEFAULT
 10
160.3530642357366
 20
52.41278829778405
 30
0.0
 42
-0.2515709231535522
  0
VERTEX
  5
2FF
  8
DEFAULT
 10
160.868064235711
 20
51.45400004021533
 30
0.0
  0
VERTEX
  5
300
  8
DEFAULT
 10
160.8680642357238
 20
50.16499995975484
 30
0.0
 42
-0.9999999650097872
  0
VERTEX
  5
301
  8
DEFAULT
 10
158.5680642357366
 20
50.16499995975484
 30
0.0
  0
VERTEX
  5
302
  8
DEFAULT
 10
158.5680642357239
 20
51.45400004021533
 30
0.0
 42
-0.2515709231738707
  0
VERTEX
  5
303
  8
DEFAULT
 10
159.0830642357365
 20
52.4127882978178
 30
0.0
  0
VERTEX
  5
304
  8
DEFAULT
 10
159.0830642357366
 20
58.792
 30
0.0
  0
VERTEX
  5
305
  8
DEFAULT
 10
156.9150642357366
 20
60.96
 30
0.0
  0
VERTEX
  5
306
  8
DEFAULT
 10
150.7080642357488
 20
60.96
 30
0.0
  0
VERTEX
  5
307
  8
DEFAULT
 10
150.7080642357341
 20
60.9345999635611
 30
0.0
 42
-0.9999999683076444
  0
VERTEX
  5
308
  8
DEFAULT
 10
148.4080642357195
 20
60.93459996356108
 30
0.0
  0
VERTEX
  5
309
  8
DEFAULT
 10
148.4080645099155
 20
62.25540019387959
 30
0.0
 42
-0.1405913822338056
  0
VERTEX
  5
30A
  8
DEFAULT
 10
148.5829294553149
 20
62.8649999999902
 30
0.0
 42
-0.1405914690471992
  0
VERTEX
  5
30B
  8
DEFAULT
 10
148.408064508977
 20
63.47460000000065
 30
0.0
  0
VERTEX
  5
30C
  8
DEFAULT
 10
148.4080642357366
 20
64.66085097989179
 30
0.0
  0
VERTEX
  5
30D
  8
DEFAULT
 10
148.4001716085455
 20
64.79535283480578
 30
0.0
 42
-0.253754452032344
  0
VERTEX
  5
30E
  8
DEFAULT
 10
148.9230642357365
 20
65.75932189186548
 30
0.0
  0
VERTEX
  5
30F
  8
DEFAULT
 10
148.9230642357365
 20
66.41199999999999
 30
0.0
  0
VERTEX
  5
310
  8
DEFAULT
 10
147.3900642357366
 20
67.945
 30
0.0
  0
VERTEX
  5
311
  8
DEFAULT
 10
111.7210642357366
 20
67.945
 30
0.0
  0
VERTEX
  5
312
  8
DEFAULT
 10
104.4730642357366
 20
60.69700000000001
 30
0.0
  0
VERTEX
  5
313
  8
DEFAULT
 10
104.4730642357366
 20
43.44299999999999
 30
0.0
  0
VERTEX
  5
314
  8
DEFAULT
 10
109.1810642357366
 20
38.73499999999999
 30
0.0
  0
VERTEX
  5
315
  8
DEFAULT
 10
110.5342759379357
 20
38.73500000000001
 30
0.0
 42
-0.2515709232575058
  0
VERTEX
  5
316
  8
DEFAULT
 10
111.4930641848813
 20
39.24999999999997
 30
0.0
  0
VERTEX
  5
317
  8
DEFAULT
 10
112.6930640418464
 20
39.24999972581859
 30
0.0
 42
-1.000000287809461
  0
VERTEX
  5
318
  8
DEFAULT
 10
112.6930640418464
 20
36.95000000000001
 30
0.0
  0
VERTEX
  5
319
  8
DEFAULT
 10
111.4930640418302
 20
36.95000027418138
 30
0.0
 42
-0.2515710584710511
  0
VERTEX
  5
31A
  8
DEFAULT
 10
110.5342759379357
 20
37.46499999999999
 30
0.0
  0
VERTEX
  5
31B
  8
DEFAULT
 10
108.9180642357366
 20
37.465
 30
0.0
 42
-0.2008759562269297
  0
VERTEX
  5
31C
  8
DEFAULT
 10
108.4656730672717
 20
37.65439116851773
 30
0.0
  0
VERTEX
  5
31D
  8
DEFAULT
 10
103.3890642357366
 20
42.73099999999999
 30
0.0
 42
-0.1989027195861528
  0
VERTEX
  5
31E
  8
DEFAULT
 10
103.2030732909838
 20
43.18000211954117
 30
0.0
  0
VERTEX
  5
31F
  8
DEFAULT
 10
103.2030732909838
 20
60.96000000000001
 30
0.0
 42
-0.198902634615169
  0
VERTEX
  5
320
  8
DEFAULT
 10
103.3890642357366
 20
61.409
 30
0.0
  0
VERTEX
  5
321
  8
DEFAULT
 10
111.0090642357366
 20
69.029
 30
0.0
 42
-0.1989026838333755
  0
VERTEX
  5
322
  8
DEFAULT
 10
111.4580642357366
 20
69.21499094475277
 30
0.0
  0
SEQEND
  5
323
  8
DEFAULT
  0
POLYLINE
  5
324
  8
DEFAULT
 66
     1
 10
0.0
 20
0.0
 30
0.0
  0
VERTEX
  5
325
  8
DEFAULT
 10
112.7280642357366
 20
67.30999094475277
 30
0.0
  0
VERTEX
  5
326
  8
DEFAULT
 10
146.3972877200308
 20
67.30984068276578
 30
0.0
  0
VERTEX
  5
327
  8
DEFAULT
 10
146.4116329167576
 20
67.30935702129378
 30
0.0
  0
VERTEX
  5
328
  8
DEFAULT
 10
146.4260902512979
 20
67.30854065535286
 30
0.0
  0
VERTEX
  5
329
  8
DEFAULT
 10
146.4406496027208
 20
67.30738352722798
 30
0.0
  0
VERTEX
  5
32A
  8
DEFAULT
 10
146.4553003102992
 20
67.30587791967366
 30
0.0
  0
VERTEX
  5
32B
  8
DEFAULT
 10
146.4700311828531
 20
67.3040164943062
 30
0.0
  0
VERTEX
  5
32C
  8
DEFAULT
 10
146.4848305110301
 20
67.30179233021225
 30
0.0
  0
VERTEX
  5
32D
  8
DEFAULT
 10
146.4996860826217
 20
67.29919896253446
 30
0.0
  0
VERTEX
  5
32E
  8
DEFAULT
 10
146.5145852009836
 20
67.29623042077839
 30
0.0
  0
VERTEX
  5
32F
  8
DEFAULT
 10
146.5295147066158
 20
67.2928812665709
 30
0.0
  0
VERTEX
  5
330
  8
DEFAULT
 10
146.5444610019252
 20
67.28914663058902
 30
0.0
  0
VERTEX
  5
331
  8
DEFAULT
 10
146.5594100791716
 20
67.28502224836737
 30
0.0
  0
VERTEX
  5
332
  8
DEFAULT
 10
146.5743475515673
 20
67.2805044946859
 30
0.0
  0
VERTEX
  5
333
  8
DEFAULT
 10
146.5892586874689
 20
67.27559041623623
 30
0.0
  0
VERTEX
  5
334
  8
DEFAULT
 10
146.6041284475729
 20
67.27027776226326
 30
0.0
  0
VERTEX
  5
335
  8
DEFAULT
 10
146.6189415249883
 20
67.26456501288258
 30
0.0
  0
VERTEX
  5
336
  8
DEFAULT
 10
146.6336823880321
 20
67.25845140478019
 30
0.0
  0
VERTEX
  5
337
  8
DEFAULT
 10
146.6483353255585
 20
67.25193695401204
 30
0.0
  0
VERTEX
  5
338
  8
DEFAULT
 10
146.6628844946007
 20
67.24502247563511
 30
0.0
  0
VERTEX
  5
339
  8
DEFAULT
 10
146.6773139700747
 20
67.23770959991984
 30
0.0
  0
VERTEX
  5
33A
  8
DEFAULT
 10
146.6916077962631
 20
67.23000078491624
 30
0.0
  0
VERTEX
  5
33B
  8
DEFAULT
 10
146.7057500397725
 20
67.2218993251721
 30
0.0
  0
VERTEX
  5
33C
  8
DEFAULT
 10
146.7197248436316
 20
67.21340935643038
 30
0.0
  0
VERTEX
  5
33D
  8
DEFAULT
 10
146.733516482176
 20
67.20453585616606
 30
0.0
  0
VERTEX
  5
33E
  8
DEFAULT
 10
146.7471094163498
 20
67.19528463985809
 30
0.0
  0
VERTEX
  5
33F
  8
DEFAULT
 10
146.760488349037
 20
67.18566235292937
 30
0.0
  0
VERTEX
  5
340
  8
DEFAULT
 10
146.7736382800307
 20
67.17567645832789
 30
0.0
  0
VERTEX
  5
341
  8
DEFAULT
 10
146.7865445602385
 20
67.1653352197628
 30
0.0
  0
VERTEX
  5
342
  8
DEFAULT
 10
146.7991929447269
 20
67.15464768065117
 30
0.0
  0
VERTEX
  5
343
  8
DEFAULT
 10
146.8115696442086
 20
67.14362363887264
 30
0.0
  0
VERTEX
  5
344
  8
DEFAULT
 10
146.8236613745893
 20
67.13227361747074
 30
0.0
  0
VERTEX
  5
345
  8
DEFAULT
 10
146.8354554042037
 20
67.12060883148
 30
0.0
  0
VERTEX
  5
346
  8
DEFAULT
 10
147.4670642357366
 20
66.489
 30
0.0
 42
-0.1989026876641914
  0
VERTEX
  5
347
  8
DEFAULT
 10
147.6530551804893
 20
66.0399997729063
 30
0.0
  0
VERTEX
  5
348
  8
DEFAULT
 10
147.6530642357366
 20
65.75418829780597
 30
0.0
 42
-0.2515711833737067
  0
VERTEX
  5
349
  8
DEFAULT
 10
148.1680639615628
 20
64.79539980611791
 30
0.0
  0
VERTEX
  5
34A
  8
DEFAULT
 10
148.1680642357594
 20
63.47459996355827
 30
0.0
 42
-0.1405911605432364
  0
VERTEX
  5
34B
  8
DEFAULT
 10
147.9931990161872
 20
62.86499999997544
 30
0.0
 42
-0.1405912493649587
  0
VERTEX
  5
34C
  8
DEFAULT
 10
148.168064235744
 20
62.2554
 30
0.0
  0
VERTEX
  5
34D
  8
DEFAULT
 10
148.1680642357241
 20
60.93460019387592
 30
0.0
 42
-0.2515710607401797
  0
VERTEX
  5
34E
  8
DEFAULT
 10
147.6530642357366
 20
59.97581170222053
 30
0.0
  0
VERTEX
  5
34F
  8
DEFAULT
 10
147.6530642357366
 20
59.95299999999999
 30
0.0
  0
VERTEX
  5
350
  8
DEFAULT
 10
148.5510642357366
 20
59.05500000000001
 30
0.0
  0
VERTEX
  5
351
  8
DEFAULT
 10
155.9080642357366
 20
59.05499999999999
 30
0.0
 42
-0.2008759562278981
  0
VERTEX
  5
352
  8
DEFAULT
 10
156.3604554042031
 20
58.86560883148056
 30
0.0
  0
VERTEX
  5
353
  8
DEFAULT
 10
157.6270642357365
 20
57.59899999999998
 30
0.0
 42
-0.1989026838332657
  0
VERTEX
  5
354
  8
DEFAULT
 10
157.8130551804893
 20
57.15000000000001
 30
0.0
  0
VERTEX
  5
355
  8
DEFAULT
 10
157.8130642357365
 20
52.41278829779081
 30
0.0
 42
-0.2515711833674062
  0
VERTEX
  5
356
  8
DEFAULT
 10
158.32806396154
 20
51.45399980612387
 30
0.0
  0
VERTEX
  5
357
  8
DEFAULT
 10
158.3280642357289
 20
50.16499995978509
 30
0.0
 42
-0.9999999650338715
  0
VERTEX
  5
358
  8
DEFAULT
 10
156.0280642357366
 20
50.16499995978509
 30
0.0
  0
VERTEX
  5
359
  8
DEFAULT
 10
156.0280642357366
 20
51.4539999999988
 30
0.0
 42
-0.2515710159649702
  0
VERTEX
  5
35A
  8
DEFAULT
 10
156.5430642357366
 20
52.41278829781101
 30
0.0
  0
VERTEX
  5
35B
  8
DEFAULT
 10
156.5430642357366
 20
56.887
 30
0.0
  0
VERTEX
  5
35C
  8
DEFAULT
 10
155.6450642357366
 20
57.785
 30
0.0
  0
VERTEX
  5
35D
  8
DEFAULT
 10
148.2880651441113
 20
57.78500905524724
 30
0.0
 42
-0.1989026955528341
  0
VERTEX
  5
35E
  8
DEFAULT
 10
147.8390640843408
 20
57.97100015139581
 30
0.0
  0
VERTEX
  5
35F
  8
DEFAULT
 10
146.5724554042289
 20
59.23760883150764
 30
0.0
 42
-0.2008759561907466
  0
VERTEX
  5
360
  8
DEFAULT
 10
146.3830642357366
 20
59.69
 30
0.0
  0
VERTEX
  5
361
  8
DEFAULT
 10
146.3830642357366
 20
59.97581170217767
 30
0.0
 42
-0.2515711498737793
  0
VERTEX
  5
362
  8
DEFAULT
 10
145.8680645098856
 20
60.93460000000041
 30
0.0
  0
VERTEX
  5
363
  8
DEFAULT
 10
145.8680645099055
 20
62.2554
 30
0.0
 42
-0.1405914374680837
  0
VERTEX
  5
364
  8
DEFAULT
 10
146.0429294553316
 20
62.86500000002459
 30
0.0
 42
-0.1405911605182009
  0
VERTEX
  5
365
  8
DEFAULT
 10
145.8680642357748
 20
63.47459996355826
 30
0.0
  0
VERTEX
  5
366
  8
DEFAULT
 10
145.8680642357747
 20
64.79539999998686
 30
0.0
 42
-0.2515710159679704
  0
VERTEX
  5
367
  8
DEFAULT
 10
146.3830642357365
 20
65.75418829779588
 30
0.0
  0
VERTEX
  5
368
  8
DEFAULT
 10
146.3830642357366
 20
65.777
 30
0.0
  0
VERTEX
  5
369
  8
DEFAULT
 10
146.1200642357365
 20
66.04000000000002
 30
0.0
  0
VERTEX
  5
36A
  8
DEFAULT
 10
112.9910642357366
 20
66.04
 30
0.0
  0
VERTEX
  5
36B
  8
DEFAULT
 10
106.3780642357366
 20
59.42700000000001
 30
0.0
  0
VERTEX
  5
36C
  8
DEFAULT
 10
106.3780642357366
 20
44.07799999999999
 30
0.0
  0
VERTEX
  5
36D
  8
DEFAULT
 10
109.1810642357366
 20
41.275
 30
0.0
  0
VERTEX
  5
36E
  8
DEFAULT
 10
110.5342759379361
 20
41.275
 30
0.0
 42
-0.2515709232571886
  0
VERTEX
  5
36F
  8
DEFAULT
 10
111.4930641848964
 20
41.78999999999935
 30
0.0
  0
VERTEX
  5
370
  8
DEFAULT
 10
112.6930640418474
 20
41.78999999999965
 30
0.0
 42
-1.000000168599464
  0
VERTEX
  5
371
  8
DEFAULT
 10
112.6930640418474
 20
39.48999999999999
 30
0.0
  0
VERTEX
  5
372
  8
DEFAULT
 10
111.4930641848964
 20
39.48999999999971
 30
0.0
 42
-0.2515709232576329
  0
VERTEX
  5
373
  8
DEFAULT
 10
110.5342759379352
 20
40.005
 30
0.0
  0
VERTEX
  5
374
  8
DEFAULT
 10
108.9180642357366
 20
40.00500000000001
 30
0.0
 42
-0.2008759562270493
  0
VERTEX
  5
375
  8
DEFAULT
 10
108.4656730672715
 20
40.19439116851795
 30
0.0
  0
VERTEX
  5
376
  8
DEFAULT
 10
105.2940642357366
 20
43.36600000000001
 30
0.0
 42
-0.1989026346152724
  0
VERTEX
  5
377
  8
DEFAULT
 10
105.1080732909838
 20
43.815
 30
0.0
  0
VERTEX
  5
378
  8
DEFAULT
 10
105.1082235529708
 20
59.70422348429422
 30
0.0
  0
VERTEX
  5
379
  8
DEFAULT
 10
105.1087072144427
 20
59.71856868102102
 30
0.0
  0
VERTEX
  5
37A
  8
DEFAULT
 10
105.1095235803837
 20
59.73302601556124
 30
0.0
  0
VERTEX
  5
37B
  8
DEFAULT
 10
105.1106807085086
 20
59.74758536698405
 30
0.0
  0
VERTEX
  5
37C
  8
DEFAULT
 10
105.1121863160629
 20
59.76223607456252
 30
0.0
  0
VERTEX
  5
37D
  8
DEFAULT
 10
105.1140477414303
 20
59.77696694711627
 30
0.0
  0
VERTEX
  5
37E
  8
DEFAULT
 10
105.1162719055243
 20
59.79176627529332
 30
0.0
  0
VERTEX
  5
37F
  8
DEFAULT
 10
105.118865273202
 20
59.80662184688484
 30
0.0
  0
VERTEX
  5
380
  8
DEFAULT
 10
105.1218338149581
 20
59.82152096524673
 30
0.0
  0
VERTEX
  5
381
  8
DEFAULT
 10
105.1251829691656
 20
59.83645047087889
 30
0.0
  0
VERTEX
  5
382
  8
DEFAULT
 10
105.1289176051474
 20
59.85139676618824
 30
0.0
  0
VERTEX
  5
383
  8
DEFAULT
 10
105.1330419873691
 20
59.86634584343465
 30
0.0
  0
VERTEX
  5
384
  8
DEFAULT
 10
105.1375597410505
 20
59.88128331583022
 30
0.0
  0
VERTEX
  5
385
  8
DEFAULT
 10
105.1424738195001
 20
59.89619445173182
 30
0.0
  0
VERTEX
  5
386
  8
DEFAULT
 10
105.1477864734731
 20
59.91106421183581
 30
0.0
  0
VERTEX
  5
387
  8
DEFAULT
 10
105.1534992228537
 20
59.92587728925116
 30
0.0
  0
VERTEX
  5
388
  8
DEFAULT
 10
105.1596128309561
 20
59.94061815229493
 30
0.0
  0
VERTEX
  5
389
  8
DEFAULT
 10
105.1661272817242
 20
59.95527108982128
 30
0.0
  0
VERTEX
  5
38A
  8
DEFAULT
 10
105.1730417601011
 20
59.96982025886351
 30
0.0
  0
VERTEX
  5
38B
  8
DEFAULT
 10
105.1803546358164
 20
59.98424973433744
 30
0.0
  0
VERTEX
  5
38C
  8
DEFAULT
 10
105.1880634508199
 20
59.99854356052577
 30
0.0
  0
VERTEX
  5
38D
  8
DEFAULT
 10
105.196164910564
 20
60.01268580403515
 30
0.0
  0
VERTEX
  5
38E
  8
DEFAULT
 10
105.2046548793057
 20
60.02666060789422
 30
0.0
  0
VERTEX
  5
38F
  8
DEFAULT
 10
105.21352837957
 20
60.04045224643868
 30
0.0
  0
VERTEX
  5
390
  8
DEFAULT
 10
105.2227795958779
 20
60.05404518061242
 30
0.0
  0
VERTEX
  5
391
  8
DEFAULT
 10
105.2324018828066
 20
60.06742411329962
 30
0.0
  0
VERTEX
  5
392
  8
DEFAULT
 10
105.242387777408
 20
60.08057404429326
 30
0.0
  0
VERTEX
  5
393
  8
DEFAULT
 10
105.252729015973
 20
60.09348032450103
 30
0.0
  0
VERTEX
  5
394
  8
DEFAULT
 10
105.2634165550846
 20
60.10612870898942
 30
0.0
  0
VERTEX
  5
395
  8
DEFAULT
 10
105.2744405968631
 20
60.11850540847109
 30
0.0
  0
VERTEX
  5
396
  8
DEFAULT
 10
105.2857906182649
 20
60.13059713885183
 30
0.0
  0
VERTEX
  5
397
  8
DEFAULT
 10
105.2974554042556
 20
60.14239116846617
 30
0.0
  0
VERTEX
  5
398
  8
DEFAULT
 10
112.2790642357366
 20
67.124
 30
0.0
 42
-0.198902683833395
  0
VERTEX
  5
399
  8
DEFAULT
 10
112.7280642357366
 20
67.30999094475277
 30
0.0
  0
SEQEND
  5
39A
  8
DEFAULT
  0
POLYLINE
  5
39B
  8
DEFAULT
 66
     1
 10
0.0
 20
0.0
 30
0.0
  0
VERTEX
  5
39C
  8
DEFAULT
 10
100.1480642357366
 20
56.515
 30
0.0
 42
-1.672264226310025
  0
VERTEX
  5
39D
  8
DEFAULT
 10
101.9330642357365
 20
55.55621170219909
 30
0.0
  0
VERTEX
  5
39E
  8
DEFAULT
 10
101.9330642357366
 20
18.04300000000001
 30
0.0
  0
VERTEX
  5
39F
  8
DEFAULT
 10
105.3710642357366
 20
14.60500000000001
 30
0.0
  0
VERTEX
  5
3A0
  8
DEFAULT
 10
108.0200642357366
 20
14.605
 30
0.0
  0
VERTEX
  5
3A1
  8
DEFAULT
 10
109.2532440706799
 20
15.83817983494337
 30
0.0
  0
VERTEX
  5
3A2
  8
DEFAULT
 10
109.2158642356943
 20
16.129000048323
 30
0.0
  0
VERTEX
  5
3A3
  8
DEFAULT
 10
109.2158645098862
 20
18.16100019388502
 30
0.0
 42
-0.5189544681748808
  0
VERTEX
  5
3A4
  8
DEFAULT
 10
110.7536942949967
 20
19.24363005921594
 30
0.0
  0
VERTEX
  5
3A5
  8
DEFAULT
 10
111.005673067244
 20
19.49560883150746
 30
0.0
 42
-0.2008759561908733
  0
VERTEX
  5
3A6
  8
DEFAULT
 10
111.4580642357366
 20
19.685
 30
0.0
  0
VERTEX
  5
3A7
  8
DEFAULT
 10
112.836075937924
 20
19.68499999999999
 30
0.0
 42
-0.2515709227444185
  0
VERTEX
  5
3A8
  8
DEFAULT
 10
113.7948642417029
 20
20.20000000001847
 30
0.0
  0
VERTEX
  5
3A9
  8
DEFAULT
 10
115.4712640418608
 20
20.20000000001946
 30
0.0
 42
-1.000000168587202
  0
VERTEX
  5
3AA
  8
DEFAULT
 10
115.4712640418608
 20
17.90000000001854
 30
0.0
  0
VERTEX
  5
3AB
  8
DEFAULT
 10
115.2680642357366
 20
17.90000000001751
 30
0.0
  0
VERTEX
  5
3AC
  8
DEFAULT
 10
115.2680642357366
 20
16.39000000008668
 30
0.0
  0
VERTEX
  5
3AD
  8
DEFAULT
 10
115.4712640418486
 20
16.39000000008665
 30
0.0
 42
-1.000000168575518
  0
VERTEX
  5
3AE
  8
DEFAULT
 10
115.4712640418486
 20
14.09000000003453
 30
0.0
  0
VERTEX
  5
3AF
  8
DEFAULT
 10
113.7948640418155
 20
14.08999999998233
 30
0.0
 42
-0.999999833987109
  0
VERTEX
  5
3B0
  8
DEFAULT
 10
113.794864241658
 20
16.39000000003446
 30
0.0
  0
VERTEX
  5
3B1
  8
DEFAULT
 10
113.9980642357365
 20
16.39000000008668
 30
0.0
  0
VERTEX
  5
3B2
  8
DEFAULT
 10
113.9980642357365
 20
17.90000000001751
 30
0.0
  0
VERTEX
  5
3B3
  8
DEFAULT
 10
113.7948640418604
 20
17.90000000001755
 30
0.0
 42
-0.2515709245550296
  0
VERTEX
  5
3B4
  8
DEFAULT
 10
112.8360759379472
 20
18.415
 30
0.0
  0
VERTEX
  5
3B5
  8
DEFAULT
 10
111.7210642357366
 20
18.415
 30
0.0
  0
VERTEX
  5
3B6
  8
DEFAULT
 10
111.5148701514624
 20
18.20880591572581
 30
0.0
  0
VERTEX
  5
3B7
  8
DEFAULT
 10
111.5158642357153
 20
18.16099995165174
 30
0.0
  0
VERTEX
  5
3B8
  8
DEFAULT
 10
111.5158642357048
 20
16.129000048323
 30
0.0
 42
-0.4567850015150937
  0
VERTEX
  5
3B9
  8
DEFAULT
 10
110.2018240127377
 20
14.99075977700119
 30
0.0
  0
VERTEX
  5
3BA
  8
DEFAULT
 10
108.7320642357366
 20
13.521
 30
0.0
 42
-0.1989026346152303
  0
VERTEX
  5
3BB
  8
DEFAULT
 10
108.2830642357365
 20
13.33500905527315
 30
0.0
  0
VERTEX
  5
3BC
  8
DEFAULT
 10
105.1080642357365
 20
13.33499999996275
 30
0.0
 42
-0.2008759561911534
  0
VERTEX
  5
3BD
  8
DEFAULT
 10
104.6556730672703
 20
13.52439116851906
 30
0.0
  0
VERTEX
  5
3BE
  8
DEFAULT
 10
100.8490642357366
 20
17.331
 30
0.0
 42
-0.1989026346152142
  0
VERTEX
  5
3BF
  8
DEFAULT
 10
100.6630732909838
 20
17.78
 30
0.0
  0
VERTEX
  5
3C0
  8
DEFAULT
 10
100.6630642357366
 20
55.55621170219908
 30
0.0
 42
-0.2515710159538994
  0
VERTEX
  5
3C1
  8
DEFAULT
 10
100.1480642357366
 20
56.515
 30
0.0
  0
SEQEND
  5
3C2
  8
DEFAULT
  0
POLYLINE
  5
3C3
  8
DEFAULT
 66
     1
 10
0.0
 20
0.0
 30
0.0
  0
VERTEX
  5
3C4
  8
DEFAULT
 10
110.9430642357366
 20
56.515
 30
0.0
 42
-0.8018277828226266
  0
VERTEX
  5
3C5
  8
DEFAULT
 10
113.1344209284597
 20
57.00293056731535
 30
0.0
 42
-0.0227451449687906
  0
VERTEX
  5
3C6
  8
DEFAULT
 10
113.1770642357366
 20
56.964
 30
0.0
  0
VERTEX
  5
3C7
  8
DEFAULT
 10
114.4470642357366
 20
55.694
 30
0.0
 42
-0.198902632809359
  0
VERTEX
  5
3C8
  8
DEFAULT
 10
114.6330551805589
 20
55.24500010705301
 30
0.0
  0
VERTEX
  5
3C9
  8
DEFAULT
 10
114.6330642357934
 20
52.07
 30
0.0
 42
-0.200875956170774
  0
VERTEX
  5
3CA
  8
DEFAULT
 10
114.4436730672197
 20
51.61760883153595
 30
0.0
  0
VERTEX
  5
3CB
  8
DEFAULT
 10
113.6909565108027
 20
50.86489227506615
 30
0.0
 42
-0.4333638029312684
  0
VERTEX
  5
3CC
  8
DEFAULT
 10
112.6930642612912
 20
49.80000000000003
 30
0.0
  0
VERTEX
  5
3CD
  8
DEFAULT
 10
111.4930644043383
 20
49.80000023842113
 30
0.0
 42
-1.000000372094591
  0
VERTEX
  5
3CE
  8
DEFAULT
 10
111.4930644043383
 20
51.79999976158648
 30
0.0
  0
VERTEX
  5
3CF
  8
DEFAULT
 10
112.6930644043423
 20
51.79999976158392
 30
0.0
  0
VERTEX
  5
3D0
  8
DEFAULT
 10
112.8217496960977
 20
51.79168546036111
 30
0.0
  0
VERTEX
  5
3D1
  8
DEFAULT
 10
113.3630642357366
 20
52.33300000000001
 30
0.0
  0
VERTEX
  5
3D2
  8
DEFAULT
 10
113.3630642357366
 20
54.98199999999999
 30
0.0
  0
VERTEX
  5
3D3
  8
DEFAULT
 10
112.7640340170991
 20
55.58103021863749
 30
0.0
 42
-0.6109639512235636
  0
VERTEX
  5
3D4
  8
DEFAULT
 10
110.9430642357366
 20
56.515
 30
0.0
  0
SEQEND
  5
3D5
  8
DEFAULT
  0
POLYLINE
  5
3D6
  8
DEFAULT
 66
     1
 10
0.0
 20
0.0
 30
0.0
  0
VERTEX
  5
3D7
  8
DEFAULT
 10
132.5330642357366
 20
74.295
 30
0.0
 42
-0.7432324686653209
  0
VERTEX
  5
3D8
  8
DEFAULT
 10
134.6418525335375
 20
74.93000000000002
 30
0.0
  0
VERTEX
  5
3D9
  8
DEFAULT
 10
150.8280642357365
 20
74.93
 30
0.0
 42
-0.2008759562279844
  0
VERTEX
  5
3DA
  8
DEFAULT
 10
151.2804554042031
 20
74.74060883148053
 30
0.0
  0
VERTEX
  5
3DB
  8
DEFAULT
 10
169.5060553056768
 20
56.51500297683054
 30
0.0
  0
VERTEX
  5
3DC
  8
DEFAULT
 10
174.3230642357366
 20
56.51499999966472
 30
0.0
 42
-0.2008759565562555
  0
VERTEX
  5
3DD
  8
DEFAULT
 10
174.7754554042036
 20
56.32560883148005
 30
0.0
  0
VERTEX
  5
3DE
  8
DEFAULT
 10
177.3120642357366
 20
53.78899999999999
 30
0.0
 42
-0.1989026940491991
  0
VERTEX
  5
3DF
  8
DEFAULT
 10
177.4980551804893
 20
53.33999939441681
 30
0.0
  0
VERTEX
  5
3E0
  8
DEFAULT
 10
177.4979049185023
 20
48.2457765157058
 30
0.0
  0
VERTEX
  5
3E1
  8
DEFAULT
 10
177.4974212570304
 20
48.23143131897903
 30
0.0
  0
VERTEX
  5
3E2
  8
DEFAULT
 10
177.4966048910894
 20
48.21697398443884
 30
0.0
  0
VERTEX
  5
3E3
  8
DEFAULT
 10
177.4954477629645
 20
48.20241463301605
 30
0.0
  0
VERTEX
  5
3E4
  8
DEFAULT
 10
177.4939421554103
 20
48.18776392543763
 30
0.0
  0
VERTEX
  5
3E5
  8
DEFAULT
 10
177.4920807300428
 20
48.1730330528839
 30
0.0
  0
VERTEX
  5
3E6
  8
DEFAULT
 10
177.4898565659489
 20
48.15823372470689
 30
0.0
  0
VERTEX
  5
3E7
  8
DEFAULT
 10
177.4872631982711
 20
48.14337815311539
 30
0.0
  0
VERTEX
  5
3E8
  8
DEFAULT
 10
177.484294656515
 20
48.12847903475352
 30
0.0
  0
VERTEX
  5
3E9
  8
DEFAULT
 10
177.4809455023076
 20
48.11354952912139
 30
0.0
  0
VERTEX
  5
3EA
  8
DEFAULT
 10
177.4772108663258
 20
48.09860323381209
 30
0.0
  0
VERTEX
  5
3EB
  8
DEFAULT
 10
177.4730864841041
 20
48.0836541565657
 30
0.0
  0
VERTEX
  5
3EC
  8
DEFAULT
 10
177.4685687304227
 20
48.06871668417016
 30
0.0
  0
VERTEX
  5
3ED
  8
DEFAULT
 10
177.4636546519731
 20
48.05380554826856
 30
0.0
  0
VERTEX
  5
3EE
  8
DEFAULT
 10
177.4583419980002
 20
48.0389357881646
 30
0.0
  0
VERTEX
  5
3EF
  8
DEFAULT
 10
177.4526292486195
 20
48.02412271074928
 30
0.0
  0
VERTEX
  5
3F0
  8
DEFAULT
 10
177.4465156405172
 20
48.00938184770554
 30
0.0
  0
VERTEX
  5
3F1
  8
DEFAULT
 10
177.4400011897491
 20
47.99472891017922
 30
0.0
  0
VERTEX
  5
3F2
  8
DEFAULT
 10
177.4330867113723
 20
47.98017974113703
 30
0.0
  0
VERTEX
  5
3F3
  8
DEFAULT
 10
177.4257738356571
 20
47.96575026566312
 30
0.0
  0
VERTEX
  5
3F4
  8
DEFAULT
 10
177.4180650206535
 20
47.9514564394748
 30
0.0
  0
VERTEX
  5
3F5
  8
DEFAULT
 10
177.4099635609094
 20
47.93731419596543
 30
0.0
  0
VERTEX
  5
3F6
  8
DEFAULT
 10
177.4014735921678
 20
47.92333939210641
 30
0.0
  0
VERTEX
  5
3F7
  8
DEFAULT
 10
177.3926000919035
 20
47.90954775356197
 30
0.0
  0
VERTEX
  5
3F8
  8
DEFAULT
 10
177.3833488755957
 20
47.89595481938824
 30
0.0
  0
VERTEX
  5
3F9
  8
DEFAULT
 10
177.373726588667
 20
47.88257588670106
 30
0.0
  0
VERTEX
  5
3FA
  8
DEFAULT
 10
177.3637406940656
 20
47.86942595570744
 30
0.0
  0
VERTEX
  5
3FB
  8
DEFAULT
 10
177.3533994555006
 20
47.85651967549965
 30
0.0
  0
VERTEX
  5
3FC
  8
DEFAULT
 10
177.3427119163891
 20
47.84387129101128
 30
0.0
  0
VERTEX
  5
3FD
  8
DEFAULT
 10
177.3316878746107
 20
47.83149459152961
 30
0.0
  0
VERTEX
  5
3FE
  8
DEFAULT
 10
177.3203378532089
 20
47.81940286114889
 30
0.0
  0
VERTEX
  5
3FF
  8
DEFAULT
 10
177.3086730672183
 20
47.80760883153454
 30
0.0
  0
VERTEX
  5
400
  8
DEFAULT
 10
174.1370642357366
 20
44.636
 30
0.0
 42
-0.1989026838334184
  0
VERTEX
  5
401
  8
DEFAULT
 10
173.6880642357366
 20
44.45000905524723
 30
0.0
  0
VERTEX
  5
402
  8
DEFAULT
 10
168.2360642357366
 20
44.45
 30
0.0
  0
VERTEX
  5
403
  8
DEFAULT
 10
165.4330642357366
 20
41.64700000000001
 30
0.0
  0
VERTEX
  5
404
  8
DEFAULT
 10
165.4330642357366
 20
37.17278829779384
 30
0.0
 42
-0.2515711833684857
  0
VERTEX
  5
405
  8
DEFAULT
 10
165.9480639615444
 20
36.21399980610676
 30
0.0
  0
VERTEX
  5
406
  8
DEFAULT
 10
165.9480642357491
 20
34.90599996204381
 30
0.0
 42
-0.2515709231612764
  0
VERTEX
  5
407
  8
DEFAULT
 10
165.4330642357366
 20
33.94721170217534
 30
0.0
  0
VERTEX
  5
408
  8
DEFAULT
 10
165.4330642357366
 20
32.90000000000671
 30
0.0
  0
VERTEX
  5
409
  8
DEFAULT
 10
165.4584644296373
 20
32.90000000000667
 30
0.0
 42
-0.9999998998464609
  0
VERTEX
  5
40A
  8
DEFAULT
 10
165.4584642721857
 20
30.60000000000343
 30
0.0
  0
VERTEX
  5
40B
  8
DEFAULT
 10
165.4330642357366
 20
30.6
 30
0.0
  0
VERTEX
  5
40C
  8
DEFAULT
 10
165.4330642357366
 20
30.36000000001371
 30
0.0
  0
VERTEX
  5
40D
  8
DEFAULT
 10
165.4584640418604
 20
30.36000000001368
 30
0.0
 42
-1.000000168585004
  0
VERTEX
  5
40E
  8
DEFAULT
 10
165.4584640418604
 20
28.06000000000688
 30
0.0
  0
VERTEX
  5
40F
  8
DEFAULT
 10
164.1376640417486
 20
28.06000027418139
 30
0.0
 42
-1.000000103324014
  0
VERTEX
  5
410
  8
DEFAULT
 10
164.1376641992002
 20
30.36000000000682
 30
0.0
  0
VERTEX
  5
411
  8
DEFAULT
 10
164.1630642357366
 20
30.36000000001371
 30
0.0
  0
VERTEX
  5
412
  8
DEFAULT
 10
164.1630642357366
 20
30.60000000000001
 30
0.0
  0
VERTEX
  5
413
  8
DEFAULT
 10
164.1376641993104
 20
30.60000000000004
 30
0.0
 42
-0.9999998155752626
  0
VERTEX
  5
414
  8
DEFAULT
 10
164.1376641993104
 20
32.9000000000033
 30
0.0
  0
VERTEX
  5
415
  8
DEFAULT
 10
164.1630642357366
 20
32.90000000000671
 30
0.0
  0
VERTEX
  5
416
  8
DEFAULT
 10
164.1630642357366
 20
33.94721170222279
 30
0.0
 42
-0.2515709231300997
  0
VERTEX
  5
417
  8
DEFAULT
 10
163.6480642357725
 20
34.90599996204381
 30
0.0
  0
VERTEX
  5
418
  8
DEFAULT
 10
163.6480642357724
 20
36.21399999996454
 30
0.0
 42
-0.2515710159851601
  0
VERTEX
  5
419
  8
DEFAULT
 10
164.1630642357366
 20
37.17278829780804
 30
0.0
  0
VERTEX
  5
41A
  8
DEFAULT
 10
164.1630732909838
 20
41.910000107053
 30
0.0
 42
-0.1989026328093036
  0
VERTEX
  5
41B
  8
DEFAULT
 10
164.3490642357366
 20
42.359
 30
0.0
  0
VERTEX
  5
41C
  8
DEFAULT
 10
167.5206730672448
 20
45.53060883150828
 30
0.0
 42
-0.2008759561903911
  0
VERTEX
  5
41D
  8
DEFAULT
 10
167.9730642357366
 20
45.71999999999999
 30
0.0
  0
VERTEX
  5
41E
  8
DEFAULT
 10
173.4250642357366
 20
45.72
 30
0.0
  0
VERTEX
  5
41F
  8
DEFAULT
 10
176.2280642357366
 20
48.523
 30
0.0
  0
VERTEX
  5
420
  8
DEFAULT
 10
176.2280642357366
 20
53.077
 30
0.0
  0
VERTEX
  5
421
  8
DEFAULT
 10
174.0600642357365
 20
55.245
 30
0.0
  0
VERTEX
  5
422
  8
DEFAULT
 10
169.2430648413198
 20
55.24500905524724
 30
0.0
 42
-0.1989026940490354
  0
VERTEX
  5
423
  8
DEFAULT
 10
168.7940642357365
 20
55.43099999999999
 30
0.0
  0
VERTEX
  5
424
  8
DEFAULT
 10
150.5650642357366
 20
73.66
 30
0.0
  0
VERTEX
  5
425
  8
DEFAULT
 10
134.6418525335374
 20
73.66000000000001
 30
0.0
 42
-0.7432324686653398
  0
VERTEX
  5
426
  8
DEFAULT
 10
132.5330642357366
 20
74.295
 30
0.0
  0
SEQEND
  5
427
  8
DEFAULT
  0
POLYLINE
  5
428
  8
DEFAULT
 66
     1
 10
0.0
 20
0.0
 30
0.0
  0
VERTEX
  5
429
  8
DEFAULT
 10
119.3892759379356
 20
72.38999999999999
 30
0.0
 42
-3.320926453229827
  0
VERTEX
  5
42A
  8
DEFAULT
 10
119.3892759379356
 20
71.11999999999999
 30
0.0
  0
VERTEX
  5
42B
  8
DEFAULT
 10
112.3560642357366
 20
71.12
 30
0.0
  0
VERTEX
  5
42C
  8
DEFAULT
 10
99.39306423573657
 20
58.15700000000001
 30
0.0
  0
VERTEX
  5
42D
  8
DEFAULT
 10
99.39306423573656
 20
32.70878829780095
 30
0.0
 42
-3.320926453229971
  0
VERTEX
  5
42E
  8
DEFAULT
 10
98.12306423573655
 20
32.70878829780091
 30
0.0
  0
VERTEX
  5
42F
  8
DEFAULT
 10
98.12306423573654
 20
58.42
 30
0.0
 42
-0.2008759562278053
  0
VERTEX
  5
430
  8
DEFAULT
 10
98.31245540425566
 20
58.87239116846621
 30
0.0
  0
VERTEX
  5
431
  8
DEFAULT
 10
111.6440642357366
 20
72.204
 30
0.0
 42
-0.1989026346152039
  0
VERTEX
  5
432
  8
DEFAULT
 10
112.0930642357366
 20
72.38999094475277
 30
0.0
  0
VERTEX
  5
433
  8
DEFAULT
 10
119.3892759379356
 20
72.39
 30
0.0
  0
SEQEND
  5
434
  8
DEFAULT
  0
POLYLINE
  5
435
  8
DEFAULT
 66
     1
 10
0.0
 20
0.0
 30
0.0
  0
VERTEX
  5
436
  8
DEFAULT
 10
132.7242759379357
 20
55.245
 30
0.0
 42
-3.32092645322984
  0
VERTEX
  5
437
  8
DEFAULT
 10
132.7242759379356
 20
53.975
 30
0.0
  0
VERTEX
  5
438
  8
DEFAULT
 10
118.7060642357366
 20
53.975
 30
0.0
  0
VERTEX
  5
439
  8
DEFAULT
 10
117.9390258910374
 20
53.20796165530086
 30
0.0
 42
-0.9300905237791255
  0
VERTEX
  5
43A
  8
DEFAULT
 10
117.773064041841
 20
50.91999999998477
 30
0.0
  0
VERTEX
  5
43B
  8
DEFAULT
 10
116.5380641890845
 20
50.91999999996201
 30
0.0
 42
-0.9999999157302776
  0
VERTEX
  5
43C
  8
DEFAULT
 10
116.5380644296121
 20
53.21999999993916
 30
0.0
  0
VERTEX
  5
43D
  8
DEFAULT
 10
116.5380732909838
 20
53.34000010705301
 30
0.0
 42
-0.1989026292053377
  0
VERTEX
  5
43E
  8
DEFAULT
 10
116.7240643871324
 20
53.78900015139581
 30
0.0
  0
VERTEX
  5
43F
  8
DEFAULT
 10
117.9906730672435
 20
55.05560883150695
 30
0.0
 42
-0.2008759561912017
  0
VERTEX
  5
440
  8
DEFAULT
 10
118.4430642357366
 20
55.24500000000001
 30
0.0
  0
VERTEX
  5
441
  8
DEFAULT
 10
132.7242759379356
 20
55.245
 30
0.0
  0
SEQEND
  5
442
  8
DEFAULT
  0
POLYLINE
  5
443
  8
DEFAULT
 66
     1
 10
0.0
 20
0.0
 30
0.0
  0
VERTEX
  5
444
  8
DEFAULT
 10
135.7080642356843
 20
51.454
 30
0.0
 42
-1.000000203510785
  0
VERTEX
  5
445
  8
DEFAULT
 10
138.0080639615029
 20
51.45399980610664
 30
0.0
  0
VERTEX
  5
446
  8
DEFAULT
 10
138.0080642357066
 20
50.14600019387551
 30
0.0
 42
-1.000000084303418
  0
VERTEX
  5
447
  8
DEFAULT
 10
135.7080642357289
 20
50.14599999999999
 30
0.0
  0
VERTEX
  5
448
  8
DEFAULT
 10
135.7080642357289
 20
51.4539999999643
 30
0.0
  0
SEQEND
  5
449
  8
DEFAULT
  0
POLYLINE
  5
44A
  8
DEFAULT
 66
     1
 10
0.0
 20
0.0
 30
0.0
  0
VERTEX
  5
44B
  8
DEFAULT
 10
138.2480645098981
 20
51.4539999999994
 30
0.0
 42
-1.000000322708398
  0
VERTEX
  5
44C
  8
DEFAULT
 10
140.5480639615456
 20
51.45399980612388
 30
0.0
  0
VERTEX
  5
44D
  8
DEFAULT
 10
140.5480642357167
 20
50.14599996201255
 30
0.0
 42
-0.9999999669629884
  0
VERTEX
  5
44E
  8
DEFAULT
 10
138.2480642357064
 20
50.14599996201254
 30
0.0
  0
VERTEX
  5
44F
  8
DEFAULT
 10
138.2480645098981
 20
51.4539999999994
 30
0.0
  0
SEQEND
  5
450
  8
DEFAULT
  0
POLYLINE
  5
451
  8
DEFAULT
 66
     1
 10
0.0
 20
0.0
 30
0.0
  0
VERTEX
  5
452
  8
DEFAULT
 10
140.7880645098977
 20
51.45400019394592
 30
0.0
 42
-1.000000018350714
  0
VERTEX
  5
453
  8
DEFAULT
 10
143.088064235725
 20
51.45400003802017
 30
0.0
  0
VERTEX
  5
454
  8
DEFAULT
 10
143.0880642357162
 20
50.14600019391825
 30
0.0
 42
-1.000000203536405
  0
VERTEX
  5
455
  8
DEFAULT
 10
140.7880645098889
 20
50.14600000004273
 30
0.0
  0
VERTEX
  5
456
  8
DEFAULT
 10
140.7880645098977
 20
51.45400019394592
 30
0.0
  0
SEQEND
  5
457
  8
DEFAULT
  0
POLYLINE
  5
458
  8
DEFAULT
 66
     1
 10
0.0
 20
0.0
 30
0.0
  0
VERTEX
  5
459
  8
DEFAULT
 10
161.1080645099117
 20
51.45399999994768
 30
0.0
 42
-1.000000203534582
  0
VERTEX
  5
45A
  8
DEFAULT
 10
163.4080642357625
 20
51.45399980607216
 30
0.0
  0
VERTEX
  5
45B
  8
DEFAULT
 10
163.4080642357303
 20
50.14599980612448
 30
0.0
 42
-0.999999915692341
  0
VERTEX
  5
45C
  8
DEFAULT
 10
161.1080642356983
 20
50.14599999999999
 30
0.0
  0
VERTEX
  5
45D
  8
DEFAULT
 10
161.1080645099117
 20
51.45399999994768
 30
0.0
  0
SEQEND
  5
45E
  8
DEFAULT
  0
POLYLINE
  5
45F
  8
DEFAULT
 66
     1
 10
0.0
 20
0.0
 30
0.0
  0
VERTEX
  5
460
  8
DEFAULT
 10
163.6480645099298
 20
51.45399999998919
 30
0.0
 42
-1.000000322720966
  0
VERTEX
  5
461
  8
DEFAULT
 10
165.9480639615689
 20
51.45399980611368
 30
0.0
  0
VERTEX
  5
462
  8
DEFAULT
 10
165.9480642357483
 20
50.14600019388874
 30
0.0
 42
-1.00000020351376
  0
VERTEX
  5
463
  8
DEFAULT
 10
163.6480645099278
 20
50.14600000001322
 30
0.0
  0
VERTEX
  5
464
  8
DEFAULT
 10
163.6480645099298
 20
51.45399999998919
 30
0.0
  0
SEQEND
  5
465
  8
DEFAULT
  0
POLYLINE
  5
466
  8
DEFAULT
 66
     1
 10
0.0
 20
0.0
 30
0.0
  0
VERTEX
  5
467
  8
DEFAULT
 10
166.1880645099265
 20
51.45399999996551
 30
0.0
 42
-1.000000322741568
  0
VERTEX
  5
468
  8
DEFAULT
 10
168.4880639615657
 20
51.45399980609
 30
0.0
  0
VERTEX
  5
469
  8
DEFAULT
 10
168.4880642357451
 20
50.14600019388226
 30
0.0
 42
-1.000000084295819
  0
VERTEX
  5
46A
  8
DEFAULT
 10
166.1880642357432
 20
50.14599999999999
 30
0.0
  0
VERTEX
  5
46B
  8
DEFAULT
 10
166.1880645099265
 20
51.45399999996551
 30
0.0
  0
SEQEND
  5
46C
  8
DEFAULT
  0
POLYLINE
  5
46D
  8
DEFAULT
 66
     1
 10
0.0
 20
0.0
 30
0.0
  0
VERTEX
  5
46E
  8
DEFAULT
 10
168.7280645099179
 20
51.45399999999451
 30
0.0
 42
-1.000000322717123
  0
VERTEX
  5
46F
  8
DEFAULT
 10
171.0280639615551
 20
51.45399980611899
 30
0.0
  0
VERTEX
  5
470
  8
DEFAULT
 10
171.0280642357365
 20
50.1460001938888
 30
0.0
 42
-1.000000203514585
  0
VERTEX
  5
471
  8
DEFAULT
 10
168.7280645099179
 20
50.14600000001327
 30
0.0
  0
VERTEX
  5
472
  8
DEFAULT
 10
168.7280645099179
 20
51.45399999999451
 30
0.0
  0
SEQEND
  5
473
  8
DEFAULT
  0
POLYLINE
  5
474
  8
DEFAULT
 66
     1
 10
0.0
 20
0.0
 30
0.0
  0
VERTEX
  5
475
  8
DEFAULT
 10
171.4180644741581
 20
51.45400016858775
 30
0.0
 42
-1.000000028581259
  0
VERTEX
  5
476
  8
DEFAULT
 10
173.4180642357459
 20
51.454000012662
 30
0.0
  0
VERTEX
  5
477
  8
DEFAULT
 10
173.4180642357395
 20
50.14599998731695
 30
0.0
 42
-0.9999999873137853
  0
VERTEX
  5
478
  8
DEFAULT
 10
171.4180642357331
 20
50.14599998731695
 30
0.0
  0
VERTEX
  5
479
  8
DEFAULT
 10
171.4180644741581
 20
51.45400016858775
 30
0.0
  0
SEQEND
  5
47A
  8
DEFAULT
  0
POLYLINE
  5
47B
  8
DEFAULT
 66
     1
 10
0.0
 20
0.0
 30
0.0
  0
VERTEX
  5
47C
  8
DEFAULT
 10
111.4930641849066
 20
36.70999999999997
 30
0.0
  0
VERTEX
  5
47D
  8
DEFAULT
 10
112.6930644296121
 20
36.70999999999997
 30
0.0
 42
-0.9848948315830082
  0
VERTEX
  5
47E
  8
DEFAULT
 10
112.7280642357366
 20
34.4105327320885
 30
0.0
  0
VERTEX
  5
47F
  8
DEFAULT
 10
112.7280642357366
 20
32.70878829780094
 30
0.0
 42
-3.320926453229995
  0
VERTEX
  5
480
  8
DEFAULT
 10
111.4580642357366
 20
32.70878829780094
 30
0.0
  0
VERTEX
  5
481
  8
DEFAULT
 10
111.4580642357366
 20
34.41053273208845
 30
0.0
 42
-0.9848948928638241
  0
VERTEX
  5
482
  8
DEFAULT
 10
111.4930641849066
 20
36.70999999999995
 30
0.0
  0
SEQEND
  5
483
  8
DEFAULT
  0
POLYLINE
  5
484
  8
DEFAULT
 66
     1
 10
0.0
 20
0.0
 30
0.0
  0
VERTEX
  5
485
  8
DEFAULT
 10
116.5730641848505
 20
43.06000000001956
 30
0.0
  0
VERTEX
  5
486
  8
DEFAULT
 10
117.7730644296323
 20
43.05999972583378
 30
0.0
 42
-0.2515710584751626
  0
VERTEX
  5
487
  8
DEFAULT
 10
118.7318525335476
 20
42.54500000000001
 30
0.0
  0
VERTEX
  5
488
  8
DEFAULT
 10
120.6592759379356
 20
42.545
 30
0.0
 42
-3.320926453229947
  0
VERTEX
  5
489
  8
DEFAULT
 10
120.6592759379356
 20
41.27499999999998
 30
0.0
  0
VERTEX
  5
48A
  8
DEFAULT
 10
118.7318525335275
 20
41.27499999999999
 30
0.0
 42
-0.2515709232553411
  0
VERTEX
  5
48B
  8
DEFAULT
 10
117.7730642865812
 20
40.76000000001963
 30
0.0
  0
VERTEX
  5
48C
  8
DEFAULT
 10
116.5730640417993
 20
40.7600002742054
 30
0.0
 42
-1.000000097084937
  0
VERTEX
  5
48D
  8
DEFAULT
 10
116.5730641848505
 20
43.06000000001957
 30
0.0
  0
SEQEND
  5
48E
  8
DEFAULT
  0
POLYLINE
  5
48F
  8
DEFAULT
 66
     1
 10
0.0
 20
0.0
 30
0.0
  0
VERTEX
  5
490
  8
DEFAULT
 10
116.5730641849114
 20
37.98000000000352
 30
0.0
  0
VERTEX
  5
491
  8
DEFAULT
 10
117.7730644296501
 20
37.97999999999735
 30
0.0
 42
-0.280165425453382
  0
VERTEX
  5
492
  8
DEFAULT
 10
118.7940903551375
 20
37.35915561368879
 30
0.0
  0
VERTEX
  5
493
  8
DEFAULT
 10
118.8954554042041
 20
37.27560883147958
 30
0.0
  0
VERTEX
  5
494
  8
DEFAULT
 10
120.1620642357366
 20
36.009
 30
0.0
 42
-0.1989026346151953
  0
VERTEX
  5
495
  8
DEFAULT
 10
120.3480551804893
 20
35.56
 30
0.0
  0
VERTEX
  5
496
  8
DEFAULT
 10
120.3480642357366
 20
31.378
 30
0.0
  0
VERTEX
  5
497
  8
DEFAULT
 10
123.1510642357366
 20
28.575
 30
0.0
  0
VERTEX
  5
498
  8
DEFAULT
 10
124.1580642357366
 20
28.57500000000001
 30
0.0
 42
-0.2008759562277965
  0
VERTEX
  5
499
  8
DEFAULT
 10
124.610455404203
 20
28.38560883148064
 30
0.0
  0
VERTEX
  5
49A
  8
DEFAULT
 10
132.8620642357366
 20
20.134
 30
0.0
 42
-0.1728105931912991
  0
VERTEX
  5
49B
  8
DEFAULT
 10
133.0448155256416
 20
19.74897114742897
 30
0.0
 42
-0.2054996055010153
  0
VERTEX
  5
49C
  8
DEFAULT
 10
133.4101567891664
 20
19.05000000000001
 30
0.0
  0
VERTEX
  5
49D
  8
DEFAULT
 10
135.2259716823201
 20
19.05
 30
0.0
 42
-0.9264937310695582
  0
VERTEX
  5
49E
  8
DEFAULT
 10
137.2201567890743
 20
19.05000000000001
 30
0.0
  0
VERTEX
  5
49F
  8
DEFAULT
 10
139.1350642357366
 20
19.05
 30
0.0
  0
VERTEX
  5
4A0
  8
DEFAULT
 10
140.2190642357365
 20
20.13399999999999
 30
0.0
 42
-0.1989026328093131
  0
VERTEX
  5
4A1
  8
DEFAULT
 10
140.6680641286836
 20
20.31999094475276
 30
0.0
  0
VERTEX
  5
4A2
  8
DEFAULT
 10
143.9358769234692
 20
20.32
 30
0.0
 42
-0.9826480465077542
  0
VERTEX
  5
4A3
  8
DEFAULT
 10
145.9352639973575
 20
20.28499983140136
 30
0.0
  0
VERTEX
  5
4A4
  8
DEFAULT
 10
145.9352642357538
 20
19.08499997444347
 30
0.0
 42
-0.9826478318476276
  0
VERTEX
  5
4A5
  8
DEFAULT
 10
143.9358769234247
 20
19.04999999999999
 30
0.0
  0
VERTEX
  5
4A6
  8
DEFAULT
 10
140.9310642357366
 20
19.05
 30
0.0
  0
VERTEX
  5
4A7
  8
DEFAULT
 10
139.8504554042297
 20
17.96939116849316
 30
0.0
 42
-0.2008759561912689
  0
VERTEX
  5
4A8
  8
DEFAULT
 10
139.3980642357366
 20
17.78
 30
0.0
  0
VERTEX
  5
4A9
  8
DEFAULT
 10
137.2201567890777
 20
17.78
 30
0.0
 42
-0.9264937310695578
  0
VERTEX
  5
4AA
  8
DEFAULT
 10
135.2259716823235
 20
17.77999999999994
 30
0.0
  0
VERTEX
  5
4AB
  8
DEFAULT
 10
133.410156789076
 20
17.78
 30
0.0
 42
-0.9625721703594626
  0
VERTEX
  5
4AC
  8
DEFAULT
 10
131.4130642356989
 20
17.85619996461934
 30
0.0
  0
VERTEX
  5
4AD
  8
DEFAULT
 10
131.4130644741627
 20
18.97380016858741
 30
0.0
 42
-0.1646963163183573
  0
VERTEX
  5
4AE
  8
DEFAULT
 10
131.6187530859051
 20
19.58131114983148
 30
0.0
  0
VERTEX
  5
4AF
  8
DEFAULT
 10
123.8950642357366
 20
27.305
 30
0.0
  0
VERTEX
  5
4B0
  8
DEFAULT
 10
122.8880642357366
 20
27.30500905524723
 30
0.0
 42
-0.1989026346151977
  0
VERTEX
  5
4B1
  8
DEFAULT
 10
122.4390642357366
 20
27.491
 30
0.0
  0
VERTEX
  5
4B2
  8
DEFAULT
 10
119.2674554042298
 20
30.66260883150677
 30
0.0
 42
-0.2008759561913628
  0
VERTEX
  5
4B3
  8
DEFAULT
 10
119.0780642357365
 20
31.115
 30
0.0
  0
VERTEX
  5
4B4
  8
DEFAULT
 10
119.0780642357366
 20
35.297
 30
0.0
  0
VERTEX
  5
4B5
  8
DEFAULT
 10
118.4642064591992
 20
35.91085777653735
 30
0.0
 42
-0.1625962958492354
  0
VERTEX
  5
4B6
  8
DEFAULT
 10
117.7730642865989
 20
35.6800000000036
 30
0.0
  0
VERTEX
  5
4B7
  8
DEFAULT
 10
116.5730640418603
 20
35.68000000000977
 30
0.0
 42
-0.9999998093147505
  0
VERTEX
  5
4B8
  8
DEFAULT
 10
116.5730641849114
 20
37.98000000000353
 30
0.0
  0
SEQEND
  5
4B9
  8
DEFAULT
  0
POLYLINE
  5
4BA
  8
DEFAULT
 66
     1
 10
0.0
 20
0.0
 30
0.0
  0
VERTEX
  5
4BB
  8
DEFAULT
 10
117.7730644043371
 20
35.29000000000377
 30
0.0
 42
-0.9826477615888295
  0
VERTEX
  5
4BC
  8
DEFAULT
 10
117.8080642357366
 20
33.29061268769686
 30
0.0
  0
VERTEX
  5
4BD
  8
DEFAULT
 10
117.8080642357366
 20
30.74299999999999
 30
0.0
  0
VERTEX
  5
4BE
  8
DEFAULT
 10
123.1510642357366
 20
25.4
 30
0.0
  0
VERTEX
  5
4BF
  8
DEFAULT
 10
124.1580642357366
 20
25.4
 30
0.0
 42
-0.200875956226745
  0
VERTEX
  5
4C0
  8
DEFAULT
 10
124.6104554042011
 20
25.21060883148257
 30
0.0
  0
VERTEX
  5
4C1
  8
DEFAULT
 10
130.3220642357365
 20
19.499
 30
0.0
 42
-0.1989026876643031
  0
VERTEX
  5
4C2
  8
DEFAULT
 10
130.5080551804893
 20
19.0499997729063
 30
0.0
  0
VERTEX
  5
4C3
  8
DEFAULT
 10
130.5080642357366
 20
17.408
 30
0.0
  0
VERTEX
  5
4C4
  8
DEFAULT
 10
131.4060642357366
 20
16.51
 30
0.0
  0
VERTEX
  5
4C5
  8
DEFAULT
 10
149.2950642357366
 20
16.51
 30
0.0
  0
VERTEX
  5
4C6
  8
DEFAULT
 10
151.4630642357366
 20
18.678
 30
0.0
  0
VERTEX
  5
4C7
  8
DEFAULT
 10
151.4630642357366
 20
23.17121170219906
 30
0.0
 42
-3.320926453230404
  0
VERTEX
  5
4C8
  8
DEFAULT
 10
152.7330642357366
 20
23.17121170219908
 30
0.0
  0
VERTEX
  5
4C9
  8
DEFAULT
 10
152.7330551804893
 20
18.415
 30
0.0
 42
-0.1989026346150416
  0
VERTEX
  5
4CA
  8
DEFAULT
 10
152.5470642357366
 20
17.966
 30
0.0
  0
VERTEX
  5
4CB
  8
DEFAULT
 10
150.0104554042281
 20
15.42939116849157
 30
0.0
 42
-0.2008759561903178
  0
VERTEX
  5
4CC
  8
DEFAULT
 10
149.5580642357366
 20
15.23999999999998
 30
0.0
  0
VERTEX
  5
4CD
  8
DEFAULT
 10
131.1430664309756
 20
15.24000905524723
 30
0.0
 42
-0.1989027208628392
  0
VERTEX
  5
4CE
  8
DEFAULT
 10
130.6940642357366
 20
15.426
 30
0.0
  0
VERTEX
  5
4CF
  8
DEFAULT
 10
129.4274554042293
 20
16.69260883150727
 30
0.0
 42
-0.2008759561910091
  0
VERTEX
  5
4D0
  8
DEFAULT
 10
129.2380642357365
 20
17.145
 30
0.0
  0
VERTEX
  5
4D1
  8
DEFAULT
 10
129.2380642357365
 20
18.787
 30
0.0
  0
VERTEX
  5
4D2
  8
DEFAULT
 10
123.8950642357366
 20
24.13000000000001
 30
0.0
  0
VERTEX
  5
4D3
  8
DEFAULT
 10
122.8880643871323
 20
24.13000905524723
 30
0.0
 42
-0.1989026701690181
  0
VERTEX
  5
4D4
  8
DEFAULT
 10
122.4390635544555
 20
24.31600068128108
 30
0.0
  0
VERTEX
  5
4D5
  8
DEFAULT
 10
116.7274554042282
 20
30.02760883150842
 30
0.0
 42
-0.200875956190392
  0
VERTEX
  5
4D6
  8
DEFAULT
 10
116.5380642357366
 20
30.48
 30
0.0
  0
VERTEX
  5
4D7
  8
DEFAULT
 10
116.5380642357366
 20
33.29061268768994
 30
0.0
 42
-0.9826478319104739
  0
VERTEX
  5
4D8
  8
DEFAULT
 10
116.5730642101889
 20
35.29000000000029
 30
0.0
  0
VERTEX
  5
4D9
  8
DEFAULT
 10
117.7730644043371
 20
35.29000000000377
 30
0.0
  0
SEQEND
  5
4DA
  8
DEFAULT
  0
POLYLINE
  5
4DB
  8
DEFAULT
 66
     1
 10
0.0
 20
0.0
 30
0.0
  0
VERTEX
  5
4DC
  8
DEFAULT
 10
121.2530642357366
 20
31.75
 30
0.0
 42
-1.049932433229863
  0
VERTEX
  5
4DD
  8
DEFAULT
 10
123.2483233317706
 20
31.65274090396588
 30
0.0
  0
VERTEX
  5
4DE
  8
DEFAULT
 10
123.786067986231
 20
31.11499812475276
 30
0.0
  0
VERTEX
  5
4DF
  8
DEFAULT
 10
124.7930643427895
 20
31.11499094475274
 30
0.0
  0
VERTEX
  5
4E0
  8
DEFAULT
 10
124.809500221745
 20
31.11477763106809
 30
0.0
  0
VERTEX
  5
4E1
  8
DEFAULT
 10
124.825919588148
 20
31.11413926275003
 30
0.0
  0
VERTEX
  5
4E2
  8
DEFAULT
 10
124.8423059851811
 20
31.11307712059776
 30
0.0
  0
VERTEX
  5
4E3
  8
DEFAULT
 10
124.8586430661388
 20
31.11159333175515
 30
0.0
  0
VERTEX
  5
4E4
  8
DEFAULT
 10
124.8749146485176
 20
31.10969085908189
 30
0.0
  0
VERTEX
  5
4E5
  8
DEFAULT
 10
124.8911047669623
 20
31.1073734864129
 30
0.0
  0
VERTEX
  5
4E6
  8
DEFAULT
 10
124.9071977247063
 20
31.10464579984226
 30
0.0
  0
VERTEX
  5
4E7
  8
DEFAULT
 10
124.9231781431651
 20
31.10151316520338
 30
0.0
  0
VERTEX
  5
4E8
  8
DEFAULT
 10
124.9390310093616
 20
31.09798170195044
 30
0.0
  0
VERTEX
  5
4E9
  8
DEFAULT
 10
124.9547417208874
 20
31.09405825367557
 30
0.0
  0
VERTEX
  5
4EA
  8
DEFAULT
 10
124.9702961281321
 20
31.08975035552332
 30
0.0
  0
VERTEX
  5
4EB
  8
DEFAULT
 10
124.9856805735448
 20
31.08506619878666
 30
0.0
  0
VERTEX
  5
4EC
  8
DEFAULT
 10
125.000881927722
 20
31.08001459298783
 30
0.0
  0
VERTEX
  5
4ED
  8
DEFAULT
 10
125.0158876221531
 20
31.07460492576253
 30
0.0
  0
VERTEX
  5
4EE
  8
DEFAULT
 10
125.0306856784867
 20
31.06884712087638
 30
0.0
  0
VERTEX
  5
4EF
  8
DEFAULT
 10
125.0452647342198
 20
31.06275159470962
 30
0.0
  0
VERTEX
  5
4F0
  8
DEFAULT
 10
125.059614064744
 20
31.0563292115484
 30
0.0
  0
VERTEX
  5
4F1
  8
DEFAULT
 10
125.0737236017205
 20
31.04959123801947
 30
0.0
  0
VERTEX
  5
4F2
  8
DEFAULT
 10
125.0875839477861
 20
31.04254929700004
 30
0.0
  0
VERTEX
  5
4F3
  8
DEFAULT
 10
125.1011863876281
 20
31.03521532132592
 30
0.0
  0
VERTEX
  5
4F4
  8
DEFAULT
 10
125.1145228954931
 20
31.02760150760888
 30
0.0
  0
VERTEX
  5
4F5
  8
DEFAULT
 10
125.1275861392245
 20
31.0197202704595
 30
0.0
  0
VERTEX
  5
4F6
  8
DEFAULT
 10
125.1403694809482
 20
31.01158419739438
 30
0.0
  0
VERTEX
  5
4F7
  8
DEFAULT
 10
125.1528669745492
 20
31.00320600468714
 30
0.0
  0
VERTEX
  5
4F8
  8
DEFAULT
 10
125.1650733601022
 20
30.99459849440128
 30
0.0
  0
VERTEX
  5
4F9
  8
DEFAULT
 10
125.1769840554341
 20
30.98577451282053
 30
0.0
  0
VERTEX
  5
4FA
  8
DEFAULT
 10
125.1885951450152
 20
30.97674691046872
 30
0.0
  0
VERTEX
  5
4FB
  8
DEFAULT
 10
125.1999033663801
 20
30.96752850388707
 30
0.0
  0
VERTEX
  5
4FC
  8
DEFAULT
 10
125.2109060942953
 20
30.95813203931256
 30
0.0
  0
VERTEX
  5
4FD
  8
DEFAULT
 10
125.2216013228892
 20
30.94857015837683
 30
0.0
  0
VERTEX
  5
4FE
  8
DEFAULT
 10
125.2319876459678
 20
30.93885536592112
 30
0.0
  0
VERTEX
  5
4FF
  8
DEFAULT
 10
133.3110534522653
 20
22.86000353496289
 30
0.0
  0
VERTEX
  5
500
  8
DEFAULT
 10
146.1200642357365
 20
22.86
 30
0.0
  0
VERTEX
  5
501
  8
DEFAULT
 10
147.6118485378061
 20
24.35178430206951
 30
0.0
 42
-0.8077078784723352
  0
VERTEX
  5
502
  8
DEFAULT
 10
148.0848640417441
 20
26.55000000005283
 30
0.0
  0
VERTEX
  5
503
  8
DEFAULT
 10
148.2880642357366
 20
26.55000000004657
 30
0.0
  0
VERTEX
  5
504
  8
DEFAULT
 10
148.2880642357366
 20
27.42500000005625
 30
0.0
  0
VERTEX
  5
505
  8
DEFAULT
 10
148.084864041861
 20
27.42500000005629
 30
0.0
 42
-0.999999834006948
  0
VERTEX
  5
506
  8
DEFAULT
 10
148.0848642417035
 20
29.72500000005634
 30
0.0
  0
VERTEX
  5
507
  8
DEFAULT
 10
149.7612640418544
 20
29.7250000000565
 30
0.0
 42
-1.000000168593132
  0
VERTEX
  5
508
  8
DEFAULT
 10
149.7612640418544
 20
27.42500000005644
 30
0.0
  0
VERTEX
  5
509
  8
DEFAULT
 10
149.5580642357366
 20
27.42500000005625
 30
0.0
  0
VERTEX
  5
50A
  8
DEFAULT
 10
149.5580642357366
 20
26.55000000004657
 30
0.0
  0
VERTEX
  5
50B
  8
DEFAULT
 10
149.7612640417785
 20
26.55000000004653
 30
0.0
 42
-1.000000168661976
  0
VERTEX
  5
50C
  8
DEFAULT
 10
149.7612640417785
 20
24.25000000005296
 30
0.0
  0
VERTEX
  5
50D
  8
DEFAULT
 10
149.3060642357958
 20
24.2500000000592
 30
0.0
  0
VERTEX
  5
50E
  8
DEFAULT
 10
147.2808641165175
 20
22.22478933640367
 30
0.0
  0
VERTEX
  5
50F
  8
DEFAULT
 10
148.3323679248571
 20
21.17369631087947
 30
0.0
 42
-0.56169114449854
  0
VERTEX
  5
510
  8
DEFAULT
 10
149.7908639972527
 20
20.28499983140451
 30
0.0
  0
VERTEX
  5
511
  8
DEFAULT
 10
149.7908642356848
 20
19.08499997442065
 30
0.0
 42
-0.9999999744274197
  0
VERTEX
  5
512
  8
DEFAULT
 10
147.7908642356984
 20
19.08499997442065
 30
0.0
  0
VERTEX
  5
513
  8
DEFAULT
 10
147.7908642356984
 20
19.91920000003817
 30
0.0
  0
VERTEX
  5
514
  8
DEFAULT
 10
146.1200642357365
 20
21.59
 30
0.0
  0
VERTEX
  5
515
  8
DEFAULT
 10
133.0480658253924
 20
21.59000905524722
 30
0.0
 42
-0.1989027106484393
  0
VERTEX
  5
516
  8
DEFAULT
 10
132.5990642357366
 20
21.77600000000001
 30
0.0
  0
VERTEX
  5
517
  8
DEFAULT
 10
124.5300642357366
 20
29.845
 30
0.0
  0
VERTEX
  5
518
  8
DEFAULT
 10
123.5230642357366
 20
29.84500905524724
 30
0.0
 42
-0.1989026346152632
  0
VERTEX
  5
519
  8
DEFAULT
 10
123.0740642357366
 20
30.031
 30
0.0
  0
VERTEX
  5
51A
  8
DEFAULT
 10
122.3503233317707
 20
30.75474090396589
 30
0.0
 42
-0.4430416968069492
  0
VERTEX
  5
51B
  8
DEFAULT
 10
121.2530642357365
 20
31.75
 30
0.0
  0
SEQEND
  5
51C
  8
DEFAULT
  0
POLYLINE
  5
51D
  8
DEFAULT
 66
     1
 10
0.0
 20
0.0
 30
0.0
  0
VERTEX
  5
51E
  8
DEFAULT
 10
161.1080642357365
 20
53.975
 30
0.0
 42
-0.7432324686653402
  0
VERTEX
  5
51F
  8
DEFAULT
 10
163.2168525335375
 20
54.61000000000001
 30
0.0
  0
VERTEX
  5
520
  8
DEFAULT
 10
173.0530642357365
 20
54.61
 30
0.0
 42
-0.2008759562279299
  0
VERTEX
  5
521
  8
DEFAULT
 10
173.5054554042032
 20
54.42060883148047
 30
0.0
  0
VERTEX
  5
522
  8
DEFAULT
 10
174.7720642357366
 20
53.154
 30
0.0
 42
-0.1989026838333863
  0
VERTEX
  5
523
  8
DEFAULT
 10
174.958055180508
 20
52.705
 30
0.0
  0
VERTEX
  5
524
  8
DEFAULT
 10
174.9580642357469
 20
48.895
 30
0.0
 42
-0.2008759562166325
  0
VERTEX
  5
525
  8
DEFAULT
 10
174.768673067219
 20
48.44260883153524
 30
0.0
  0
VERTEX
  5
526
  8
DEFAULT
 10
173.5020642357366
 20
47.17599999999999
 30
0.0
 42
-0.1989026328092932
  0
VERTEX
  5
527
  8
DEFAULT
 10
173.0530643427896
 20
46.99000905524725
 30
0.0
  0
VERTEX
  5
528
  8
DEFAULT
 10
162.5210642357366
 20
46.99
 30
0.0
  0
VERTEX
  5
529
  8
DEFAULT
 10
154.4520642357365
 20
38.92099999999999
 30
0.0
 42
-0.1989026328092862
  0
VERTEX
  5
52A
  8
DEFAULT
 10
154.0030643427896
 20
38.73500905524725
 30
0.0
  0
VERTEX
  5
52B
  8
DEFAULT
 10
139.0260642357366
 20
38.735
 30
0.0
  0
VERTEX
  5
52C
  8
DEFAULT
 10
137.4930642357365
 20
37.202
 30
0.0
  0
VERTEX
  5
52D
  8
DEFAULT
 10
137.4930642357365
 20
37.15378829780286
 30
0.0
 42
-0.2515711833724617
  0
VERTEX
  5
52E
  8
DEFAULT
 10
138.0080639615581
 20
36.19499980612405
 30
0.0
  0
VERTEX
  5
52F
  8
DEFAULT
 10
138.0080642357355
 20
34.90600019388336
 30
0.0
 42
-0.2466285849013243
  0
VERTEX
  5
530
  8
DEFAULT
 10
137.5108008546999
 20
33.9591975357775
 30
0.0
  0
VERTEX
  5
531
  8
DEFAULT
 10
139.6097309024032
 20
32.385
 30
0.0
  0
VERTEX
  5
532
  8
DEFAULT
 10
155.9080642357366
 20
32.38499999999998
 30
0.0
 42
-0.2008759562279069
  0
VERTEX
  5
533
  8
DEFAULT
 10
156.3604554042032
 20
32.19560883148059
 30
0.0
  0
VERTEX
  5
534
  8
DEFAULT
 10
157.7624162510948
 20
30.79364798464173
 30
0.0
 42
-0.6164038902813834
  0
VERTEX
  5
535
  8
DEFAULT
 10
159.5980639615636
 20
29.87039980612408
 30
0.0
  0
VERTEX
  5
536
  8
DEFAULT
 10
159.5980642357408
 20
28.54959996357579
 30
0.0
 42
-0.3011094790284425
  0
VERTEX
  5
537
  8
DEFAULT
 10
158.8968469247525
 20
27.49078268901586
 30
0.0
  0
VERTEX
  5
538
  8
DEFAULT
 10
156.5430642357366
 20
25.137
 30
0.0
  0
VERTEX
  5
539
  8
DEFAULT
 10
156.5430642357366
 20
22.488
 30
0.0
  0
VERTEX
  5
53A
  8
DEFAULT
 10
158.0760642357366
 20
20.955
 30
0.0
  0
VERTEX
  5
53B
  8
DEFAULT
 10
172.9678642357366
 20
20.955
 30
0.0
  0
VERTEX
  5
53C
  8
DEFAULT
 10
173.1900346431893
 20
21.17717040745278
 30
0.0
 42
-0.694764331793664
  0
VERTEX
  5
53D
  8
DEFAULT
 10
173.942064429613
 20
23.19720000000109
 30
0.0
  0
VERTEX
  5
53E
  8
DEFAULT
 10
175.9740641873796
 20
23.19719999998754
 30
0.0
 42
-1.00000004205552
  0
VERTEX
  5
53F
  8
DEFAULT
 10
175.9740641873796
 20
20.89720000000112
 30
0.0
  0
VERTEX
  5
540
  8
DEFAULT
 10
174.7060642357512
 20
20.89720000001461
 30
0.0
  0
VERTEX
  5
541
  8
DEFAULT
 10
173.6798642357365
 20
19.871
 30
0.0
 42
-0.1989026328092582
  0
VERTEX
  5
542
  8
DEFAULT
 10
173.2308643427896
 20
19.68500905524726
 30
0.0
  0
VERTEX
  5
543
  8
DEFAULT
 10
157.7988407514424
 20
19.68515931723421
 30
0.0
  0
VERTEX
  5
544
  8
DEFAULT
 10
157.7844955547155
 20
19.68564297870622
 30
0.0
  0
VERTEX
  5
545
  8
DEFAULT
 10
157.7700382201753
 20
19.68645934464715
 30
0.0
  0
VERTEX
  5
546
  8
DEFAULT
 10
157.7554788687525
 20
19.68761647277201
 30
0.0
  0
VERTEX
  5
547
  8
DEFAULT
 10
157.7408281611741
 20
19.68912208032631
 30
0.0
  0
VERTEX
  5
548
  8
DEFAULT
 10
157.7260972886204
 20
19.69098350569378
 30
0.0
  0
VERTEX
  5
549
  8
DEFAULT
 10
157.7112979604433
 20
19.69320766978772
 30
0.0
  0
VERTEX
  5
54A
  8
DEFAULT
 10
157.6964423888518
 20
19.69580103746546
 30
0.0
  0
VERTEX
  5
54B
  8
DEFAULT
 10
157.6815432704899
 20
19.69876957922153
 30
0.0
  0
VERTEX
  5
54C
  8
DEFAULT
 10
157.6666137648577
 20
19.702118733429
 30
0.0
  0
VERTEX
  5
54D
  8
DEFAULT
 10
157.6516674695484
 20
19.70585336941084
 30
0.0
  0
VERTEX
  5
54E
  8
DEFAULT
 10
157.636718392302
 20
19.70997775163248
 30
0.0
  0
VERTEX
  5
54F
  8
DEFAULT
 10
157.6217809199064
 20
19.71449550531392
 30
0.0
  0
VERTEX
  5
550
  8
DEFAULT
 10
157.6068697840048
 20
19.71940958376355
 30
0.0
  0
VERTEX
  5
551
  8
DEFAULT
 10
157.5920000239009
 20
19.72472223773647
 30
0.0
  0
VERTEX
  5
552
  8
DEFAULT
 10
157.5771869464855
 20
19.73043498711712
 30
0.0
  0
VERTEX
  5
553
  8
DEFAULT
 10
157.5624460834417
 20
19.73654859521949
 30
0.0
  0
VERTEX
  5
554
  8
DEFAULT
 10
157.5477931459154
 20
19.74306304598759
 30
0.0
  0
VERTEX
  5
555
  8
DEFAULT
 10
157.5332439768732
 20
19.74997752436447
 30
0.0
  0
VERTEX
  5
556
  8
DEFAULT
 10
157.5188145013993
 20
19.75729040007971
 30
0.0
  0
VERTEX
  5
557
  8
DEFAULT
 10
157.504520675211
 20
19.76499921508327
 30
0.0
  0
VERTEX
  5
558
  8
DEFAULT
 10
157.4903784317016
 20
19.77310067482734
 30
0.0
  0
VERTEX
  5
559
  8
DEFAULT
 10
157.4764036278425
 20
19.78159064356901
 30
0.0
  0
VERTEX
  5
55A
  8
DEFAULT
 10
157.4626119892981
 20
19.79046414383327
 30
0.0
  0
VERTEX
  5
55B
  8
DEFAULT
 10
157.4490190551243
 20
19.79971536014117
 30
0.0
  0
VERTEX
  5
55C
  8
DEFAULT
 10
157.4356401224371
 20
19.80933764706984
 30
0.0
  0
VERTEX
  5
55D
  8
DEFAULT
 10
157.4224901914435
 20
19.81932354167128
 30
0.0
  0
VERTEX
  5
55E
  8
DEFAULT
 10
157.4095839112357
 20
19.8296647802363
 30
0.0
  0
VERTEX
  5
55F
  8
DEFAULT
 10
157.3969355267474
 20
19.84035231934785
 30
0.0
  0
VERTEX
  5
560
  8
DEFAULT
 10
157.3845588272657
 20
19.85137636112632
 30
0.0
  0
VERTEX
  5
561
  8
DEFAULT
 10
157.372467096885
 20
19.86272638252816
 30
0.0
  0
VERTEX
  5
562
  8
DEFAULT
 10
157.3606730672706
 20
19.87439116851883
 30
0.0
  0
VERTEX
  5
563
  8
DEFAULT
 10
155.4590642357365
 20
21.776
 30
0.0
 42
-0.1989026346152848
  0
VERTEX
  5
564
  8
DEFAULT
 10
155.273073291032
 20
22.225
 30
0.0
  0
VERTEX
  5
565
  8
DEFAULT
 10
155.273064235691
 20
25.4
 30
0.0
 42
-0.200875956182697
  0
VERTEX
  5
566
  8
DEFAULT
 10
155.4624554042551
 20
25.85239116846563
 30
0.0
  0
VERTEX
  5
567
  8
DEFAULT
 10
157.5035790615642
 20
27.89351482582769
 30
0.0
 42
-0.1529576329486987
  0
VERTEX
  5
568
  8
DEFAULT
 10
157.2980642357366
 20
28.54959996357579
 30
0.0
  0
VERTEX
  5
569
  8
DEFAULT
 10
157.2980642357365
 20
29.462
 30
0.0
  0
VERTEX
  5
56A
  8
DEFAULT
 10
155.6450567535046
 20
31.11500374111599
 30
0.0
  0
VERTEX
  5
56B
  8
DEFAULT
 10
139.4224651194813
 20
31.11523449727692
 30
0.0
 42
-0.1718677927563229
  0
VERTEX
  5
56C
  8
DEFAULT
 10
139.0170642357365
 20
31.24199999999999
 30
0.0
  0
VERTEX
  5
56D
  8
DEFAULT
 10
136.4969274198589
 20
33.13240173941414
 30
0.0
 42
-0.246120977812633
  0
VERTEX
  5
56E
  8
DEFAULT
 10
136.2230642357366
 20
33.655
 30
0.0
  0
VERTEX
  5
56F
  8
DEFAULT
 10
136.2230642357366
 20
33.94721170219576
 30
0.0
 42
-0.2515711498661109
  0
VERTEX
  5
570
  8
DEFAULT
 10
135.7080645099129
 20
34.90600000000784
 30
0.0
  0
VERTEX
  5
571
  8
DEFAULT
 10
135.7081169575923
 20
34.925
 30
0.0
  0
VERTEX
  5
572
  8
DEFAULT
 10
135.2160642357366
 20
34.925
 30
0.0
  0
VERTEX
  5
573
  8
DEFAULT
 10
133.5004554042272
 20
33.20939116849059
 30
0.0
 42
-0.2008759561897102
  0
VERTEX
  5
574
  8
DEFAULT
 10
133.0480642357365
 20
33.01999999999999
 30
0.0
  0
VERTEX
  5
575
  8
DEFAULT
 10
131.4815846720925
 20
33.02000000000001
 30
0.0
 42
-0.7923819276856722
  0
VERTEX
  5
576
  8
DEFAULT
 10
129.5345437993834
 20
33.02
 30
0.0
  0
VERTEX
  5
577
  8
DEFAULT
 10
128.3065846720911
 20
33.02
 30
0.0
 42
-0.7923819276856345
  0
VERTEX
  5
578
  8
DEFAULT
 10
126.359543799382
 20
33.02
 30
0.0
  0
VERTEX
  5
579
  8
DEFAULT
 10
125.1315846720911
 20
33.02
 30
0.0
 42
-0.8908527135164227
  0
VERTEX
  5
57A
  8
DEFAULT
 10
123.1580642357366
 20
33.24859992830386
 30
0.0
  0
VERTEX
  5
57B
  8
DEFAULT
 10
123.1580642357365
 20
33.75700000000003
 30
0.0
  0
VERTEX
  5
57C
  8
DEFAULT
 10
121.1724554042296
 20
35.74260883150701
 30
0.0
  0
VERTEX
  5
57D
  8
DEFAULT
 10
121.1300950189326
 20
35.78866141771697
 30
0.0
 42
-2.769490497380124
  0
VERTEX
  5
57E
  8
DEFAULT
 10
122.5520340170991
 20
36.15903021863747
 30
0.0
  0
VERTEX
  5
57F
  8
DEFAULT
 10
123.7408541603969
 20
34.97021007533966
 30
0.0
 42
-0.4740005543262881
  0
VERTEX
  5
580
  8
DEFAULT
 10
125.1315846720874
 20
34.29
 30
0.0
  0
VERTEX
  5
581
  8
DEFAULT
 10
126.3595437993834
 20
34.29000000000001
 30
0.0
 42
-0.7923819276856573
  0
VERTEX
  5
582
  8
DEFAULT
 10
128.3065846720925
 20
34.29000000000001
 30
0.0
  0
VERTEX
  5
583
  8
DEFAULT
 10
129.5345437993861
 20
34.28999999999999
 30
0.0
 42
-0.7923819276856469
  0
VERTEX
  5
584
  8
DEFAULT
 10
131.4815846720952
 20
34.29000000000001
 30
0.0
  0
VERTEX
  5
585
  8
DEFAULT
 10
132.7850642357366
 20
34.29
 30
0.0
  0
VERTEX
  5
586
  8
DEFAULT
 10
134.5040642357366
 20
36.00899999999999
 30
0.0
 42
-0.1989026876642864
  0
VERTEX
  5
587
  8
DEFAULT
 10
134.9530644628302
 20
36.19499094475277
 30
0.0
  0
VERTEX
  5
588
  8
DEFAULT
 10
135.7080642357395
 20
36.19500000000001
 30
0.0
 42
-0.2515710159530663
  0
VERTEX
  5
589
  8
DEFAULT
 10
136.2230642357366
 20
37.153788297799
 30
0.0
  0
VERTEX
  5
58A
  8
DEFAULT
 10
136.2230732909838
 20
37.46500010705302
 30
0.0
 42
-0.1989026328093111
  0
VERTEX
  5
58B
  8
DEFAULT
 10
136.4090642357366
 20
37.914
 30
0.0
  0
VERTEX
  5
58C
  8
DEFAULT
 10
138.3106730672432
 20
39.81560883150675
 30
0.0
 42
-0.2008759561912786
  0
VERTEX
  5
58D
  8
DEFAULT
 10
138.7630642357366
 20
40.005
 30
0.0
  0
VERTEX
  5
58E
  8
DEFAULT
 10
153.7400642357366
 20
40.005
 30
0.0
  0
VERTEX
  5
58F
  8
DEFAULT
 10
161.8056730672459
 20
48.07060883150936
 30
0.0
 42
-0.2008759561897946
  0
VERTEX
  5
590
  8
DEFAULT
 10
162.2580642357366
 20
48.26
 30
0.0
  0
VERTEX
  5
591
  8
DEFAULT
 10
172.7900642357366
 20
48.26
 30
0.0
  0
VERTEX
  5
592
  8
DEFAULT
 10
173.6880642357366
 20
49.158
 30
0.0
  0
VERTEX
  5
593
  8
DEFAULT
 10
173.6880642357366
 20
52.44200000000001
 30
0.0
  0
VERTEX
  5
594
  8
DEFAULT
 10
172.7900642357366
 20
53.34
 30
0.0
  0
VERTEX
  5
595
  8
DEFAULT
 10
163.2168525335375
 20
53.33999999999999
 30
0.0
 42
-0.7432324686653113
  0
VERTEX
  5
596
  8
DEFAULT
 10
161.1080642357366
 20
53.975
 30
0.0
  0
SEQEND
  5
597
  8
DEFAULT
  0
POLYLINE
  5
598
  8
DEFAULT
 66
     1
 10
0.0
 20
0.0
 30
0.0
  0
VERTEX
  5
599
  8
DEFAULT
 10
127.7771845445756
 20
31.115
 30
0.0
 42
-0.7432328828459966
  0
VERTEX
  5
59A
  8
DEFAULT
 10
129.8859199121934
 20
31.75001867408128
 30
0.0
  0
VERTEX
  5
59B
  8
DEFAULT
 10
131.1430642357365
 20
31.75
 30
0.0
 42
-0.2008759562273417
  0
VERTEX
  5
59C
  8
DEFAULT
 10
131.5954554042022
 20
31.56060883148149
 30
0.0
  0
VERTEX
  5
59D
  8
DEFAULT
 10
132.6098211059141
 20
30.54624312982248
 30
0.0
 42
-0.3647049542347235
  0
VERTEX
  5
59E
  8
DEFAULT
 10
133.5630639615552
 20
29.41319980612345
 30
0.0
  0
VERTEX
  5
59F
  8
DEFAULT
 10
133.5630642357365
 20
27.73679980612448
 30
0.0
 42
-0.1243004024993693
  0
VERTEX
  5
5A0
  8
DEFAULT
 10
133.4252113395755
 20
27.19085289616068
 30
0.0
  0
VERTEX
  5
5A1
  8
DEFAULT
 10
134.5810642357366
 20
26.035
 30
0.0
  0
VERTEX
  5
5A2
  8
DEFAULT
 10
136.9660759379356
 20
26.035
 30
0.0
 42
-0.2515709227510668
  0
VERTEX
  5
5A3
  8
DEFAULT
 10
137.9248642417022
 20
26.54999999997742
 30
0.0
  0
VERTEX
  5
5A4
  8
DEFAULT
 10
139.6012642297699
 20
26.54999999995485
 30
0.0
 42
-1.000000000000001
  0
VERTEX
  5
5A5
  8
DEFAULT
 10
139.6012642417259
 20
24.2499999999775
 30
0.0
  0
VERTEX
  5
5A6
  8
DEFAULT
 10
137.9248642417022
 20
24.25000000000003
 30
0.0
 42
-0.2515709227400308
  0
VERTEX
  5
5A7
  8
DEFAULT
 10
136.9660759379356
 20
24.765
 30
0.0
  0
VERTEX
  5
5A8
  8
DEFAULT
 10
134.3180642357366
 20
24.76500905524725
 30
0.0
 42
-0.198902683833421
  0
VERTEX
  5
5A9
  8
DEFAULT
 10
133.8690642357366
 20
24.95099999999999
 30
0.0
  0
VERTEX
  5
5AA
  8
DEFAULT
 10
132.216307365559
 20
26.60375687017752
 30
0.0
 42
-0.36470483875147
  0
VERTEX
  5
5AB
  8
DEFAULT
 10
131.2630642357366
 20
27.7368
 30
0.0
  0
VERTEX
  5
5AC
  8
DEFAULT
 10
131.2630642357366
 20
29.41319999999796
 30
0.0
 42
-0.1243004895852898
  0
VERTEX
  5
5AD
  8
DEFAULT
 10
131.4009171318977
 20
29.9591471038393
 30
0.0
  0
VERTEX
  5
5AE
  8
DEFAULT
 10
130.8800642357365
 20
30.48
 30
0.0
  0
VERTEX
  5
5AF
  8
DEFAULT
 10
129.8859199121933
 20
30.47998132591879
 30
0.0
 42
-0.7432328828441611
  0
VERTEX
  5
5B0
  8
DEFAULT
 10
127.7771845445756
 20
31.115
 30
0.0
  0
SEQEND
  5
5B1
  8
DEFAULT
  0
POLYLINE
  5
5B2
  8
DEFAULT
 66
     1
 10
0.0
 20
0.0
 30
0.0
  0
VERTEX
  5
5B3
  8
DEFAULT
 10
138.2480645099389
 20
36.21399999999986
 30
0.0
 42
-1.000000322710996
  0
VERTEX
  5
5B4
  8
DEFAULT
 10
140.5480639615795
 20
36.21399980612435
 30
0.0
  0
VERTEX
  5
5B5
  8
DEFAULT
 10
140.5480642357575
 20
34.90600019388422
 30
0.0
 42
-1.000000203509108
  0
VERTEX
  5
5B6
  8
DEFAULT
 10
138.2480645099355
 20
34.9060000000087
 30
0.0
  0
VERTEX
  5
5B7
  8
DEFAULT
 10
138.2480645099389
 20
36.21399999999986
 30
0.0
  0
SEQEND
  5
5B8
  8
DEFAULT
  0
POLYLINE
  5
5B9
  8
DEFAULT
 66
     1
 10
0.0
 20
0.0
 30
0.0
  0
VERTEX
  5
5BA
  8
DEFAULT
 10
140.7880645099214
 20
36.21399999997394
 30
0.0
 42
-1.000000322733533
  0
VERTEX
  5
5BB
  8
DEFAULT
 10
143.0880639615621
 20
36.21399980609843
 30
0.0
  0
VERTEX
  5
5BC
  8
DEFAULT
 10
143.08806423574
 20
34.90600019387888
 30
0.0
 42
-1.000000203504427
  0
VERTEX
  5
5BD
  8
DEFAULT
 10
140.7880645099179
 20
34.90600000000337
 30
0.0
  0
VERTEX
  5
5BE
  8
DEFAULT
 10
140.7880645099214
 20
36.21399999997394
 30
0.0
  0
SEQEND
  5
5BF
  8
DEFAULT
  0
POLYLINE
  5
5C0
  8
DEFAULT
 66
     1
 10
0.0
 20
0.0
 30
0.0
  0
VERTEX
  5
5C1
  8
DEFAULT
 10
143.3280642357249
 20
36.21400000000001
 30
0.0
 42
-1.000000203503037
  0
VERTEX
  5
5C2
  8
DEFAULT
 10
145.6280639615435
 20
36.21399980612448
 30
0.0
  0
VERTEX
  5
5C3
  8
DEFAULT
 10
145.6280642357307
 20
34.9059999619935
 30
0.0
 42
-0.9999999669534458
  0
VERTEX
  5
5C4
  8
DEFAULT
 10
143.3280642357366
 20
34.9059999619935
 30
0.0
  0
VERTEX
  5
5C5
  8
DEFAULT
 10
143.3280642357366
 20
36.21399999999999
 30
0.0
  0
SEQEND
  5
5C6
  8
DEFAULT
  0
POLYLINE
  5
5C7
  8
DEFAULT
 66
     1
 10
0.0
 20
0.0
 30
0.0
  0
VERTEX
  5
5C8
  8
DEFAULT
 10
145.8680645099395
 20
36.213999999972
 30
0.0
 42
-1.000000322727318
  0
VERTEX
  5
5C9
  8
DEFAULT
 10
148.1680639615983
 20
36.21399980609649
 30
0.0
  0
VERTEX
  5
5CA
  8
DEFAULT
 10
148.1680642357581
 20
34.90599996200621
 30
0.0
 42
-0.9999999669525714
  0
VERTEX
  5
5CB
  8
DEFAULT
 10
145.8680642357366
 20
34.90599996200621
 30
0.0
  0
VERTEX
  5
5CC
  8
DEFAULT
 10
145.8680645099395
 20
36.213999999972
 30
0.0
  0
SEQEND
  5
5CD
  8
DEFAULT
  0
POLYLINE
  5
5CE
  8
DEFAULT
 66
     1
 10
0.0
 20
0.0
 30
0.0
  0
VERTEX
  5
5CF
  8
DEFAULT
 10
148.4080642356934
 20
36.21400003797449
 30
0.0
 42
-0.9999999669876785
  0
VERTEX
  5
5D0
  8
DEFAULT
 10
150.7080642356727
 20
36.21400003797449
 30
0.0
  0
VERTEX
  5
5D1
  8
DEFAULT
 10
150.7080642356933
 20
34.90600019387705
 30
0.0
 42
-1.000000084303279
  0
VERTEX
  5
5D2
  8
DEFAULT
 10
148.4080642357139
 20
34.906
 30
0.0
  0
VERTEX
  5
5D3
  8
DEFAULT
 10
148.4080642356934
 20
36.21400003797449
 30
0.0
  0
SEQEND
  5
5D4
  8
DEFAULT
  0
POLYLINE
  5
5D5
  8
DEFAULT
 66
     1
 10
0.0
 20
0.0
 30
0.0
  0
VERTEX
  5
5D6
  8
DEFAULT
 10
150.9480645099289
 20
36.21399999999927
 30
0.0
 42
-1.000000322710969
  0
VERTEX
  5
5D7
  8
DEFAULT
 10
153.2480639615709
 20
36.21399980612376
 30
0.0
  0
VERTEX
  5
5D8
  8
DEFAULT
 10
153.2480642357475
 20
34.90600019387822
 30
0.0
 42
-1.00000020350334
  0
VERTEX
  5
5D9
  8
DEFAULT
 10
150.9480645099241
 20
34.90600000000271
 30
0.0
  0
VERTEX
  5
5DA
  8
DEFAULT
 10
150.9480645099289
 20
36.21399999999927
 30
0.0
  0
SEQEND
  5
5DB
  8
DEFAULT
  0
POLYLINE
  5
5DC
  8
DEFAULT
 66
     1
 10
0.0
 20
0.0
 30
0.0
  0
VERTEX
  5
5DD
  8
DEFAULT
 10
153.4880642357728
 20
36.21399984407425
 30
0.0
 42
-1.000000067797602
  0
VERTEX
  5
5DE
  8
DEFAULT
 10
155.7880642357639
 20
36.21400000000001
 30
0.0
  0
VERTEX
  5
5DF
  8
DEFAULT
 10
155.7880642357727
 20
34.90600019387607
 30
0.0
 42
-1.000000203507344
  0
VERTEX
  5
5E0
  8
DEFAULT
 10
153.4880645099629
 20
34.90600000000056
 30
0.0
  0
VERTEX
  5
5E1
  8
DEFAULT
 10
153.4880642357728
 20
36.21399984407425
 30
0.0
  0
SEQEND
  5
5E2
  8
DEFAULT
  0
POLYLINE
  5
5E3
  8
DEFAULT
 66
     1
 10
0.0
 20
0.0
 30
0.0
  0
VERTEX
  5
5E4
  8
DEFAULT
 10
156.0280642357238
 20
36.21400000000001
 30
0.0
 42
-1.000000084295204
  0
VERTEX
  5
5E5
  8
DEFAULT
 10
158.3280642357237
 20
36.213999806121
 30
0.0
  0
VERTEX
  5
5E6
  8
DEFAULT
 10
158.3280642357395
 20
34.90599996202755
 30
0.0
 42
-0.9999999669874067
  0
VERTEX
  5
5E7
  8
DEFAULT
 10
156.0280642357554
 20
34.90599996202755
 30
0.0
  0
VERTEX
  5
5E8
  8
DEFAULT
 10
156.0280642357553
 20
36.21399999999303
 30
0.0
  0
SEQEND
  5
5E9
  8
DEFAULT
  0
POLYLINE
  5
5EA
  8
DEFAULT
 66
     1
 10
0.0
 20
0.0
 30
0.0
  0
VERTEX
  5
5EB
  8
DEFAULT
 10
158.5680645099183
 20
36.21399999999999
 30
0.0
 42
-1.000000322709131
  0
VERTEX
  5
5EC
  8
DEFAULT
 10
160.8680639615629
 20
36.21399980612448
 30
0.0
  0
VERTEX
  5
5ED
  8
DEFAULT
 10
160.8680642357368
 20
34.90599996204948
 30
0.0
 42
-0.999999966996316
  0
VERTEX
  5
5EE
  8
DEFAULT
 10
158.5680642357294
 20
34.90599996204948
 30
0.0
  0
VERTEX
  5
5EF
  8
DEFAULT
 10
158.5680645099183
 20
36.21399999999999
 30
0.0
  0
SEQEND
  5
5F0
  8
DEFAULT
  0
POLYLINE
  5
5F1
  8
DEFAULT
 66
     1
 10
0.0
 20
0.0
 30
0.0
  0
VERTEX
  5
5F2
  8
DEFAULT
 10
161.1080645098924
 20
36.21399999999991
 30
0.0
 42
-1.000000322701997
  0
VERTEX
  5
5F3
  8
DEFAULT
 10
163.4080639615536
 20
36.21399980612439
 30
0.0
  0
VERTEX
  5
5F4
  8
DEFAULT
 10
163.408064235711
 20
34.90599996204352
 30
0.0
 42
-0.2515709231145649
  0
VERTEX
  5
5F5
  8
DEFAULT
 10
162.8930642357366
 20
33.94721170223188
 30
0.0
  0
VERTEX
  5
5F6
  8
DEFAULT
 10
162.8930642357365
 20
27.82000000001405
 30
0.0
  0
VERTEX
  5
5F7
  8
DEFAULT
 10
162.9184644296375
 20
27.81999972583264
 30
0.0
 42
-1.000000019054004
  0
VERTEX
  5
5F8
  8
DEFAULT
 10
162.9184642721858
 20
25.52000000000711
 30
0.0
  0
VERTEX
  5
5F9
  8
DEFAULT
 10
162.8930642357365
 20
25.52
 30
0.0
  0
VERTEX
  5
5FA
  8
DEFAULT
 10
162.8930642357365
 20
25.2800000000053
 30
0.0
  0
VERTEX
  5
5FB
  8
DEFAULT
 10
162.9184640418597
 20
25.27999972582389
 30
0.0
 42
-1.00000028779812
  0
VERTEX
  5
5FC
  8
DEFAULT
 10
162.9184640418597
 20
22.98000000000558
 30
0.0
  0
VERTEX
  5
5FD
  8
DEFAULT
 10
161.5976641993086
 20
22.98000000000583
 30
0.0
 42
-0.2438069423945582
  0
VERTEX
  5
5FE
  8
DEFAULT
 10
160.657864235803
 20
23.4672210322308
 30
0.0
 42
-3.153087381926069
  0
VERTEX
  5
5FF
  8
DEFAULT
 10
160.6578642356701
 20
24.79277896772494
 30
0.0
 42
-0.2438069423888784
  0
VERTEX
  5
600
  8
DEFAULT
 10
161.5976641993086
 20
25.28000000000552
 30
0.0
  0
VERTEX
  5
601
  8
DEFAULT
 10
161.6230642357366
 20
25.2800000000053
 30
0.0
  0
VERTEX
  5
602
  8
DEFAULT
 10
161.6230642357366
 20
25.52
 30
0.0
  0
VERTEX
  5
603
  8
DEFAULT
 10
161.5976640418572
 20
25.52000027418139
 30
0.0
 42
-1.000000103371208
  0
VERTEX
  5
604
  8
DEFAULT
 10
161.5976641993088
 20
27.82000000000702
 30
0.0
  0
VERTEX
  5
605
  8
DEFAULT
 10
161.6230642357366
 20
27.82000000001405
 30
0.0
  0
VERTEX
  5
606
  8
DEFAULT
 10
161.6230642357366
 20
33.94721170216627
 30
0.0
 42
-0.25157092315383
  0
VERTEX
  5
607
  8
DEFAULT
 10
161.1080642356871
 20
34.90599996204352
 30
0.0
  0
VERTEX
  5
608
  8
DEFAULT
 10
161.1080645098924
 20
36.21399999999991
 30
0.0
  0
SEQEND
  5
609
  8
DEFAULT
  0
POLYLINE
  5
60A
  8
DEFAULT
 66
     1
 10
0.0
 20
0.0
 30
0.0
  0
VERTEX
  5
60B
  8
DEFAULT
 10
166.1880645099232
 20
36.21399999999178
 30
0.0
 42
-1.000000322717296
  0
VERTEX
  5
60C
  8
DEFAULT
 10
168.4880639615656
 20
36.21399980611628
 30
0.0
  0
VERTEX
  5
60D
  8
DEFAULT
 10
168.488064235747
 20
34.906
 30
0.0
 42
-0.9999999999999846
  0
VERTEX
  5
60E
  8
DEFAULT
 10
166.1880642357365
 20
34.90600000000001
 30
0.0
  0
VERTEX
  5
60F
  8
DEFAULT
 10
166.1880645099232
 20
36.21399999999178
 30
0.0
  0
SEQEND
  5
610
  8
DEFAULT
  0
POLYLINE
  5
611
  8
DEFAULT
 66
     1
 10
0.0
 20
0.0
 30
0.0
  0
VERTEX
  5
612
  8
DEFAULT
 10
168.7280645099054
 20
36.2139999999708
 30
0.0
 42
-1.000000322732334
  0
VERTEX
  5
613
  8
DEFAULT
 10
171.0280639615551
 20
36.21399980609528
 30
0.0
  0
VERTEX
  5
614
  8
DEFAULT
 10
171.0280642357241
 20
34.90600019388249
 30
0.0
 42
-1.000000203503637
  0
VERTEX
  5
615
  8
DEFAULT
 10
168.7280645098928
 20
34.90600000000698
 30
0.0
  0
VERTEX
  5
616
  8
DEFAULT
 10
168.7280645099054
 20
36.2139999999708
 30
0.0
  0
SEQEND
  5
617
  8
DEFAULT
  0
POLYLINE
  5
618
  8
DEFAULT
 66
     1
 10
0.0
 20
0.0
 30
0.0
  0
VERTEX
  5
619
  8
DEFAULT
 10
171.2680642357124
 20
36.21400000000001
 30
0.0
 42
-1.000000203509241
  0
VERTEX
  5
61A
  8
DEFAULT
 10
173.568063961531
 20
36.2139998061102
 30
0.0
  0
VERTEX
  5
61B
  8
DEFAULT
 10
173.5680642357162
 20
34.90600019387567
 30
0.0
 42
-1.000000203504863
  0
VERTEX
  5
61C
  8
DEFAULT
 10
171.2680645099016
 20
34.90600000000015
 30
0.0
  0
VERTEX
  5
61D
  8
DEFAULT
 10
171.2680642357203
 20
36.21399999997143
 30
0.0
  0
SEQEND
  5
61E
  8
DEFAULT
  0
POLYLINE
  5
61F
  8
DEFAULT
 66
     1
 10
0.0
 20
0.0
 30
0.0
  0
VERTEX
  5
620
  8
DEFAULT
 10
103.9580642357365
 20
31.75
 30
0.0
 42
-1.672264226310042
  0
VERTEX
  5
621
  8
DEFAULT
 10
105.7430642357365
 20
30.79121170219907
 30
0.0
  0
VERTEX
  5
622
  8
DEFAULT
 10
105.7430642357366
 20
27.82000000002491
 30
0.0
  0
VERTEX
  5
623
  8
DEFAULT
 10
106.2580642357366
 20
27.82000000002491
 30
0.0
 42
-0.9999999999999939
  0
VERTEX
  5
624
  8
DEFAULT
 10
106.2580642357366
 20
25.52000000002491
 30
0.0
  0
VERTEX
  5
625
  8
DEFAULT
 10
105.7430642357365
 20
25.51999999998297
 30
0.0
  0
VERTEX
  5
626
  8
DEFAULT
 10
105.7430642357365
 20
24.64499999996346
 30
0.0
  0
VERTEX
  5
627
  8
DEFAULT
 10
106.2580642357366
 20
24.6449997257821
 30
0.0
 42
-1.000000119209321
  0
VERTEX
  5
628
  8
DEFAULT
 10
106.2580642357366
 20
22.34499999996344
 30
0.0
  0
VERTEX
  5
629
  8
DEFAULT
 10
105.7430642357365
 20
22.34500000001962
 30
0.0
  0
VERTEX
  5
62A
  8
DEFAULT
 10
105.7430642357366
 20
19.313
 30
0.0
  0
VERTEX
  5
62B
  8
DEFAULT
 10
105.9125805439942
 20
19.14348369174239
 30
0.0
 42
-0.5850192880847347
  0
VERTEX
  5
62C
  8
DEFAULT
 10
107.6602639616267
 20
18.16099980611948
 30
0.0
  0
VERTEX
  5
62D
  8
DEFAULT
 10
107.6602642357651
 20
16.12900004833892
 30
0.0
 42
-1.000000042015165
  0
VERTEX
  5
62E
  8
DEFAULT
 10
105.3602642357222
 20
16.12900004833892
 30
0.0
  0
VERTEX
  5
62F
  8
DEFAULT
 10
105.3602642357221
 20
17.89980000001447
 30
0.0
  0
VERTEX
  5
630
  8
DEFAULT
 10
104.6624554042279
 20
18.59760883150868
 30
0.0
 42
-0.2008759561902152
  0
VERTEX
  5
631
  8
DEFAULT
 10
104.4730642357366
 20
19.05
 30
0.0
  0
VERTEX
  5
632
  8
DEFAULT
 10
104.4730642357366
 20
22.34500000001962
 30
0.0
  0
VERTEX
  5
633
  8
DEFAULT
 10
103.9580644296122
 20
22.34500000001965
 30
0.0
 42
-1.000000084293715
  0
VERTEX
  5
634
  8
DEFAULT
 10
103.9580644296122
 20
24.64499999999149
 30
0.0
  0
VERTEX
  5
635
  8
DEFAULT
 10
104.4730642357365
 20
24.64499999996346
 30
0.0
  0
VERTEX
  5
636
  8
DEFAULT
 10
104.4730642357366
 20
25.51999999998297
 30
0.0
  0
VERTEX
  5
637
  8
DEFAULT
 10
103.9580643160381
 20
25.51999999998301
 30
0.0
 42
-0.9999998663263889
  0
VERTEX
  5
638
  8
DEFAULT
 10
103.9580643160381
 20
27.82000000000389
 30
0.0
  0
VERTEX
  5
639
  8
DEFAULT
 10
104.4730642357366
 20
27.82000000002491
 30
0.0
  0
VERTEX
  5
63A
  8
DEFAULT
 10
104.4730642357366
 20
30.79121170219907
 30
0.0
 42
-0.2515710159538802
  0
VERTEX
  5
63B
  8
DEFAULT
 10
103.9580642357365
 20
31.75
 30
0.0
  0
SEQEND
  5
63C
  8
DEFAULT
  0
ENDSEC
  0
EOF
