  0
SECTION
  2
HEADER
  9
$ACADVER
  1
AC1009
  9
$FILLMODE
 70
0
  9
$EXTMIN
 10
-5.0800
 20
6.8580
 30
0.0000
  9
$EXTMAX
 10
86.6650
 20
78.3590
 30
0.0000
  0
ENDSEC
  0
SECTION
  2
TABLES
  0
TABLE
  2
LTYPE
 70
1
  0
LTYPE
  2
CONTINUOUS
 70
64
  3
Solid line
 72
65
 73
0
 40
0
  0
ENDTAB
  0
TABLE
  2
LAYER
 70
255
  0
LAYER
  2
16
 70
64
 62
175
  6
CONTINUOUS
  0
LAYER
  2
17
 70
64
 62
82
  6
CONTINUOUS
  0
LAYER
  2
18
 70
64
 62
82
  6
CONTINUOUS
  0
LAYER
  2
20
 70
64
 62
30
  6
CONTINUOUS
  0
LAYER
  2
44
 70
64
 62
253
  6
CONTINUOUS
  0
ENDTAB
  0
ENDSEC
  0
SECTION
  2
BLOCKS
  0
BLOCK
  8
0
  2
RECT
 70
64
 10
0.0000
 20
0.0000
 30
0.0000
  3
RECT
  0
SOLID
  8
0
 10
-0.5000
 20
-0.5000
 30
0.0000
 11
0.5000
 21
-0.5000
 31
0.0000
 12
-0.5000
 22
0.5000
 32
0.0000
 13
0.5000
 23
0.5000
 33
0.0000
  0
ENDBLK
  8
0
  0
BLOCK
  8
0
  2
PIE
 70
64
 10
0.0000
 20
0.0000
 30
0.0000
  3
PIE
  0
CIRCLE
  8
0
 10
0.0000
 20
0.0000
 30
0.0000
 40
0.5000
  0
ENDBLK
  8
0
  0
BLOCK
  8
0
  2
OCTAGONP
 70
64
 10
0.0000
 20
0.0000
 30
0.0000
  3
OCTAGONP
  0
POLYLINE
  8
0
 66
1
 10
0.0000
 20
0.0000
 30
0.0000
 40
0.0000
 41
0.0000
 70
1
  0
VERTEX
  8
0
 10
-0.5000
 20
-0.2071
 30
0.0000
  0
VERTEX
  8
0
 10
-0.5000
 20
0.2071
 30
0.0000
  0
VERTEX
  8
0
 10
-0.2071
 20
0.5000
 30
0.0000
  0
VERTEX
  8
0
 10
0.2071
 20
0.5000
 30
0.0000
  0
VERTEX
  8
0
 10
0.5000
 20
0.2071
 30
0.0000
  0
VERTEX
  8
0
 10
0.5000
 20
-0.2071
 30
0.0000
  0
VERTEX
  8
0
 10
0.2071
 20
-0.5000
 30
0.0000
  0
VERTEX
  8
0
 10
-0.2071
 20
-0.5000
 30
0.0000
  0
SEQEND
  8
0
  0
ENDBLK
  8
0
  0
BLOCK
  8
0
  2
SQUAREP
 70
64
 10
0.0000
 20
0.0000
 30
0.0000
  3
SQUAREP
  0
SOLID
  8
0
 10
-0.5000
 20
-0.5000
 30
0.0000
 11
0.5000
 21
-0.5000
 31
0.0000
 12
-0.5000
 22
0.5000
 32
0.0000
 13
0.5000
 23
0.5000
 33
0.0000
  0
ENDBLK
  8
0
  0
BLOCK
  8
0
  2
ROUNDP
 70
64
 10
0.0000
 20
0.0000
 30
0.0000
  3
ROUNDP
  0
CIRCLE
  8
0
 10
0.0000
 20
0.0000
 30
0.0000
 40
0.5000
  0
ENDBLK
  8
0
  0
BLOCK
  8
0
  2
ANNULUSP
 70
64
 10
0.0000
 20
0.0000
 30
0.0000
  3
ANNULUSP
  0
CIRCLE
  8
0
 10
0.0000
 20
0.0000
 30
0.0000
 40
0.5000
  0
ENDBLK
  8
0
  0
BLOCK
  8
0
  2
THERMALP
 70
64
 10
0.0000
 20
0.0000
 30
0.0000
  3
THERMALP
  0
POLYLINE
  8
0
 66
1
 10
0.0000
 20
0.0000
 30
0.0000
 40
0.0000
 41
0.0000
 70
1
  0
VERTEX
  8
0
 10
-0.2379
 20
0.4000
 30
0.0000
  0
VERTEX
  8
0
 10
0.2379
 20
0.4000
 30
0.0000
 42
1.0000
  0
VERTEX
  8
0
 10
0.2379
 20
0.5000
 30
0.0000
  0
VERTEX
  8
0
 10
-0.2379
 20
0.5000
 30
0.0000
 42
1.0000
  0
SEQEND
  8
0
  0
POLYLINE
  8
0
 66
1
 10
0.0000
 20
0.0000
 30
0.0000
 40
0.0000
 41
0.0000
 70
1
  0
VERTEX
  8
0
 10
0.4000
 20
0.2379
 30
0.0000
  0
VERTEX
  8
0
 10
0.4000
 20
-0.2379
 30
0.0000
 42
1.0000
  0
VERTEX
  8
0
 10
0.5000
 20
-0.2379
 30
0.0000
  0
VERTEX
  8
0
 10
0.5000
 20
0.2379
 30
0.0000
 42
1.0000
  0
SEQEND
  8
0
  0
POLYLINE
  8
0
 66
1
 10
0.0000
 20
0.0000
 30
0.0000
 40
0.0000
 41
0.0000
 70
1
  0
VERTEX
  8
0
 10
0.2379
 20
-0.4000
 30
0.0000
  0
VERTEX
  8
0
 10
-0.2379
 20
-0.4000
 30
0.0000
 42
1.0000
  0
VERTEX
  8
0
 10
-0.2379
 20
-0.5000
 30
0.0000
  0
VERTEX
  8
0
 10
0.2379
 20
-0.5000
 30
0.0000
 42
1.0000
  0
SEQEND
  8
0
  0
POLYLINE
  8
0
 66
1
 10
0.0000
 20
0.0000
 30
0.0000
 40
0.0000
 41
0.0000
 70
1
  0
VERTEX
  8
0
 10
-0.4000
 20
-0.2379
 30
0.0000
  0
VERTEX
  8
0
 10
-0.4000
 20
0.2379
 30
0.0000
 42
1.0000
  0
VERTEX
  8
0
 10
-0.5000
 20
0.2379
 30
0.0000
  0
VERTEX
  8
0
 10
-0.5000
 20
-0.2379
 30
0.0000
 42
1.0000
  0
SEQEND
  8
0
  0
ENDBLK
  8
0
  0
BLOCK
  8
0
  2
OCTAGONV
 70
64
 10
0.0000
 20
0.0000
 30
0.0000
  3
OCTAGONV
  0
POLYLINE
  8
0
 66
1
 10
0.0000
 20
0.0000
 30
0.0000
 40
0.0000
 41
0.0000
 70
1
  0
VERTEX
  8
0
 10
-0.5000
 20
-0.2071
 30
0.0000
  0
VERTEX
  8
0
 10
-0.5000
 20
0.2071
 30
0.0000
  0
VERTEX
  8
0
 10
-0.2071
 20
0.5000
 30
0.0000
  0
VERTEX
  8
0
 10
0.2071
 20
0.5000
 30
0.0000
  0
VERTEX
  8
0
 10
0.5000
 20
0.2071
 30
0.0000
  0
VERTEX
  8
0
 10
0.5000
 20
-0.2071
 30
0.0000
  0
VERTEX
  8
0
 10
0.2071
 20
-0.5000
 30
0.0000
  0
VERTEX
  8
0
 10
-0.2071
 20
-0.5000
 30
0.0000
  0
SEQEND
  8
0
  0
ENDBLK
  8
0
  0
BLOCK
  8
0
  2
SQUAREV
 70
64
 10
0.0000
 20
0.0000
 30
0.0000
  3
SQUAREV
  0
SOLID
  8
0
 10
-0.5000
 20
-0.5000
 30
0.0000
 11
0.5000
 21
-0.5000
 31
0.0000
 12
-0.5000
 22
0.5000
 32
0.0000
 13
0.5000
 23
0.5000
 33
0.0000
  0
ENDBLK
  8
0
  0
BLOCK
  8
0
  2
ROUNDV
 70
64
 10
0.0000
 20
0.0000
 30
0.0000
  3
ROUNDV
  0
CIRCLE
  8
0
 10
0.0000
 20
0.0000
 30
0.0000
 40
0.5000
  0
ENDBLK
  8
0
  0
BLOCK
  8
0
  2
ANNULUSV
 70
64
 10
0.0000
 20
0.0000
 30
0.0000
  3
ANNULUSV
  0
CIRCLE
  8
0
 10
0.0000
 20
0.0000
 30
0.0000
 40
0.5000
  0
ENDBLK
  8
0
  0
BLOCK
  8
0
  2
THERMALV
 70
64
 10
0.0000
 20
0.0000
 30
0.0000
  3
THERMALV
  0
POLYLINE
  8
0
 66
1
 10
0.0000
 20
0.0000
 30
0.0000
 40
0.0000
 41
0.0000
 70
1
  0
VERTEX
  8
0
 10
-0.2379
 20
0.4000
 30
0.0000
  0
VERTEX
  8
0
 10
0.2379
 20
0.4000
 30
0.0000
 42
1.0000
  0
VERTEX
  8
0
 10
0.2379
 20
0.5000
 30
0.0000
  0
VERTEX
  8
0
 10
-0.2379
 20
0.5000
 30
0.0000
 42
1.0000
  0
SEQEND
  8
0
  0
POLYLINE
  8
0
 66
1
 10
0.0000
 20
0.0000
 30
0.0000
 40
0.0000
 41
0.0000
 70
1
  0
VERTEX
  8
0
 10
0.4000
 20
0.2379
 30
0.0000
  0
VERTEX
  8
0
 10
0.4000
 20
-0.2379
 30
0.0000
 42
1.0000
  0
VERTEX
  8
0
 10
0.5000
 20
-0.2379
 30
0.0000
  0
VERTEX
  8
0
 10
0.5000
 20
0.2379
 30
0.0000
 42
1.0000
  0
SEQEND
  8
0
  0
POLYLINE
  8
0
 66
1
 10
0.0000
 20
0.0000
 30
0.0000
 40
0.0000
 41
0.0000
 70
1
  0
VERTEX
  8
0
 10
0.2379
 20
-0.4000
 30
0.0000
  0
VERTEX
  8
0
 10
-0.2379
 20
-0.4000
 30
0.0000
 42
1.0000
  0
VERTEX
  8
0
 10
-0.2379
 20
-0.5000
 30
0.0000
  0
VERTEX
  8
0
 10
0.2379
 20
-0.5000
 30
0.0000
 42
1.0000
  0
SEQEND
  8
0
  0
POLYLINE
  8
0
 66
1
 10
0.0000
 20
0.0000
 30
0.0000
 40
0.0000
 41
0.0000
 70
1
  0
VERTEX
  8
0
 10
-0.4000
 20
-0.2379
 30
0.0000
  0
VERTEX
  8
0
 10
-0.4000
 20
0.2379
 30
0.0000
 42
1.0000
  0
VERTEX
  8
0
 10
-0.5000
 20
0.2379
 30
0.0000
  0
VERTEX
  8
0
 10
-0.5000
 20
-0.2379
 30
0.0000
 42
1.0000
  0
SEQEND
  8
0
  0
ENDBLK
  8
0
  0
BLOCK
  8
0
  2
LONGP130
 70
64
 10
0.0000
 20
0.0000
 30
0.0000
  3
LONGP130
  0
POLYLINE
  8
0
 66
1
 10
0.0000
 20
0.0000
 30
0.0000
 40
0.0000
 41
0.0000
 70
1
  0
VERTEX
  8
0
 10
-0.6500
 20
-0.5000
 30
0.0000
  0
VERTEX
  8
0
 10
0.6500
 20
-0.5000
 30
0.0000
 42
1.0000
  0
VERTEX
  8
0
 10
0.6500
 20
0.5000
 30
0.0000
  0
VERTEX
  8
0
 10
-0.6500
 20
0.5000
 30
0.0000
 42
1.0000
  0
SEQEND
  8
0
  0
ENDBLK
  8
0
  0
ENDSEC
  0
SECTION
  2
ENTITIES
  0
LINE
  8
20
 10
0.0000
 20
7.6200
 30
0.0000
 11
86.6650
 21
7.6200
 31
0.0000
  0
LINE
  8
20
 10
86.6650
 20
7.6200
 30
0.0000
 11
86.6650
 21
77.4600
 31
0.0000
  0
LINE
  8
20
 10
86.6650
 20
77.4600
 30
0.0000
 11
0.0000
 21
77.4600
 31
0.0000
  0
LINE
  8
20
 10
0.0000
 20
77.4600
 30
0.0000
 11
0.0000
 21
7.6200
 31
0.0000
  0
CIRCLE
  8
20
 10
5.0800
 20
35.5600
 30
0.0000
 40
0.8890
  0
CIRCLE
  8
20
 10
5.0800
 20
50.8000
 30
0.0000
 40
0.8890
  0
CIRCLE
  8
20
 10
45.7200
 20
50.8000
 30
0.0000
 40
0.8890
  0
CIRCLE
  8
20
 10
45.7200
 20
35.5600
 30
0.0000
 40
0.8890
  0
INSERT
  8
17
  2
ROUNDP
 10
7.6200
 20
35.5600
 30
0.0000
 41
1.3080
 42
1.3080
 43
1.0000
 50
0.0000
  0
CIRCLE
  8
44
 10
7.6200
 20
35.5600
 30
0.0000
 40
0.4000
  0
INSERT
  8
17
  2
ROUNDP
 10
10.1600
 20
35.5600
 30
0.0000
 41
1.3080
 42
1.3080
 43
1.0000
 50
0.0000
  0
CIRCLE
  8
44
 10
10.1600
 20
35.5600
 30
0.0000
 40
0.4000
  0
INSERT
  8
17
  2
ROUNDP
 10
12.7000
 20
35.5600
 30
0.0000
 41
1.3080
 42
1.3080
 43
1.0000
 50
0.0000
  0
CIRCLE
  8
44
 10
12.7000
 20
35.5600
 30
0.0000
 40
0.4000
  0
INSERT
  8
17
  2
ROUNDP
 10
15.2400
 20
35.5600
 30
0.0000
 41
1.3080
 42
1.3080
 43
1.0000
 50
0.0000
  0
CIRCLE
  8
44
 10
15.2400
 20
35.5600
 30
0.0000
 40
0.4000
  0
INSERT
  8
17
  2
ROUNDP
 10
17.7800
 20
35.5600
 30
0.0000
 41
1.3080
 42
1.3080
 43
1.0000
 50
0.0000
  0
CIRCLE
  8
44
 10
17.7800
 20
35.5600
 30
0.0000
 40
0.4000
  0
INSERT
  8
17
  2
ROUNDP
 10
20.3200
 20
35.5600
 30
0.0000
 41
1.3080
 42
1.3080
 43
1.0000
 50
0.0000
  0
CIRCLE
  8
44
 10
20.3200
 20
35.5600
 30
0.0000
 40
0.4000
  0
INSERT
  8
17
  2
ROUNDP
 10
22.8600
 20
35.5600
 30
0.0000
 41
1.3080
 42
1.3080
 43
1.0000
 50
0.0000
  0
CIRCLE
  8
44
 10
22.8600
 20
35.5600
 30
0.0000
 40
0.4000
  0
INSERT
  8
17
  2
ROUNDP
 10
25.4000
 20
35.5600
 30
0.0000
 41
1.3080
 42
1.3080
 43
1.0000
 50
0.0000
  0
CIRCLE
  8
44
 10
25.4000
 20
35.5600
 30
0.0000
 40
0.4000
  0
INSERT
  8
17
  2
ROUNDP
 10
27.9400
 20
35.5600
 30
0.0000
 41
1.3080
 42
1.3080
 43
1.0000
 50
0.0000
  0
CIRCLE
  8
44
 10
27.9400
 20
35.5600
 30
0.0000
 40
0.4000
  0
INSERT
  8
17
  2
ROUNDP
 10
30.4800
 20
35.5600
 30
0.0000
 41
1.3080
 42
1.3080
 43
1.0000
 50
0.0000
  0
CIRCLE
  8
44
 10
30.4800
 20
35.5600
 30
0.0000
 40
0.4000
  0
INSERT
  8
17
  2
ROUNDP
 10
33.0200
 20
35.5600
 30
0.0000
 41
1.3080
 42
1.3080
 43
1.0000
 50
0.0000
  0
CIRCLE
  8
44
 10
33.0200
 20
35.5600
 30
0.0000
 40
0.4000
  0
INSERT
  8
17
  2
ROUNDP
 10
35.5600
 20
35.5600
 30
0.0000
 41
1.3080
 42
1.3080
 43
1.0000
 50
0.0000
  0
CIRCLE
  8
44
 10
35.5600
 20
35.5600
 30
0.0000
 40
0.4000
  0
INSERT
  8
17
  2
ROUNDP
 10
38.1000
 20
35.5600
 30
0.0000
 41
1.3080
 42
1.3080
 43
1.0000
 50
0.0000
  0
CIRCLE
  8
44
 10
38.1000
 20
35.5600
 30
0.0000
 40
0.4000
  0
INSERT
  8
17
  2
ROUNDP
 10
40.6400
 20
35.5600
 30
0.0000
 41
1.3080
 42
1.3080
 43
1.0000
 50
0.0000
  0
CIRCLE
  8
44
 10
40.6400
 20
35.5600
 30
0.0000
 40
0.4000
  0
INSERT
  8
17
  2
ROUNDP
 10
43.1800
 20
35.5600
 30
0.0000
 41
1.3080
 42
1.3080
 43
1.0000
 50
0.0000
  0
CIRCLE
  8
44
 10
43.1800
 20
35.5600
 30
0.0000
 40
0.4000
  0
INSERT
  8
17
  2
ROUNDP
 10
43.1800
 20
50.8000
 30
0.0000
 41
1.3080
 42
1.3080
 43
1.0000
 50
0.0000
  0
CIRCLE
  8
44
 10
43.1800
 20
50.8000
 30
0.0000
 40
0.4000
  0
INSERT
  8
17
  2
ROUNDP
 10
40.6400
 20
50.8000
 30
0.0000
 41
1.3080
 42
1.3080
 43
1.0000
 50
0.0000
  0
CIRCLE
  8
44
 10
40.6400
 20
50.8000
 30
0.0000
 40
0.4000
  0
INSERT
  8
17
  2
ROUNDP
 10
38.1000
 20
50.8000
 30
0.0000
 41
1.3080
 42
1.3080
 43
1.0000
 50
0.0000
  0
CIRCLE
  8
44
 10
38.1000
 20
50.8000
 30
0.0000
 40
0.4000
  0
INSERT
  8
17
  2
ROUNDP
 10
35.5600
 20
50.8000
 30
0.0000
 41
1.3080
 42
1.3080
 43
1.0000
 50
0.0000
  0
CIRCLE
  8
44
 10
35.5600
 20
50.8000
 30
0.0000
 40
0.4000
  0
INSERT
  8
17
  2
ROUNDP
 10
33.0200
 20
50.8000
 30
0.0000
 41
1.3080
 42
1.3080
 43
1.0000
 50
0.0000
  0
CIRCLE
  8
44
 10
33.0200
 20
50.8000
 30
0.0000
 40
0.4000
  0
INSERT
  8
17
  2
ROUNDP
 10
30.4800
 20
50.8000
 30
0.0000
 41
1.3080
 42
1.3080
 43
1.0000
 50
0.0000
  0
CIRCLE
  8
44
 10
30.4800
 20
50.8000
 30
0.0000
 40
0.4000
  0
INSERT
  8
17
  2
ROUNDP
 10
27.9400
 20
50.8000
 30
0.0000
 41
1.3080
 42
1.3080
 43
1.0000
 50
0.0000
  0
CIRCLE
  8
44
 10
27.9400
 20
50.8000
 30
0.0000
 40
0.4000
  0
INSERT
  8
17
  2
ROUNDP
 10
25.4000
 20
50.8000
 30
0.0000
 41
1.3080
 42
1.3080
 43
1.0000
 50
0.0000
  0
CIRCLE
  8
44
 10
25.4000
 20
50.8000
 30
0.0000
 40
0.4000
  0
INSERT
  8
17
  2
ROUNDP
 10
22.8600
 20
50.8000
 30
0.0000
 41
1.3080
 42
1.3080
 43
1.0000
 50
0.0000
  0
CIRCLE
  8
44
 10
22.8600
 20
50.8000
 30
0.0000
 40
0.4000
  0
INSERT
  8
17
  2
ROUNDP
 10
20.3200
 20
50.8000
 30
0.0000
 41
1.3080
 42
1.3080
 43
1.0000
 50
0.0000
  0
CIRCLE
  8
44
 10
20.3200
 20
50.8000
 30
0.0000
 40
0.4000
  0
INSERT
  8
17
  2
ROUNDP
 10
17.7800
 20
50.8000
 30
0.0000
 41
1.3080
 42
1.3080
 43
1.0000
 50
0.0000
  0
CIRCLE
  8
44
 10
17.7800
 20
50.8000
 30
0.0000
 40
0.4000
  0
INSERT
  8
17
  2
ROUNDP
 10
15.2400
 20
50.8000
 30
0.0000
 41
1.3080
 42
1.3080
 43
1.0000
 50
0.0000
  0
CIRCLE
  8
44
 10
15.2400
 20
50.8000
 30
0.0000
 40
0.4000
  0
INSERT
  8
17
  2
ROUNDP
 10
12.7000
 20
50.8000
 30
0.0000
 41
1.3080
 42
1.3080
 43
1.0000
 50
0.0000
  0
CIRCLE
  8
44
 10
12.7000
 20
50.8000
 30
0.0000
 40
0.4000
  0
INSERT
  8
17
  2
ROUNDP
 10
10.1600
 20
50.8000
 30
0.0000
 41
1.3080
 42
1.3080
 43
1.0000
 50
0.0000
  0
CIRCLE
  8
44
 10
10.1600
 20
50.8000
 30
0.0000
 40
0.4000
  0
INSERT
  8
17
  2
ROUNDP
 10
7.6200
 20
50.8000
 30
0.0000
 41
1.3080
 42
1.3080
 43
1.0000
 50
0.0000
  0
CIRCLE
  8
44
 10
7.6200
 20
50.8000
 30
0.0000
 40
0.4000
  0
INSERT
  8
17
  2
ROUNDP
 10
21.5900
 20
29.2100
 30
0.0000
 41
1.3208
 42
1.3208
 43
1.0000
 50
0.0000
  0
CIRCLE
  8
44
 10
21.5900
 20
29.2100
 30
0.0000
 40
0.4064
  0
INSERT
  8
17
  2
ROUNDP
 10
26.6700
 20
29.2100
 30
0.0000
 41
1.3208
 42
1.3208
 43
1.0000
 50
0.0000
  0
CIRCLE
  8
44
 10
26.6700
 20
29.2100
 30
0.0000
 40
0.4064
  0
INSERT
  8
17
  2
ROUNDP
 10
56.5150
 20
61.5950
 30
0.0000
 41
1.3208
 42
1.3208
 43
1.0000
 50
270.0000
  0
CIRCLE
  8
44
 10
56.5150
 20
61.5950
 30
0.0000
 40
0.4064
  0
INSERT
  8
17
  2
ROUNDP
 10
56.5150
 20
56.5150
 30
0.0000
 41
1.3208
 42
1.3208
 43
1.0000
 50
270.0000
  0
CIRCLE
  8
44
 10
56.5150
 20
56.5150
 30
0.0000
 40
0.4064
  0
INSERT
  8
17
  2
ROUNDP
 10
48.8950
 20
61.5950
 30
0.0000
 41
1.3208
 42
1.3208
 43
1.0000
 50
270.0000
  0
CIRCLE
  8
44
 10
48.8950
 20
61.5950
 30
0.0000
 40
0.4064
  0
INSERT
  8
17
  2
ROUNDP
 10
48.8950
 20
56.5150
 30
0.0000
 41
1.3208
 42
1.3208
 43
1.0000
 50
270.0000
  0
CIRCLE
  8
44
 10
48.8950
 20
56.5150
 30
0.0000
 40
0.4064
  0
INSERT
  8
17
  2
ROUNDP
 10
64.1350
 20
61.5950
 30
0.0000
 41
1.3208
 42
1.3208
 43
1.0000
 50
270.0000
  0
CIRCLE
  8
44
 10
64.1350
 20
61.5950
 30
0.0000
 40
0.4064
  0
INSERT
  8
17
  2
ROUNDP
 10
64.1350
 20
56.5150
 30
0.0000
 41
1.3208
 42
1.3208
 43
1.0000
 50
270.0000
  0
CIRCLE
  8
44
 10
64.1350
 20
56.5150
 30
0.0000
 40
0.4064
  0
INSERT
  8
17
  2
ROUNDP
 10
65.4050
 20
19.0500
 30
0.0000
 41
1.6764
 42
1.6764
 43
1.0000
 50
0.0000
  0
CIRCLE
  8
44
 10
65.4050
 20
19.0500
 30
0.0000
 40
0.5588
  0
INSERT
  8
17
  2
ROUNDP
 10
55.2450
 20
19.0500
 30
0.0000
 41
1.6764
 42
1.6764
 43
1.0000
 50
0.0000
  0
CIRCLE
  8
44
 10
55.2450
 20
19.0500
 30
0.0000
 40
0.5588
  0
INSERT
  8
17
  2
ROUNDP
 10
74.9300
 20
26.6700
 30
0.0000
 41
1.6764
 42
1.6764
 43
1.0000
 50
0.0000
  0
CIRCLE
  8
44
 10
74.9300
 20
26.6700
 30
0.0000
 40
0.5588
  0
INSERT
  8
17
  2
ROUNDP
 10
64.7700
 20
26.6700
 30
0.0000
 41
1.6764
 42
1.6764
 43
1.0000
 50
0.0000
  0
CIRCLE
  8
44
 10
64.7700
 20
26.6700
 30
0.0000
 40
0.5588
  0
INSERT
  8
17
  2
ROUNDP
 10
47.6250
 20
18.4150
 30
0.0000
 41
1.6764
 42
1.6764
 43
1.0000
 50
270.0000
  0
CIRCLE
  8
44
 10
47.6250
 20
18.4150
 30
0.0000
 40
0.5588
  0
INSERT
  8
17
  2
ROUNDP
 10
47.6250
 20
28.5750
 30
0.0000
 41
1.6764
 42
1.6764
 43
1.0000
 50
270.0000
  0
CIRCLE
  8
44
 10
47.6250
 20
28.5750
 30
0.0000
 40
0.5588
  0
INSERT
  8
17
  2
ROUNDP
 10
31.1150
 20
25.4000
 30
0.0000
 41
1.6764
 42
1.6764
 43
1.0000
 50
180.0000
  0
CIRCLE
  8
44
 10
31.1150
 20
25.4000
 30
0.0000
 40
0.5588
  0
INSERT
  8
17
  2
ROUNDP
 10
41.2750
 20
25.4000
 30
0.0000
 41
1.6764
 42
1.6764
 43
1.0000
 50
180.0000
  0
CIRCLE
  8
44
 10
41.2750
 20
25.4000
 30
0.0000
 40
0.5588
  0
INSERT
  8
17
  2
ROUNDP
 10
55.2450
 20
15.2400
 30
0.0000
 41
1.6764
 42
1.6764
 43
1.0000
 50
180.0000
  0
CIRCLE
  8
44
 10
55.2450
 20
15.2400
 30
0.0000
 40
0.5588
  0
INSERT
  8
17
  2
ROUNDP
 10
65.4050
 20
15.2400
 30
0.0000
 41
1.6764
 42
1.6764
 43
1.0000
 50
180.0000
  0
CIRCLE
  8
44
 10
65.4050
 20
15.2400
 30
0.0000
 40
0.5588
  0
INSERT
  8
17
  2
ROUNDP
 10
64.7700
 20
23.4950
 30
0.0000
 41
1.6764
 42
1.6764
 43
1.0000
 50
180.0000
  0
CIRCLE
  8
44
 10
64.7700
 20
23.4950
 30
0.0000
 40
0.5588
  0
INSERT
  8
17
  2
ROUNDP
 10
74.9300
 20
23.4950
 30
0.0000
 41
1.6764
 42
1.6764
 43
1.0000
 50
180.0000
  0
CIRCLE
  8
44
 10
74.9300
 20
23.4950
 30
0.0000
 40
0.5588
  0
INSERT
  8
17
  2
ROUNDP
 10
43.8150
 20
28.5750
 30
0.0000
 41
1.6764
 42
1.6764
 43
1.0000
 50
90.0000
  0
CIRCLE
  8
44
 10
43.8150
 20
28.5750
 30
0.0000
 40
0.5588
  0
INSERT
  8
17
  2
ROUNDP
 10
43.8150
 20
18.4150
 30
0.0000
 41
1.6764
 42
1.6764
 43
1.0000
 50
90.0000
  0
CIRCLE
  8
44
 10
43.8150
 20
18.4150
 30
0.0000
 40
0.5588
  0
INSERT
  8
17
  2
ROUNDP
 10
41.2750
 20
28.5750
 30
0.0000
 41
1.6764
 42
1.6764
 43
1.0000
 50
0.0000
  0
CIRCLE
  8
44
 10
41.2750
 20
28.5750
 30
0.0000
 40
0.5588
  0
INSERT
  8
17
  2
ROUNDP
 10
31.1150
 20
28.5750
 30
0.0000
 41
1.6764
 42
1.6764
 43
1.0000
 50
0.0000
  0
CIRCLE
  8
44
 10
31.1150
 20
28.5750
 30
0.0000
 40
0.5588
  0
INSERT
  8
17
  2
ROUNDP
 10
62.8650
 20
52.0700
 30
0.0000
 41
1.8000
 42
1.8000
 43
1.0000
 50
0.0000
  0
CIRCLE
  8
44
 10
62.8650
 20
52.0700
 30
0.0000
 40
0.6000
  0
INSERT
  8
17
  2
ROUNDP
 10
67.9450
 20
50.8000
 30
0.0000
 41
1.8000
 42
1.8000
 43
1.0000
 50
0.0000
  0
CIRCLE
  8
44
 10
67.9450
 20
50.8000
 30
0.0000
 40
0.6000
  0
INSERT
  8
17
  2
ROUNDP
 10
62.8650
 20
49.5300
 30
0.0000
 41
1.8000
 42
1.8000
 43
1.0000
 50
0.0000
  0
CIRCLE
  8
44
 10
62.8650
 20
49.5300
 30
0.0000
 40
0.6000
  0
INSERT
  8
17
  2
ROUNDP
 10
67.9450
 20
48.2600
 30
0.0000
 41
1.8000
 42
1.8000
 43
1.0000
 50
0.0000
  0
CIRCLE
  8
44
 10
67.9450
 20
48.2600
 30
0.0000
 40
0.6000
  0
INSERT
  8
17
  2
ROUNDP
 10
62.8650
 20
46.9900
 30
0.0000
 41
1.8000
 42
1.8000
 43
1.0000
 50
0.0000
  0
CIRCLE
  8
44
 10
62.8650
 20
46.9900
 30
0.0000
 40
0.6000
  0
INSERT
  8
17
  2
ROUNDP
 10
67.9450
 20
45.7200
 30
0.0000
 41
1.8000
 42
1.8000
 43
1.0000
 50
0.0000
  0
CIRCLE
  8
44
 10
67.9450
 20
45.7200
 30
0.0000
 40
0.6000
  0
INSERT
  8
17
  2
ROUNDP
 10
62.8650
 20
44.4500
 30
0.0000
 41
1.8000
 42
1.8000
 43
1.0000
 50
0.0000
  0
CIRCLE
  8
44
 10
62.8650
 20
44.4500
 30
0.0000
 40
0.6000
  0
INSERT
  8
17
  2
ROUNDP
 10
67.9450
 20
43.1800
 30
0.0000
 41
1.8000
 42
1.8000
 43
1.0000
 50
0.0000
  0
CIRCLE
  8
44
 10
67.9450
 20
43.1800
 30
0.0000
 40
0.6000
  0
INSERT
  8
17
  2
ROUNDP
 10
62.8650
 20
41.9100
 30
0.0000
 41
1.8000
 42
1.8000
 43
1.0000
 50
0.0000
  0
CIRCLE
  8
44
 10
62.8650
 20
41.9100
 30
0.0000
 40
0.6000
  0
INSERT
  8
17
  2
ROUNDP
 10
67.9450
 20
40.6400
 30
0.0000
 41
1.8000
 42
1.8000
 43
1.0000
 50
0.0000
  0
CIRCLE
  8
44
 10
67.9450
 20
40.6400
 30
0.0000
 40
0.6000
  0
INSERT
  8
17
  2
ROUNDP
 10
62.8650
 20
39.3700
 30
0.0000
 41
1.8000
 42
1.8000
 43
1.0000
 50
0.0000
  0
CIRCLE
  8
44
 10
62.8650
 20
39.3700
 30
0.0000
 40
0.6000
  0
INSERT
  8
17
  2
ROUNDP
 10
67.9450
 20
38.1000
 30
0.0000
 41
1.8000
 42
1.8000
 43
1.0000
 50
0.0000
  0
CIRCLE
  8
44
 10
67.9450
 20
38.1000
 30
0.0000
 40
0.6000
  0
INSERT
  8
17
  2
ROUNDP
 10
62.8650
 20
36.8300
 30
0.0000
 41
1.8000
 42
1.8000
 43
1.0000
 50
0.0000
  0
CIRCLE
  8
44
 10
62.8650
 20
36.8300
 30
0.0000
 40
0.6000
  0
INSERT
  8
17
  2
ROUNDP
 10
67.9450
 20
35.5600
 30
0.0000
 41
1.8000
 42
1.8000
 43
1.0000
 50
0.0000
  0
CIRCLE
  8
44
 10
67.9450
 20
35.5600
 30
0.0000
 40
0.6000
  0
INSERT
  8
17
  2
ROUNDP
 10
62.8650
 20
34.2900
 30
0.0000
 41
1.8000
 42
1.8000
 43
1.0000
 50
0.0000
  0
CIRCLE
  8
44
 10
62.8650
 20
34.2900
 30
0.0000
 40
0.6000
  0
INSERT
  8
17
  2
ROUNDP
 10
5.0800
 20
22.0472
 30
0.0000
 41
2.0320
 42
2.0320
 43
1.0000
 50
90.0000
  0
CIRCLE
  8
44
 10
5.0800
 20
22.0472
 30
0.0000
 40
0.6000
  0
INSERT
  8
17
  2
ROUNDP
 10
5.0800
 20
25.9028
 30
0.0000
 41
2.0320
 42
2.0320
 43
1.0000
 50
90.0000
  0
CIRCLE
  8
44
 10
5.0800
 20
25.9028
 30
0.0000
 40
0.6000
  0
INSERT
  8
17
  2
ROUNDP
 10
43.3578
 20
59.0550
 30
0.0000
 41
2.0320
 42
2.0320
 43
1.0000
 50
180.0000
  0
CIRCLE
  8
44
 10
43.3578
 20
59.0550
 30
0.0000
 40
0.6000
  0
INSERT
  8
17
  2
ROUNDP
 10
39.5022
 20
59.0550
 30
0.0000
 41
2.0320
 42
2.0320
 43
1.0000
 50
180.0000
  0
CIRCLE
  8
44
 10
39.5022
 20
59.0550
 30
0.0000
 40
0.6000
  0
INSERT
  8
17
  2
ROUNDP
 10
69.6722
 20
17.1450
 30
0.0000
 41
2.0320
 42
2.0320
 43
1.0000
 50
0.0000
  0
CIRCLE
  8
44
 10
69.6722
 20
17.1450
 30
0.0000
 40
0.6000
  0
INSERT
  8
17
  2
ROUNDP
 10
73.5278
 20
17.1450
 30
0.0000
 41
2.0320
 42
2.0320
 43
1.0000
 50
0.0000
  0
CIRCLE
  8
44
 10
73.5278
 20
17.1450
 30
0.0000
 40
0.6000
  0
INSERT
  8
17
  2
ROUNDP
 10
35.1028
 20
19.6850
 30
0.0000
 41
2.0320
 42
2.0320
 43
1.0000
 50
180.0000
  0
CIRCLE
  8
44
 10
35.1028
 20
19.6850
 30
0.0000
 40
0.6000
  0
INSERT
  8
17
  2
ROUNDP
 10
31.2472
 20
19.6850
 30
0.0000
 41
2.0320
 42
2.0320
 43
1.0000
 50
180.0000
  0
CIRCLE
  8
44
 10
31.2472
 20
19.6850
 30
0.0000
 40
0.6000
  0
INSERT
  8
17
  2
ROUNDP
 10
67.9450
 20
31.7500
 30
0.0000
 41
1.6002
 42
1.6002
 43
1.0000
 50
180.0000
  0
CIRCLE
  8
44
 10
67.9450
 20
31.7500
 30
0.0000
 40
0.4064
  0
INSERT
  8
17
  2
ROUNDP
 10
57.7850
 20
31.7500
 30
0.0000
 41
1.6002
 42
1.6002
 43
1.0000
 50
180.0000
  0
CIRCLE
  8
44
 10
57.7850
 20
31.7500
 30
0.0000
 40
0.4064
  0
INSERT
  8
17
  2
ROUNDP
 10
27.9400
 20
24.1300
 30
0.0000
 41
1.6002
 42
1.6002
 43
1.0000
 50
180.0000
  0
CIRCLE
  8
44
 10
27.9400
 20
24.1300
 30
0.0000
 40
0.4064
  0
INSERT
  8
17
  2
ROUNDP
 10
20.3200
 20
24.1300
 30
0.0000
 41
1.6002
 42
1.6002
 43
1.0000
 50
180.0000
  0
CIRCLE
  8
44
 10
20.3200
 20
24.1300
 30
0.0000
 40
0.4064
  0
INSERT
  8
17
  2
ROUNDP
 10
58.4200
 20
36.8300
 30
0.0000
 41
1.6002
 42
1.6002
 43
1.0000
 50
90.0000
  0
CIRCLE
  8
44
 10
58.4200
 20
36.8300
 30
0.0000
 40
0.4064
  0
INSERT
  8
17
  2
ROUNDP
 10
58.4200
 20
41.9100
 30
0.0000
 41
1.6002
 42
1.6002
 43
1.0000
 50
90.0000
  0
CIRCLE
  8
44
 10
58.4200
 20
41.9100
 30
0.0000
 40
0.4064
  0
INSERT
  8
17
  2
ROUNDP
 10
10.1600
 20
26.6700
 30
0.0000
 41
1.3208
 42
1.3208
 43
1.0000
 50
0.0000
  0
CIRCLE
  8
44
 10
10.1600
 20
26.6700
 30
0.0000
 40
0.4064
  0
INSERT
  8
17
  2
ROUNDP
 10
17.7800
 20
26.6700
 30
0.0000
 41
1.3208
 42
1.3208
 43
1.0000
 50
0.0000
  0
CIRCLE
  8
44
 10
17.7800
 20
26.6700
 30
0.0000
 40
0.4064
  0
INSERT
  8
17
  2
ROUNDP
 10
10.1600
 20
24.1300
 30
0.0000
 41
1.3208
 42
1.3208
 43
1.0000
 50
0.0000
  0
CIRCLE
  8
44
 10
10.1600
 20
24.1300
 30
0.0000
 40
0.4064
  0
INSERT
  8
17
  2
ROUNDP
 10
17.7800
 20
24.1300
 30
0.0000
 41
1.3208
 42
1.3208
 43
1.0000
 50
0.0000
  0
CIRCLE
  8
44
 10
17.7800
 20
24.1300
 30
0.0000
 40
0.4064
  0
INSERT
  8
17
  2
ROUNDP
 10
7.6200
 20
31.7500
 30
0.0000
 41
1.3208
 42
1.3208
 43
1.0000
 50
0.0000
  0
CIRCLE
  8
44
 10
7.6200
 20
31.7500
 30
0.0000
 40
0.4064
  0
INSERT
  8
17
  2
ROUNDP
 10
15.2400
 20
31.7500
 30
0.0000
 41
1.3208
 42
1.3208
 43
1.0000
 50
0.0000
  0
CIRCLE
  8
44
 10
15.2400
 20
31.7500
 30
0.0000
 40
0.4064
  0
INSERT
  8
17
  2
ROUNDP
 10
7.6200
 20
29.2100
 30
0.0000
 41
1.3208
 42
1.3208
 43
1.0000
 50
0.0000
  0
CIRCLE
  8
44
 10
7.6200
 20
29.2100
 30
0.0000
 40
0.4064
  0
INSERT
  8
17
  2
ROUNDP
 10
15.2400
 20
29.2100
 30
0.0000
 41
1.3208
 42
1.3208
 43
1.0000
 50
0.0000
  0
CIRCLE
  8
44
 10
15.2400
 20
29.2100
 30
0.0000
 40
0.4064
  0
INSERT
  8
17
  2
ROUNDP
 10
49.5300
 20
50.1650
 30
0.0000
 41
1.3208
 42
1.3208
 43
1.0000
 50
270.0000
  0
CIRCLE
  8
44
 10
49.5300
 20
50.1650
 30
0.0000
 40
0.4064
  0
INSERT
  8
17
  2
ROUNDP
 10
49.5300
 20
42.5450
 30
0.0000
 41
1.3208
 42
1.3208
 43
1.0000
 50
270.0000
  0
CIRCLE
  8
44
 10
49.5300
 20
42.5450
 30
0.0000
 40
0.4064
  0
INSERT
  8
17
  2
ROUNDP
 10
52.7050
 20
50.1650
 30
0.0000
 41
1.3208
 42
1.3208
 43
1.0000
 50
270.0000
  0
CIRCLE
  8
44
 10
52.7050
 20
50.1650
 30
0.0000
 40
0.4064
  0
INSERT
  8
17
  2
ROUNDP
 10
52.7050
 20
42.5450
 30
0.0000
 41
1.3208
 42
1.3208
 43
1.0000
 50
270.0000
  0
CIRCLE
  8
44
 10
52.7050
 20
42.5450
 30
0.0000
 40
0.4064
  0
INSERT
  8
17
  2
ROUNDP
 10
55.8800
 20
50.1650
 30
0.0000
 41
1.3208
 42
1.3208
 43
1.0000
 50
270.0000
  0
CIRCLE
  8
44
 10
55.8800
 20
50.1650
 30
0.0000
 40
0.4064
  0
INSERT
  8
17
  2
ROUNDP
 10
55.8800
 20
42.5450
 30
0.0000
 41
1.3208
 42
1.3208
 43
1.0000
 50
270.0000
  0
CIRCLE
  8
44
 10
55.8800
 20
42.5450
 30
0.0000
 40
0.4064
  0
INSERT
  8
17
  2
ROUNDP
 10
35.5600
 20
71.7550
 30
0.0000
 41
1.3208
 42
1.3208
 43
1.0000
 50
270.0000
  0
CIRCLE
  8
44
 10
35.5600
 20
71.7550
 30
0.0000
 40
0.4064
  0
INSERT
  8
17
  2
ROUNDP
 10
35.5600
 20
64.1350
 30
0.0000
 41
1.3208
 42
1.3208
 43
1.0000
 50
270.0000
  0
CIRCLE
  8
44
 10
35.5600
 20
64.1350
 30
0.0000
 40
0.4064
  0
INSERT
  8
17
  2
ROUNDP
 10
33.0200
 20
71.7550
 30
0.0000
 41
1.3208
 42
1.3208
 43
1.0000
 50
270.0000
  0
CIRCLE
  8
44
 10
33.0200
 20
71.7550
 30
0.0000
 40
0.4064
  0
INSERT
  8
17
  2
ROUNDP
 10
33.0200
 20
64.1350
 30
0.0000
 41
1.3208
 42
1.3208
 43
1.0000
 50
270.0000
  0
CIRCLE
  8
44
 10
33.0200
 20
64.1350
 30
0.0000
 40
0.4064
  0
INSERT
  8
17
  2
ROUNDP
 10
30.4800
 20
71.7550
 30
0.0000
 41
1.3208
 42
1.3208
 43
1.0000
 50
270.0000
  0
CIRCLE
  8
44
 10
30.4800
 20
71.7550
 30
0.0000
 40
0.4064
  0
INSERT
  8
17
  2
ROUNDP
 10
30.4800
 20
64.1350
 30
0.0000
 41
1.3208
 42
1.3208
 43
1.0000
 50
270.0000
  0
CIRCLE
  8
44
 10
30.4800
 20
64.1350
 30
0.0000
 40
0.4064
  0
INSERT
  8
17
  2
ROUNDP
 10
49.5300
 20
41.2750
 30
0.0000
 41
1.3208
 42
1.3208
 43
1.0000
 50
270.0000
  0
CIRCLE
  8
44
 10
49.5300
 20
41.2750
 30
0.0000
 40
0.4064
  0
INSERT
  8
17
  2
ROUNDP
 10
49.5300
 20
33.6550
 30
0.0000
 41
1.3208
 42
1.3208
 43
1.0000
 50
270.0000
  0
CIRCLE
  8
44
 10
49.5300
 20
33.6550
 30
0.0000
 40
0.4064
  0
INSERT
  8
17
  2
ROUNDP
 10
52.7050
 20
41.2750
 30
0.0000
 41
1.3208
 42
1.3208
 43
1.0000
 50
270.0000
  0
CIRCLE
  8
44
 10
52.7050
 20
41.2750
 30
0.0000
 40
0.4064
  0
INSERT
  8
17
  2
ROUNDP
 10
52.7050
 20
33.6550
 30
0.0000
 41
1.3208
 42
1.3208
 43
1.0000
 50
270.0000
  0
CIRCLE
  8
44
 10
52.7050
 20
33.6550
 30
0.0000
 40
0.4064
  0
INSERT
  8
17
  2
ROUNDP
 10
55.8800
 20
41.2750
 30
0.0000
 41
1.3208
 42
1.3208
 43
1.0000
 50
270.0000
  0
CIRCLE
  8
44
 10
55.8800
 20
41.2750
 30
0.0000
 40
0.4064
  0
INSERT
  8
17
  2
ROUNDP
 10
55.8800
 20
33.6550
 30
0.0000
 41
1.3208
 42
1.3208
 43
1.0000
 50
270.0000
  0
CIRCLE
  8
44
 10
55.8800
 20
33.6550
 30
0.0000
 40
0.4064
  0
INSERT
  8
17
  2
ROUNDP
 10
35.5600
 20
61.5950
 30
0.0000
 41
1.3208
 42
1.3208
 43
1.0000
 50
270.0000
  0
CIRCLE
  8
44
 10
35.5600
 20
61.5950
 30
0.0000
 40
0.4064
  0
INSERT
  8
17
  2
ROUNDP
 10
35.5600
 20
53.9750
 30
0.0000
 41
1.3208
 42
1.3208
 43
1.0000
 50
270.0000
  0
CIRCLE
  8
44
 10
35.5600
 20
53.9750
 30
0.0000
 40
0.4064
  0
INSERT
  8
17
  2
ROUNDP
 10
33.0200
 20
61.5950
 30
0.0000
 41
1.3208
 42
1.3208
 43
1.0000
 50
270.0000
  0
CIRCLE
  8
44
 10
33.0200
 20
61.5950
 30
0.0000
 40
0.4064
  0
INSERT
  8
17
  2
ROUNDP
 10
33.0200
 20
53.9750
 30
0.0000
 41
1.3208
 42
1.3208
 43
1.0000
 50
270.0000
  0
CIRCLE
  8
44
 10
33.0200
 20
53.9750
 30
0.0000
 40
0.4064
  0
INSERT
  8
17
  2
ROUNDP
 10
30.4800
 20
61.5950
 30
0.0000
 41
1.3208
 42
1.3208
 43
1.0000
 50
270.0000
  0
CIRCLE
  8
44
 10
30.4800
 20
61.5950
 30
0.0000
 40
0.4064
  0
INSERT
  8
17
  2
ROUNDP
 10
30.4800
 20
53.9750
 30
0.0000
 41
1.3208
 42
1.3208
 43
1.0000
 50
270.0000
  0
CIRCLE
  8
44
 10
30.4800
 20
53.9750
 30
0.0000
 40
0.4064
  0
POLYLINE
  8
16
 66
1
 10
0.0000
 20
0.0000
 30
0.0000
 40
0.0000
 41
0.0000
 70
1
  0
VERTEX
  8
16
 10
23.6810
 20
32.1990
 30
0.0000
  0
VERTEX
  8
16
 10
21.1410
 20
29.6590
 30
0.0000
 42
1.0000
  0
VERTEX
  8
16
 10
22.0390
 20
28.7610
 30
0.0000
  0
VERTEX
  8
16
 10
24.5790
 20
31.3010
 30
0.0000
 42
1.0000
  0
SEQEND
  8
0
  0
POLYLINE
  8
16
 66
1
 10
0.0000
 20
0.0000
 30
0.0000
 40
0.0000
 41
0.0000
 70
1
  0
VERTEX
  8
16
 10
24.1300
 20
31.1150
 30
0.0000
  0
VERTEX
  8
16
 10
40.6400
 20
31.1150
 30
0.0000
 42
1.0000
  0
VERTEX
  8
16
 10
40.6400
 20
32.3850
 30
0.0000
  0
VERTEX
  8
16
 10
24.1300
 20
32.3850
 30
0.0000
 42
1.0000
  0
SEQEND
  8
0
  0
POLYLINE
  8
16
 66
1
 10
0.0000
 20
0.0000
 30
0.0000
 40
0.0000
 41
0.0000
 70
1
  0
VERTEX
  8
16
 10
41.0210
 20
31.2420
 30
0.0000
  0
VERTEX
  8
16
 10
43.5610
 20
33.1470
 30
0.0000
 42
1.0000
  0
VERTEX
  8
16
 10
42.7990
 20
34.1630
 30
0.0000
  0
VERTEX
  8
16
 10
40.2590
 20
32.2580
 30
0.0000
 42
1.0000
  0
SEQEND
  8
0
  0
POLYLINE
  8
16
 66
1
 10
0.0000
 20
0.0000
 30
0.0000
 40
0.0000
 41
0.0000
 70
1
  0
VERTEX
  8
16
 10
43.8150
 20
33.6550
 30
0.0000
  0
VERTEX
  8
16
 10
43.8150
 20
35.5600
 30
0.0000
 42
1.0000
  0
VERTEX
  8
16
 10
42.5450
 20
35.5600
 30
0.0000
  0
VERTEX
  8
16
 10
42.5450
 20
33.6550
 30
0.0000
 42
1.0000
  0
SEQEND
  8
0
  0
POLYLINE
  8
16
 66
1
 10
0.0000
 20
0.0000
 30
0.0000
 40
0.0000
 41
0.0000
 70
1
  0
VERTEX
  8
16
 10
30.4800
 20
53.3400
 30
0.0000
  0
VERTEX
  8
16
 10
33.0200
 20
53.3400
 30
0.0000
 42
1.0000
  0
VERTEX
  8
16
 10
33.0200
 20
54.6100
 30
0.0000
  0
VERTEX
  8
16
 10
30.4800
 20
54.6100
 30
0.0000
 42
1.0000
  0
SEQEND
  8
0
  0
POLYLINE
  8
16
 66
1
 10
0.0000
 20
0.0000
 30
0.0000
 40
0.0000
 41
0.0000
 70
1
  0
VERTEX
  8
16
 10
33.0200
 20
53.3400
 30
0.0000
  0
VERTEX
  8
16
 10
35.5600
 20
53.3400
 30
0.0000
 42
1.0000
  0
VERTEX
  8
16
 10
35.5600
 20
54.6100
 30
0.0000
  0
VERTEX
  8
16
 10
33.0200
 20
54.6100
 30
0.0000
 42
1.0000
  0
SEQEND
  8
0
  0
POLYLINE
  8
16
 66
1
 10
0.0000
 20
0.0000
 30
0.0000
 40
0.0000
 41
0.0000
 70
1
  0
VERTEX
  8
16
 10
52.7050
 20
33.0200
 30
0.0000
  0
VERTEX
  8
16
 10
55.8800
 20
33.0200
 30
0.0000
 42
1.0000
  0
VERTEX
  8
16
 10
55.8800
 20
34.2900
 30
0.0000
  0
VERTEX
  8
16
 10
52.7050
 20
34.2900
 30
0.0000
 42
1.0000
  0
SEQEND
  8
0
  0
POLYLINE
  8
16
 66
1
 10
0.0000
 20
0.0000
 30
0.0000
 40
0.0000
 41
0.0000
 70
1
  0
VERTEX
  8
16
 10
49.5300
 20
33.0200
 30
0.0000
  0
VERTEX
  8
16
 10
52.7050
 20
33.0200
 30
0.0000
 42
1.0000
  0
VERTEX
  8
16
 10
52.7050
 20
34.2900
 30
0.0000
  0
VERTEX
  8
16
 10
49.5300
 20
34.2900
 30
0.0000
 42
1.0000
  0
SEQEND
  8
0
  0
POLYLINE
  8
16
 66
1
 10
0.0000
 20
0.0000
 30
0.0000
 40
0.0000
 41
0.0000
 70
1
  0
VERTEX
  8
16
 10
43.1800
 20
34.9250
 30
0.0000
  0
VERTEX
  8
16
 10
45.0850
 20
34.9250
 30
0.0000
 42
1.0000
  0
VERTEX
  8
16
 10
45.0850
 20
36.1950
 30
0.0000
  0
VERTEX
  8
16
 10
43.1800
 20
36.1950
 30
0.0000
 42
1.0000
  0
SEQEND
  8
0
  0
POLYLINE
  8
16
 66
1
 10
0.0000
 20
0.0000
 30
0.0000
 40
0.0000
 41
0.0000
 70
1
  0
VERTEX
  8
16
 10
44.6360
 20
35.1110
 30
0.0000
  0
VERTEX
  8
16
 10
46.5410
 20
33.2060
 30
0.0000
 42
1.0000
  0
VERTEX
  8
16
 10
47.4390
 20
34.1040
 30
0.0000
  0
VERTEX
  8
16
 10
45.5340
 20
36.0090
 30
0.0000
 42
1.0000
  0
SEQEND
  8
0
  0
POLYLINE
  8
16
 66
1
 10
0.0000
 20
0.0000
 30
0.0000
 40
0.0000
 41
0.0000
 70
1
  0
VERTEX
  8
16
 10
46.9900
 20
33.0200
 30
0.0000
  0
VERTEX
  8
16
 10
49.5300
 20
33.0200
 30
0.0000
 42
1.0000
  0
VERTEX
  8
16
 10
49.5300
 20
34.2900
 30
0.0000
  0
VERTEX
  8
16
 10
46.9900
 20
34.2900
 30
0.0000
 42
1.0000
  0
SEQEND
  8
0
  0
POLYLINE
  8
16
 66
1
 10
0.0000
 20
0.0000
 30
0.0000
 40
0.0000
 41
0.0000
 70
1
  0
VERTEX
  8
16
 10
20.9550
 20
29.2100
 30
0.0000
  0
VERTEX
  8
16
 10
20.9550
 20
27.9400
 30
0.0000
 42
1.0000
  0
VERTEX
  8
16
 10
22.2250
 20
27.9400
 30
0.0000
  0
VERTEX
  8
16
 10
22.2250
 20
29.2100
 30
0.0000
 42
1.0000
  0
SEQEND
  8
0
  0
POLYLINE
  8
16
 66
1
 10
0.0000
 20
0.0000
 30
0.0000
 40
0.0000
 41
0.0000
 70
1
  0
VERTEX
  8
16
 10
21.1410
 20
27.4910
 30
0.0000
  0
VERTEX
  8
16
 10
23.6810
 20
24.9510
 30
0.0000
 42
1.0000
  0
VERTEX
  8
16
 10
24.5790
 20
25.8490
 30
0.0000
  0
VERTEX
  8
16
 10
22.0390
 20
28.3890
 30
0.0000
 42
1.0000
  0
SEQEND
  8
0
  0
POLYLINE
  8
16
 66
1
 10
0.0000
 20
0.0000
 30
0.0000
 40
0.0000
 41
0.0000
 70
1
  0
VERTEX
  8
16
 10
23.4950
 20
25.4000
 30
0.0000
  0
VERTEX
  8
16
 10
23.4950
 20
22.2250
 30
0.0000
 42
1.0000
  0
VERTEX
  8
16
 10
24.7650
 20
22.2250
 30
0.0000
  0
VERTEX
  8
16
 10
24.7650
 20
25.4000
 30
0.0000
 42
1.0000
  0
SEQEND
  8
0
  0
POLYLINE
  8
16
 66
1
 10
0.0000
 20
0.0000
 30
0.0000
 40
0.0000
 41
0.0000
 70
1
  0
VERTEX
  8
16
 10
23.6810
 20
22.6740
 30
0.0000
  0
VERTEX
  8
16
 10
21.7760
 20
20.7690
 30
0.0000
 42
1.0000
  0
VERTEX
  8
16
 10
22.6740
 20
19.8710
 30
0.0000
  0
VERTEX
  8
16
 10
24.5790
 20
21.7760
 30
0.0000
 42
1.0000
  0
SEQEND
  8
0
  0
POLYLINE
  8
16
 66
1
 10
0.0000
 20
0.0000
 30
0.0000
 40
0.0000
 41
0.0000
 70
1
  0
VERTEX
  8
16
 10
22.2250
 20
20.9550
 30
0.0000
  0
VERTEX
  8
16
 10
6.8072
 20
20.9550
 30
0.0000
 42
1.0000
  0
VERTEX
  8
16
 10
6.8072
 20
19.6850
 30
0.0000
  0
VERTEX
  8
16
 10
22.2250
 20
19.6850
 30
0.0000
 42
1.0000
  0
SEQEND
  8
0
  0
POLYLINE
  8
16
 66
1
 10
0.0000
 20
0.0000
 30
0.0000
 40
0.0000
 41
0.0000
 70
1
  0
VERTEX
  8
16
 10
7.2562
 20
20.7690
 30
0.0000
  0
VERTEX
  8
16
 10
5.5290
 20
22.4962
 30
0.0000
 42
1.0000
  0
VERTEX
  8
16
 10
4.6310
 20
21.5982
 30
0.0000
  0
VERTEX
  8
16
 10
6.3582
 20
19.8710
 30
0.0000
 42
1.0000
  0
SEQEND
  8
0
  0
POLYLINE
  8
16
 66
1
 10
0.0000
 20
0.0000
 30
0.0000
 40
0.0000
 41
0.0000
 70
1
  0
VERTEX
  8
16
 10
56.3290
 20
33.2060
 30
0.0000
  0
VERTEX
  8
16
 10
58.8690
 20
35.7460
 30
0.0000
 42
1.0000
  0
VERTEX
  8
16
 10
57.9710
 20
36.6440
 30
0.0000
  0
VERTEX
  8
16
 10
55.4310
 20
34.1040
 30
0.0000
 42
1.0000
  0
SEQEND
  8
0
  0
POLYLINE
  8
16
 66
1
 10
0.0000
 20
0.0000
 30
0.0000
 40
0.0000
 41
0.0000
 70
1
  0
VERTEX
  8
16
 10
59.0550
 20
36.1950
 30
0.0000
  0
VERTEX
  8
16
 10
59.0550
 20
36.8300
 30
0.0000
 42
1.0000
  0
VERTEX
  8
16
 10
57.7850
 20
36.8300
 30
0.0000
  0
VERTEX
  8
16
 10
57.7850
 20
36.1950
 30
0.0000
 42
1.0000
  0
SEQEND
  8
0
  0
POLYLINE
  8
16
 66
1
 10
0.0000
 20
0.0000
 30
0.0000
 40
0.0000
 41
0.0000
 70
1
  0
VERTEX
  8
16
 10
43.8150
 20
35.5600
 30
0.0000
  0
VERTEX
  8
16
 10
43.8150
 20
37.4650
 30
0.0000
 42
1.0000
  0
VERTEX
  8
16
 10
42.5450
 20
37.4650
 30
0.0000
  0
VERTEX
  8
16
 10
42.5450
 20
35.5600
 30
0.0000
 42
1.0000
  0
SEQEND
  8
0
  0
POLYLINE
  8
16
 66
1
 10
0.0000
 20
0.0000
 30
0.0000
 40
0.0000
 41
0.0000
 70
1
  0
VERTEX
  8
16
 10
43.6290
 20
37.9140
 30
0.0000
  0
VERTEX
  8
16
 10
41.7240
 20
39.8190
 30
0.0000
 42
1.0000
  0
VERTEX
  8
16
 10
40.8260
 20
38.9210
 30
0.0000
  0
VERTEX
  8
16
 10
42.7310
 20
37.0160
 30
0.0000
 42
1.0000
  0
SEQEND
  8
0
  0
POLYLINE
  8
16
 66
1
 10
0.0000
 20
0.0000
 30
0.0000
 40
0.0000
 41
0.0000
 70
1
  0
VERTEX
  8
16
 10
41.2750
 20
40.0050
 30
0.0000
  0
VERTEX
  8
16
 10
26.0350
 20
40.0050
 30
0.0000
 42
1.0000
  0
VERTEX
  8
16
 10
26.0350
 20
38.7350
 30
0.0000
  0
VERTEX
  8
16
 10
41.2750
 20
38.7350
 30
0.0000
 42
1.0000
  0
SEQEND
  8
0
  0
POLYLINE
  8
16
 66
1
 10
0.0000
 20
0.0000
 30
0.0000
 40
0.0000
 41
0.0000
 70
1
  0
VERTEX
  8
16
 10
26.4840
 20
39.8190
 30
0.0000
  0
VERTEX
  8
16
 10
18.2290
 20
48.0740
 30
0.0000
 42
1.0000
  0
VERTEX
  8
16
 10
17.3310
 20
47.1760
 30
0.0000
  0
VERTEX
  8
16
 10
25.5860
 20
38.9210
 30
0.0000
 42
1.0000
  0
SEQEND
  8
0
  0
POLYLINE
  8
16
 66
1
 10
0.0000
 20
0.0000
 30
0.0000
 40
0.0000
 41
0.0000
 70
1
  0
VERTEX
  8
16
 10
17.7800
 20
48.2600
 30
0.0000
  0
VERTEX
  8
16
 10
6.9850
 20
48.2600
 30
0.0000
 42
1.0000
  0
VERTEX
  8
16
 10
6.9850
 20
46.9900
 30
0.0000
  0
VERTEX
  8
16
 10
17.7800
 20
46.9900
 30
0.0000
 42
1.0000
  0
SEQEND
  8
0
  0
POLYLINE
  8
16
 66
1
 10
0.0000
 20
0.0000
 30
0.0000
 40
0.0000
 41
0.0000
 70
1
  0
VERTEX
  8
16
 10
7.4340
 20
48.0740
 30
0.0000
  0
VERTEX
  8
16
 10
6.1640
 20
49.3440
 30
0.0000
 42
1.0000
  0
VERTEX
  8
16
 10
5.2660
 20
48.4460
 30
0.0000
  0
VERTEX
  8
16
 10
6.5360
 20
47.1760
 30
0.0000
 42
1.0000
  0
SEQEND
  8
0
  0
POLYLINE
  8
16
 66
1
 10
0.0000
 20
0.0000
 30
0.0000
 40
0.0000
 41
0.0000
 70
1
  0
VERTEX
  8
16
 10
6.3500
 20
48.8950
 30
0.0000
  0
VERTEX
  8
16
 10
6.3500
 20
52.7050
 30
0.0000
 42
1.0000
  0
VERTEX
  8
16
 10
5.0800
 20
52.7050
 30
0.0000
  0
VERTEX
  8
16
 10
5.0800
 20
48.8950
 30
0.0000
 42
1.0000
  0
SEQEND
  8
0
  0
POLYLINE
  8
16
 66
1
 10
0.0000
 20
0.0000
 30
0.0000
 40
0.0000
 41
0.0000
 70
1
  0
VERTEX
  8
16
 10
6.1640
 20
52.2560
 30
0.0000
  0
VERTEX
  8
16
 10
7.4340
 20
53.5260
 30
0.0000
 42
1.0000
  0
VERTEX
  8
16
 10
6.5360
 20
54.4240
 30
0.0000
  0
VERTEX
  8
16
 10
5.2660
 20
53.1540
 30
0.0000
 42
1.0000
  0
SEQEND
  8
0
  0
POLYLINE
  8
16
 66
1
 10
0.0000
 20
0.0000
 30
0.0000
 40
0.0000
 41
0.0000
 70
1
  0
VERTEX
  8
16
 10
6.9850
 20
53.3400
 30
0.0000
  0
VERTEX
  8
16
 10
17.7800
 20
53.3400
 30
0.0000
 42
1.0000
  0
VERTEX
  8
16
 10
17.7800
 20
54.6100
 30
0.0000
  0
VERTEX
  8
16
 10
6.9850
 20
54.6100
 30
0.0000
 42
1.0000
  0
SEQEND
  8
0
  0
POLYLINE
  8
16
 66
1
 10
0.0000
 20
0.0000
 30
0.0000
 40
0.0000
 41
0.0000
 70
1
  0
VERTEX
  8
16
 10
30.4800
 20
54.6100
 30
0.0000
  0
VERTEX
  8
16
 10
27.9400
 20
54.6100
 30
0.0000
 42
1.0000
  0
VERTEX
  8
16
 10
27.9400
 20
53.3400
 30
0.0000
  0
VERTEX
  8
16
 10
30.4800
 20
53.3400
 30
0.0000
 42
1.0000
  0
SEQEND
  8
0
  0
INSERT
  8
18
  2
ROUNDV
 10
17.7800
 20
53.9750
 30
0.0000
 41
2.0320
 42
2.0320
 43
1.0000
 50
0.0000
  0
CIRCLE
  8
44
 10
17.7800
 20
53.9750
 30
0.0000
 40
0.1750
  0
INSERT
  8
18
  2
ROUNDV
 10
27.9400
 20
53.9750
 30
0.0000
 41
2.0320
 42
2.0320
 43
1.0000
 50
0.0000
  0
CIRCLE
  8
44
 10
27.9400
 20
53.9750
 30
0.0000
 40
0.1750
  0
POLYLINE
  8
16
 66
1
 10
0.0000
 20
0.0000
 30
0.0000
 40
0.0000
 41
0.0000
 70
1
  0
VERTEX
  8
16
 10
33.0200
 20
71.8820
 30
0.0000
  0
VERTEX
  8
16
 10
30.4800
 20
71.8820
 30
0.0000
 42
1.0000
  0
VERTEX
  8
16
 10
30.4800
 20
71.6280
 30
0.0000
  0
VERTEX
  8
16
 10
33.0200
 20
71.6280
 30
0.0000
 42
1.0000
  0
SEQEND
  8
0
  0
POLYLINE
  8
16
 66
1
 10
0.0000
 20
0.0000
 30
0.0000
 40
0.0000
 41
0.0000
 70
1
  0
VERTEX
  8
16
 10
33.0200
 20
71.6280
 30
0.0000
  0
VERTEX
  8
16
 10
35.5600
 20
71.6280
 30
0.0000
 42
1.0000
  0
VERTEX
  8
16
 10
35.5600
 20
71.8820
 30
0.0000
  0
VERTEX
  8
16
 10
33.0200
 20
71.8820
 30
0.0000
 42
1.0000
  0
SEQEND
  8
0
  0
POLYLINE
  8
16
 66
1
 10
0.0000
 20
0.0000
 30
0.0000
 40
0.0000
 41
0.0000
 70
1
  0
VERTEX
  8
16
 10
10.0330
 20
26.6700
 30
0.0000
  0
VERTEX
  8
16
 10
10.0330
 20
24.1300
 30
0.0000
 42
1.0000
  0
VERTEX
  8
16
 10
10.2870
 20
24.1300
 30
0.0000
  0
VERTEX
  8
16
 10
10.2870
 20
26.6700
 30
0.0000
 42
1.0000
  0
SEQEND
  8
0
  0
POLYLINE
  8
16
 66
1
 10
0.0000
 20
0.0000
 30
0.0000
 40
0.0000
 41
0.0000
 70
1
  0
VERTEX
  8
16
 10
52.7050
 20
50.0380
 30
0.0000
  0
VERTEX
  8
16
 10
55.8800
 20
50.0380
 30
0.0000
 42
1.0000
  0
VERTEX
  8
16
 10
55.8800
 20
50.2920
 30
0.0000
  0
VERTEX
  8
16
 10
52.7050
 20
50.2920
 30
0.0000
 42
1.0000
  0
SEQEND
  8
0
  0
POLYLINE
  8
16
 66
1
 10
0.0000
 20
0.0000
 30
0.0000
 40
0.0000
 41
0.0000
 70
1
  0
VERTEX
  8
16
 10
52.7050
 20
50.2920
 30
0.0000
  0
VERTEX
  8
16
 10
49.5300
 20
50.2920
 30
0.0000
 42
1.0000
  0
VERTEX
  8
16
 10
49.5300
 20
50.0380
 30
0.0000
  0
VERTEX
  8
16
 10
52.7050
 20
50.0380
 30
0.0000
 42
1.0000
  0
SEQEND
  8
0
  0
POLYLINE
  8
16
 66
1
 10
0.0000
 20
0.0000
 30
0.0000
 40
0.0000
 41
0.0000
 70
1
  0
VERTEX
  8
16
 10
35.5600
 20
71.6280
 30
0.0000
  0
VERTEX
  8
16
 10
52.7050
 20
71.6280
 30
0.0000
 42
1.0000
  0
VERTEX
  8
16
 10
52.7050
 20
71.8820
 30
0.0000
  0
VERTEX
  8
16
 10
35.5600
 20
71.8820
 30
0.0000
 42
1.0000
  0
SEQEND
  8
0
  0
POLYLINE
  8
16
 66
1
 10
0.0000
 20
0.0000
 30
0.0000
 40
0.0000
 41
0.0000
 70
1
  0
VERTEX
  8
16
 10
52.5780
 20
58.4200
 30
0.0000
  0
VERTEX
  8
16
 10
52.5780
 20
56.5150
 30
0.0000
 42
1.0000
  0
VERTEX
  8
16
 10
52.8320
 20
56.5150
 30
0.0000
  0
VERTEX
  8
16
 10
52.8320
 20
58.4200
 30
0.0000
 42
1.0000
  0
SEQEND
  8
0
  0
POLYLINE
  8
16
 66
1
 10
0.0000
 20
0.0000
 30
0.0000
 40
0.0000
 41
0.0000
 70
1
  0
VERTEX
  8
16
 10
52.8320
 20
58.4200
 30
0.0000
  0
VERTEX
  8
16
 10
52.8320
 20
59.0550
 30
0.0000
 42
1.0000
  0
VERTEX
  8
16
 10
52.5780
 20
59.0550
 30
0.0000
  0
VERTEX
  8
16
 10
52.5780
 20
58.4200
 30
0.0000
 42
1.0000
  0
SEQEND
  8
0
  0
POLYLINE
  8
16
 66
1
 10
0.0000
 20
0.0000
 30
0.0000
 40
0.0000
 41
0.0000
 70
1
  0
VERTEX
  8
16
 10
43.8150
 20
28.7020
 30
0.0000
  0
VERTEX
  8
16
 10
41.2750
 20
28.7020
 30
0.0000
 42
1.0000
  0
VERTEX
  8
16
 10
41.2750
 20
28.4480
 30
0.0000
  0
VERTEX
  8
16
 10
43.8150
 20
28.4480
 30
0.0000
 42
1.0000
  0
SEQEND
  8
0
  0
POLYLINE
  8
16
 66
1
 10
0.0000
 20
0.0000
 30
0.0000
 40
0.0000
 41
0.0000
 70
1
  0
VERTEX
  8
16
 10
41.3648
 20
28.6648
 30
0.0000
  0
VERTEX
  8
16
 10
39.4598
 20
30.5698
 30
0.0000
 42
1.0000
  0
VERTEX
  8
16
 10
39.2802
 20
30.3902
 30
0.0000
  0
VERTEX
  8
16
 10
41.1852
 20
28.4852
 30
0.0000
 42
1.0000
  0
SEQEND
  8
0
  0
POLYLINE
  8
16
 66
1
 10
0.0000
 20
0.0000
 30
0.0000
 40
0.0000
 41
0.0000
 70
1
  0
VERTEX
  8
16
 10
39.3700
 20
30.6070
 30
0.0000
  0
VERTEX
  8
16
 10
27.9400
 20
30.6070
 30
0.0000
 42
1.0000
  0
VERTEX
  8
16
 10
27.9400
 20
30.3530
 30
0.0000
  0
VERTEX
  8
16
 10
39.3700
 20
30.3530
 30
0.0000
 42
1.0000
  0
SEQEND
  8
0
  0
POLYLINE
  8
16
 66
1
 10
0.0000
 20
0.0000
 30
0.0000
 40
0.0000
 41
0.0000
 70
1
  0
VERTEX
  8
16
 10
27.8502
 20
30.5698
 30
0.0000
  0
VERTEX
  8
16
 10
26.5802
 20
29.2998
 30
0.0000
 42
1.0000
  0
VERTEX
  8
16
 10
26.7598
 20
29.1202
 30
0.0000
  0
VERTEX
  8
16
 10
28.0298
 20
30.3902
 30
0.0000
 42
1.0000
  0
SEQEND
  8
0
  0
POLYLINE
  8
16
 66
1
 10
0.0000
 20
0.0000
 30
0.0000
 40
0.0000
 41
0.0000
 70
1
  0
VERTEX
  8
16
 10
26.5802
 20
29.2998
 30
0.0000
  0
VERTEX
  8
16
 10
25.3102
 20
28.0298
 30
0.0000
 42
1.0000
  0
VERTEX
  8
16
 10
25.4898
 20
27.8502
 30
0.0000
  0
VERTEX
  8
16
 10
26.7598
 20
29.1202
 30
0.0000
 42
1.0000
  0
SEQEND
  8
0
  0
POLYLINE
  8
16
 66
1
 10
0.0000
 20
0.0000
 30
0.0000
 40
0.0000
 41
0.0000
 70
1
  0
VERTEX
  8
16
 10
25.2730
 20
27.9400
 30
0.0000
  0
VERTEX
  8
16
 10
25.2730
 20
20.3200
 30
0.0000
 42
1.0000
  0
VERTEX
  8
16
 10
25.5270
 20
20.3200
 30
0.0000
  0
VERTEX
  8
16
 10
25.5270
 20
27.9400
 30
0.0000
 42
1.0000
  0
SEQEND
  8
0
  0
POLYLINE
  8
16
 66
1
 10
0.0000
 20
0.0000
 30
0.0000
 40
0.0000
 41
0.0000
 70
1
  0
VERTEX
  8
16
 10
24.2198
 20
18.9602
 30
0.0000
  0
VERTEX
  8
16
 10
25.4898
 20
20.2302
 30
0.0000
 42
1.0000
  0
VERTEX
  8
16
 10
25.3102
 20
20.4098
 30
0.0000
  0
VERTEX
  8
16
 10
24.0402
 20
19.1398
 30
0.0000
 42
1.0000
  0
SEQEND
  8
0
  0
POLYLINE
  8
16
 66
1
 10
0.0000
 20
0.0000
 30
0.0000
 40
0.0000
 41
0.0000
 70
1
  0
VERTEX
  8
16
 10
24.1300
 20
19.1770
 30
0.0000
  0
VERTEX
  8
16
 10
3.8100
 20
19.1770
 30
0.0000
 42
1.0000
  0
VERTEX
  8
16
 10
3.8100
 20
18.9230
 30
0.0000
  0
VERTEX
  8
16
 10
24.1300
 20
18.9230
 30
0.0000
 42
1.0000
  0
SEQEND
  8
0
  0
POLYLINE
  8
16
 66
1
 10
0.0000
 20
0.0000
 30
0.0000
 40
0.0000
 41
0.0000
 70
1
  0
VERTEX
  8
16
 10
3.8998
 20
19.1398
 30
0.0000
  0
VERTEX
  8
16
 10
1.9948
 20
21.0448
 30
0.0000
 42
1.0000
  0
VERTEX
  8
16
 10
1.8152
 20
20.8652
 30
0.0000
  0
VERTEX
  8
16
 10
3.7202
 20
18.9602
 30
0.0000
 42
1.0000
  0
SEQEND
  8
0
  0
POLYLINE
  8
16
 66
1
 10
0.0000
 20
0.0000
 30
0.0000
 40
0.0000
 41
0.0000
 70
1
  0
VERTEX
  8
16
 10
2.0320
 20
20.9550
 30
0.0000
  0
VERTEX
  8
16
 10
2.0320
 20
22.7278
 30
0.0000
 42
1.0000
  0
VERTEX
  8
16
 10
1.7780
 20
22.7278
 30
0.0000
  0
VERTEX
  8
16
 10
1.7780
 20
20.9550
 30
0.0000
 42
1.0000
  0
SEQEND
  8
0
  0
POLYLINE
  8
16
 66
1
 10
0.0000
 20
0.0000
 30
0.0000
 40
0.0000
 41
0.0000
 70
1
  0
VERTEX
  8
16
 10
1.9948
 20
22.6380
 30
0.0000
  0
VERTEX
  8
16
 10
5.1698
 20
25.8130
 30
0.0000
 42
1.0000
  0
VERTEX
  8
16
 10
4.9902
 20
25.9926
 30
0.0000
  0
VERTEX
  8
16
 10
1.8152
 20
22.8176
 30
0.0000
 42
1.0000
  0
SEQEND
  8
0
  0
POLYLINE
  8
16
 66
1
 10
0.0000
 20
0.0000
 30
0.0000
 40
0.0000
 41
0.0000
 70
1
  0
VERTEX
  8
16
 10
5.2070
 20
25.9028
 30
0.0000
  0
VERTEX
  8
16
 10
5.2070
 20
26.6700
 30
0.0000
 42
1.0000
  0
VERTEX
  8
16
 10
4.9530
 20
26.6700
 30
0.0000
  0
VERTEX
  8
16
 10
4.9530
 20
25.9028
 30
0.0000
 42
1.0000
  0
SEQEND
  8
0
  0
POLYLINE
  8
16
 66
1
 10
0.0000
 20
0.0000
 30
0.0000
 40
0.0000
 41
0.0000
 70
1
  0
VERTEX
  8
16
 10
5.1698
 20
26.5802
 30
0.0000
  0
VERTEX
  8
16
 10
7.7098
 20
29.1202
 30
0.0000
 42
1.0000
  0
VERTEX
  8
16
 10
7.5302
 20
29.2998
 30
0.0000
  0
VERTEX
  8
16
 10
4.9902
 20
26.7598
 30
0.0000
 42
1.0000
  0
SEQEND
  8
0
  0
POLYLINE
  8
16
 66
1
 10
0.0000
 20
0.0000
 30
0.0000
 40
0.0000
 41
0.0000
 70
1
  0
VERTEX
  8
16
 10
7.5302
 20
29.1202
 30
0.0000
  0
VERTEX
  8
16
 10
10.0702
 20
26.5802
 30
0.0000
 42
1.0000
  0
VERTEX
  8
16
 10
10.2498
 20
26.7598
 30
0.0000
  0
VERTEX
  8
16
 10
7.7098
 20
29.2998
 30
0.0000
 42
1.0000
  0
SEQEND
  8
0
  0
POLYLINE
  8
16
 66
1
 10
0.0000
 20
0.0000
 30
0.0000
 40
0.0000
 41
0.0000
 70
1
  0
VERTEX
  8
16
 10
7.7470
 20
29.2100
 30
0.0000
  0
VERTEX
  8
16
 10
7.7470
 20
31.7500
 30
0.0000
 42
1.0000
  0
VERTEX
  8
16
 10
7.4930
 20
31.7500
 30
0.0000
  0
VERTEX
  8
16
 10
7.4930
 20
29.2100
 30
0.0000
 42
1.0000
  0
SEQEND
  8
0
  0
POLYLINE
  8
16
 66
1
 10
0.0000
 20
0.0000
 30
0.0000
 40
0.0000
 41
0.0000
 70
1
  0
VERTEX
  8
16
 10
55.2450
 20
15.1130
 30
0.0000
  0
VERTEX
  8
16
 10
56.5150
 20
15.1130
 30
0.0000
 42
1.0000
  0
VERTEX
  8
16
 10
56.5150
 20
15.3670
 30
0.0000
  0
VERTEX
  8
16
 10
55.2450
 20
15.3670
 30
0.0000
 42
1.0000
  0
SEQEND
  8
0
  0
POLYLINE
  8
16
 66
1
 10
0.0000
 20
0.0000
 30
0.0000
 40
0.0000
 41
0.0000
 70
1
  0
VERTEX
  8
16
 10
56.6048
 20
15.1502
 30
0.0000
  0
VERTEX
  8
16
 10
64.8598
 20
23.4052
 30
0.0000
 42
1.0000
  0
VERTEX
  8
16
 10
64.6802
 20
23.5848
 30
0.0000
  0
VERTEX
  8
16
 10
56.4252
 20
15.3298
 30
0.0000
 42
1.0000
  0
SEQEND
  8
0
  0
POLYLINE
  8
16
 66
1
 10
0.0000
 20
0.0000
 30
0.0000
 40
0.0000
 41
0.0000
 70
1
  0
VERTEX
  8
16
 10
64.8598
 20
23.4052
 30
0.0000
  0
VERTEX
  8
16
 10
67.3998
 20
25.9452
 30
0.0000
 42
1.0000
  0
VERTEX
  8
16
 10
67.2202
 20
26.1248
 30
0.0000
  0
VERTEX
  8
16
 10
64.6802
 20
23.5848
 30
0.0000
 42
1.0000
  0
SEQEND
  8
0
  0
POLYLINE
  8
16
 66
1
 10
0.0000
 20
0.0000
 30
0.0000
 40
0.0000
 41
0.0000
 70
1
  0
VERTEX
  8
16
 10
67.4370
 20
26.0350
 30
0.0000
  0
VERTEX
  8
16
 10
67.4370
 20
27.9400
 30
0.0000
 42
1.0000
  0
VERTEX
  8
16
 10
67.1830
 20
27.9400
 30
0.0000
  0
VERTEX
  8
16
 10
67.1830
 20
26.0350
 30
0.0000
 42
1.0000
  0
SEQEND
  8
0
  0
POLYLINE
  8
16
 66
1
 10
0.0000
 20
0.0000
 30
0.0000
 40
0.0000
 41
0.0000
 70
1
  0
VERTEX
  8
16
 10
67.3998
 20
28.0298
 30
0.0000
  0
VERTEX
  8
16
 10
66.1298
 20
29.2998
 30
0.0000
 42
1.0000
  0
VERTEX
  8
16
 10
65.9502
 20
29.1202
 30
0.0000
  0
VERTEX
  8
16
 10
67.2202
 20
27.8502
 30
0.0000
 42
1.0000
  0
SEQEND
  8
0
  0
POLYLINE
  8
16
 66
1
 10
0.0000
 20
0.0000
 30
0.0000
 40
0.0000
 41
0.0000
 70
1
  0
VERTEX
  8
16
 10
65.4050
 20
29.0830
 30
0.0000
  0
VERTEX
  8
16
 10
66.0400
 20
29.0830
 30
0.0000
 42
1.0000
  0
VERTEX
  8
16
 10
66.0400
 20
29.3370
 30
0.0000
  0
VERTEX
  8
16
 10
65.4050
 20
29.3370
 30
0.0000
 42
1.0000
  0
SEQEND
  8
0
  0
POLYLINE
  8
16
 66
1
 10
0.0000
 20
0.0000
 30
0.0000
 40
0.0000
 41
0.0000
 70
1
  0
VERTEX
  8
16
 10
65.4050
 20
29.3370
 30
0.0000
  0
VERTEX
  8
16
 10
64.1350
 20
29.3370
 30
0.0000
 42
1.0000
  0
VERTEX
  8
16
 10
64.1350
 20
29.0830
 30
0.0000
  0
VERTEX
  8
16
 10
65.4050
 20
29.0830
 30
0.0000
 42
1.0000
  0
SEQEND
  8
0
  0
POLYLINE
  8
16
 66
1
 10
0.0000
 20
0.0000
 30
0.0000
 40
0.0000
 41
0.0000
 70
1
  0
VERTEX
  8
16
 10
56.5150
 20
21.7170
 30
0.0000
  0
VERTEX
  8
16
 10
55.2450
 20
21.7170
 30
0.0000
 42
1.0000
  0
VERTEX
  8
16
 10
55.2450
 20
21.4630
 30
0.0000
  0
VERTEX
  8
16
 10
56.5150
 20
21.4630
 30
0.0000
 42
1.0000
  0
SEQEND
  8
0
  0
POLYLINE
  8
16
 66
1
 10
0.0000
 20
0.0000
 30
0.0000
 40
0.0000
 41
0.0000
 70
1
  0
VERTEX
  8
16
 10
55.1552
 20
21.6798
 30
0.0000
  0
VERTEX
  8
16
 10
51.9802
 20
18.5048
 30
0.0000
 42
1.0000
  0
VERTEX
  8
16
 10
52.1598
 20
18.3252
 30
0.0000
  0
VERTEX
  8
16
 10
55.3348
 20
21.5002
 30
0.0000
 42
1.0000
  0
SEQEND
  8
0
  0
POLYLINE
  8
16
 66
1
 10
0.0000
 20
0.0000
 30
0.0000
 40
0.0000
 41
0.0000
 70
1
  0
VERTEX
  8
16
 10
51.9430
 20
18.4150
 30
0.0000
  0
VERTEX
  8
16
 10
51.9430
 20
15.8750
 30
0.0000
 42
1.0000
  0
VERTEX
  8
16
 10
52.1970
 20
15.8750
 30
0.0000
  0
VERTEX
  8
16
 10
52.1970
 20
18.4150
 30
0.0000
 42
1.0000
  0
SEQEND
  8
0
  0
POLYLINE
  8
16
 66
1
 10
0.0000
 20
0.0000
 30
0.0000
 40
0.0000
 41
0.0000
 70
1
  0
VERTEX
  8
16
 10
50.1650
 20
14.0970
 30
0.0000
  0
VERTEX
  8
16
 10
26.0350
 20
14.0970
 30
0.0000
 42
1.0000
  0
VERTEX
  8
16
 10
26.0350
 20
13.8430
 30
0.0000
  0
VERTEX
  8
16
 10
50.1650
 20
13.8430
 30
0.0000
 42
1.0000
  0
SEQEND
  8
0
  0
POLYLINE
  8
16
 66
1
 10
0.0000
 20
0.0000
 30
0.0000
 40
0.0000
 41
0.0000
 70
1
  0
VERTEX
  8
16
 10
26.1248
 20
14.0598
 30
0.0000
  0
VERTEX
  8
16
 10
24.2198
 20
15.9648
 30
0.0000
 42
1.0000
  0
VERTEX
  8
16
 10
24.0402
 20
15.7852
 30
0.0000
  0
VERTEX
  8
16
 10
25.9452
 20
13.8802
 30
0.0000
 42
1.0000
  0
SEQEND
  8
0
  0
POLYLINE
  8
16
 66
1
 10
0.0000
 20
0.0000
 30
0.0000
 40
0.0000
 41
0.0000
 70
1
  0
VERTEX
  8
16
 10
24.2570
 20
15.8750
 30
0.0000
  0
VERTEX
  8
16
 10
24.2570
 20
19.0500
 30
0.0000
 42
1.0000
  0
VERTEX
  8
16
 10
24.0030
 20
19.0500
 30
0.0000
  0
VERTEX
  8
16
 10
24.0030
 20
15.8750
 30
0.0000
 42
1.0000
  0
SEQEND
  8
0
  0
POLYLINE
  8
16
 66
1
 10
0.0000
 20
0.0000
 30
0.0000
 40
0.0000
 41
0.0000
 70
1
  0
VERTEX
  8
16
 10
64.0452
 20
29.2998
 30
0.0000
  0
VERTEX
  8
16
 10
56.4252
 20
21.6798
 30
0.0000
 42
1.0000
  0
VERTEX
  8
16
 10
56.6048
 20
21.5002
 30
0.0000
  0
VERTEX
  8
16
 10
64.2248
 20
29.1202
 30
0.0000
 42
1.0000
  0
SEQEND
  8
0
  0
POLYLINE
  8
16
 66
1
 10
0.0000
 20
0.0000
 30
0.0000
 40
0.0000
 41
0.0000
 70
1
  0
VERTEX
  8
16
 10
51.9802
 20
15.9648
 30
0.0000
  0
VERTEX
  8
16
 10
50.0752
 20
14.0598
 30
0.0000
 42
1.0000
  0
VERTEX
  8
16
 10
50.2548
 20
13.8802
 30
0.0000
  0
VERTEX
  8
16
 10
52.1598
 20
15.7852
 30
0.0000
 42
1.0000
  0
SEQEND
  8
0
  0
POLYLINE
  8
16
 66
1
 10
0.0000
 20
0.0000
 30
0.0000
 40
0.0000
 41
0.0000
 70
1
  0
VERTEX
  8
16
 10
67.9450
 20
43.3070
 30
0.0000
  0
VERTEX
  8
16
 10
66.6750
 20
43.3070
 30
0.0000
 42
1.0000
  0
VERTEX
  8
16
 10
66.6750
 20
43.0530
 30
0.0000
  0
VERTEX
  8
16
 10
67.9450
 20
43.0530
 30
0.0000
 42
1.0000
  0
SEQEND
  8
0
  0
POLYLINE
  8
16
 66
1
 10
0.0000
 20
0.0000
 30
0.0000
 40
0.0000
 41
0.0000
 70
1
  0
VERTEX
  8
16
 10
66.5852
 20
43.2698
 30
0.0000
  0
VERTEX
  8
16
 10
65.3152
 20
41.9998
 30
0.0000
 42
1.0000
  0
VERTEX
  8
16
 10
65.4948
 20
41.8202
 30
0.0000
  0
VERTEX
  8
16
 10
66.7648
 20
43.0902
 30
0.0000
 42
1.0000
  0
SEQEND
  8
0
  0
POLYLINE
  8
16
 66
1
 10
0.0000
 20
0.0000
 30
0.0000
 40
0.0000
 41
0.0000
 70
1
  0
VERTEX
  8
16
 10
65.2780
 20
41.9100
 30
0.0000
  0
VERTEX
  8
16
 10
65.2780
 20
29.2100
 30
0.0000
 42
1.0000
  0
VERTEX
  8
16
 10
65.5320
 20
29.2100
 30
0.0000
  0
VERTEX
  8
16
 10
65.5320
 20
41.9100
 30
0.0000
 42
1.0000
  0
SEQEND
  8
0
  0
POLYLINE
  8
16
 66
1
 10
0.0000
 20
0.0000
 30
0.0000
 40
0.0000
 41
0.0000
 70
1
  0
VERTEX
  8
16
 10
64.1350
 20
56.6420
 30
0.0000
  0
VERTEX
  8
16
 10
56.5150
 20
56.6420
 30
0.0000
 42
1.0000
  0
VERTEX
  8
16
 10
56.5150
 20
56.3880
 30
0.0000
  0
VERTEX
  8
16
 10
64.1350
 20
56.3880
 30
0.0000
 42
1.0000
  0
SEQEND
  8
0
  0
POLYLINE
  8
16
 66
1
 10
0.0000
 20
0.0000
 30
0.0000
 40
0.0000
 41
0.0000
 70
1
  0
VERTEX
  8
16
 10
56.5150
 20
56.6420
 30
0.0000
  0
VERTEX
  8
16
 10
52.7050
 20
56.6420
 30
0.0000
 42
1.0000
  0
VERTEX
  8
16
 10
52.7050
 20
56.3880
 30
0.0000
  0
VERTEX
  8
16
 10
56.5150
 20
56.3880
 30
0.0000
 42
1.0000
  0
SEQEND
  8
0
  0
POLYLINE
  8
16
 66
1
 10
0.0000
 20
0.0000
 30
0.0000
 40
0.0000
 41
0.0000
 70
1
  0
VERTEX
  8
16
 10
52.7050
 20
56.6420
 30
0.0000
  0
VERTEX
  8
16
 10
48.8950
 20
56.6420
 30
0.0000
 42
1.0000
  0
VERTEX
  8
16
 10
48.8950
 20
56.3880
 30
0.0000
  0
VERTEX
  8
16
 10
52.7050
 20
56.3880
 30
0.0000
 42
1.0000
  0
SEQEND
  8
0
  0
POLYLINE
  8
16
 66
1
 10
0.0000
 20
0.0000
 30
0.0000
 40
0.0000
 41
0.0000
 70
1
  0
VERTEX
  8
16
 10
42.0422
 20
56.3880
 30
0.0000
  0
VERTEX
  8
16
 10
48.8950
 20
56.3880
 30
0.0000
 42
1.0000
  0
VERTEX
  8
16
 10
48.8950
 20
56.6420
 30
0.0000
  0
VERTEX
  8
16
 10
42.0422
 20
56.6420
 30
0.0000
 42
1.0000
  0
SEQEND
  8
0
  0
POLYLINE
  8
16
 66
1
 10
0.0000
 20
0.0000
 30
0.0000
 40
0.0000
 41
0.0000
 70
1
  0
VERTEX
  8
16
 10
42.1320
 20
56.6048
 30
0.0000
  0
VERTEX
  8
16
 10
39.5920
 20
59.1448
 30
0.0000
 42
1.0000
  0
VERTEX
  8
16
 10
39.4124
 20
58.9652
 30
0.0000
  0
VERTEX
  8
16
 10
41.9524
 20
56.4252
 30
0.0000
 42
1.0000
  0
SEQEND
  8
0
  0
POLYLINE
  8
16
 66
1
 10
0.0000
 20
0.0000
 30
0.0000
 40
0.0000
 41
0.0000
 70
1
  0
VERTEX
  8
16
 10
49.5300
 20
50.2920
 30
0.0000
  0
VERTEX
  8
16
 10
46.9900
 20
50.2920
 30
0.0000
 42
1.0000
  0
VERTEX
  8
16
 10
46.9900
 20
50.0380
 30
0.0000
  0
VERTEX
  8
16
 10
49.5300
 20
50.0380
 30
0.0000
 42
1.0000
  0
SEQEND
  8
0
  0
POLYLINE
  8
16
 66
1
 10
0.0000
 20
0.0000
 30
0.0000
 40
0.0000
 41
0.0000
 70
1
  0
VERTEX
  8
16
 10
42.0370
 20
55.2450
 30
0.0000
  0
VERTEX
  8
16
 10
42.0370
 20
56.3828
 30
0.0000
 42
1.0000
  0
VERTEX
  8
16
 10
41.7830
 20
56.3828
 30
0.0000
  0
VERTEX
  8
16
 10
41.7830
 20
55.2450
 30
0.0000
 42
1.0000
  0
SEQEND
  8
0
  0
POLYLINE
  8
16
 66
1
 10
0.0000
 20
0.0000
 30
0.0000
 40
0.0000
 41
0.0000
 70
1
  0
VERTEX
  8
16
 10
41.9998
 20
56.2930
 30
0.0000
  0
VERTEX
  8
16
 10
42.1320
 20
56.4252
 30
0.0000
 42
1.0000
  0
VERTEX
  8
16
 10
41.9524
 20
56.6048
 30
0.0000
  0
VERTEX
  8
16
 10
41.8202
 20
56.4726
 30
0.0000
 42
1.0000
  0
SEQEND
  8
0
  0
POLYLINE
  8
16
 66
1
 10
0.0000
 20
0.0000
 30
0.0000
 40
0.0000
 41
0.0000
 70
1
  0
VERTEX
  8
16
 10
47.0798
 20
50.2548
 30
0.0000
  0
VERTEX
  8
16
 10
41.9998
 20
55.3348
 30
0.0000
 42
1.0000
  0
VERTEX
  8
16
 10
41.8202
 20
55.1552
 30
0.0000
  0
VERTEX
  8
16
 10
46.9002
 20
50.0752
 30
0.0000
 42
1.0000
  0
SEQEND
  8
0
  0
POLYLINE
  8
16
 66
1
 10
0.0000
 20
0.0000
 30
0.0000
 40
0.0000
 41
0.0000
 70
1
  0
VERTEX
  8
16
 10
35.6498
 20
50.7102
 30
0.0000
  0
VERTEX
  8
16
 10
38.8248
 20
53.8852
 30
0.0000
 42
1.0000
  0
VERTEX
  8
16
 10
38.6452
 20
54.0648
 30
0.0000
  0
VERTEX
  8
16
 10
35.4702
 20
50.8898
 30
0.0000
 42
1.0000
  0
SEQEND
  8
0
  0
POLYLINE
  8
16
 66
1
 10
0.0000
 20
0.0000
 30
0.0000
 40
0.0000
 41
0.0000
 70
1
  0
VERTEX
  8
16
 10
38.7350
 20
53.8480
 30
0.0000
  0
VERTEX
  8
16
 10
40.6400
 20
53.8480
 30
0.0000
 42
1.0000
  0
VERTEX
  8
16
 10
40.6400
 20
54.1020
 30
0.0000
  0
VERTEX
  8
16
 10
38.7350
 20
54.1020
 30
0.0000
 42
1.0000
  0
SEQEND
  8
0
  0
POLYLINE
  8
16
 66
1
 10
0.0000
 20
0.0000
 30
0.0000
 40
0.0000
 41
0.0000
 70
1
  0
VERTEX
  8
16
 10
40.7298
 20
53.8852
 30
0.0000
  0
VERTEX
  8
16
 10
41.9998
 20
55.1552
 30
0.0000
 42
1.0000
  0
VERTEX
  8
16
 10
41.8202
 20
55.3348
 30
0.0000
  0
VERTEX
  8
16
 10
40.5502
 20
54.0648
 30
0.0000
 42
1.0000
  0
SEQEND
  8
0
  0
INSERT
  8
18
  2
ROUNDV
 10
52.7050
 20
58.4200
 30
0.0000
 41
2.0320
 42
2.0320
 43
1.0000
 50
0.0000
  0
CIRCLE
  8
44
 10
52.7050
 20
58.4200
 30
0.0000
 40
0.1750
  0
INSERT
  8
18
  2
ROUNDV
 10
52.7050
 20
71.7550
 30
0.0000
 41
2.0320
 42
2.0320
 43
1.0000
 50
0.0000
  0
CIRCLE
  8
44
 10
52.7050
 20
71.7550
 30
0.0000
 40
0.1750
  0
POLYLINE
  8
16
 66
1
 10
0.0000
 20
0.0000
 30
0.0000
 40
0.0000
 41
0.0000
 70
1
  0
VERTEX
  8
16
 10
15.8750
 20
31.7500
 30
0.0000
  0
VERTEX
  8
16
 10
15.8750
 20
35.5600
 30
0.0000
 42
1.0000
  0
VERTEX
  8
16
 10
14.6050
 20
35.5600
 30
0.0000
  0
VERTEX
  8
16
 10
14.6050
 20
31.7500
 30
0.0000
 42
1.0000
  0
SEQEND
  8
0
  0
POLYLINE
  8
16
 66
1
 10
0.0000
 20
0.0000
 30
0.0000
 40
0.0000
 41
0.0000
 70
1
  0
VERTEX
  8
16
 10
14.6050
 20
31.7500
 30
0.0000
  0
VERTEX
  8
16
 10
14.6050
 20
29.2100
 30
0.0000
 42
1.0000
  0
VERTEX
  8
16
 10
15.8750
 20
29.2100
 30
0.0000
  0
VERTEX
  8
16
 10
15.8750
 20
31.7500
 30
0.0000
 42
1.0000
  0
SEQEND
  8
0
  0
POLYLINE
  8
16
 66
1
 10
0.0000
 20
0.0000
 30
0.0000
 40
0.0000
 41
0.0000
 70
1
  0
VERTEX
  8
16
 10
63.5000
 20
52.0700
 30
0.0000
  0
VERTEX
  8
16
 10
63.5000
 20
53.3400
 30
0.0000
 42
1.0000
  0
VERTEX
  8
16
 10
62.2300
 20
53.3400
 30
0.0000
  0
VERTEX
  8
16
 10
62.2300
 20
52.0700
 30
0.0000
 42
1.0000
  0
SEQEND
  8
0
  0
POLYLINE
  8
16
 66
1
 10
0.0000
 20
0.0000
 30
0.0000
 40
0.0000
 41
0.0000
 70
1
  0
VERTEX
  8
16
 10
63.3140
 20
53.7890
 30
0.0000
  0
VERTEX
  8
16
 10
62.0440
 20
55.0590
 30
0.0000
 42
1.0000
  0
VERTEX
  8
16
 10
61.1460
 20
54.1610
 30
0.0000
  0
VERTEX
  8
16
 10
62.4160
 20
52.8910
 30
0.0000
 42
1.0000
  0
SEQEND
  8
0
  0
POLYLINE
  8
16
 66
1
 10
0.0000
 20
0.0000
 30
0.0000
 40
0.0000
 41
0.0000
 70
1
  0
VERTEX
  8
16
 10
61.5950
 20
55.2450
 30
0.0000
  0
VERTEX
  8
16
 10
46.3550
 20
55.2450
 30
0.0000
 42
1.0000
  0
VERTEX
  8
16
 10
46.3550
 20
53.9750
 30
0.0000
  0
VERTEX
  8
16
 10
61.5950
 20
53.9750
 30
0.0000
 42
1.0000
  0
SEQEND
  8
0
  0
POLYLINE
  8
16
 66
1
 10
0.0000
 20
0.0000
 30
0.0000
 40
0.0000
 41
0.0000
 70
1
  0
VERTEX
  8
16
 10
15.8750
 20
35.5600
 30
0.0000
  0
VERTEX
  8
16
 10
15.8750
 20
41.9100
 30
0.0000
 42
1.0000
  0
VERTEX
  8
16
 10
14.6050
 20
41.9100
 30
0.0000
  0
VERTEX
  8
16
 10
14.6050
 20
35.5600
 30
0.0000
 42
1.0000
  0
SEQEND
  8
0
  0
POLYLINE
  8
16
 66
1
 10
0.0000
 20
0.0000
 30
0.0000
 40
0.0000
 41
0.0000
 70
1
  0
VERTEX
  8
16
 10
15.6890
 20
42.3590
 30
0.0000
  0
VERTEX
  8
16
 10
12.5140
 20
45.5340
 30
0.0000
 42
1.0000
  0
VERTEX
  8
16
 10
11.6160
 20
44.6360
 30
0.0000
  0
VERTEX
  8
16
 10
14.7910
 20
41.4610
 30
0.0000
 42
1.0000
  0
SEQEND
  8
0
  0
POLYLINE
  8
16
 66
1
 10
0.0000
 20
0.0000
 30
0.0000
 40
0.0000
 41
0.0000
 70
1
  0
VERTEX
  8
16
 10
12.0650
 20
45.7200
 30
0.0000
  0
VERTEX
  8
16
 10
6.3500
 20
45.7200
 30
0.0000
 42
1.0000
  0
VERTEX
  8
16
 10
6.3500
 20
44.4500
 30
0.0000
  0
VERTEX
  8
16
 10
12.0650
 20
44.4500
 30
0.0000
 42
1.0000
  0
SEQEND
  8
0
  0
POLYLINE
  8
16
 66
1
 10
0.0000
 20
0.0000
 30
0.0000
 40
0.0000
 41
0.0000
 70
1
  0
VERTEX
  8
16
 10
6.7990
 20
45.5340
 30
0.0000
  0
VERTEX
  8
16
 10
3.6240
 20
48.7090
 30
0.0000
 42
1.0000
  0
VERTEX
  8
16
 10
2.7260
 20
47.8110
 30
0.0000
  0
VERTEX
  8
16
 10
5.9010
 20
44.6360
 30
0.0000
 42
1.0000
  0
SEQEND
  8
0
  0
POLYLINE
  8
16
 66
1
 10
0.0000
 20
0.0000
 30
0.0000
 40
0.0000
 41
0.0000
 70
1
  0
VERTEX
  8
16
 10
3.8100
 20
48.2600
 30
0.0000
  0
VERTEX
  8
16
 10
3.8100
 20
53.3400
 30
0.0000
 42
1.0000
  0
VERTEX
  8
16
 10
2.5400
 20
53.3400
 30
0.0000
  0
VERTEX
  8
16
 10
2.5400
 20
48.2600
 30
0.0000
 42
1.0000
  0
SEQEND
  8
0
  0
POLYLINE
  8
16
 66
1
 10
0.0000
 20
0.0000
 30
0.0000
 40
0.0000
 41
0.0000
 70
1
  0
VERTEX
  8
16
 10
3.6240
 20
52.8910
 30
0.0000
  0
VERTEX
  8
16
 10
6.1640
 20
55.4310
 30
0.0000
 42
1.0000
  0
VERTEX
  8
16
 10
5.2660
 20
56.3290
 30
0.0000
  0
VERTEX
  8
16
 10
2.7260
 20
53.7890
 30
0.0000
 42
1.0000
  0
SEQEND
  8
0
  0
POLYLINE
  8
16
 66
1
 10
0.0000
 20
0.0000
 30
0.0000
 40
0.0000
 41
0.0000
 70
1
  0
VERTEX
  8
16
 10
5.7150
 20
55.2450
 30
0.0000
  0
VERTEX
  8
16
 10
10.7950
 20
55.2450
 30
0.0000
 42
1.0000
  0
VERTEX
  8
16
 10
10.7950
 20
56.5150
 30
0.0000
  0
VERTEX
  8
16
 10
5.7150
 20
56.5150
 30
0.0000
 42
1.0000
  0
SEQEND
  8
0
  0
POLYLINE
  8
16
 66
1
 10
0.0000
 20
0.0000
 30
0.0000
 40
0.0000
 41
0.0000
 70
1
  0
VERTEX
  8
16
 10
11.2440
 20
55.4310
 30
0.0000
  0
VERTEX
  8
16
 10
29.6590
 20
73.8460
 30
0.0000
 42
1.0000
  0
VERTEX
  8
16
 10
28.7610
 20
74.7440
 30
0.0000
  0
VERTEX
  8
16
 10
10.3460
 20
56.3290
 30
0.0000
 42
1.0000
  0
SEQEND
  8
0
  0
POLYLINE
  8
16
 66
1
 10
0.0000
 20
0.0000
 30
0.0000
 40
0.0000
 41
0.0000
 70
1
  0
VERTEX
  8
16
 10
29.2100
 20
73.6600
 30
0.0000
  0
VERTEX
  8
16
 10
46.3550
 20
73.6600
 30
0.0000
 42
1.0000
  0
VERTEX
  8
16
 10
46.3550
 20
74.9300
 30
0.0000
  0
VERTEX
  8
16
 10
29.2100
 20
74.9300
 30
0.0000
 42
1.0000
  0
SEQEND
  8
0
  0
INSERT
  8
18
  2
ROUNDV
 10
46.3550
 20
54.6100
 30
0.0000
 41
2.0320
 42
2.0320
 43
1.0000
 50
0.0000
  0
CIRCLE
  8
44
 10
46.3550
 20
54.6100
 30
0.0000
 40
0.1750
  0
POLYLINE
  8
16
 66
1
 10
0.0000
 20
0.0000
 30
0.0000
 40
0.0000
 41
0.0000
 70
1
  0
VERTEX
  8
16
 10
20.9550
 20
50.8000
 30
0.0000
  0
VERTEX
  8
16
 10
20.9550
 20
59.0550
 30
0.0000
 42
1.0000
  0
VERTEX
  8
16
 10
19.6850
 20
59.0550
 30
0.0000
  0
VERTEX
  8
16
 10
19.6850
 20
50.8000
 30
0.0000
 42
1.0000
  0
SEQEND
  8
0
  0
POLYLINE
  8
16
 66
1
 10
0.0000
 20
0.0000
 30
0.0000
 40
0.0000
 41
0.0000
 70
1
  0
VERTEX
  8
16
 10
22.8600
 20
60.9600
 30
0.0000
  0
VERTEX
  8
16
 10
30.4800
 20
60.9600
 30
0.0000
 42
1.0000
  0
VERTEX
  8
16
 10
30.4800
 20
62.2300
 30
0.0000
  0
VERTEX
  8
16
 10
22.8600
 20
62.2300
 30
0.0000
 42
1.0000
  0
SEQEND
  8
0
  0
POLYLINE
  8
16
 66
1
 10
0.0000
 20
0.0000
 30
0.0000
 40
0.0000
 41
0.0000
 70
1
  0
VERTEX
  8
16
 10
20.7690
 20
58.6060
 30
0.0000
  0
VERTEX
  8
16
 10
23.3090
 20
61.1460
 30
0.0000
 42
1.0000
  0
VERTEX
  8
16
 10
22.4110
 20
62.0440
 30
0.0000
  0
VERTEX
  8
16
 10
19.8710
 20
59.5040
 30
0.0000
 42
1.0000
  0
SEQEND
  8
0
  0
POLYLINE
  8
16
 66
1
 10
0.0000
 20
0.0000
 30
0.0000
 40
0.0000
 41
0.0000
 70
1
  0
VERTEX
  8
16
 10
31.1150
 20
61.5950
 30
0.0000
  0
VERTEX
  8
16
 10
31.1150
 20
64.1350
 30
0.0000
 42
1.0000
  0
VERTEX
  8
16
 10
29.8450
 20
64.1350
 30
0.0000
  0
VERTEX
  8
16
 10
29.8450
 20
61.5950
 30
0.0000
 42
1.0000
  0
SEQEND
  8
0
  0
POLYLINE
  8
16
 66
1
 10
0.0000
 20
0.0000
 30
0.0000
 40
0.0000
 41
0.0000
 70
1
  0
VERTEX
  8
16
 10
31.1150
 20
64.1350
 30
0.0000
  0
VERTEX
  8
16
 10
31.1150
 20
66.6750
 30
0.0000
 42
1.0000
  0
VERTEX
  8
16
 10
29.8450
 20
66.6750
 30
0.0000
  0
VERTEX
  8
16
 10
29.8450
 20
64.1350
 30
0.0000
 42
1.0000
  0
SEQEND
  8
0
  0
POLYLINE
  8
16
 66
1
 10
0.0000
 20
0.0000
 30
0.0000
 40
0.0000
 41
0.0000
 70
1
  0
VERTEX
  8
16
 10
30.9290
 20
66.2260
 30
0.0000
  0
VERTEX
  8
16
 10
32.8340
 20
68.1310
 30
0.0000
 42
1.0000
  0
VERTEX
  8
16
 10
31.9360
 20
69.0290
 30
0.0000
  0
VERTEX
  8
16
 10
30.0310
 20
67.1240
 30
0.0000
 42
1.0000
  0
SEQEND
  8
0
  0
POLYLINE
  8
16
 66
1
 10
0.0000
 20
0.0000
 30
0.0000
 40
0.0000
 41
0.0000
 70
1
  0
VERTEX
  8
16
 10
32.3850
 20
67.9450
 30
0.0000
  0
VERTEX
  8
16
 10
68.5800
 20
67.9450
 30
0.0000
 42
1.0000
  0
VERTEX
  8
16
 10
68.5800
 20
69.2150
 30
0.0000
  0
VERTEX
  8
16
 10
32.3850
 20
69.2150
 30
0.0000
 42
1.0000
  0
SEQEND
  8
0
  0
POLYLINE
  8
16
 66
1
 10
0.0000
 20
0.0000
 30
0.0000
 40
0.0000
 41
0.0000
 70
1
  0
VERTEX
  8
16
 10
75.5650
 20
60.9600
 30
0.0000
  0
VERTEX
  8
16
 10
75.5650
 20
43.1800
 30
0.0000
 42
1.0000
  0
VERTEX
  8
16
 10
76.8350
 20
43.1800
 30
0.0000
  0
VERTEX
  8
16
 10
76.8350
 20
60.9600
 30
0.0000
 42
1.0000
  0
SEQEND
  8
0
  0
POLYLINE
  8
16
 66
1
 10
0.0000
 20
0.0000
 30
0.0000
 40
0.0000
 41
0.0000
 70
1
  0
VERTEX
  8
16
 10
75.7510
 20
43.6290
 30
0.0000
  0
VERTEX
  8
16
 10
70.6710
 20
38.5490
 30
0.0000
 42
1.0000
  0
VERTEX
  8
16
 10
71.5690
 20
37.6510
 30
0.0000
  0
VERTEX
  8
16
 10
76.6490
 20
42.7310
 30
0.0000
 42
1.0000
  0
SEQEND
  8
0
  0
POLYLINE
  8
16
 66
1
 10
0.0000
 20
0.0000
 30
0.0000
 40
0.0000
 41
0.0000
 70
1
  0
VERTEX
  8
16
 10
71.1200
 20
38.7350
 30
0.0000
  0
VERTEX
  8
16
 10
67.9450
 20
38.7350
 30
0.0000
 42
1.0000
  0
VERTEX
  8
16
 10
67.9450
 20
37.4650
 30
0.0000
  0
VERTEX
  8
16
 10
71.1200
 20
37.4650
 30
0.0000
 42
1.0000
  0
SEQEND
  8
0
  0
POLYLINE
  8
16
 66
1
 10
0.0000
 20
0.0000
 30
0.0000
 40
0.0000
 41
0.0000
 70
1
  0
VERTEX
  8
16
 10
68.1310
 20
68.1310
 30
0.0000
  0
VERTEX
  8
16
 10
75.7510
 20
60.5110
 30
0.0000
 42
1.0000
  0
VERTEX
  8
16
 10
76.6490
 20
61.4090
 30
0.0000
  0
VERTEX
  8
16
 10
69.0290
 20
69.0290
 30
0.0000
 42
1.0000
  0
SEQEND
  8
0
  0
POLYLINE
  8
16
 66
1
 10
0.0000
 20
0.0000
 30
0.0000
 40
0.0000
 41
0.0000
 70
1
  0
VERTEX
  8
16
 10
23.4950
 20
50.8000
 30
0.0000
  0
VERTEX
  8
16
 10
23.4950
 20
57.1500
 30
0.0000
 42
1.0000
  0
VERTEX
  8
16
 10
22.2250
 20
57.1500
 30
0.0000
  0
VERTEX
  8
16
 10
22.2250
 20
50.8000
 30
0.0000
 42
1.0000
  0
SEQEND
  8
0
  0
POLYLINE
  8
16
 66
1
 10
0.0000
 20
0.0000
 30
0.0000
 40
0.0000
 41
0.0000
 70
1
  0
VERTEX
  8
16
 10
23.3090
 20
56.7010
 30
0.0000
  0
VERTEX
  8
16
 10
24.5790
 20
57.9710
 30
0.0000
 42
1.0000
  0
VERTEX
  8
16
 10
23.6810
 20
58.8690
 30
0.0000
  0
VERTEX
  8
16
 10
22.4110
 20
57.5990
 30
0.0000
 42
1.0000
  0
SEQEND
  8
0
  0
POLYLINE
  8
16
 66
1
 10
0.0000
 20
0.0000
 30
0.0000
 40
0.0000
 41
0.0000
 70
1
  0
VERTEX
  8
16
 10
24.1300
 20
57.7850
 30
0.0000
  0
VERTEX
  8
16
 10
31.7500
 20
57.7850
 30
0.0000
 42
1.0000
  0
VERTEX
  8
16
 10
31.7500
 20
59.0550
 30
0.0000
  0
VERTEX
  8
16
 10
24.1300
 20
59.0550
 30
0.0000
 42
1.0000
  0
SEQEND
  8
0
  0
POLYLINE
  8
16
 66
1
 10
0.0000
 20
0.0000
 30
0.0000
 40
0.0000
 41
0.0000
 70
1
  0
VERTEX
  8
16
 10
32.1990
 20
57.9710
 30
0.0000
  0
VERTEX
  8
16
 10
33.4690
 20
59.2410
 30
0.0000
 42
1.0000
  0
VERTEX
  8
16
 10
32.5710
 20
60.1390
 30
0.0000
  0
VERTEX
  8
16
 10
31.3010
 20
58.8690
 30
0.0000
 42
1.0000
  0
SEQEND
  8
0
  0
POLYLINE
  8
16
 66
1
 10
0.0000
 20
0.0000
 30
0.0000
 40
0.0000
 41
0.0000
 70
1
  0
VERTEX
  8
16
 10
33.6550
 20
59.6900
 30
0.0000
  0
VERTEX
  8
16
 10
33.6550
 20
61.5950
 30
0.0000
 42
1.0000
  0
VERTEX
  8
16
 10
32.3850
 20
61.5950
 30
0.0000
  0
VERTEX
  8
16
 10
32.3850
 20
59.6900
 30
0.0000
 42
1.0000
  0
SEQEND
  8
0
  0
POLYLINE
  8
16
 66
1
 10
0.0000
 20
0.0000
 30
0.0000
 40
0.0000
 41
0.0000
 70
1
  0
VERTEX
  8
16
 10
33.6550
 20
61.5950
 30
0.0000
  0
VERTEX
  8
16
 10
33.6550
 20
64.1350
 30
0.0000
 42
1.0000
  0
VERTEX
  8
16
 10
32.3850
 20
64.1350
 30
0.0000
  0
VERTEX
  8
16
 10
32.3850
 20
61.5950
 30
0.0000
 42
1.0000
  0
SEQEND
  8
0
  0
POLYLINE
  8
16
 66
1
 10
0.0000
 20
0.0000
 30
0.0000
 40
0.0000
 41
0.0000
 70
1
  0
VERTEX
  8
16
 10
33.6550
 20
64.1350
 30
0.0000
  0
VERTEX
  8
16
 10
33.6550
 20
66.0400
 30
0.0000
 42
1.0000
  0
VERTEX
  8
16
 10
32.3850
 20
66.0400
 30
0.0000
  0
VERTEX
  8
16
 10
32.3850
 20
64.1350
 30
0.0000
 42
1.0000
  0
SEQEND
  8
0
  0
POLYLINE
  8
16
 66
1
 10
0.0000
 20
0.0000
 30
0.0000
 40
0.0000
 41
0.0000
 70
1
  0
VERTEX
  8
16
 10
33.4690
 20
65.5910
 30
0.0000
  0
VERTEX
  8
16
 10
34.1040
 20
66.2260
 30
0.0000
 42
1.0000
  0
VERTEX
  8
16
 10
33.2060
 20
67.1240
 30
0.0000
  0
VERTEX
  8
16
 10
32.5710
 20
66.4890
 30
0.0000
 42
1.0000
  0
SEQEND
  8
0
  0
POLYLINE
  8
16
 66
1
 10
0.0000
 20
0.0000
 30
0.0000
 40
0.0000
 41
0.0000
 70
1
  0
VERTEX
  8
16
 10
33.6550
 20
66.0400
 30
0.0000
  0
VERTEX
  8
16
 10
67.3100
 20
66.0400
 30
0.0000
 42
1.0000
  0
VERTEX
  8
16
 10
67.3100
 20
67.3100
 30
0.0000
  0
VERTEX
  8
16
 10
33.6550
 20
67.3100
 30
0.0000
 42
1.0000
  0
SEQEND
  8
0
  0
POLYLINE
  8
16
 66
1
 10
0.0000
 20
0.0000
 30
0.0000
 40
0.0000
 41
0.0000
 70
1
  0
VERTEX
  8
16
 10
66.8610
 20
66.2260
 30
0.0000
  0
VERTEX
  8
16
 10
73.8460
 20
59.2410
 30
0.0000
 42
1.0000
  0
VERTEX
  8
16
 10
74.7440
 20
60.1390
 30
0.0000
  0
VERTEX
  8
16
 10
67.7590
 20
67.1240
 30
0.0000
 42
1.0000
  0
SEQEND
  8
0
  0
POLYLINE
  8
16
 66
1
 10
0.0000
 20
0.0000
 30
0.0000
 40
0.0000
 41
0.0000
 70
1
  0
VERTEX
  8
16
 10
73.6600
 20
59.6900
 30
0.0000
  0
VERTEX
  8
16
 10
73.6600
 20
43.8150
 30
0.0000
 42
1.0000
  0
VERTEX
  8
16
 10
74.9300
 20
43.8150
 30
0.0000
  0
VERTEX
  8
16
 10
74.9300
 20
59.6900
 30
0.0000
 42
1.0000
  0
SEQEND
  8
0
  0
POLYLINE
  8
16
 66
1
 10
0.0000
 20
0.0000
 30
0.0000
 40
0.0000
 41
0.0000
 70
1
  0
VERTEX
  8
16
 10
73.8460
 20
44.2640
 30
0.0000
  0
VERTEX
  8
16
 10
70.6710
 20
41.0890
 30
0.0000
 42
1.0000
  0
VERTEX
  8
16
 10
71.5690
 20
40.1910
 30
0.0000
  0
VERTEX
  8
16
 10
74.7440
 20
43.3660
 30
0.0000
 42
1.0000
  0
SEQEND
  8
0
  0
POLYLINE
  8
16
 66
1
 10
0.0000
 20
0.0000
 30
0.0000
 40
0.0000
 41
0.0000
 70
1
  0
VERTEX
  8
16
 10
71.1200
 20
41.2750
 30
0.0000
  0
VERTEX
  8
16
 10
67.9450
 20
41.2750
 30
0.0000
 42
1.0000
  0
VERTEX
  8
16
 10
67.9450
 20
40.0050
 30
0.0000
  0
VERTEX
  8
16
 10
71.1200
 20
40.0050
 30
0.0000
 42
1.0000
  0
SEQEND
  8
0
  0
POLYLINE
  8
16
 66
1
 10
0.0000
 20
0.0000
 30
0.0000
 40
0.0000
 41
0.0000
 70
1
  0
VERTEX
  8
16
 10
34.9250
 20
64.1350
 30
0.0000
  0
VERTEX
  8
16
 10
34.9250
 20
62.8650
 30
0.0000
 42
1.0000
  0
VERTEX
  8
16
 10
36.1950
 20
62.8650
 30
0.0000
  0
VERTEX
  8
16
 10
36.1950
 20
64.1350
 30
0.0000
 42
1.0000
  0
SEQEND
  8
0
  0
POLYLINE
  8
16
 66
1
 10
0.0000
 20
0.0000
 30
0.0000
 40
0.0000
 41
0.0000
 70
1
  0
VERTEX
  8
16
 10
34.9250
 20
62.8650
 30
0.0000
  0
VERTEX
  8
16
 10
34.9250
 20
61.5950
 30
0.0000
 42
1.0000
  0
VERTEX
  8
16
 10
36.1950
 20
61.5950
 30
0.0000
  0
VERTEX
  8
16
 10
36.1950
 20
62.8650
 30
0.0000
 42
1.0000
  0
SEQEND
  8
0
  0
POLYLINE
  8
16
 66
1
 10
0.0000
 20
0.0000
 30
0.0000
 40
0.0000
 41
0.0000
 70
1
  0
VERTEX
  8
16
 10
26.0350
 20
50.8000
 30
0.0000
  0
VERTEX
  8
16
 10
26.0350
 20
55.8800
 30
0.0000
 42
1.0000
  0
VERTEX
  8
16
 10
24.7650
 20
55.8800
 30
0.0000
  0
VERTEX
  8
16
 10
24.7650
 20
50.8000
 30
0.0000
 42
1.0000
  0
SEQEND
  8
0
  0
POLYLINE
  8
16
 66
1
 10
0.0000
 20
0.0000
 30
0.0000
 40
0.0000
 41
0.0000
 70
1
  0
VERTEX
  8
16
 10
25.8490
 20
55.4310
 30
0.0000
  0
VERTEX
  8
16
 10
26.4840
 20
56.0660
 30
0.0000
 42
1.0000
  0
VERTEX
  8
16
 10
25.5860
 20
56.9640
 30
0.0000
  0
VERTEX
  8
16
 10
24.9510
 20
56.3290
 30
0.0000
 42
1.0000
  0
SEQEND
  8
0
  0
POLYLINE
  8
16
 66
1
 10
0.0000
 20
0.0000
 30
0.0000
 40
0.0000
 41
0.0000
 70
1
  0
VERTEX
  8
16
 10
26.0350
 20
55.8800
 30
0.0000
  0
VERTEX
  8
16
 10
33.6550
 20
55.8800
 30
0.0000
 42
1.0000
  0
VERTEX
  8
16
 10
33.6550
 20
57.1500
 30
0.0000
  0
VERTEX
  8
16
 10
26.0350
 20
57.1500
 30
0.0000
 42
1.0000
  0
SEQEND
  8
0
  0
POLYLINE
  8
16
 66
1
 10
0.0000
 20
0.0000
 30
0.0000
 40
0.0000
 41
0.0000
 70
1
  0
VERTEX
  8
16
 10
34.1040
 20
56.0660
 30
0.0000
  0
VERTEX
  8
16
 10
36.0090
 20
57.9710
 30
0.0000
 42
1.0000
  0
VERTEX
  8
16
 10
35.1110
 20
58.8690
 30
0.0000
  0
VERTEX
  8
16
 10
33.2060
 20
56.9640
 30
0.0000
 42
1.0000
  0
SEQEND
  8
0
  0
POLYLINE
  8
16
 66
1
 10
0.0000
 20
0.0000
 30
0.0000
 40
0.0000
 41
0.0000
 70
1
  0
VERTEX
  8
16
 10
36.1950
 20
58.4200
 30
0.0000
  0
VERTEX
  8
16
 10
36.1950
 20
61.5950
 30
0.0000
 42
1.0000
  0
VERTEX
  8
16
 10
34.9250
 20
61.5950
 30
0.0000
  0
VERTEX
  8
16
 10
34.9250
 20
58.4200
 30
0.0000
 42
1.0000
  0
SEQEND
  8
0
  0
POLYLINE
  8
16
 66
1
 10
0.0000
 20
0.0000
 30
0.0000
 40
0.0000
 41
0.0000
 70
1
  0
VERTEX
  8
16
 10
35.5600
 20
62.2300
 30
0.0000
  0
VERTEX
  8
16
 10
37.4650
 20
62.2300
 30
0.0000
 42
1.0000
  0
VERTEX
  8
16
 10
37.4650
 20
63.5000
 30
0.0000
  0
VERTEX
  8
16
 10
35.5600
 20
63.5000
 30
0.0000
 42
1.0000
  0
SEQEND
  8
0
  0
POLYLINE
  8
16
 66
1
 10
0.0000
 20
0.0000
 30
0.0000
 40
0.0000
 41
0.0000
 70
1
  0
VERTEX
  8
16
 10
37.9140
 20
62.4160
 30
0.0000
  0
VERTEX
  8
16
 10
39.8190
 20
64.3210
 30
0.0000
 42
1.0000
  0
VERTEX
  8
16
 10
38.9210
 20
65.2190
 30
0.0000
  0
VERTEX
  8
16
 10
37.0160
 20
63.3140
 30
0.0000
 42
1.0000
  0
SEQEND
  8
0
  0
POLYLINE
  8
16
 66
1
 10
0.0000
 20
0.0000
 30
0.0000
 40
0.0000
 41
0.0000
 70
1
  0
VERTEX
  8
16
 10
39.3700
 20
64.1350
 30
0.0000
  0
VERTEX
  8
16
 10
66.0400
 20
64.1350
 30
0.0000
 42
1.0000
  0
VERTEX
  8
16
 10
66.0400
 20
65.4050
 30
0.0000
  0
VERTEX
  8
16
 10
39.3700
 20
65.4050
 30
0.0000
 42
1.0000
  0
SEQEND
  8
0
  0
POLYLINE
  8
16
 66
1
 10
0.0000
 20
0.0000
 30
0.0000
 40
0.0000
 41
0.0000
 70
1
  0
VERTEX
  8
16
 10
65.5910
 20
64.3210
 30
0.0000
  0
VERTEX
  8
16
 10
71.9410
 20
57.9710
 30
0.0000
 42
1.0000
  0
VERTEX
  8
16
 10
72.8390
 20
58.8690
 30
0.0000
  0
VERTEX
  8
16
 10
66.4890
 20
65.2190
 30
0.0000
 42
1.0000
  0
SEQEND
  8
0
  0
POLYLINE
  8
16
 66
1
 10
0.0000
 20
0.0000
 30
0.0000
 40
0.0000
 41
0.0000
 70
1
  0
VERTEX
  8
16
 10
71.7550
 20
58.4200
 30
0.0000
  0
VERTEX
  8
16
 10
71.7550
 20
48.2600
 30
0.0000
 42
1.0000
  0
VERTEX
  8
16
 10
73.0250
 20
48.2600
 30
0.0000
  0
VERTEX
  8
16
 10
73.0250
 20
58.4200
 30
0.0000
 42
1.0000
  0
SEQEND
  8
0
  0
POLYLINE
  8
16
 66
1
 10
0.0000
 20
0.0000
 30
0.0000
 40
0.0000
 41
0.0000
 70
1
  0
VERTEX
  8
16
 10
71.9410
 20
48.7090
 30
0.0000
  0
VERTEX
  8
16
 10
69.4010
 20
46.1690
 30
0.0000
 42
1.0000
  0
VERTEX
  8
16
 10
70.2990
 20
45.2710
 30
0.0000
  0
VERTEX
  8
16
 10
72.8390
 20
47.8110
 30
0.0000
 42
1.0000
  0
SEQEND
  8
0
  0
POLYLINE
  8
16
 66
1
 10
0.0000
 20
0.0000
 30
0.0000
 40
0.0000
 41
0.0000
 70
1
  0
VERTEX
  8
16
 10
69.8500
 20
46.3550
 30
0.0000
  0
VERTEX
  8
16
 10
67.9450
 20
46.3550
 30
0.0000
 42
1.0000
  0
VERTEX
  8
16
 10
67.9450
 20
45.0850
 30
0.0000
  0
VERTEX
  8
16
 10
69.8500
 20
45.0850
 30
0.0000
 42
1.0000
  0
SEQEND
  8
0
  0
POLYLINE
  8
16
 66
1
 10
0.0000
 20
0.0000
 30
0.0000
 40
0.0000
 41
0.0000
 70
1
  0
VERTEX
  8
16
 10
52.5521
 20
35.7817
 30
0.0000
  0
VERTEX
  8
16
 10
56.3621
 20
40.2267
 30
0.0000
 42
1.0000
  0
VERTEX
  8
16
 10
55.3979
 20
41.0533
 30
0.0000
  0
VERTEX
  8
16
 10
51.5879
 20
36.6083
 30
0.0000
 42
1.0000
  0
SEQEND
  8
0
  0
POLYLINE
  8
16
 66
1
 10
0.0000
 20
0.0000
 30
0.0000
 40
0.0000
 41
0.0000
 70
1
  0
VERTEX
  8
16
 10
56.5150
 20
40.6400
 30
0.0000
  0
VERTEX
  8
16
 10
56.5150
 20
41.2750
 30
0.0000
 42
1.0000
  0
VERTEX
  8
16
 10
55.2450
 20
41.2750
 30
0.0000
  0
VERTEX
  8
16
 10
55.2450
 20
40.6400
 30
0.0000
 42
1.0000
  0
SEQEND
  8
0
  0
POLYLINE
  8
16
 66
1
 10
0.0000
 20
0.0000
 30
0.0000
 40
0.0000
 41
0.0000
 70
1
  0
VERTEX
  8
16
 10
55.4310
 20
40.1910
 30
0.0000
  0
VERTEX
  8
16
 10
56.7010
 20
38.9210
 30
0.0000
 42
1.0000
  0
VERTEX
  8
16
 10
57.5990
 20
39.8190
 30
0.0000
  0
VERTEX
  8
16
 10
56.3290
 20
41.0890
 30
0.0000
 42
1.0000
  0
SEQEND
  8
0
  0
POLYLINE
  8
16
 66
1
 10
0.0000
 20
0.0000
 30
0.0000
 40
0.0000
 41
0.0000
 70
1
  0
VERTEX
  8
16
 10
27.3050
 20
50.8000
 30
0.0000
  0
VERTEX
  8
16
 10
27.3050
 20
46.9900
 30
0.0000
 42
1.0000
  0
VERTEX
  8
16
 10
28.5750
 20
46.9900
 30
0.0000
  0
VERTEX
  8
16
 10
28.5750
 20
50.8000
 30
0.0000
 42
1.0000
  0
SEQEND
  8
0
  0
POLYLINE
  8
16
 66
1
 10
0.0000
 20
0.0000
 30
0.0000
 40
0.0000
 41
0.0000
 70
1
  0
VERTEX
  8
16
 10
27.4910
 20
46.5410
 30
0.0000
  0
VERTEX
  8
16
 10
32.5710
 20
41.4610
 30
0.0000
 42
1.0000
  0
VERTEX
  8
16
 10
33.4690
 20
42.3590
 30
0.0000
  0
VERTEX
  8
16
 10
28.3890
 20
47.4390
 30
0.0000
 42
1.0000
  0
SEQEND
  8
0
  0
POLYLINE
  8
16
 66
1
 10
0.0000
 20
0.0000
 30
0.0000
 40
0.0000
 41
0.0000
 70
1
  0
VERTEX
  8
16
 10
33.0200
 20
41.2750
 30
0.0000
  0
VERTEX
  8
16
 10
41.9100
 20
41.2750
 30
0.0000
 42
1.0000
  0
VERTEX
  8
16
 10
41.9100
 20
42.5450
 30
0.0000
  0
VERTEX
  8
16
 10
33.0200
 20
42.5450
 30
0.0000
 42
1.0000
  0
SEQEND
  8
0
  0
POLYLINE
  8
16
 66
1
 10
0.0000
 20
0.0000
 30
0.0000
 40
0.0000
 41
0.0000
 70
1
  0
VERTEX
  8
16
 10
41.4610
 20
41.4610
 30
0.0000
  0
VERTEX
  8
16
 10
47.1760
 20
35.7460
 30
0.0000
 42
1.0000
  0
VERTEX
  8
16
 10
48.0740
 20
36.6440
 30
0.0000
  0
VERTEX
  8
16
 10
42.3590
 20
42.3590
 30
0.0000
 42
1.0000
  0
SEQEND
  8
0
  0
POLYLINE
  8
16
 66
1
 10
0.0000
 20
0.0000
 30
0.0000
 40
0.0000
 41
0.0000
 70
1
  0
VERTEX
  8
16
 10
47.6250
 20
35.5600
 30
0.0000
  0
VERTEX
  8
16
 10
52.0700
 20
35.5600
 30
0.0000
 42
1.0000
  0
VERTEX
  8
16
 10
52.0700
 20
36.8300
 30
0.0000
  0
VERTEX
  8
16
 10
47.6250
 20
36.8300
 30
0.0000
 42
1.0000
  0
SEQEND
  8
0
  0
POLYLINE
  8
16
 66
1
 10
0.0000
 20
0.0000
 30
0.0000
 40
0.0000
 41
0.0000
 70
1
  0
VERTEX
  8
16
 10
56.5150
 20
41.2750
 30
0.0000
  0
VERTEX
  8
16
 10
56.5150
 20
42.5450
 30
0.0000
 42
1.0000
  0
VERTEX
  8
16
 10
55.2450
 20
42.5450
 30
0.0000
  0
VERTEX
  8
16
 10
55.2450
 20
41.2750
 30
0.0000
 42
1.0000
  0
SEQEND
  8
0
  0
POLYLINE
  8
16
 66
1
 10
0.0000
 20
0.0000
 30
0.0000
 40
0.0000
 41
0.0000
 70
1
  0
VERTEX
  8
16
 10
57.1500
 20
38.7350
 30
0.0000
  0
VERTEX
  8
16
 10
62.8650
 20
38.7350
 30
0.0000
 42
1.0000
  0
VERTEX
  8
16
 10
62.8650
 20
40.0050
 30
0.0000
  0
VERTEX
  8
16
 10
57.1500
 20
40.0050
 30
0.0000
 42
1.0000
  0
SEQEND
  8
0
  0
POLYLINE
  8
16
 66
1
 10
0.0000
 20
0.0000
 30
0.0000
 40
0.0000
 41
0.0000
 70
1
  0
VERTEX
  8
16
 10
51.2490
 20
38.2860
 30
0.0000
  0
VERTEX
  8
16
 10
53.1540
 20
40.1910
 30
0.0000
 42
1.0000
  0
VERTEX
  8
16
 10
52.2560
 20
41.0890
 30
0.0000
  0
VERTEX
  8
16
 10
50.3510
 20
39.1840
 30
0.0000
 42
1.0000
  0
SEQEND
  8
0
  0
POLYLINE
  8
16
 66
1
 10
0.0000
 20
0.0000
 30
0.0000
 40
0.0000
 41
0.0000
 70
1
  0
VERTEX
  8
16
 10
53.3400
 20
40.6400
 30
0.0000
  0
VERTEX
  8
16
 10
53.3400
 20
41.2750
 30
0.0000
 42
1.0000
  0
VERTEX
  8
16
 10
52.0700
 20
41.2750
 30
0.0000
  0
VERTEX
  8
16
 10
52.0700
 20
40.6400
 30
0.0000
 42
1.0000
  0
SEQEND
  8
0
  0
POLYLINE
  8
16
 66
1
 10
0.0000
 20
0.0000
 30
0.0000
 40
0.0000
 41
0.0000
 70
1
  0
VERTEX
  8
16
 10
53.3400
 20
41.2750
 30
0.0000
  0
VERTEX
  8
16
 10
53.3400
 20
44.4500
 30
0.0000
 42
1.0000
  0
VERTEX
  8
16
 10
52.0700
 20
44.4500
 30
0.0000
  0
VERTEX
  8
16
 10
52.0700
 20
41.2750
 30
0.0000
 42
1.0000
  0
SEQEND
  8
0
  0
POLYLINE
  8
16
 66
1
 10
0.0000
 20
0.0000
 30
0.0000
 40
0.0000
 41
0.0000
 70
1
  0
VERTEX
  8
16
 10
53.1540
 20
44.0010
 30
0.0000
  0
VERTEX
  8
16
 10
54.4240
 20
45.2710
 30
0.0000
 42
1.0000
  0
VERTEX
  8
16
 10
53.5260
 20
46.1690
 30
0.0000
  0
VERTEX
  8
16
 10
52.2560
 20
44.8990
 30
0.0000
 42
1.0000
  0
SEQEND
  8
0
  0
POLYLINE
  8
16
 66
1
 10
0.0000
 20
0.0000
 30
0.0000
 40
0.0000
 41
0.0000
 70
1
  0
VERTEX
  8
16
 10
53.9750
 20
45.0850
 30
0.0000
  0
VERTEX
  8
16
 10
58.4200
 20
45.0850
 30
0.0000
 42
1.0000
  0
VERTEX
  8
16
 10
58.4200
 20
46.3550
 30
0.0000
  0
VERTEX
  8
16
 10
53.9750
 20
46.3550
 30
0.0000
 42
1.0000
  0
SEQEND
  8
0
  0
POLYLINE
  8
16
 66
1
 10
0.0000
 20
0.0000
 30
0.0000
 40
0.0000
 41
0.0000
 70
1
  0
VERTEX
  8
16
 10
57.9710
 20
45.2710
 30
0.0000
  0
VERTEX
  8
16
 10
59.2410
 20
44.0010
 30
0.0000
 42
1.0000
  0
VERTEX
  8
16
 10
60.1390
 20
44.8990
 30
0.0000
  0
VERTEX
  8
16
 10
58.8690
 20
46.1690
 30
0.0000
 42
1.0000
  0
SEQEND
  8
0
  0
POLYLINE
  8
16
 66
1
 10
0.0000
 20
0.0000
 30
0.0000
 40
0.0000
 41
0.0000
 70
1
  0
VERTEX
  8
16
 10
59.6900
 20
43.8150
 30
0.0000
  0
VERTEX
  8
16
 10
62.8650
 20
43.8150
 30
0.0000
 42
1.0000
  0
VERTEX
  8
16
 10
62.8650
 20
45.0850
 30
0.0000
  0
VERTEX
  8
16
 10
59.6900
 20
45.0850
 30
0.0000
 42
1.0000
  0
SEQEND
  8
0
  0
POLYLINE
  8
16
 66
1
 10
0.0000
 20
0.0000
 30
0.0000
 40
0.0000
 41
0.0000
 70
1
  0
VERTEX
  8
16
 10
29.8450
 20
50.8000
 30
0.0000
  0
VERTEX
  8
16
 10
29.8450
 20
46.9900
 30
0.0000
 42
1.0000
  0
VERTEX
  8
16
 10
31.1150
 20
46.9900
 30
0.0000
  0
VERTEX
  8
16
 10
31.1150
 20
50.8000
 30
0.0000
 42
1.0000
  0
SEQEND
  8
0
  0
POLYLINE
  8
16
 66
1
 10
0.0000
 20
0.0000
 30
0.0000
 40
0.0000
 41
0.0000
 70
1
  0
VERTEX
  8
16
 10
30.0310
 20
46.5410
 30
0.0000
  0
VERTEX
  8
16
 10
32.5710
 20
44.0010
 30
0.0000
 42
1.0000
  0
VERTEX
  8
16
 10
33.4690
 20
44.8990
 30
0.0000
  0
VERTEX
  8
16
 10
30.9290
 20
47.4390
 30
0.0000
 42
1.0000
  0
SEQEND
  8
0
  0
POLYLINE
  8
16
 66
1
 10
0.0000
 20
0.0000
 30
0.0000
 40
0.0000
 41
0.0000
 70
1
  0
VERTEX
  8
16
 10
33.0200
 20
43.8150
 30
0.0000
  0
VERTEX
  8
16
 10
42.5450
 20
43.8150
 30
0.0000
 42
1.0000
  0
VERTEX
  8
16
 10
42.5450
 20
45.0850
 30
0.0000
  0
VERTEX
  8
16
 10
33.0200
 20
45.0850
 30
0.0000
 42
1.0000
  0
SEQEND
  8
0
  0
POLYLINE
  8
16
 66
1
 10
0.0000
 20
0.0000
 30
0.0000
 40
0.0000
 41
0.0000
 70
1
  0
VERTEX
  8
16
 10
42.0960
 20
44.0010
 30
0.0000
  0
VERTEX
  8
16
 10
47.8110
 20
38.2860
 30
0.0000
 42
1.0000
  0
VERTEX
  8
16
 10
48.7090
 20
39.1840
 30
0.0000
  0
VERTEX
  8
16
 10
42.9940
 20
44.8990
 30
0.0000
 42
1.0000
  0
SEQEND
  8
0
  0
POLYLINE
  8
16
 66
1
 10
0.0000
 20
0.0000
 30
0.0000
 40
0.0000
 41
0.0000
 70
1
  0
VERTEX
  8
16
 10
48.2600
 20
38.1000
 30
0.0000
  0
VERTEX
  8
16
 10
50.8000
 20
38.1000
 30
0.0000
 42
1.0000
  0
VERTEX
  8
16
 10
50.8000
 20
39.3700
 30
0.0000
  0
VERTEX
  8
16
 10
48.2600
 20
39.3700
 30
0.0000
 42
1.0000
  0
SEQEND
  8
0
  0
POLYLINE
  8
16
 66
1
 10
0.0000
 20
0.0000
 30
0.0000
 40
0.0000
 41
0.0000
 70
1
  0
VERTEX
  8
16
 10
48.8950
 20
45.7200
 30
0.0000
  0
VERTEX
  8
16
 10
48.8950
 20
41.2750
 30
0.0000
 42
1.0000
  0
VERTEX
  8
16
 10
50.1650
 20
41.2750
 30
0.0000
  0
VERTEX
  8
16
 10
50.1650
 20
45.7200
 30
0.0000
 42
1.0000
  0
SEQEND
  8
0
  0
POLYLINE
  8
16
 66
1
 10
0.0000
 20
0.0000
 30
0.0000
 40
0.0000
 41
0.0000
 70
1
  0
VERTEX
  8
16
 10
49.9790
 20
45.2710
 30
0.0000
  0
VERTEX
  8
16
 10
51.8840
 20
47.1760
 30
0.0000
 42
1.0000
  0
VERTEX
  8
16
 10
50.9860
 20
48.0740
 30
0.0000
  0
VERTEX
  8
16
 10
49.0810
 20
46.1690
 30
0.0000
 42
1.0000
  0
SEQEND
  8
0
  0
POLYLINE
  8
16
 66
1
 10
0.0000
 20
0.0000
 30
0.0000
 40
0.0000
 41
0.0000
 70
1
  0
VERTEX
  8
16
 10
51.4350
 20
46.9900
 30
0.0000
  0
VERTEX
  8
16
 10
60.3250
 20
46.9900
 30
0.0000
 42
1.0000
  0
VERTEX
  8
16
 10
60.3250
 20
48.2600
 30
0.0000
  0
VERTEX
  8
16
 10
51.4350
 20
48.2600
 30
0.0000
 42
1.0000
  0
SEQEND
  8
0
  0
POLYLINE
  8
16
 66
1
 10
0.0000
 20
0.0000
 30
0.0000
 40
0.0000
 41
0.0000
 70
1
  0
VERTEX
  8
16
 10
59.8760
 20
47.1760
 30
0.0000
  0
VERTEX
  8
16
 10
60.5110
 20
46.5410
 30
0.0000
 42
1.0000
  0
VERTEX
  8
16
 10
61.4090
 20
47.4390
 30
0.0000
  0
VERTEX
  8
16
 10
60.7740
 20
48.0740
 30
0.0000
 42
1.0000
  0
SEQEND
  8
0
  0
POLYLINE
  8
16
 66
1
 10
0.0000
 20
0.0000
 30
0.0000
 40
0.0000
 41
0.0000
 70
1
  0
VERTEX
  8
16
 10
60.9600
 20
46.3550
 30
0.0000
  0
VERTEX
  8
16
 10
62.8650
 20
46.3550
 30
0.0000
 42
1.0000
  0
VERTEX
  8
16
 10
62.8650
 20
47.6250
 30
0.0000
  0
VERTEX
  8
16
 10
60.9600
 20
47.6250
 30
0.0000
 42
1.0000
  0
SEQEND
  8
0
  0
POLYLINE
  8
16
 66
1
 10
0.0000
 20
0.0000
 30
0.0000
 40
0.0000
 41
0.0000
 70
1
  0
VERTEX
  8
16
 10
32.3850
 20
50.8000
 30
0.0000
  0
VERTEX
  8
16
 10
32.3850
 20
47.6250
 30
0.0000
 42
1.0000
  0
VERTEX
  8
16
 10
33.6550
 20
47.6250
 30
0.0000
  0
VERTEX
  8
16
 10
33.6550
 20
50.8000
 30
0.0000
 42
1.0000
  0
SEQEND
  8
0
  0
POLYLINE
  8
16
 66
1
 10
0.0000
 20
0.0000
 30
0.0000
 40
0.0000
 41
0.0000
 70
1
  0
VERTEX
  8
16
 10
32.5710
 20
47.1760
 30
0.0000
  0
VERTEX
  8
16
 10
33.2060
 20
46.5410
 30
0.0000
 42
1.0000
  0
VERTEX
  8
16
 10
34.1040
 20
47.4390
 30
0.0000
  0
VERTEX
  8
16
 10
33.4690
 20
48.0740
 30
0.0000
 42
1.0000
  0
SEQEND
  8
0
  0
POLYLINE
  8
16
 66
1
 10
0.0000
 20
0.0000
 30
0.0000
 40
0.0000
 41
0.0000
 70
1
  0
VERTEX
  8
16
 10
33.6550
 20
46.3550
 30
0.0000
  0
VERTEX
  8
16
 10
48.2600
 20
46.3550
 30
0.0000
 42
1.0000
  0
VERTEX
  8
16
 10
48.2600
 20
47.6250
 30
0.0000
  0
VERTEX
  8
16
 10
33.6550
 20
47.6250
 30
0.0000
 42
1.0000
  0
SEQEND
  8
0
  0
POLYLINE
  8
16
 66
1
 10
0.0000
 20
0.0000
 30
0.0000
 40
0.0000
 41
0.0000
 70
1
  0
VERTEX
  8
16
 10
47.8110
 20
46.5410
 30
0.0000
  0
VERTEX
  8
16
 10
49.0810
 20
45.2710
 30
0.0000
 42
1.0000
  0
VERTEX
  8
16
 10
49.9790
 20
46.1690
 30
0.0000
  0
VERTEX
  8
16
 10
48.7090
 20
47.4390
 30
0.0000
 42
1.0000
  0
SEQEND
  8
0
  0
POLYLINE
  8
16
 66
1
 10
0.0000
 20
0.0000
 30
0.0000
 40
0.0000
 41
0.0000
 70
1
  0
VERTEX
  8
16
 10
30.4800
 20
28.5750
 30
0.0000
  0
VERTEX
  8
16
 10
30.4800
 20
25.4000
 30
0.0000
 42
1.0000
  0
VERTEX
  8
16
 10
31.7500
 20
25.4000
 30
0.0000
  0
VERTEX
  8
16
 10
31.7500
 20
28.5750
 30
0.0000
 42
1.0000
  0
SEQEND
  8
0
  0
POLYLINE
  8
16
 66
1
 10
0.0000
 20
0.0000
 30
0.0000
 40
0.0000
 41
0.0000
 70
1
  0
VERTEX
  8
16
 10
30.4800
 20
25.4000
 30
0.0000
  0
VERTEX
  8
16
 10
30.4800
 20
24.7650
 30
0.0000
 42
1.0000
  0
VERTEX
  8
16
 10
31.7500
 20
24.7650
 30
0.0000
  0
VERTEX
  8
16
 10
31.7500
 20
25.4000
 30
0.0000
 42
1.0000
  0
SEQEND
  8
0
  0
POLYLINE
  8
16
 66
1
 10
0.0000
 20
0.0000
 30
0.0000
 40
0.0000
 41
0.0000
 70
1
  0
VERTEX
  8
16
 10
34.1040
 20
22.6740
 30
0.0000
  0
VERTEX
  8
16
 10
31.5640
 20
25.2140
 30
0.0000
 42
1.0000
  0
VERTEX
  8
16
 10
30.6660
 20
24.3160
 30
0.0000
  0
VERTEX
  8
16
 10
33.2060
 20
21.7760
 30
0.0000
 42
1.0000
  0
SEQEND
  8
0
  0
POLYLINE
  8
16
 66
1
 10
0.0000
 20
0.0000
 30
0.0000
 40
0.0000
 41
0.0000
 70
1
  0
VERTEX
  8
16
 10
33.6550
 20
21.5900
 30
0.0000
  0
VERTEX
  8
16
 10
46.9900
 20
21.5900
 30
0.0000
 42
1.0000
  0
VERTEX
  8
16
 10
46.9900
 20
22.8600
 30
0.0000
  0
VERTEX
  8
16
 10
33.6550
 20
22.8600
 30
0.0000
 42
1.0000
  0
SEQEND
  8
0
  0
POLYLINE
  8
16
 66
1
 10
0.0000
 20
0.0000
 30
0.0000
 40
0.0000
 41
0.0000
 70
1
  0
VERTEX
  8
16
 10
55.2450
 20
29.8450
 30
0.0000
  0
VERTEX
  8
16
 10
56.5150
 20
29.8450
 30
0.0000
 42
1.0000
  0
VERTEX
  8
16
 10
56.5150
 20
31.1150
 30
0.0000
  0
VERTEX
  8
16
 10
55.2450
 20
31.1150
 30
0.0000
 42
1.0000
  0
SEQEND
  8
0
  0
POLYLINE
  8
16
 66
1
 10
0.0000
 20
0.0000
 30
0.0000
 40
0.0000
 41
0.0000
 70
1
  0
VERTEX
  8
16
 10
56.9640
 20
30.0310
 30
0.0000
  0
VERTEX
  8
16
 10
58.2340
 20
31.3010
 30
0.0000
 42
1.0000
  0
VERTEX
  8
16
 10
57.3360
 20
32.1990
 30
0.0000
  0
VERTEX
  8
16
 10
56.0660
 20
30.9290
 30
0.0000
 42
1.0000
  0
SEQEND
  8
0
  0
POLYLINE
  8
16
 66
1
 10
0.0000
 20
0.0000
 30
0.0000
 40
0.0000
 41
0.0000
 70
1
  0
VERTEX
  8
16
 10
47.4390
 20
21.7760
 30
0.0000
  0
VERTEX
  8
16
 10
55.6940
 20
30.0310
 30
0.0000
 42
1.0000
  0
VERTEX
  8
16
 10
54.7960
 20
30.9290
 30
0.0000
  0
VERTEX
  8
16
 10
46.5410
 20
22.6740
 30
0.0000
 42
1.0000
  0
SEQEND
  8
0
  0
POLYLINE
  8
16
 66
1
 10
0.0000
 20
0.0000
 30
0.0000
 40
0.0000
 41
0.0000
 70
1
  0
VERTEX
  8
16
 10
31.8822
 20
19.6850
 30
0.0000
  0
VERTEX
  8
16
 10
31.8822
 20
19.8172
 30
0.0000
 42
1.0000
  0
VERTEX
  8
16
 10
30.6122
 20
19.8172
 30
0.0000
  0
VERTEX
  8
16
 10
30.6122
 20
19.6850
 30
0.0000
 42
1.0000
  0
SEQEND
  8
0
  0
POLYLINE
  8
16
 66
1
 10
0.0000
 20
0.0000
 30
0.0000
 40
0.0000
 41
0.0000
 70
1
  0
VERTEX
  8
16
 10
31.6962
 20
19.3682
 30
0.0000
  0
VERTEX
  8
16
 10
34.1040
 20
21.7760
 30
0.0000
 42
1.0000
  0
VERTEX
  8
16
 10
33.2060
 20
22.6740
 30
0.0000
  0
VERTEX
  8
16
 10
30.7982
 20
20.2662
 30
0.0000
 42
1.0000
  0
SEQEND
  8
0
  0
POLYLINE
  8
16
 66
1
 10
0.0000
 20
0.0000
 30
0.0000
 40
0.0000
 41
0.0000
 70
1
  0
VERTEX
  8
16
 10
35.1028
 20
19.0500
 30
0.0000
  0
VERTEX
  8
16
 10
39.3700
 20
19.0500
 30
0.0000
 42
1.0000
  0
VERTEX
  8
16
 10
39.3700
 20
20.3200
 30
0.0000
  0
VERTEX
  8
16
 10
35.1028
 20
20.3200
 30
0.0000
 42
1.0000
  0
SEQEND
  8
0
  0
POLYLINE
  8
16
 66
1
 10
0.0000
 20
0.0000
 30
0.0000
 40
0.0000
 41
0.0000
 70
1
  0
VERTEX
  8
16
 10
38.9210
 20
19.2360
 30
0.0000
  0
VERTEX
  8
16
 10
40.1910
 20
17.9660
 30
0.0000
 42
1.0000
  0
VERTEX
  8
16
 10
41.0890
 20
18.8640
 30
0.0000
  0
VERTEX
  8
16
 10
39.8190
 20
20.1340
 30
0.0000
 42
1.0000
  0
SEQEND
  8
0
  0
POLYLINE
  8
16
 66
1
 10
0.0000
 20
0.0000
 30
0.0000
 40
0.0000
 41
0.0000
 70
1
  0
VERTEX
  8
16
 10
40.6400
 20
17.7800
 30
0.0000
  0
VERTEX
  8
16
 10
43.8150
 20
17.7800
 30
0.0000
 42
1.0000
  0
VERTEX
  8
16
 10
43.8150
 20
19.0500
 30
0.0000
  0
VERTEX
  8
16
 10
40.6400
 20
19.0500
 30
0.0000
 42
1.0000
  0
SEQEND
  8
0
  0
POLYLINE
  8
16
 66
1
 10
0.0000
 20
0.0000
 30
0.0000
 40
0.0000
 41
0.0000
 70
1
  0
VERTEX
  8
16
 10
43.8150
 20
17.7800
 30
0.0000
  0
VERTEX
  8
16
 10
47.6250
 20
17.7800
 30
0.0000
 42
1.0000
  0
VERTEX
  8
16
 10
47.6250
 20
19.0500
 30
0.0000
  0
VERTEX
  8
16
 10
43.8150
 20
19.0500
 30
0.0000
 42
1.0000
  0
SEQEND
  8
0
  0
POLYLINE
  8
16
 66
1
 10
0.0000
 20
0.0000
 30
0.0000
 40
0.0000
 41
0.0000
 70
1
  0
VERTEX
  8
16
 10
48.2600
 20
18.4150
 30
0.0000
  0
VERTEX
  8
16
 10
48.2600
 20
19.6850
 30
0.0000
 42
1.0000
  0
VERTEX
  8
16
 10
46.9900
 20
19.6850
 30
0.0000
  0
VERTEX
  8
16
 10
46.9900
 20
18.4150
 30
0.0000
 42
1.0000
  0
SEQEND
  8
0
  0
POLYLINE
  8
16
 66
1
 10
0.0000
 20
0.0000
 30
0.0000
 40
0.0000
 41
0.0000
 70
1
  0
VERTEX
  8
16
 10
48.0740
 20
19.2360
 30
0.0000
  0
VERTEX
  8
16
 10
56.3290
 20
27.4910
 30
0.0000
 42
1.0000
  0
VERTEX
  8
16
 10
55.4310
 20
28.3890
 30
0.0000
  0
VERTEX
  8
16
 10
47.1760
 20
20.1340
 30
0.0000
 42
1.0000
  0
SEQEND
  8
0
  0
POLYLINE
  8
16
 66
1
 10
0.0000
 20
0.0000
 30
0.0000
 40
0.0000
 41
0.0000
 70
1
  0
VERTEX
  8
16
 10
55.8800
 20
27.3050
 30
0.0000
  0
VERTEX
  8
16
 10
57.1500
 20
27.3050
 30
0.0000
 42
1.0000
  0
VERTEX
  8
16
 10
57.1500
 20
28.5750
 30
0.0000
  0
VERTEX
  8
16
 10
55.8800
 20
28.5750
 30
0.0000
 42
1.0000
  0
SEQEND
  8
0
  0
POLYLINE
  8
16
 66
1
 10
0.0000
 20
0.0000
 30
0.0000
 40
0.0000
 41
0.0000
 70
1
  0
VERTEX
  8
16
 10
57.5990
 20
27.4910
 30
0.0000
  0
VERTEX
  8
16
 10
60.7740
 20
30.6660
 30
0.0000
 42
1.0000
  0
VERTEX
  8
16
 10
59.8760
 20
31.5640
 30
0.0000
  0
VERTEX
  8
16
 10
56.7010
 20
28.3890
 30
0.0000
 42
1.0000
  0
SEQEND
  8
0
  0
POLYLINE
  8
16
 66
1
 10
0.0000
 20
0.0000
 30
0.0000
 40
0.0000
 41
0.0000
 70
1
  0
VERTEX
  8
16
 10
60.9600
 20
31.1150
 30
0.0000
  0
VERTEX
  8
16
 10
60.9600
 20
35.5600
 30
0.0000
 42
1.0000
  0
VERTEX
  8
16
 10
59.6900
 20
35.5600
 30
0.0000
  0
VERTEX
  8
16
 10
59.6900
 20
31.1150
 30
0.0000
 42
1.0000
  0
SEQEND
  8
0
  0
POLYLINE
  8
16
 66
1
 10
0.0000
 20
0.0000
 30
0.0000
 40
0.0000
 41
0.0000
 70
1
  0
VERTEX
  8
16
 10
60.7740
 20
35.1110
 30
0.0000
  0
VERTEX
  8
16
 10
62.0440
 20
36.3810
 30
0.0000
 42
1.0000
  0
VERTEX
  8
16
 10
61.1460
 20
37.2790
 30
0.0000
  0
VERTEX
  8
16
 10
59.8760
 20
36.0090
 30
0.0000
 42
1.0000
  0
SEQEND
  8
0
  0
POLYLINE
  8
16
 66
1
 10
0.0000
 20
0.0000
 30
0.0000
 40
0.0000
 41
0.0000
 70
1
  0
VERTEX
  8
16
 10
61.5950
 20
36.1950
 30
0.0000
  0
VERTEX
  8
16
 10
62.8650
 20
36.1950
 30
0.0000
 42
1.0000
  0
VERTEX
  8
16
 10
62.8650
 20
37.4650
 30
0.0000
  0
VERTEX
  8
16
 10
61.5950
 20
37.4650
 30
0.0000
 42
1.0000
  0
SEQEND
  8
0
  0
POLYLINE
  8
16
 66
1
 10
0.0000
 20
0.0000
 30
0.0000
 40
0.0000
 41
0.0000
 70
1
  0
VERTEX
  8
16
 10
74.1628
 20
17.1450
 30
0.0000
  0
VERTEX
  8
16
 10
74.1628
 20
17.6478
 30
0.0000
 42
1.0000
  0
VERTEX
  8
16
 10
72.8928
 20
17.6478
 30
0.0000
  0
VERTEX
  8
16
 10
72.8928
 20
17.1450
 30
0.0000
 42
1.0000
  0
SEQEND
  8
0
  0
POLYLINE
  8
16
 66
1
 10
0.0000
 20
0.0000
 30
0.0000
 40
0.0000
 41
0.0000
 70
1
  0
VERTEX
  8
16
 10
73.9768
 20
17.1988
 30
0.0000
  0
VERTEX
  8
16
 10
75.3790
 20
18.6010
 30
0.0000
 42
1.0000
  0
VERTEX
  8
16
 10
74.4810
 20
19.4990
 30
0.0000
  0
VERTEX
  8
16
 10
73.0788
 20
18.0968
 30
0.0000
 42
1.0000
  0
SEQEND
  8
0
  0
POLYLINE
  8
16
 66
1
 10
0.0000
 20
0.0000
 30
0.0000
 40
0.0000
 41
0.0000
 70
1
  0
VERTEX
  8
16
 10
75.5650
 20
19.0500
 30
0.0000
  0
VERTEX
  8
16
 10
75.5650
 20
23.4950
 30
0.0000
 42
1.0000
  0
VERTEX
  8
16
 10
74.2950
 20
23.4950
 30
0.0000
  0
VERTEX
  8
16
 10
74.2950
 20
19.0500
 30
0.0000
 42
1.0000
  0
SEQEND
  8
0
  0
POLYLINE
  8
16
 66
1
 10
0.0000
 20
0.0000
 30
0.0000
 40
0.0000
 41
0.0000
 70
1
  0
VERTEX
  8
16
 10
75.5650
 20
23.4950
 30
0.0000
  0
VERTEX
  8
16
 10
75.5650
 20
26.6700
 30
0.0000
 42
1.0000
  0
VERTEX
  8
16
 10
74.2950
 20
26.6700
 30
0.0000
  0
VERTEX
  8
16
 10
74.2950
 20
23.4950
 30
0.0000
 42
1.0000
  0
SEQEND
  8
0
  0
POLYLINE
  8
16
 66
1
 10
0.0000
 20
0.0000
 30
0.0000
 40
0.0000
 41
0.0000
 70
1
  0
VERTEX
  8
16
 10
75.5650
 20
26.6700
 30
0.0000
  0
VERTEX
  8
16
 10
75.5650
 20
31.7500
 30
0.0000
 42
1.0000
  0
VERTEX
  8
16
 10
74.2950
 20
31.7500
 30
0.0000
  0
VERTEX
  8
16
 10
74.2950
 20
26.6700
 30
0.0000
 42
1.0000
  0
SEQEND
  8
0
  0
POLYLINE
  8
16
 66
1
 10
0.0000
 20
0.0000
 30
0.0000
 40
0.0000
 41
0.0000
 70
1
  0
VERTEX
  8
16
 10
62.8650
 20
50.1650
 30
0.0000
  0
VERTEX
  8
16
 10
61.5950
 20
50.1650
 30
0.0000
 42
1.0000
  0
VERTEX
  8
16
 10
61.5950
 20
48.8950
 30
0.0000
  0
VERTEX
  8
16
 10
62.8650
 20
48.8950
 30
0.0000
 42
1.0000
  0
SEQEND
  8
0
  0
POLYLINE
  8
16
 66
1
 10
0.0000
 20
0.0000
 30
0.0000
 40
0.0000
 41
0.0000
 70
1
  0
VERTEX
  8
16
 10
62.0440
 20
49.9790
 30
0.0000
  0
VERTEX
  8
16
 10
60.1390
 20
51.8840
 30
0.0000
 42
1.0000
  0
VERTEX
  8
16
 10
59.2410
 20
50.9860
 30
0.0000
  0
VERTEX
  8
16
 10
61.1460
 20
49.0810
 30
0.0000
 42
1.0000
  0
SEQEND
  8
0
  0
POLYLINE
  8
16
 66
1
 10
0.0000
 20
0.0000
 30
0.0000
 40
0.0000
 41
0.0000
 70
1
  0
VERTEX
  8
16
 10
70.3072
 20
17.1450
 30
0.0000
  0
VERTEX
  8
16
 10
70.3072
 20
17.9578
 30
0.0000
 42
1.0000
  0
VERTEX
  8
16
 10
69.0372
 20
17.9578
 30
0.0000
  0
VERTEX
  8
16
 10
69.0372
 20
17.1450
 30
0.0000
 42
1.0000
  0
SEQEND
  8
0
  0
POLYLINE
  8
16
 66
1
 10
0.0000
 20
0.0000
 30
0.0000
 40
0.0000
 41
0.0000
 70
1
  0
VERTEX
  8
16
 10
70.1212
 20
18.4068
 30
0.0000
  0
VERTEX
  8
16
 10
69.0290
 20
19.4990
 30
0.0000
 42
1.0000
  0
VERTEX
  8
16
 10
68.1310
 20
18.6010
 30
0.0000
  0
VERTEX
  8
16
 10
69.2232
 20
17.5088
 30
0.0000
 42
1.0000
  0
SEQEND
  8
0
  0
POLYLINE
  8
16
 66
1
 10
0.0000
 20
0.0000
 30
0.0000
 40
0.0000
 41
0.0000
 70
1
  0
VERTEX
  8
16
 10
68.5800
 20
19.6850
 30
0.0000
  0
VERTEX
  8
16
 10
65.4050
 20
19.6850
 30
0.0000
 42
1.0000
  0
VERTEX
  8
16
 10
65.4050
 20
18.4150
 30
0.0000
  0
VERTEX
  8
16
 10
68.5800
 20
18.4150
 30
0.0000
 42
1.0000
  0
SEQEND
  8
0
  0
POLYLINE
  8
16
 66
1
 10
0.0000
 20
0.0000
 30
0.0000
 40
0.0000
 41
0.0000
 70
1
  0
VERTEX
  8
16
 10
64.7700
 20
19.0500
 30
0.0000
  0
VERTEX
  8
16
 10
64.7700
 20
15.2400
 30
0.0000
 42
1.0000
  0
VERTEX
  8
16
 10
66.0400
 20
15.2400
 30
0.0000
  0
VERTEX
  8
16
 10
66.0400
 20
19.0500
 30
0.0000
 42
1.0000
  0
SEQEND
  8
0
  0
POLYLINE
  8
16
 66
1
 10
0.0000
 20
0.0000
 30
0.0000
 40
0.0000
 41
0.0000
 70
1
  0
VERTEX
  8
16
 10
67.9450
 20
51.4350
 30
0.0000
  0
VERTEX
  8
16
 10
67.3100
 20
51.4350
 30
0.0000
 42
1.0000
  0
VERTEX
  8
16
 10
67.3100
 20
50.1650
 30
0.0000
  0
VERTEX
  8
16
 10
67.9450
 20
50.1650
 30
0.0000
 42
1.0000
  0
SEQEND
  8
0
  0
POLYLINE
  8
16
 66
1
 10
0.0000
 20
0.0000
 30
0.0000
 40
0.0000
 41
0.0000
 70
1
  0
VERTEX
  8
16
 10
67.7590
 20
51.2490
 30
0.0000
  0
VERTEX
  8
16
 10
66.4890
 20
52.5190
 30
0.0000
 42
1.0000
  0
VERTEX
  8
16
 10
65.5910
 20
51.6210
 30
0.0000
  0
VERTEX
  8
16
 10
66.8610
 20
50.3510
 30
0.0000
 42
1.0000
  0
SEQEND
  8
0
  0
POLYLINE
  8
16
 66
1
 10
0.0000
 20
0.0000
 30
0.0000
 40
0.0000
 41
0.0000
 70
1
  0
VERTEX
  8
16
 10
66.6750
 20
52.0700
 30
0.0000
  0
VERTEX
  8
16
 10
66.6750
 20
55.2450
 30
0.0000
 42
1.0000
  0
VERTEX
  8
16
 10
65.4050
 20
55.2450
 30
0.0000
  0
VERTEX
  8
16
 10
65.4050
 20
52.0700
 30
0.0000
 42
1.0000
  0
SEQEND
  8
0
  0
POLYLINE
  8
16
 66
1
 10
0.0000
 20
0.0000
 30
0.0000
 40
0.0000
 41
0.0000
 70
1
  0
VERTEX
  8
16
 10
67.3100
 20
55.8800
 30
0.0000
  0
VERTEX
  8
16
 10
67.9450
 20
55.8800
 30
0.0000
 42
1.0000
  0
VERTEX
  8
16
 10
67.9450
 20
57.1500
 30
0.0000
  0
VERTEX
  8
16
 10
67.3100
 20
57.1500
 30
0.0000
 42
1.0000
  0
SEQEND
  8
0
  0
POLYLINE
  8
16
 66
1
 10
0.0000
 20
0.0000
 30
0.0000
 40
0.0000
 41
0.0000
 70
1
  0
VERTEX
  8
16
 10
66.4890
 20
54.7960
 30
0.0000
  0
VERTEX
  8
16
 10
67.7590
 20
56.0660
 30
0.0000
 42
1.0000
  0
VERTEX
  8
16
 10
66.8610
 20
56.9640
 30
0.0000
  0
VERTEX
  8
16
 10
65.5910
 20
55.6940
 30
0.0000
 42
1.0000
  0
SEQEND
  8
0
  0
POLYLINE
  8
16
 66
1
 10
0.0000
 20
0.0000
 30
0.0000
 40
0.0000
 41
0.0000
 70
1
  0
VERTEX
  8
16
 10
17.1450
 20
35.5600
 30
0.0000
  0
VERTEX
  8
16
 10
17.1450
 20
26.6700
 30
0.0000
 42
1.0000
  0
VERTEX
  8
16
 10
18.4150
 20
26.6700
 30
0.0000
  0
VERTEX
  8
16
 10
18.4150
 20
35.5600
 30
0.0000
 42
1.0000
  0
SEQEND
  8
0
  0
POLYLINE
  8
16
 66
1
 10
0.0000
 20
0.0000
 30
0.0000
 40
0.0000
 41
0.0000
 70
1
  0
VERTEX
  8
16
 10
17.1450
 20
26.6700
 30
0.0000
  0
VERTEX
  8
16
 10
17.1450
 20
24.1300
 30
0.0000
 42
1.0000
  0
VERTEX
  8
16
 10
18.4150
 20
24.1300
 30
0.0000
  0
VERTEX
  8
16
 10
18.4150
 20
26.6700
 30
0.0000
 42
1.0000
  0
SEQEND
  8
0
  0
POLYLINE
  8
16
 66
1
 10
0.0000
 20
0.0000
 30
0.0000
 40
0.0000
 41
0.0000
 70
1
  0
VERTEX
  8
16
 10
17.7800
 20
23.4950
 30
0.0000
  0
VERTEX
  8
16
 10
20.3200
 20
23.4950
 30
0.0000
 42
1.0000
  0
VERTEX
  8
16
 10
20.3200
 20
24.7650
 30
0.0000
  0
VERTEX
  8
16
 10
17.7800
 20
24.7650
 30
0.0000
 42
1.0000
  0
SEQEND
  8
0
  0
POLYLINE
  8
16
 66
1
 10
0.0000
 20
0.0000
 30
0.0000
 40
0.0000
 41
0.0000
 70
1
  0
VERTEX
  8
16
 10
27.3050
 20
24.1300
 30
0.0000
  0
VERTEX
  8
16
 10
27.3050
 20
18.4150
 30
0.0000
 42
1.0000
  0
VERTEX
  8
16
 10
28.5750
 20
18.4150
 30
0.0000
  0
VERTEX
  8
16
 10
28.5750
 20
24.1300
 30
0.0000
 42
1.0000
  0
SEQEND
  8
0
  0
POLYLINE
  8
16
 66
1
 10
0.0000
 20
0.0000
 30
0.0000
 40
0.0000
 41
0.0000
 70
1
  0
VERTEX
  8
16
 10
27.4910
 20
17.9660
 30
0.0000
  0
VERTEX
  8
16
 10
30.0310
 20
15.4260
 30
0.0000
 42
1.0000
  0
VERTEX
  8
16
 10
30.9290
 20
16.3240
 30
0.0000
  0
VERTEX
  8
16
 10
28.3890
 20
18.8640
 30
0.0000
 42
1.0000
  0
SEQEND
  8
0
  0
POLYLINE
  8
16
 66
1
 10
0.0000
 20
0.0000
 30
0.0000
 40
0.0000
 41
0.0000
 70
1
  0
VERTEX
  8
16
 10
30.4800
 20
15.2400
 30
0.0000
  0
VERTEX
  8
16
 10
48.8950
 20
15.2400
 30
0.0000
 42
1.0000
  0
VERTEX
  8
16
 10
48.8950
 20
16.5100
 30
0.0000
  0
VERTEX
  8
16
 10
30.4800
 20
16.5100
 30
0.0000
 42
1.0000
  0
SEQEND
  8
0
  0
POLYLINE
  8
16
 66
1
 10
0.0000
 20
0.0000
 30
0.0000
 40
0.0000
 41
0.0000
 70
1
  0
VERTEX
  8
16
 10
49.3440
 20
15.4260
 30
0.0000
  0
VERTEX
  8
16
 10
50.6140
 20
16.6960
 30
0.0000
 42
1.0000
  0
VERTEX
  8
16
 10
49.7160
 20
17.5940
 30
0.0000
  0
VERTEX
  8
16
 10
48.4460
 20
16.3240
 30
0.0000
 42
1.0000
  0
SEQEND
  8
0
  0
POLYLINE
  8
16
 66
1
 10
0.0000
 20
0.0000
 30
0.0000
 40
0.0000
 41
0.0000
 70
1
  0
VERTEX
  8
16
 10
50.8000
 20
17.1450
 30
0.0000
  0
VERTEX
  8
16
 10
50.8000
 20
19.0500
 30
0.0000
 42
1.0000
  0
VERTEX
  8
16
 10
49.5300
 20
19.0500
 30
0.0000
  0
VERTEX
  8
16
 10
49.5300
 20
17.1450
 30
0.0000
 42
1.0000
  0
SEQEND
  8
0
  0
POLYLINE
  8
16
 66
1
 10
0.0000
 20
0.0000
 30
0.0000
 40
0.0000
 41
0.0000
 70
1
  0
VERTEX
  8
16
 10
50.6140
 20
18.6010
 30
0.0000
  0
VERTEX
  8
16
 10
56.3290
 20
24.3160
 30
0.0000
 42
1.0000
  0
VERTEX
  8
16
 10
55.4310
 20
25.2140
 30
0.0000
  0
VERTEX
  8
16
 10
49.7160
 20
19.4990
 30
0.0000
 42
1.0000
  0
SEQEND
  8
0
  0
POLYLINE
  8
16
 66
1
 10
0.0000
 20
0.0000
 30
0.0000
 40
0.0000
 41
0.0000
 70
1
  0
VERTEX
  8
16
 10
55.8800
 20
24.1300
 30
0.0000
  0
VERTEX
  8
16
 10
57.1500
 20
24.1300
 30
0.0000
 42
1.0000
  0
VERTEX
  8
16
 10
57.1500
 20
25.4000
 30
0.0000
  0
VERTEX
  8
16
 10
55.8800
 20
25.4000
 30
0.0000
 42
1.0000
  0
SEQEND
  8
0
  0
POLYLINE
  8
16
 66
1
 10
0.0000
 20
0.0000
 30
0.0000
 40
0.0000
 41
0.0000
 70
1
  0
VERTEX
  8
16
 10
57.5990
 20
24.3160
 30
0.0000
  0
VERTEX
  8
16
 10
63.3140
 20
30.0310
 30
0.0000
 42
1.0000
  0
VERTEX
  8
16
 10
62.4160
 20
30.9290
 30
0.0000
  0
VERTEX
  8
16
 10
56.7010
 20
25.2140
 30
0.0000
 42
1.0000
  0
SEQEND
  8
0
  0
POLYLINE
  8
16
 66
1
 10
0.0000
 20
0.0000
 30
0.0000
 40
0.0000
 41
0.0000
 70
1
  0
VERTEX
  8
16
 10
63.5000
 20
30.4800
 30
0.0000
  0
VERTEX
  8
16
 10
63.5000
 20
34.2900
 30
0.0000
 42
1.0000
  0
VERTEX
  8
16
 10
62.2300
 20
34.2900
 30
0.0000
  0
VERTEX
  8
16
 10
62.2300
 20
30.4800
 30
0.0000
 42
1.0000
  0
SEQEND
  8
0
  0
POLYLINE
  8
16
 66
1
 10
0.0000
 20
0.0000
 30
0.0000
 40
0.0000
 41
0.0000
 70
1
  0
VERTEX
  8
16
 10
62.8650
 20
42.5450
 30
0.0000
  0
VERTEX
  8
16
 10
58.4200
 20
42.5450
 30
0.0000
 42
1.0000
  0
VERTEX
  8
16
 10
58.4200
 20
41.2750
 30
0.0000
  0
VERTEX
  8
16
 10
62.8650
 20
41.2750
 30
0.0000
 42
1.0000
  0
SEQEND
  8
0
  0
POLYLINE
  8
16
 66
1
 10
0.0000
 20
0.0000
 30
0.0000
 40
0.0000
 41
0.0000
 70
1
  0
VERTEX
  8
16
 10
68.5800
 20
31.7500
 30
0.0000
  0
VERTEX
  8
16
 10
68.5800
 20
35.5600
 30
0.0000
 42
1.0000
  0
VERTEX
  8
16
 10
67.3100
 20
35.5600
 30
0.0000
  0
VERTEX
  8
16
 10
67.3100
 20
31.7500
 30
0.0000
 42
1.0000
  0
SEQEND
  8
0
  0
INSERT
  8
18
  2
ROUNDV
 10
67.9450
 20
56.5150
 30
0.0000
 41
2.0320
 42
2.0320
 43
1.0000
 50
0.0000
  0
CIRCLE
  8
44
 10
67.9450
 20
56.5150
 30
0.0000
 40
0.1750
  0
POLYLINE
  8
16
 66
1
 10
0.0000
 20
0.0000
 30
0.0000
 40
0.0000
 41
0.0000
 70
1
  0
VERTEX
  8
16
 10
78.1050
 20
56.5150
 30
0.0000
  0
VERTEX
  8
16
 10
78.1050
 20
17.7800
 30
0.0000
 42
1.0000
  0
VERTEX
  8
16
 10
79.3750
 20
17.7800
 30
0.0000
  0
VERTEX
  8
16
 10
79.3750
 20
56.5150
 30
0.0000
 42
1.0000
  0
SEQEND
  8
0
  0
POLYLINE
  8
16
 66
1
 10
0.0000
 20
0.0000
 30
0.0000
 40
0.0000
 41
0.0000
 70
1
  0
VERTEX
  8
16
 10
78.2910
 20
18.2290
 30
0.0000
  0
VERTEX
  8
16
 10
74.4810
 20
14.4190
 30
0.0000
 42
1.0000
  0
VERTEX
  8
16
 10
75.3790
 20
13.5210
 30
0.0000
  0
VERTEX
  8
16
 10
79.1890
 20
17.3310
 30
0.0000
 42
1.0000
  0
SEQEND
  8
0
  0
POLYLINE
  8
16
 66
1
 10
0.0000
 20
0.0000
 30
0.0000
 40
0.0000
 41
0.0000
 70
1
  0
VERTEX
  8
16
 10
74.9300
 20
14.6050
 30
0.0000
  0
VERTEX
  8
16
 10
71.7550
 20
14.6050
 30
0.0000
 42
1.0000
  0
VERTEX
  8
16
 10
71.7550
 20
13.3350
 30
0.0000
  0
VERTEX
  8
16
 10
74.9300
 20
13.3350
 30
0.0000
 42
1.0000
  0
SEQEND
  8
0
  0
POLYLINE
  8
16
 66
1
 10
0.0000
 20
0.0000
 30
0.0000
 40
0.0000
 41
0.0000
 70
1
  0
VERTEX
  8
16
 10
72.2040
 20
14.4190
 30
0.0000
  0
VERTEX
  8
16
 10
70.2990
 20
16.3240
 30
0.0000
 42
1.0000
  0
VERTEX
  8
16
 10
69.4010
 20
15.4260
 30
0.0000
  0
VERTEX
  8
16
 10
71.3060
 20
13.5210
 30
0.0000
 42
1.0000
  0
SEQEND
  8
0
  0
POLYLINE
  8
16
 66
1
 10
0.0000
 20
0.0000
 30
0.0000
 40
0.0000
 41
0.0000
 70
1
  0
VERTEX
  8
16
 10
70.4850
 20
15.8750
 30
0.0000
  0
VERTEX
  8
16
 10
70.4850
 20
17.1450
 30
0.0000
 42
1.0000
  0
VERTEX
  8
16
 10
69.2150
 20
17.1450
 30
0.0000
  0
VERTEX
  8
16
 10
69.2150
 20
15.8750
 30
0.0000
 42
1.0000
  0
SEQEND
  8
0
  0
INSERT
  8
18
  2
ROUNDV
 10
78.7400
 20
56.5150
 30
0.0000
 41
2.0320
 42
2.0320
 43
1.0000
 50
0.0000
  0
CIRCLE
  8
44
 10
78.7400
 20
56.5150
 30
0.0000
 40
0.1750
  0
INSERT
  8
18
  2
ROUNDV
 10
52.0700
 20
31.1150
 30
0.0000
 41
2.0320
 42
2.0320
 43
1.0000
 50
0.0000
  0
CIRCLE
  8
44
 10
52.0700
 20
31.1150
 30
0.0000
 40
0.1750
  0
INSERT
  8
18
  2
ROUNDV
 10
46.3550
 20
74.2950
 30
0.0000
 41
2.0320
 42
2.0320
 43
1.0000
 50
0.0000
  0
CIRCLE
  8
44
 10
46.3550
 20
74.2950
 30
0.0000
 40
0.1750
  0
POLYLINE
  8
16
 66
1
 10
0.0000
 20
0.0000
 30
0.0000
 40
0.0000
 41
0.0000
 70
1
  0
VERTEX
  8
16
 10
59.6900
 20
71.1200
 30
0.0000
  0
VERTEX
  8
16
 10
67.9450
 20
71.1200
 30
0.0000
 42
1.0000
  0
VERTEX
  8
16
 10
67.9450
 20
72.3900
 30
0.0000
  0
VERTEX
  8
16
 10
59.6900
 20
72.3900
 30
0.0000
 42
1.0000
  0
SEQEND
  8
0
  0
POLYLINE
  8
16
 66
1
 10
0.0000
 20
0.0000
 30
0.0000
 40
0.0000
 41
0.0000
 70
1
  0
VERTEX
  8
16
 10
67.4960
 20
71.3060
 30
0.0000
  0
VERTEX
  8
16
 10
80.8310
 20
57.9710
 30
0.0000
 42
1.0000
  0
VERTEX
  8
16
 10
81.7290
 20
58.8690
 30
0.0000
  0
VERTEX
  8
16
 10
68.3940
 20
72.2040
 30
0.0000
 42
1.0000
  0
SEQEND
  8
0
  0
INSERT
  8
18
  2
ROUNDV
 10
59.6900
 20
71.7550
 30
0.0000
 41
2.0320
 42
2.0320
 43
1.0000
 50
0.0000
  0
CIRCLE
  8
44
 10
59.6900
 20
71.7550
 30
0.0000
 40
0.1750
  0
INSERT
  8
18
  2
ROUNDV
 10
74.9300
 20
31.7500
 30
0.0000
 41
2.0320
 42
2.0320
 43
1.0000
 50
0.0000
  0
CIRCLE
  8
44
 10
74.9300
 20
31.7500
 30
0.0000
 40
0.1750
  0
POLYLINE
  8
16
 66
1
 10
0.0000
 20
0.0000
 30
0.0000
 40
0.0000
 41
0.0000
 70
1
  0
VERTEX
  8
16
 10
81.9150
 20
31.7500
 30
0.0000
  0
VERTEX
  8
16
 10
81.9150
 20
58.4200
 30
0.0000
 42
1.0000
  0
VERTEX
  8
16
 10
80.6450
 20
58.4200
 30
0.0000
  0
VERTEX
  8
16
 10
80.6450
 20
31.7500
 30
0.0000
 42
1.0000
  0
SEQEND
  8
0
  0
INSERT
  8
18
  2
ROUNDV
 10
81.2800
 20
31.7500
 30
0.0000
 41
2.0320
 42
2.0320
 43
1.0000
 50
0.0000
  0
CIRCLE
  8
44
 10
81.2800
 20
31.7500
 30
0.0000
 40
0.1750
  0
INSERT
  8
18
  2
ROUNDV
 10
59.6900
 20
51.4350
 30
0.0000
 41
2.0320
 42
2.0320
 43
1.0000
 50
0.0000
  0
CIRCLE
  8
44
 10
59.6900
 20
51.4350
 30
0.0000
 40
0.1750
  0
POLYLINE
  8
16
 66
1
 10
0.0000
 20
0.0000
 30
0.0000
 40
0.0000
 41
0.0000
 70
1
  0
VERTEX
  8
16
 10
43.9928
 20
59.0550
 30
0.0000
  0
VERTEX
  8
16
 10
43.9928
 20
59.8678
 30
0.0000
 42
1.0000
  0
VERTEX
  8
16
 10
42.7228
 20
59.8678
 30
0.0000
  0
VERTEX
  8
16
 10
42.7228
 20
59.0550
 30
0.0000
 42
1.0000
  0
SEQEND
  8
0
  0
POLYLINE
  8
16
 66
1
 10
0.0000
 20
0.0000
 30
0.0000
 40
0.0000
 41
0.0000
 70
1
  0
VERTEX
  8
16
 10
43.8068
 20
59.4188
 30
0.0000
  0
VERTEX
  8
16
 10
45.5340
 20
61.1460
 30
0.0000
 42
1.0000
  0
VERTEX
  8
16
 10
44.6360
 20
62.0440
 30
0.0000
  0
VERTEX
  8
16
 10
42.9088
 20
60.3168
 30
0.0000
 42
1.0000
  0
SEQEND
  8
0
  0
POLYLINE
  8
16
 66
1
 10
0.0000
 20
0.0000
 30
0.0000
 40
0.0000
 41
0.0000
 70
1
  0
VERTEX
  8
16
 10
45.0850
 20
60.9600
 30
0.0000
  0
VERTEX
  8
16
 10
48.8950
 20
60.9600
 30
0.0000
 42
1.0000
  0
VERTEX
  8
16
 10
48.8950
 20
62.2300
 30
0.0000
  0
VERTEX
  8
16
 10
45.0850
 20
62.2300
 30
0.0000
 42
1.0000
  0
SEQEND
  8
0
  0
POLYLINE
  8
16
 66
1
 10
0.0000
 20
0.0000
 30
0.0000
 40
0.0000
 41
0.0000
 70
1
  0
VERTEX
  8
16
 10
48.8950
 20
60.9600
 30
0.0000
  0
VERTEX
  8
16
 10
56.5150
 20
60.9600
 30
0.0000
 42
1.0000
  0
VERTEX
  8
16
 10
56.5150
 20
62.2300
 30
0.0000
  0
VERTEX
  8
16
 10
48.8950
 20
62.2300
 30
0.0000
 42
1.0000
  0
SEQEND
  8
0
  0
POLYLINE
  8
16
 66
1
 10
0.0000
 20
0.0000
 30
0.0000
 40
0.0000
 41
0.0000
 70
1
  0
VERTEX
  8
16
 10
56.5150
 20
60.9600
 30
0.0000
  0
VERTEX
  8
16
 10
64.1350
 20
60.9600
 30
0.0000
 42
1.0000
  0
VERTEX
  8
16
 10
64.1350
 20
62.2300
 30
0.0000
  0
VERTEX
  8
16
 10
56.5150
 20
62.2300
 30
0.0000
 42
1.0000
  0
SEQEND
  8
0
  0
POLYLINE
  8
16
 66
1
 10
0.0000
 20
0.0000
 30
0.0000
 40
0.0000
 41
0.0000
 70
1
  0
VERTEX
  8
16
 10
64.7700
 20
27.3050
 30
0.0000
  0
VERTEX
  8
16
 10
64.1350
 20
27.3050
 30
0.0000
 42
1.0000
  0
VERTEX
  8
16
 10
64.1350
 20
26.0350
 30
0.0000
  0
VERTEX
  8
16
 10
64.7700
 20
26.0350
 30
0.0000
 42
1.0000
  0
SEQEND
  8
0
  0
POLYLINE
  8
16
 66
1
 10
0.0000
 20
0.0000
 30
0.0000
 40
0.0000
 41
0.0000
 70
1
  0
VERTEX
  8
16
 10
63.6860
 20
27.1190
 30
0.0000
  0
VERTEX
  8
16
 10
59.8760
 20
23.3090
 30
0.0000
 42
1.0000
  0
VERTEX
  8
16
 10
60.7740
 20
22.4110
 30
0.0000
  0
VERTEX
  8
16
 10
64.5840
 20
26.2210
 30
0.0000
 42
1.0000
  0
SEQEND
  8
0
  0
POLYLINE
  8
16
 66
1
 10
0.0000
 20
0.0000
 30
0.0000
 40
0.0000
 41
0.0000
 70
1
  0
VERTEX
  8
16
 10
59.8760
 20
23.3090
 30
0.0000
  0
VERTEX
  8
16
 10
56.0660
 20
19.4990
 30
0.0000
 42
1.0000
  0
VERTEX
  8
16
 10
56.9640
 20
18.6010
 30
0.0000
  0
VERTEX
  8
16
 10
60.7740
 20
22.4110
 30
0.0000
 42
1.0000
  0
SEQEND
  8
0
  0
POLYLINE
  8
16
 66
1
 10
0.0000
 20
0.0000
 30
0.0000
 40
0.0000
 41
0.0000
 70
1
  0
VERTEX
  8
16
 10
56.5150
 20
19.6850
 30
0.0000
  0
VERTEX
  8
16
 10
55.2450
 20
19.6850
 30
0.0000
 42
1.0000
  0
VERTEX
  8
16
 10
55.2450
 20
18.4150
 30
0.0000
  0
VERTEX
  8
16
 10
56.5150
 20
18.4150
 30
0.0000
 42
1.0000
  0
SEQEND
  8
0
  0
POLYLINE
  8
16
 66
1
 10
0.0000
 20
0.0000
 30
0.0000
 40
0.0000
 41
0.0000
 70
1
  0
VERTEX
  8
16
 10
41.2750
 20
24.7650
 30
0.0000
  0
VERTEX
  8
16
 10
45.7200
 20
24.7650
 30
0.0000
 42
1.0000
  0
VERTEX
  8
16
 10
45.7200
 20
26.0350
 30
0.0000
  0
VERTEX
  8
16
 10
41.2750
 20
26.0350
 30
0.0000
 42
1.0000
  0
SEQEND
  8
0
  0
POLYLINE
  8
16
 66
1
 10
0.0000
 20
0.0000
 30
0.0000
 40
0.0000
 41
0.0000
 70
1
  0
VERTEX
  8
16
 10
46.1690
 20
24.9510
 30
0.0000
  0
VERTEX
  8
16
 10
48.0740
 20
26.8560
 30
0.0000
 42
1.0000
  0
VERTEX
  8
16
 10
47.1760
 20
27.7540
 30
0.0000
  0
VERTEX
  8
16
 10
45.2710
 20
25.8490
 30
0.0000
 42
1.0000
  0
SEQEND
  8
0
  0
POLYLINE
  8
16
 66
1
 10
0.0000
 20
0.0000
 30
0.0000
 40
0.0000
 41
0.0000
 70
1
  0
VERTEX
  8
16
 10
48.2600
 20
27.3050
 30
0.0000
  0
VERTEX
  8
16
 10
48.2600
 20
28.5750
 30
0.0000
 42
1.0000
  0
VERTEX
  8
16
 10
46.9900
 20
28.5750
 30
0.0000
  0
VERTEX
  8
16
 10
46.9900
 20
27.3050
 30
0.0000
 42
1.0000
  0
SEQEND
  8
0
  0
POLYLINE
  8
16
 66
1
 10
0.0000
 20
0.0000
 30
0.0000
 40
0.0000
 41
0.0000
 70
1
  0
VERTEX
  8
16
 10
48.2600
 20
28.5750
 30
0.0000
  0
VERTEX
  8
16
 10
48.2600
 20
29.8450
 30
0.0000
 42
1.0000
  0
VERTEX
  8
16
 10
46.9900
 20
29.8450
 30
0.0000
  0
VERTEX
  8
16
 10
46.9900
 20
28.5750
 30
0.0000
 42
1.0000
  0
SEQEND
  8
0
  0
POLYLINE
  8
16
 66
1
 10
0.0000
 20
0.0000
 30
0.0000
 40
0.0000
 41
0.0000
 70
1
  0
VERTEX
  8
16
 10
48.0740
 20
29.3960
 30
0.0000
  0
VERTEX
  8
16
 10
49.3440
 20
30.6660
 30
0.0000
 42
1.0000
  0
VERTEX
  8
16
 10
48.4460
 20
31.5640
 30
0.0000
  0
VERTEX
  8
16
 10
47.1760
 20
30.2940
 30
0.0000
 42
1.0000
  0
SEQEND
  8
0
  0
POLYLINE
  8
16
 66
1
 10
0.0000
 20
0.0000
 30
0.0000
 40
0.0000
 41
0.0000
 70
1
  0
VERTEX
  8
16
 10
48.8950
 20
30.4800
 30
0.0000
  0
VERTEX
  8
16
 10
52.0700
 20
30.4800
 30
0.0000
 42
1.0000
  0
VERTEX
  8
16
 10
52.0700
 20
31.7500
 30
0.0000
  0
VERTEX
  8
16
 10
48.8950
 20
31.7500
 30
0.0000
 42
1.0000
  0
SEQEND
  8
0
  0
POLYLINE
  8
16
 66
1
 10
0.0000
 20
0.0000
 30
0.0000
 40
0.0000
 41
0.0000
 70
1
  0
VERTEX
  8
16
 10
55.2450
 20
19.6850
 30
0.0000
  0
VERTEX
  8
16
 10
54.6100
 20
19.6850
 30
0.0000
 42
1.0000
  0
VERTEX
  8
16
 10
54.6100
 20
18.4150
 30
0.0000
  0
VERTEX
  8
16
 10
55.2450
 20
18.4150
 30
0.0000
 42
1.0000
  0
SEQEND
  8
0
  0
POLYLINE
  8
16
 66
1
 10
0.0000
 20
0.0000
 30
0.0000
 40
0.0000
 41
0.0000
 70
1
  0
VERTEX
  8
16
 10
54.1610
 20
19.4990
 30
0.0000
  0
VERTEX
  8
16
 10
52.8910
 20
18.2290
 30
0.0000
 42
1.0000
  0
VERTEX
  8
16
 10
53.7890
 20
17.3310
 30
0.0000
  0
VERTEX
  8
16
 10
55.0590
 20
18.6010
 30
0.0000
 42
1.0000
  0
SEQEND
  8
0
  0
POLYLINE
  8
16
 66
1
 10
0.0000
 20
0.0000
 30
0.0000
 40
0.0000
 41
0.0000
 70
1
  0
VERTEX
  8
16
 10
52.7050
 20
17.7800
 30
0.0000
  0
VERTEX
  8
16
 10
52.7050
 20
13.3350
 30
0.0000
 42
1.0000
  0
VERTEX
  8
16
 10
53.9750
 20
13.3350
 30
0.0000
  0
VERTEX
  8
16
 10
53.9750
 20
17.7800
 30
0.0000
 42
1.0000
  0
SEQEND
  8
0
  0
POLYLINE
  8
16
 66
1
 10
0.0000
 20
0.0000
 30
0.0000
 40
0.0000
 41
0.0000
 70
1
  0
VERTEX
  8
16
 10
52.8910
 20
12.8860
 30
0.0000
  0
VERTEX
  8
16
 10
54.1610
 20
11.6160
 30
0.0000
 42
1.0000
  0
VERTEX
  8
16
 10
55.0590
 20
12.5140
 30
0.0000
  0
VERTEX
  8
16
 10
53.7890
 20
13.7840
 30
0.0000
 42
1.0000
  0
SEQEND
  8
0
  0
POLYLINE
  8
16
 66
1
 10
0.0000
 20
0.0000
 30
0.0000
 40
0.0000
 41
0.0000
 70
1
  0
VERTEX
  8
16
 10
54.6100
 20
11.4300
 30
0.0000
  0
VERTEX
  8
16
 10
76.2000
 20
11.4300
 30
0.0000
 42
1.0000
  0
VERTEX
  8
16
 10
76.2000
 20
12.7000
 30
0.0000
  0
VERTEX
  8
16
 10
54.6100
 20
12.7000
 30
0.0000
 42
1.0000
  0
SEQEND
  8
0
  0
POLYLINE
  8
16
 66
1
 10
0.0000
 20
0.0000
 30
0.0000
 40
0.0000
 41
0.0000
 70
1
  0
VERTEX
  8
16
 10
76.6490
 20
11.6160
 30
0.0000
  0
VERTEX
  8
16
 10
81.0940
 20
16.0610
 30
0.0000
 42
1.0000
  0
VERTEX
  8
16
 10
80.1960
 20
16.9590
 30
0.0000
  0
VERTEX
  8
16
 10
75.7510
 20
12.5140
 30
0.0000
 42
1.0000
  0
SEQEND
  8
0
  0
POLYLINE
  8
16
 66
1
 10
0.0000
 20
0.0000
 30
0.0000
 40
0.0000
 41
0.0000
 70
1
  0
VERTEX
  8
16
 10
81.2800
 20
16.5100
 30
0.0000
  0
VERTEX
  8
16
 10
81.2800
 20
23.4950
 30
0.0000
 42
1.0000
  0
VERTEX
  8
16
 10
80.0100
 20
23.4950
 30
0.0000
  0
VERTEX
  8
16
 10
80.0100
 20
16.5100
 30
0.0000
 42
1.0000
  0
SEQEND
  8
0
  0
POLYLINE
  8
16
 66
1
 10
0.0000
 20
0.0000
 30
0.0000
 40
0.0000
 41
0.0000
 70
1
  0
VERTEX
  8
16
 10
81.0940
 20
23.0460
 30
0.0000
  0
VERTEX
  8
16
 10
84.2690
 20
26.2210
 30
0.0000
 42
1.0000
  0
VERTEX
  8
16
 10
83.3710
 20
27.1190
 30
0.0000
  0
VERTEX
  8
16
 10
80.1960
 20
23.9440
 30
0.0000
 42
1.0000
  0
SEQEND
  8
0
  0
POLYLINE
  8
16
 66
1
 10
0.0000
 20
0.0000
 30
0.0000
 40
0.0000
 41
0.0000
 70
1
  0
VERTEX
  8
16
 10
84.4550
 20
26.6700
 30
0.0000
  0
VERTEX
  8
16
 10
84.4550
 20
59.0550
 30
0.0000
 42
1.0000
  0
VERTEX
  8
16
 10
83.1850
 20
59.0550
 30
0.0000
  0
VERTEX
  8
16
 10
83.1850
 20
26.6700
 30
0.0000
 42
1.0000
  0
SEQEND
  8
0
  0
POLYLINE
  8
16
 66
1
 10
0.0000
 20
0.0000
 30
0.0000
 40
0.0000
 41
0.0000
 70
1
  0
VERTEX
  8
16
 10
84.2690
 20
59.5040
 30
0.0000
  0
VERTEX
  8
16
 10
76.0140
 20
67.7590
 30
0.0000
 42
1.0000
  0
VERTEX
  8
16
 10
75.1160
 20
66.8610
 30
0.0000
  0
VERTEX
  8
16
 10
83.3710
 20
58.6060
 30
0.0000
 42
1.0000
  0
SEQEND
  8
0
  0
POLYLINE
  8
16
 66
1
 10
0.0000
 20
0.0000
 30
0.0000
 40
0.0000
 41
0.0000
 70
1
  0
VERTEX
  8
16
 10
64.1350
 20
60.9600
 30
0.0000
  0
VERTEX
  8
16
 10
66.0400
 20
60.9600
 30
0.0000
 42
1.0000
  0
VERTEX
  8
16
 10
66.0400
 20
62.2300
 30
0.0000
  0
VERTEX
  8
16
 10
64.1350
 20
62.2300
 30
0.0000
 42
1.0000
  0
SEQEND
  8
0
  0
POLYLINE
  8
16
 66
1
 10
0.0000
 20
0.0000
 30
0.0000
 40
0.0000
 41
0.0000
 70
1
  0
VERTEX
  8
16
 10
69.8500
 20
57.1500
 30
0.0000
  0
VERTEX
  8
16
 10
69.8500
 20
49.5300
 30
0.0000
 42
1.0000
  0
VERTEX
  8
16
 10
71.1200
 20
49.5300
 30
0.0000
  0
VERTEX
  8
16
 10
71.1200
 20
57.1500
 30
0.0000
 42
1.0000
  0
SEQEND
  8
0
  0
POLYLINE
  8
16
 66
1
 10
0.0000
 20
0.0000
 30
0.0000
 40
0.0000
 41
0.0000
 70
1
  0
VERTEX
  8
16
 10
70.0360
 20
49.9790
 30
0.0000
  0
VERTEX
  8
16
 10
68.7660
 20
48.7090
 30
0.0000
 42
1.0000
  0
VERTEX
  8
16
 10
69.6640
 20
47.8110
 30
0.0000
  0
VERTEX
  8
16
 10
70.9340
 20
49.0810
 30
0.0000
 42
1.0000
  0
SEQEND
  8
0
  0
POLYLINE
  8
16
 66
1
 10
0.0000
 20
0.0000
 30
0.0000
 40
0.0000
 41
0.0000
 70
1
  0
VERTEX
  8
16
 10
69.2150
 20
48.8950
 30
0.0000
  0
VERTEX
  8
16
 10
67.9450
 20
48.8950
 30
0.0000
 42
1.0000
  0
VERTEX
  8
16
 10
67.9450
 20
47.6250
 30
0.0000
  0
VERTEX
  8
16
 10
69.2150
 20
47.6250
 30
0.0000
 42
1.0000
  0
SEQEND
  8
0
  0
POLYLINE
  8
16
 66
1
 10
0.0000
 20
0.0000
 30
0.0000
 40
0.0000
 41
0.0000
 70
1
  0
VERTEX
  8
16
 10
65.5910
 20
61.1460
 30
0.0000
  0
VERTEX
  8
16
 10
67.4960
 20
59.2410
 30
0.0000
 42
1.0000
  0
VERTEX
  8
16
 10
68.3940
 20
60.1390
 30
0.0000
  0
VERTEX
  8
16
 10
66.4890
 20
62.0440
 30
0.0000
 42
1.0000
  0
SEQEND
  8
0
  0
POLYLINE
  8
16
 66
1
 10
0.0000
 20
0.0000
 30
0.0000
 40
0.0000
 41
0.0000
 70
1
  0
VERTEX
  8
16
 10
67.4960
 20
59.2410
 30
0.0000
  0
VERTEX
  8
16
 10
70.0360
 20
56.7010
 30
0.0000
 42
1.0000
  0
VERTEX
  8
16
 10
70.9340
 20
57.5990
 30
0.0000
  0
VERTEX
  8
16
 10
68.3940
 20
60.1390
 30
0.0000
 42
1.0000
  0
SEQEND
  8
0
  0
INSERT
  8
18
  2
ROUNDV
 10
60.3250
 20
22.8600
 30
0.0000
 41
2.0320
 42
2.0320
 43
1.0000
 50
0.0000
  0
CIRCLE
  8
44
 10
60.3250
 20
22.8600
 30
0.0000
 40
0.1750
  0
INSERT
  8
18
  2
ROUNDV
 10
75.5650
 20
67.3100
 30
0.0000
 41
2.0320
 42
2.0320
 43
1.0000
 50
0.0000
  0
CIRCLE
  8
44
 10
75.5650
 20
67.3100
 30
0.0000
 40
0.1750
  0
INSERT
  8
18
  2
ROUNDV
 10
67.9450
 20
59.6900
 30
0.0000
 41
2.0320
 42
2.0320
 43
1.0000
 50
0.0000
  0
CIRCLE
  8
44
 10
67.9450
 20
59.6900
 30
0.0000
 40
0.1750
  0
ENDSEC
  0
EOF
